<?xml version="1.0" encoding="UTF-8" ?>
<!DOCTYPE svg PUBLIC "-//W3C//DTD SVG 1.1//EN" "http://www.w3.org/Graphics/SVG/1.1/DTD/svg11.dtd">
<svg width="512pt" height="512pt" viewBox="0 0 512 512" version="1.1" xmlns="http://www.w3.org/2000/svg">
<g id="#000000ff">
<path fill="#000000" opacity="1.00" d=" M 240.48 0.00 L 271.52 0.00 C 305.63 2.78 339.48 11.30 370.02 26.95 C 427.88 55.63 474.19 107.04 496.25 167.78 C 505.32 191.06 509.25 215.88 512.00 240.59 L 512.00 271.52 C 509.48 300.85 503.10 330.10 491.04 357.05 C 460.60 428.83 395.52 484.80 319.89 503.89 C 304.02 508.08 287.66 509.99 271.41 512.00 L 240.48 512.00 C 210.13 509.37 179.90 502.60 152.15 489.81 C 78.12 457.38 21.54 387.84 5.47 308.56 C 3.11 296.26 1.47 283.84 0.00 271.41 L 0.00 240.59 C 1.95 224.58 3.95 208.51 7.82 192.83 C 17.94 153.54 37.50 116.76 64.36 86.35 C 87.04 61.75 113.57 40.23 143.98 25.96 C 174.03 11.07 207.12 2.75 240.48 0.00 M 269.03 116.94 C 250.41 118.29 231.97 128.62 223.91 145.94 C 212.82 166.52 216.71 190.60 215.97 212.95 C 206.33 213.06 196.68 212.96 187.04 213.05 C 186.92 230.35 186.93 247.65 187.04 264.95 C 196.68 265.06 206.32 264.96 215.97 265.05 C 216.10 314.36 215.90 363.66 216.03 412.97 C 236.67 413.06 257.32 413.04 277.97 412.97 C 278.10 363.66 277.90 314.34 278.03 265.03 C 291.95 265.00 305.88 265.00 319.81 264.95 C 321.34 247.62 323.49 230.36 324.97 213.03 C 309.33 212.96 293.69 213.03 278.05 212.98 C 278.00 201.13 277.43 189.24 278.52 177.42 C 278.87 173.97 280.85 170.45 284.28 169.27 C 296.98 164.69 310.77 167.81 323.94 166.97 C 323.85 150.43 324.54 133.87 323.75 117.34 C 323.47 117.07 322.92 116.53 322.65 116.26 C 304.79 115.65 286.84 115.50 269.03 116.94 Z" />
</g>
</svg>
