<?xml version="1.0" encoding="utf-8"?>
<!-- Generator: Adobe Illustrator 24.0.0, SVG Export Plug-In . SVG Version: 6.00 Build 0)  -->
<svg version="1.1" id="Layer_1" xmlns="http://www.w3.org/2000/svg" xmlns:xlink="http://www.w3.org/1999/xlink" x="0px" y="0px"
	 viewBox="0 0 1000 1000" style="enable-background:new 0 0 1000 1000;" xml:space="preserve">
<style type="text/css">
	.st0{fill:#FFFFFF;}
	.st1{fill:#007CFE;}
	.st2{fill:#007DFE;}
	.st3{fill:#27DEBF;}
	.st4{fill:#87A9ED;}
	.st5{fill:#E1E1E1;}
	.st6{fill:#F5F5F5;}
	.st7{fill:#95BEFE;}
	.st8{fill:#F0F5FE;}
	.st9{fill:#1A2E35;}
	.st10{fill:#258AFF;}
	.st11{fill:#017CFE;}
	.st12{fill:#FF8C7A;}
	.st13{fill:#FF5652;}
	.st14{fill:#EA7064;}
	.st15{fill:#EA7063;}
	.st16{fill:#6E94BA;}
	.st17{fill:#0062D1;}
	.st18{fill:#014DA7;}
	.st19{fill:#5B5D60;}
	.st20{fill:#FF6C66;}
	.st21{fill:#004DA7;}
	.st22{fill:#002D68;}
	.st23{fill:#0162D0;}
	.st24{fill:#FAFAFA;}
	.st25{fill:#7AB2FF;}
	.st26{fill:#E7E7E7;}
	.st27{fill:#E1E8F2;}
	.st28{fill:#5B9FFF;}
	.st29{fill:#F0F4FF;}
	.st30{fill:#4067A0;}
	.st31{fill:#64A5FF;}
	.st32{fill:#EDF1FC;}
	.st33{fill:#F0F0F0;}
	.st34{fill:#FF8B7B;}
	.st35{fill:#DFE4EA;}
</style>
<g>
	<g>
		<path class="st0" d="M0,0h1000v1000H0V0z M476.88,141.16c0.01,0.52,0.02,1.54,0.03,2.05c4.09-0.05,8.19,0.17,12.29-0.05
			c0.21-0.48,0.63-1.45,0.84-1.93C485.65,141.11,481.26,141.17,476.88,141.16z M415.22,150.36c-0.14,2.24-0.25,4.48-0.33,6.72
			c-0.14,2.29-0.3,4.58-0.38,6.88c-4.45-0.15-8.9-0.1-13.35,0.17c-0.2,9.3-1.57,18.53-1.12,27.84c-0.63,8-1.26,16-1.12,24.05
			c-1.32,8.58-0.5,17.27-1.27,25.89c-1.24,7.43-0.04,15.01-1.15,22.45c-1.01,7.4,0.21,14.91-0.91,22.3
			c-1.2,8.21,0.01,16.56-1.12,24.77c-0.91,7.38,0.06,14.85-0.93,22.23c-1.07,7.46,0.05,15.06-1.15,22.52
			c-0.96,6.53,0.24,13.15-0.72,19.67c-1.01,6.54-0.49,13.18-0.7,19.78c-3.03,0.08-6.1-0.28-9.1,0.19c-3.09,2.19-5.94,4.71-8.74,7.26
			c-2.57,2.29-2.73,5.92-3.77,8.98c-4.59,13.13-9.27,26.25-14.93,38.98c-3.24-6.9-5.63-14.17-8.44-21.25
			c1.59-1.35,3.17-2.71,4.76-4.06c-2.78-6.73-5.78-13.46-10.11-19.36c-1.72-2.15-3.64-4.61-6.5-5.17
			c-6.22-1.36-12.54-2.24-18.83-3.18c-1.81-6.81-9.95-6.76-15.63-6.46c-0.4-1.48-0.79-2.95-1.18-4.41
			c7.79-0.32,15.54-1.29,23.17-2.91c-1.9-3.77-3.68-7.61-4.94-11.65c3.01-3.66,4.04-8.5,4.18-13.13c0.86-0.56,3.7-0.51,2.9-2.17
			c-0.63-1.69-1.5-3.28-2.36-4.86c0.08-1.13,0.05-2.26,0.02-3.39c1.08-0.91,2.02-5.53-0.48-3.85c-0.27-1.68-0.7-3.32-1.1-4.97
			l1.9-0.34c-0.06-1.88-0.12-3.76-0.21-5.63c1.43,1.76,2.92,3.48,4.58,5.04c-1.08-11.33-10.74-20.25-21.63-22.3
			c1.43-0.58,2.91-1.16,4.49-1.09c21.59-0.04,43.2,0.15,64.79-0.11c0.46-9.94,0-19.89,0.18-29.83c-0.12-20.57,0.25-41.15-0.15-61.72
			c-24.94-0.3-49.89-0.01-74.84-0.14c-5.96,0.33-11.93-0.77-17.87-0.01c-0.26,29.31,0.1,58.62-0.14,87.93
			c-0.06,1.48,0.16,3,1.01,4.26l-0.01,0.76c-5.09,1.35-10.81,4.8-11.04,10.67c-2.61,1.26-5.4,2.8-6.44,5.71
			c-2.76,7.27-0.53,15.13,0.37,22.54c1.02,9.58,1.46,19.86-2.97,28.72c7.02,1.2,14.12,2.05,21.24,2.4c-0.48,2.1-0.99,4.19-1.52,6.29
			c-3.18,0.56-7.68,0.21-8.53,4.22c-7.05,0.74-14.11,1.61-21.03,3.18c-2.31,0.45-3.66,2.58-4.87,4.4
			c-3.82,6.39-5.96,13.59-8.13,20.67c0.62,0.42,1.86,1.28,2.48,1.71c-0.96,3.83-2.7,7.4-3.95,11.14
			c-4.71,13.32-8.27,27.14-9.43,41.26c-0.48,4.47,0.76,9,3.1,12.81c-10.88,0.23-21.82,0.53-32.68-0.2c4.93-2.07,6.84-7.6,7.14-12.54
			c0.64-11.84-2.94-23.3-4.59-34.9c-0.58-9.85,1.74-19.56,2.89-29.29c-6.07-0.24-12.14-0.32-18.2-0.03
			c0.87,9.09,2.97,18.08,2.88,27.25c-0.08,4.32-1.18,8.52-2.1,12.72c-17.8,0.48-35.63-0.02-53.43,0.35
			c-0.6,8.38-0.41,17.34,3.79,24.86c3.42,6.04,9.78,9.37,16.01,11.8c-4.03,0.68-8.02-0.11-11.97-0.87
			c-6.99-0.32-13.99,0.03-20.98-0.09c-2.8,0.03-5.74-0.43-8.37,0.79c-1.57,0-3.14,0.15-4.71,0.27c-0.16,86.7-0.08,173.4-0.08,260.1
			c0.17,5.22-0.44,10.47,0.28,15.68c12.2-0.05,24.39-0.04,36.59-0.04l-0.01-0.7c3.96,0.68,7.73-0.17,11.29-1.79
			c25.98-0.15,51.98-0.02,77.97-0.09c2.76-0.11,5.55-0.02,8.27,0.55c-1.63,3.42-0.09,8.39,4.02,8.94
			c6.62,0.49,13.27-0.27,19.89,0.32c0.47,12.71,0.04,25.43,0.17,38.14c-8.7,1.59-17.57,0.52-26.29,1.72
			c-5.7,0.57-11.46-0.04-17.13,0.94c-26.7,1.53-53.39,3.56-79.96,6.99c-9.17,1.52-18.63,2.41-27.27,6.05
			c-0.91,0.61-2.79,0.97-2.49,2.42c-0.38,1.95,1.83,2.63,3.16,3.43c5.92,2.54,12.4,3.22,18.65,4.56c21.55,3.36,43.31,5.1,65.02,6.85
			c7.04,0.02,13.99,1.3,21.04,1.11c6.3,0.97,12.65,0.9,19,1.11c8.03,1.4,16.23,0.19,24.28,1.38c7.88,1.02,15.88-0.22,23.74,1.08
			c10.27,0.82,20.63-0.22,30.86,1.11c12.03,0.61,24.12-0.35,36.1,1.1c13.97,0.15,27.94,0.17,41.92,0.22
			c15.59,1.66,31.31,0.45,46.97,0.92c44.36,0.05,88.72,0.11,133.08-0.08c8.99-0.07,18.02,0.35,26.97-0.79
			c14.34-0.12,28.69-0.12,43.04-0.22c13.92-1.92,28.05,0.01,41.99-1.71c8.26-0.44,16.57,0.17,24.81-0.55
			c7.86-1.33,15.86-0.01,23.74-1.1c7.48-1.13,15.1,0.06,22.58-1.17c6.92-0.66,13.91-0.17,20.8-1.29c7.07,0.29,14.03-1.19,21.09-1.1
			c25.39-2.33,51-3.67,76-9.06c3.44-0.86,7.1-1.64,9.95-3.89c1.38-0.83,1.24-3.13-0.31-3.66c-4-2.02-8.41-3.11-12.76-4.08
			c-28.33-5.31-57.19-6.88-85.85-9.08c-0.54-0.01-1.63-0.03-2.17-0.04c-0.8-5-1.6-10-2.37-15c-0.13-0.77-0.37-2.29-0.49-3.05
			c2.49-0.01,4.99-0.01,7.49,0c-0.31-2.62-0.62-5.23-0.94-7.84c-0.31-0.01-0.92-0.03-1.22-0.04c-0.62-6.35-1.3-12.7-2.03-19.04
			c0.24-1.3,0.69-2.5,1.33-3.62c3.4-0.67,6.9-0.28,10.36-0.34c8.95,0.14,17.92-0.3,26.86,0.33c1.18-18.16,3.1-36.28,4.13-54.44
			c1.88-0.2,5.58,0.64,5.74-2.17c0.23-5.94,1.46-11.79,1.81-17.72c-0.21-0.23-0.63-0.69-0.84-0.91c-13.47-0.63-27.02,0.24-40.51-0.4
			c-0.18-5.65,0.02-11.3-0.14-16.95c7.59-0.62,15.25-0.11,22.88-0.23c30-0.19,60.01,0.24,90-0.24c-3.65-0.26-7.3-0.24-10.94-0.21
			c-31.65-0.02-63.3,0-94.95,0.03c-2.59-0.08-5.34,0.32-7.68-1.01c4.96-14.28,11.14-28.13,18.49-41.34
			c6.19-12.46,13.12-24.54,18.85-37.22c6.36-12.91,12.73-25.87,17.74-39.38c0.86-3.08,2.82-6.29,1.59-9.54
			c-3.86,2.04-6.72,5.4-9.82,8.38c-12.49,12.16-22.76,26.4-31.68,41.32c-7.19,12.21-11.34,25.91-14.11,39.73
			c-0.45-1.04-0.71-2.11-0.77-3.21c-0.15-17.02,0.24-34.05,0.07-51.07c0.06-3.67-0.49-7.57,1.23-10.97
			c9.52-21.13,17.48-42.92,27.07-64.02c16.1-35.42,31.05-71.41,43.61-108.24c2.03-6.92,5.25-13.68,5.33-21
			c-4.65,3.44-7.62,8.55-10.89,13.2c-15.79,25.15-30.18,51.18-43.37,77.78c-11.79,27.09-18.99,56.07-22.33,85.39
			c-0.31-2.02-0.53-4.06-0.54-6.1c0.3-37.32,0.02-74.65,1.49-111.94c-0.14-3.95,2.32-7.17,4.42-10.27
			c8.97-12.41,14.13-26.97,20.11-40.94c8.8-19.38,14.59-39.97,19.49-60.64c1.46-7.16,3.4-14.3,3.51-21.65
			c-4.17,2.03-6.87,6.04-9.73,9.53c-7.35,10.14-12.95,21.4-18.44,32.61c-6.66,14.8-14.78,29.18-18.04,45.24
			c-3.45,15.66-2.3,31.8-4.11,47.65c-0.92,12.79-0.76,25.64-1.24,38.46c-0.11,1.05-0.38,2.07-0.79,3.05
			c-2.06-12.99-5.42-25.86-10.95-37.84c-4.48-9.58-10.82-18.13-17.41-26.35c-1.01-1.24-2.22-2.27-3.43-3.29
			c-0.01-7.66,0.3-15.32,0.49-22.98c0.34-7.39,0.87-14.77,1.32-22.16c1.25-2.36,2.39-4.77,3.59-7.15c1.29,0.52,2.59,1.05,3.9,1.58
			c6.35-7.79,12.06-16.35,15.16-25.98c1.96-6.06,2.47-12.92-0.26-18.83c-2.25-5.45-6.82-10.38-12.85-11.35
			c-8.37-1.55-16.84-2.79-25.35-3.21l-0.58,0.33c-4.99-6.1-4.86-14.52-4.24-21.95c29.37-0.09,58.74,0.03,88.11-0.08
			c1.85,0.29,3.08-1.09,2.8-2.9c0.04-36.31-0.02-72.63,0.07-108.94c0.56-2.44-2-3.19-3.89-2.95c-34.87,0.03-69.74,0.03-104.61,0.01
			c-2.45,0.08-4.88,0.13-7.32,0.18c-0.37,16.86-0.25,33.75-0.09,50.62c-2.99-0.06-7.14-0.48-8.27-3.8
			c-1.08-5.65,5.63-8.77,5.74-14.11c-1.26-3.75-6.18-2.6-9.2-2.96c1.43,1.75,3.48,3.92,2.24,6.36c-2.61,6.12-10.5,6.86-13.77,12.37
			c-2.97,4.84-1.29,11.24,2.42,15.19c1.9,2.5,4.98,3.68,7.25,5.69c-1.83,6.38-2.29,13.06-1.71,19.65c-4.16,3.4-2.22,9.89,1.98,12.34
			c1.38,4.39,3.07,8.96,6.68,12.04c3.44,3.29,8.14,4.67,12.78,5.16c0.37,3.93,0.54,8.23-1.76,11.66c-2.18,3.53-6.24,5.19-10.11,6.11
			c-7.71,0.69-15.35,2.13-22.84,4.07c-7.76,2.51-12.72,9.67-16.08,16.72c-3.28,6.66-6.69,13.29-9.42,20.21
			c0.55,0.29,1.65,0.87,2.2,1.16c-4.98,7.71-9.65,15.73-15.84,22.56c-1.71,2.12-4.31,3.02-6.82,3.78
			c3.29-73.18,6.47-146.37,9.86-219.54c-17.1-0.35-34.21-0.05-51.3-0.15C538.42,150.37,476.82,150.43,415.22,150.36z M136.31,151.11
			c0.17,40.81-0.15,81.64,0.14,122.43c2.47,1.34,5.73,0.35,8.5,0.4c36.7,0.26,73.4-0.04,110.1,0.15c1.91-0.02,3.82-0.15,5.74-0.27
			c0.27-6.27,0.12-12.54,0.14-18.8c-0.16-34.64,0.15-69.28-0.14-103.92c-2.91-0.11-5.83-0.19-8.74-0.16
			c-35.72,0.17-71.44-0.15-107.16,0.13C142.04,150.79,139.16,150.8,136.31,151.11z M655.28,223.03c-0.83,11.4-1.14,22.86-1.61,34.29
			c0.5-0.13,1.51-0.39,2.02-0.51c0.61-11.32,1.22-22.65,1.46-33.98l-1.36-0.43L655.28,223.03z"/>
	</g>
	<g>
		<path class="st0" d="M155,161.08c31-0.45,62.03-0.09,93.04-0.23c1.4-0.25,3.31,0.27,2.99,2.1c-0.17,33.66,0.19,67.32-0.16,100.98
			c-3.3,0.22-6.61,0.31-9.91,0.26c-28.64-0.2-57.28,0.22-85.91-0.22c-0.43-26.67-0.09-53.35-0.18-80.03
			C155,176.32,154.58,168.7,155,161.08z M178.08,186.09c-0.13,17.61-0.24,35.25,0.04,52.86c16.57,0.21,33.17,0.23,49.73-0.06
			c0.02-17.61,0.12-35.22-0.09-52.82C211.21,185.9,194.63,185.82,178.08,186.09z"/>
	</g>
	<path class="st0" d="M733.01,174.2c29.64-0.27,59.29-0.16,88.94-0.06c0.28,6.93,0.14,13.87,0.18,20.81
		c-0.1,25.29,0.2,50.59-0.19,75.88c-26.59,0.23-53.19,0.07-79.78,0.09c0.08-0.33,0.25-0.99,0.33-1.32c3.49-1.59,7.28-3.17,9.38-6.58
		c1.65-2.11,1.27-4.91,1.43-7.41c1.08-2.74,0.5-5.66,0.79-8.5c0.69-1.97,2.55-3.15,4.07-4.44c4.2,3.63,9.15,6.88,14.83,7.35
		c5.15,0.37,10.59,0.51,15.4-1.71c7.99-3.18,14.21-10.36,16.21-18.73c2.21-7.83,0.45-16.5-4.04-23.2
		c-5.25-6.95-13.61-12.01-22.52-11.59c-6.88-0.54-13.61,2.08-18.81,6.49c-3.87,3.06-5.69,7.83-8.98,11.4
		c-4.57-3.99-11.86-6.49-17.09-2.26C732.65,198.36,732.92,186.27,733.01,174.2z"/>
	<g>
		<path class="st0" d="M492.01,211.9c15.97-8.87,36.66-8.64,52.13,1.23c-1.01,4.64-0.04,9.89,3.57,13.2
			c3.15,3.2,7.89,3.99,12.19,3.33c10.13,17.68,8.04,41.21-4.68,57.05c-10.17-10.46-24.85-15.61-39.26-15.83
			c-15.5-0.42-31.46,4.51-43.02,15.07l-0.96,0.77c-7.39-10.86-9.96-24.72-7.39-37.56C467.5,233.44,478.01,219.48,492.01,211.9z
			 M511.45,219.49c-8.86,2.17-15.89,10.35-16.43,19.49c-0.56,6.34,2.08,12.87,7.03,16.91c6.25,5.3,15.73,5.87,22.85,2
			c6.89-3.61,11.63-11.1,11.64-18.92c0.17-6.34-2.91-12.67-8.08-16.36C523.64,219.05,517.21,218.05,511.45,219.49z"/>
	</g>
	<g>
		<path class="st0" d="M295.19,231.25c23.87-0.2,47.76-0.13,71.63-0.03c0.29,25.88,0.19,51.76,0.02,77.64
			c-23.87,0.01-47.74,0.1-71.61-0.05C294.95,282.96,294.98,257.1,295.19,231.25z M323.17,264.22c-3.61,5.8-6.79,11.84-10.43,17.62
			c-0.54,0.79-1.54,3.11,0.3,2.93c12.35,0.12,24.71,0.16,37.07-0.01c-2.41-7.24-7.41-13.27-10.82-20.05
			c-2.86-4.51-4.93-9.55-8.28-13.71C327.74,254.98,325.82,259.84,323.17,264.22z"/>
	</g>
	<path class="st0" d="M693.6,347.43c0.89-8.79,7.42-18.11,16.99-18.16l-0.54,2.04c-6.27,0.81-11.31,5.71-13.1,11.66
		C696.07,344.75,696.62,348.21,693.6,347.43z"/>
	<path class="st0" d="M706.09,363.92c8.36-0.46,13.19-8.54,14.7-15.94c0.52,0,1.54,0.01,2.05,0.01
		c-1.06,8.64-7.28,17.66-16.65,18.12C706.17,365.56,706.11,364.47,706.09,363.92z"/>
	<g>
		<path class="st0" d="M658.13,386.23c7.13-4.92,11.91-12.31,17.33-18.88c-0.67,12.26-0.53,24.55,0.08,36.82
			c-7.57,3.39-15,7.14-22.05,11.49c-1.32,1.35,0.83,2.25,1.69,3.09c2.75-0.47,5.14-2.06,7.74-2.99c3.44-1.78,6.19,2.35,9.03,3.78
			c1.57-0.31,3.15-0.61,4.73-0.97c0.19,1.89,0.39,3.8,0.6,5.7c0.41,3.89,1.05,7.76,1.38,11.67c-4.99,47.94-10.18,95.88-13.39,143.97
			c-0.66,12.34-1.82,24.75-0.39,37.07c2.12,19.78,6.38,39.25,10.81,58.62c9.18,38.93,20.1,77.43,31.73,115.7
			c-1.2,0.48-2.38,0.98-3.49,1.61c1.14,2.82,2.74,5.44,4.2,8.11c2.2-0.94,4.4-1.87,6.6-2.79c0.49,1.33,0.99,2.66,1.51,4
			c1.24,3.18,2.48,6.36,3.6,9.59c-1.26,0.68-2.44,1.46-3.58,2.31c-0.09-0.51-0.28-1.53-0.37-2.04c-1.39,4.43-3.78,0.29-5.39-1.23
			c1.28,0.21,3.84,0.63,5.12,0.83c-1.55-1.52-3.7-1.35-5.64-1.66c0.14,0.67,0.42,2,0.56,2.67c-6.85,0.61-13.72,0.4-20.57,0.1
			c-13.63-1.61-27.4,0.04-41.03-1.54c-14.32-0.52-28.67-0.03-42.99-0.43c-9.29-1.06-18.64-0.61-27.97-0.75
			c-58.33-0.22-116.67-0.18-175,0.08c-17.6,1.57-35.31,0.38-52.95,1.16c-12.98,1.41-26.09-0.08-39.06,1.39
			c-8.26,0.7-16.58-0.12-24.83,0.69c-3.1,0.31-6.2,0.54-9.31,0.69c0.18-12.77-0.11-25.54,0.14-38.3c6.34-0.43,12.7,0.09,19.05-0.13
			c2.28-0.04,3.9-1.9,5.69-3.06c4.47,3.07,8.59,6.67,13.27,9.44c2.35,1.42,5.91,0.63,6.89-2.1c0.24-1.87-1.5-3.05-2.47-4.39
			c-3.79-4.18-6.96-8.98-8.78-14.35c1.46,0.55,2.95,1.09,4.44,1.6c0.04,1.78,0.08,3.56,0.13,5.35c6.55,0.33,13.13,0.5,19.68-0.07
			c-0.16-13.53,0.49-27.08-0.37-40.58c1.92-2.43,3.81-4.89,5.73-7.32c1.4,8.9,0.09,17.93,0.74,26.89
			c54.68,0.34,109.36,0.04,164.05,0.16c7.69-0.17,15.4,0.31,23.08-0.21c0.78-1.16,0.44-2.69,0.58-3.99
			c-0.19-12.69-0.01-25.38-0.07-38.07c0.28-1.73-0.89-2.59-2.53-2.22c-55.36,0.03-110.73-0.06-166.09,0.03
			c-2.2-0.06-4.39-0.26-6.58-0.48c1.48-2.1,2.92-4.22,4.37-6.33c24.72,0.54,49.45,0.15,74.17,0.25c30.02,0.08,60.04-0.06,90.06,0.05
			c2.22-0.04,4.45-0.19,6.67-0.34c-0.17-13.57-0.05-27.15-0.02-40.72c2.12-0.05,4.24-0.1,6.37-0.13
			c26.56-0.14,53.12,0.22,79.67-0.16c0.76-4.32,1.28-8.69,1.45-13.08c4.5,0.02,9,0.24,13.5,0.09c0.19-4.68,0.29-9.36,0.28-14.03
			c3.51-78.52,7.01-157.04,10.53-235.57C646.5,390.85,652.76,389.5,658.13,386.23z M490.85,753.93c-0.2,4.75-0.28,9.52,0.05,14.28
			c11.73,0.29,23.5,0.35,35.24-0.05c-1.54-4.77-3.01-9.62-5.22-14.1C510.93,753.43,500.86,753.7,490.85,753.93z"/>
	</g>
	<g>
		<path class="st0" d="M408.84,378.15c67.11-0.07,134.23,0.01,201.34-0.04c-0.21,12.56-1.07,25.11-1.51,37.68
			c-67.19,0.2-134.38,0.05-201.56,0.07C407.71,403.29,408.09,390.71,408.84,378.15z M422.38,391.39c-4.38,1.52-5.51,8.24-1.42,10.74
			c3.85,2.77,9.73-0.56,9.68-5.22C430.93,392.73,426.11,389.57,422.38,391.39z M449.3,391.4c-4.38,1.59-5.44,8.37-1.27,10.82
			c3.85,2.61,9.59-0.66,9.56-5.25C457.99,392.73,453.06,389.56,449.3,391.4z M476.31,391.39c-4.11,1.48-5.41,7.53-1.95,10.36
			c3.7,3.36,10.36,0.14,10.18-4.83C484.94,392.71,480.02,389.59,476.31,391.39z"/>
	</g>
	<path class="st0" d="M384.81,399.87c1.77-0.32,3.55-0.64,5.33-0.94c-0.1,8.07,0.23,16.18-0.72,24.22
		c-0.81,7.06,0.09,14.2-0.93,21.24c-1.06,7.39,0.07,14.87-0.9,22.27c-0.97,7.54-0.12,15.18-1.1,22.73
		c-0.97,7.63-0.01,15.35-1.01,22.97c-0.94,7.07,0.03,14.22-0.92,21.28c-0.96,7.05-0.19,14.19-0.86,21.26
		c-1.25,11.54-0.15,23.24-2.38,34.7c-12.92-32.7-31.96-62.59-52.41-91.04c-0.2-2.46-0.22-4.94-0.85-7.33
		c0.1-3.38,0.66-6.71,1.21-10.04c1.89-12.29,3.53-24.61,5.01-36.96c3.3,7.17,6.41,14.43,10.06,21.43c1.59,3.29,4.89,5.88,8.67,5.76
		c3.73,0.07,6.94-2.43,8.91-5.42c3.26-4.88,5.19-10.48,7.06-15.99c3.63-11.35,6.3-22.98,8.5-34.68c2.05-1.17,4.35-2.07,5.94-3.87
		c1.69-2.22,2.82-4.79,4.11-7.24C386.61,402.76,385.71,401.32,384.81,399.87z"/>
	<path class="st0" d="M255.66,437c1.38,0.91,2.76,1.8,4.16,2.7c1.66,8.96,2.76,18.02,3.39,27.12c-0.02,7.39,0.44,14.8-0.03,22.18
		c-0.14,3.91-4.69,7.51-1.93,11.32c-0.44,1.09-0.86,2.19-1.26,3.31c-6.5-6.05-14.75-11.69-17.3-20.6
		C244.27,467.1,249.94,451.86,255.66,437z"/>
	<path class="st0" d="M759.94,444.63c2.3,2.6,4.16,5.55,5.95,8.53c9.14,14.16,18.32,28.43,25.01,43.96
		c1.64,3.73,1.27,7.89,1.22,11.86c-0.49,36.01-0.26,72.02-0.6,108.03c-3.89-17.43-7.77-35.02-15.05-51.42
		c-3.38-7.34-6.25-14.93-10.37-21.89C763.87,510.69,761.95,477.65,759.94,444.63z"/>
	<g>
		<path class="st0" d="M404.19,479.8c49.92-0.42,99.86-0.06,149.79-0.18c17.27,0.15,34.55-0.29,51.81,0.21
			c-0.63,12.49-0.99,25-1.71,37.49c-67.13,0.08-134.27,0.11-201.41-0.01C402.95,504.8,403.8,492.31,404.19,479.8z M417.16,493.19
			c-3.83,1.94-4.56,8.01-0.81,10.4c4,2.96,10.22-0.79,9.69-5.67C426.09,493.59,420.72,490.92,417.16,493.19z M444.18,493.17
			c-3.9,1.88-4.58,8.07-0.83,10.46c4,2.87,10.14-0.8,9.68-5.64C453.12,493.67,447.76,490.91,444.18,493.17z M471.12,493.2
			c-3.88,1.86-4.53,8.09-0.78,10.43c4.03,2.9,10.14-0.87,9.68-5.71C480.01,493.62,474.68,490.92,471.12,493.2z M498.17,493.16
			c-3.69,1.76-4.64,7.41-1.39,10.06c3.52,3.2,9.72,0.49,10.17-4.13C507.91,494.4,502.14,490.63,498.17,493.16z M525.18,493.14
			c-3.73,1.75-4.69,7.47-1.37,10.11c3.53,3.19,9.71,0.41,10.11-4.2C534.85,494.4,529.16,490.65,525.18,493.14z"/>
	</g>
	<path class="st0" d="M714.78,561.51c0.93-7.3,1.83-14.61,2.78-21.9c1.39,11.07,2.54,22.18,3.99,33.25
		c2.8,22.83,7.08,45.44,11.02,68.1c8.69,48.38,17.5,96.74,26.66,145.03c-0.14,1.6,1.78,4.56-1.21,4.62c0.7,2.83,1.41,5.65,2.1,8.49
		c2.63,0,5.27,0.01,7.91,0.01c-0.03,0.72-0.1,2.17-0.13,2.9c-1.52,0.72-3.24,0.39-4.83,0.46c-10.02,0.02-20.03-0.11-30.04,0.08
		c-0.82-2.1-1.63-4.19-2.43-6.29c-0.53-1.37-1.04-2.7-1.57-4.04c2.27-0.96,4.54-1.88,6.83-2.79c-0.88-2.7-1.96-5.33-3.06-7.94
		c-2.66-10.05-4.01-20.41-6.08-30.59c-6.97-39.4-13.76-78.94-16.54-118.9C708.19,608.39,712.43,584.93,714.78,561.51z"/>
	<path class="st0" d="M768.8,586.69c3.13,4.01,4.93,8.8,7.29,13.27c4.23,8.28,9,16.28,13.53,24.41c2.38,3.78,1.75,8.38,1.83,12.63
		c-0.18,12.71,0.27,25.43-0.17,38.14c-4.95,0.25-9.91,0.25-14.86-0.02C773.6,645.67,770.54,616.23,768.8,586.69z"/>
	<path class="st0" d="M776.49,675.85c4.94-0.19,9.89-0.2,14.84-0.02c0.08,5.74,0.11,11.49,0.66,17.22
		c-4.59,0.11-9.18,0.02-13.75,0.27C777.65,687.49,777.06,681.67,776.49,675.85z"/>
	<path class="st0" d="M733.11,802.64c11.69-0.08,23.39-0.2,35.08,0.05c1.24,4.72,1.64,9.61,2.42,14.43l-1.27-0.1
		c-0.77-1.89-1.24-4.9-3.86-4.77c-0.86,1.31-0.88,2.72-0.07,4.24c-1.4-0.12-2.79-0.23-4.17-0.35c-6.57-1.19-13.28-1.54-19.92-0.82
		c-1.43-2.79-2.84-5.59-4.27-8.37c-0.58,0.15-1.73,0.45-2.31,0.6c-0.4-1.22-0.8-2.43-1.2-3.63L733.11,802.64z"/>
</g>
<g>
	<path class="st1" d="M476.88,141.16c4.38,0.01,8.77-0.05,13.16,0.07c-0.21,0.48-0.63,1.45-0.84,1.93c-4.1,0.22-8.2,0-12.29,0.05
		C476.9,142.7,476.89,141.68,476.88,141.16z"/>
	<path class="st1" d="M276.83,718.78c7,3.35,13.97,6.77,20.92,10.23c0.98,0.5,1.97,1.01,2.95,1.53c-1.52,2.12-3.03,4.25-4.54,6.38
		c-2.02-1-4.04-1.99-6.05-2.97c-4.42-2.17-8.79-4.41-13.21-6.57C276.91,724.51,276.83,721.64,276.83,718.78z"/>
	<path class="st1" d="M709.98,810.03c1.94,0.31,4.09,0.14,5.64,1.66c-1.28-0.2-3.84-0.62-5.12-0.83c1.61,1.52,4,5.66,5.39,1.23
		c0.09,0.51,0.28,1.53,0.37,2.04c0.03,0.52,0.1,1.55,0.14,2.06l-1.03-0.19c-2.51-1-5.19-1.31-7.87-1.05
		c0.95,3.07,4.35,1.36,6.6,1.26c-0.31,0.29-0.93,0.85-1.24,1.14c-1.94-0.08-5.28,1.21-5.92-1.52c0.26-2.42,3.38-1.42,4.96-2.11
		c-0.34-0.26-1.02-0.77-1.36-1.02C710.4,812.03,710.12,810.7,709.98,810.03z"/>
	<g>
		<path class="st1" d="M765.48,812.25c2.62-0.13,3.09,2.88,3.86,4.77c-0.09,0.59-0.27,1.77-0.36,2.36
			c-1.37,0.26-2.71,0.56-4.05,0.86l-0.06-0.02c-1.06-0.36-2.1-0.73-3.12-1.1c-0.18-1-0.35-1.99-0.51-2.98
			c1.38,0.12,2.77,0.23,4.17,0.35C764.6,814.97,764.62,813.56,765.48,812.25z M766.03,813.79c-0.44,1.06,0.54,3.15,1.83,2.87
			C768.28,815.58,767.37,813.35,766.03,813.79z M762.15,817.73c0.7,1.54,3.1,1.77,4.46,0.99
			C766.66,817.12,762.88,816.2,762.15,817.73z"/>
	</g>
</g>
<g>
	<path class="st2" d="M418.22,154.36c61.6,0.07,123.2,0.01,184.8,0.03c17.09,0.1,34.2-0.2,51.3,0.15
		c-3.39,73.17-6.57,146.36-9.86,219.54c-0.35,7.41-0.68,14.83-1,22.24c-3.52,78.53-7.02,157.05-10.53,235.57
		c-0.39,4.58-0.66,9.18-0.84,13.78c-2.14,0-4.28,0-6.41,0.01c7.09-161.55,14.51-323.08,21.56-484.63
		c-76.45,0.02-152.9-0.03-229.35,0.03C417.97,158.84,418.08,156.6,418.22,154.36z"/>
	<path class="st2" d="M547.14,217.13c1.97-7.04,9.63-11.97,16.86-10.21c7.08,1.33,11.7,9.26,9.68,16.12
		c-1.25,5.2-5.64,9.33-10.78,10.62c-4.3,0.66-9.04-0.13-12.19-3.33C547.1,227.02,546.13,221.77,547.14,217.13z"/>
	<path class="st2" d="M413.03,354.8c36.51-0.01,73.03-0.01,109.54,0c-0.06,5.63-0.4,11.25-0.71,16.87
		c-36.52-0.15-73.04-0.04-109.56-0.06C412.47,366.01,412.79,360.4,413.03,354.8z"/>
	<path class="st3" d="M273.83,397.94c14.04-1.01,28.23-1.62,42.21,0.43c6.29,0.94,12.61,1.82,18.83,3.18
		c2.86,0.56,4.78,3.02,6.5,5.17c4.33,5.9,7.33,12.63,10.11,19.36c-1.59,1.35-3.17,2.71-4.76,4.06c-4.33,3.69-8.67,7.37-12.99,11.07
		c0.42,1.12,0.85,2.24,1.28,3.37c-1.48,12.35-3.12,24.67-5.01,36.96c-0.55,3.33-1.11,6.66-1.21,10.04
		c-4.35,0.67-8.76,0.51-13.14,0.53c-0.26,2.45-0.51,4.9-0.76,7.36c-0.77,0-2.32,0.01-3.09,0.02c0.25-2.46,0.5-4.9,0.76-7.35
		c-12.59-0.14-25.18-0.11-37.77-0.02c-0.19,2.45-0.38,4.91-0.56,7.38c-1.1,0.03-2.2,0.02-3.29-0.01c0.28-2.46,0.55-4.92,0.82-7.38
		c-2.44-0.02-4.88-0.04-7.31-0.05c-0.38-8.3,0.45-16.62-0.51-24.89c-0.63-9.1-1.73-18.16-3.39-27.12
		c-0.95-5.68-1.93-11.35-3.32-16.93c-0.7,4.54-1.15,9.12-1.64,13.7c-4.42-2.99-8.9-5.91-13.31-8.92c-0.62-0.43-1.86-1.29-2.48-1.71
		c2.17-7.08,4.31-14.28,8.13-20.67c1.21-1.82,2.56-3.95,4.87-4.4C259.73,399.55,266.79,398.68,273.83,397.94z"/>
	<path class="st4" d="M678.66,437.94c26.94-0.09,53.89-0.13,80.83,0c0.02,2.9,0.25,5.79,0.45,8.69c2.01,33.02,3.93,66.06,6.16,99.07
		c0.76,14.33,1.74,28.66,2.7,42.99c1.74,29.54,4.8,58.98,7.62,88.43l0.07,0.73c0.57,5.82,1.16,11.64,1.75,17.47
		c0.68,6.88,1.38,13.77,2.09,20.66c1.96,19.41,4.04,38.81,6.01,58.21c0.73,6.34,1.41,12.69,2.03,19.04
		c-9.4-0.21-18.78-0.83-28.17-1.14c-0.35-1.38-0.68-2.73-0.97-4.1c-9.16-48.29-17.97-96.65-26.66-145.03
		c-3.94-22.66-8.22-45.27-11.02-68.1c-1.45-11.07-2.6-22.18-3.99-33.25c-1.93-18.2-3.78-36.41-5.61-54.62
		c-0.27-3.74-0.66-7.49-1.46-11.16c-3.75,10.97-3.89,22.73-3.55,34.19c0.86,18.02,3.54,35.98,7.84,53.49
		c-2.35,23.42-6.59,46.88-4.6,70.49c2.78,39.96,9.57,79.5,16.54,118.9c2.07,10.18,3.42,20.54,6.08,30.59
		c-8.38,3.48-16.93,6.52-25.38,9.81c-11.63-38.27-22.55-76.77-31.73-115.7c-4.43-19.37-8.69-38.84-10.81-58.62
		c-1.43-12.32-0.27-24.73,0.39-37.07C668.48,533.82,673.67,485.88,678.66,437.94z"/>
	<path class="st2" d="M408.44,456.33c30.16-0.12,60.32,0.05,90.48-0.09c-0.1,5.52-0.51,11.03-0.54,16.56
		c-4.45,0.52-8.92,0.25-13.38,0.29c-25.74,0-51.47,0.03-77.21-0.01C407.89,467.49,408.3,461.91,408.44,456.33z"/>
	<path class="st2" d="M228.36,561.05c0.69-4.58,4.95-8.36,9.61-8.35c10.32-0.14,20.65,0.03,30.97-0.07
		c13.35-0.03,26.71-0.02,40.06-0.03c3.52-0.18,7.09,1.31,9.15,4.24c2.45,3.17,1.93,7.43,2.02,11.19c-0.17,5.68,0.2,11.37-0.16,17.05
		c-0.16,4.36-3.55,8.04-7.69,9.11l-0.54,0.19c-24.71,0-49.43-0.13-74.15,0.09c-0.42-0.03-1.27-0.1-1.69-0.14l-0.83-0.39
		c-1.87-0.88-3.6-2.06-5.18-3.38c-0.12-0.27-0.34-0.83-0.45-1.1c-2.48-5.93-0.87-12.52-1.32-18.74c0-0.37-0.01-1.12-0.01-1.5
		C228.15,566.5,228.01,563.76,228.36,561.05z"/>
	<path class="st2" d="M309.06,724.14c0.74,0.44,1.49,0.9,2.24,1.36c6.9,4.24,13.82,8.46,20.71,12.73c0.93,0.58,1.86,1.17,2.8,1.77
		c-2.31,2.05-4.63,4.1-6.95,6.16c-1.76-1.1-3.51-2.21-5.24-3.32c-4.45-2.88-8.86-5.8-13.36-8.6c-1.38-1.01-3.1-1.71-4.12-3.11
		C306.19,728.67,307.68,726.43,309.06,724.14z"/>
	<path class="st2" d="M265.7,749.73c0.64-0.3,1.9-0.9,2.54-1.2c0.16,6.32,0.08,12.64,0.11,18.96c-0.42-0.01-1.26-0.02-1.68-0.02
		c-2.29-0.73-4.83-1.03-6.81-2.49c-0.53-2.1,0.74-4.01,1.46-5.87C262.81,756,263.92,752.69,265.7,749.73z"/>
	<path class="st2" d="M295.4,748.89c0.72,0.42,1.44,0.86,2.15,1.31c4.4,2.93,8.74,5.98,13.04,9.06c0.33,0.24,0.99,0.73,1.32,0.97
		c0.13,1.01,0.26,2.04,0.37,3.07l0.69,0.34c0.17,0.39,0.49,1.17,0.65,1.56c1.82,5.37,4.99,10.17,8.78,14.35
		c0.97,1.34,2.71,2.52,2.47,4.39c-0.98,2.73-4.54,3.52-6.89,2.1c-4.68-2.77-8.8-6.37-13.27-9.44c0.14-3.17-0.32-7.29-4-8.21
		c-6.9-0.72-13.88-0.08-20.81-0.29c-0.01-5.18,0-10.35-0.01-15.51c0.89,0.28,2.65,0.86,3.54,1.14c0.4-0.41,1.22-1.24,1.62-1.65
		c-0.26,2.03,0.74,3.8,2.53,4.74c0.24-0.36,0.74-1.08,0.99-1.44c0.39-0.32,1.18-0.97,1.58-1.29l0.6-0.48
		C292.39,752.13,293.89,750.49,295.4,748.89z"/>
</g>
<g>
	<path class="st5" d="M136.31,151.11c2.85-0.31,5.73-0.32,8.58-0.04c-0.2,27.63-0.06,55.25-0.11,82.88
		c0.1,13.33-0.2,26.66,0.17,39.99c-2.77-0.05-6.03,0.94-8.5-0.4C136.16,232.75,136.48,191.92,136.31,151.11z"/>
	<path class="st5" d="M716.08,165.26c2.44-0.05,4.87-0.1,7.32-0.18c0.96,16.48-0.03,33.01,0.56,49.51
		c-2.61,0.72-5.29,1.12-7.97,1.29C715.83,199.01,715.71,182.12,716.08,165.26z"/>
	<path class="st5" d="M282.16,224.79c1.9,0.01,3.81,0.01,5.71,0.01c0.3,24.4,0.03,48.8,0.13,73.2c0.18,5.95-0.53,11.95,0.61,17.83
		c-2.24,0.24-4.45,0.67-6.62,1.21l0.01-0.76C282.21,285.78,281.88,255.29,282.16,224.79z"/>
	<path class="st5" d="M834.15,312.11c2.86-3.49,5.56-7.5,9.73-9.53c-0.11,7.35-2.05,14.49-3.51,21.65
		c-4.9,20.67-10.69,41.26-19.49,60.64c-5.98,13.97-11.14,28.53-20.11,40.94c-2.1,3.1-4.56,6.32-4.42,10.27
		c-1.47,37.29-1.19,74.62-1.49,111.94c0.01,2.04,0.23,4.08,0.54,6.1c3.34-29.32,10.54-58.3,22.33-85.39
		c13.19-26.6,27.58-52.63,43.37-77.78c3.27-4.65,6.24-9.76,10.89-13.2c-0.08,7.32-3.3,14.08-5.33,21
		c-12.56,36.83-27.51,72.82-43.61,108.24c-9.59,21.1-17.55,42.89-27.07,64.02c-1.72,3.4-1.17,7.3-1.23,10.97
		c0.17,17.02-0.22,34.05-0.07,51.07c0.06,1.1,0.32,2.17,0.77,3.21c2.77-13.82,6.92-27.52,14.11-39.73
		c8.92-14.92,19.19-29.16,31.68-41.32c3.1-2.98,5.96-6.34,9.82-8.38c1.23,3.25-0.73,6.46-1.59,9.54
		c-5.01,13.51-11.38,26.47-17.74,39.38c-5.73,12.68-12.66,24.76-18.85,37.22c-7.35,13.21-13.53,27.06-18.49,41.34
		c2.34,1.33,5.09,0.93,7.68,1.01c31.65-0.03,63.3-0.05,94.95-0.03c3.64-0.03,7.29-0.05,10.94,0.21c-29.99,0.48-60,0.05-90,0.24
		c-7.63,0.12-15.29-0.39-22.88,0.23l-0.8,0.32c-0.34,5.54,0.2,11.1-0.33,16.63c-0.49,0.03-1.47,0.1-1.96,0.13
		c-0.55-5.73-0.58-11.48-0.66-17.22c-4.95-0.18-9.9-0.17-14.84,0.02l-0.07-0.73c4.95,0.27,9.91,0.27,14.86,0.02
		c0.44-12.71-0.01-25.43,0.17-38.14c-0.08-4.25,0.55-8.85-1.83-12.63c-4.53-8.13-9.3-16.13-13.53-24.41
		c-2.36-4.47-4.16-9.26-7.29-13.27c-0.96-14.33-1.94-28.66-2.7-42.99c4.12,6.96,6.99,14.55,10.37,21.89
		c7.28,16.4,11.16,33.99,15.05,51.42c0.34-36.01,0.11-72.02,0.6-108.03c0.05-3.97,0.42-8.13-1.22-11.86
		c-6.69-15.53-15.87-29.8-25.01-43.96c-1.79-2.98-3.65-5.93-5.95-8.53c-0.2-2.9-0.43-5.79-0.45-8.69c0.24-8.1,0.24-16.2,0.25-24.3
		c1.21,1.02,2.42,2.05,3.43,3.29c6.59,8.22,12.93,16.77,17.41,26.35c5.53,11.98,8.89,24.85,10.95,37.84c0.41-0.98,0.68-2,0.79-3.05
		c0.48-12.82,0.32-25.67,1.24-38.46c1.81-15.85,0.66-31.99,4.11-47.65c3.26-16.06,11.38-30.44,18.04-45.24
		C821.2,333.51,826.8,322.25,834.15,312.11z"/>
	<path class="st5" d="M185.83,415.8c6.06-0.29,12.13-0.21,18.2,0.03c-1.15,9.73-3.47,19.44-2.89,29.29
		c1.65,11.6,5.23,23.06,4.59,34.9c-0.3,4.94-2.21,10.47-7.14,12.54c-3.02,0-6.28,0.41-9.01-1.2c-1.81-0.91-2.74-2.8-3.9-4.34
		c3.55-3.8,6.86-8.15,7.82-13.38c0.87-5.67,0.66-11.44,0.35-17.14c-2.42-0.2-4.83-0.48-7.24-0.73c0.92-4.2,2.02-8.4,2.1-12.72
		C188.8,433.88,186.7,424.89,185.83,415.8z"/>
	<path class="st5" d="M106.95,492.88c1.57-0.12,3.14-0.27,4.71-0.27c10.48,0.53,20.98-0.01,31.47,0.34
		c0.88,36.67,0.34,73.38,0.5,110.06c0.08,54.97-0.15,109.94,0.1,164.91l0.01,0.7c-12.2,0-24.39-0.01-36.59,0.04
		c-0.72-5.21-0.11-10.46-0.28-15.68C106.87,666.28,106.79,579.58,106.95,492.88z"/>
	<path class="st5" d="M150.17,565.32c24.99-0.03,49.99,0.19,74.98-0.1c0,0.38,0.01,1.13,0.01,1.5c-24.68-0.17-49.38-0.29-74.05,0.07
		c-0.23,52.09-0.1,104.18-0.03,156.26c24.95,0.08,49.91,0.26,74.86-0.12c0.2-39.31,0-78.61,0.12-117.92
		c0.1-6.52-0.41-13.07,0.42-19.55c0.11,0.27,0.33,0.83,0.45,1.1c-0.57,15.79-0.14,31.6-0.27,47.4c0,29.98-0.02,59.97,0.02,89.95
		c-25.53,0.4-51.07,0.16-76.61,0.12C150,671.13,149.84,618.22,150.17,565.32z"/>
	<path class="st5" d="M232.11,589.94l0.83,0.39c0.07,44.21-0.04,88.42,0.07,132.63c10.7,0.27,21.4,0.29,32.1,0.06
		c0.59-17.99,0.05-36.01,0.26-54.01c-0.15-23.13,0.17-46.26-0.14-69.39c3.89,0,7.77,0,11.66,0c-0.12,36.47,0.05,72.93-0.07,109.4
		c0.02,1.91,0.42,3.81,0.85,5.68c-0.4,1.33-0.66,2.69-0.84,4.08c0,2.86,0.08,5.73,0.07,8.6c-0.01,2.49-0.02,4.99-0.02,7.5
		c-0.01,4.56-0.01,9.13,0.01,13.71c0.01,5.16,0,10.33,0.01,15.51c6.93,0.21,13.91-0.43,20.81,0.29c3.68,0.92,4.14,5.04,4,8.21
		c-1.79,1.16-3.41,3.02-5.69,3.06c-6.35,0.22-12.71-0.3-19.05,0.13c-0.25,12.76,0.04,25.53-0.14,38.3c0.08,1.46,0.09,2.97,0.54,4.41
		c7.91,5.12,17.34,6.91,26.05,10.19c1.7,0.48,3.23,2.33,2.51,4.16c-1.11,1.61-3.29,1.39-4.99,1.54c-17.32-0.05-34.64,0-51.95-0.01
		c-3.95-0.07-7.97,0.44-11.85-0.46c-1.26-1.79-0.93-4.67,1.52-5.16c8.34-2.82,16.98-5.12,24.75-9.39c2.27-0.85,1.78-3.47,1.93-5.38
		c-0.13-12.71,0.3-25.43-0.17-38.14c-6.62-0.59-13.27,0.17-19.89-0.32c-4.11-0.55-5.65-5.52-4.02-8.94
		c1.12-0.94,2.22-2.17,3.81-2.19c6.18-0.7,12.5,0.72,18.6-0.93c0.42,0,1.26,0.01,1.68,0.02c-0.03-6.32,0.05-12.64-0.11-18.96
		c-0.03-6.8,0.45-13.61-0.22-20.39c-10.94-0.17-21.89,0.13-32.83-0.13C232.04,679.32,232.2,634.63,232.11,589.94z"/>
	<path class="st5" d="M382.74,651.87c43.42,0.18,86.85,0.03,130.27,0.09c5.18,0.01,10.38-0.28,15.53,0.4
		c0.03,0.71,0.09,2.13,0.12,2.84c-0.03,13.57-0.15,27.15,0.02,40.72c-2.22,0.15-4.45,0.3-6.67,0.34
		c-30.02-0.11-60.04,0.03-90.06-0.05c-24.72-0.1-49.45,0.29-74.17-0.25c0.2-0.28,0.59-0.85,0.79-1.13
		c25.8,0.49,51.61-0.01,77.41,0.22c30.39-0.11,60.78,0.12,91.16-0.16c0.52-6.95,0.11-13.92,0.24-20.88
		c-0.1-6.91,0.38-13.85-0.48-20.72c-42.98,0.07-85.96,0.02-128.94,0.03c-5.21,0.07-10.45,0.27-15.62-0.54L382.74,651.87z"/>
	<path class="st5" d="M314.41,700.41c7.46-13.88,14.31-28.09,20.17-42.72c0.32,5.61-0.38,11.31,0.98,16.82
		c-6.06,12.27-12.87,24.17-20.1,35.78C315.48,706.96,315.3,703.62,314.41,700.41z"/>
	<path class="st5" d="M352.44,703.66c0.24-0.34,0.73-1.03,0.97-1.37c2.19,0.22,4.38,0.42,6.58,0.48c55.36-0.09,110.73,0,166.09-0.03
		c1.64-0.37,2.81,0.49,2.53,2.22c0.06,12.69-0.12,25.38,0.07,38.07c-0.14,1.3,0.2,2.83-0.58,3.99c-7.68,0.52-15.39,0.04-23.08,0.21
		c-54.69-0.12-109.37,0.18-164.05-0.16c-0.65-8.96,0.66-17.99-0.74-26.89c0.44-0.58,0.87-1.15,1.31-1.71
		c1.1,9.09,0.22,18.25,0.64,27.37c61.66,0.11,123.31,0.05,184.97,0.02c0.4-13.93,0.35-27.89,0-41.82
		c-48.7-0.29-97.41-0.05-146.11-0.13C371.51,703.83,361.96,704.14,352.44,703.66z"/>
	<path class="st5" d="M329.01,734.23c1.83-2.24,3.67-4.47,5.49-6.73c0.86,13.5,0.21,27.05,0.37,40.58
		c-6.55,0.57-13.13,0.4-19.68,0.07c-0.05-1.79-0.09-3.57-0.13-5.35c0.69-0.67,1.4-1.34,2.1-2c-1.46-1.22-3.09-2.23-4.78-3.08
		c1.04-0.53,2.08-1.05,3.13-1.56c-0.06-0.6-0.18-1.81-0.23-2.41c-0.17-2.79-0.23-5.58-0.38-8.35c0.7-0.97,1.4-1.94,2.1-2.9
		c0.87-1.23,1.74-2.45,2.62-3.66c1.73,1.11,3.48,2.22,5.24,3.32c2.32-2.06,4.64-4.11,6.95-6.16
		C330.87,735.4,329.94,734.81,329.01,734.23z"/>
	<path class="st5" d="M490.85,753.93c10.01-0.23,20.08-0.5,30.07,0.13c2.21,4.48,3.68,9.33,5.22,14.1
		c-11.74,0.4-23.51,0.34-35.24,0.05C490.57,763.45,490.65,758.68,490.85,753.93z"/>
</g>
<g>
	<g>
		<path class="st6" d="M144.89,151.07c35.72-0.28,71.44,0.04,107.16-0.13c2.91-0.03,5.83,0.05,8.74,0.16
			c0.29,34.64-0.02,69.28,0.14,103.92c-0.02,6.26,0.13,12.53-0.14,18.8c-1.92,0.12-3.83,0.25-5.74,0.27
			c-36.7-0.19-73.4,0.11-110.1-0.15c-0.37-13.33-0.07-26.66-0.17-39.99C144.83,206.32,144.69,178.7,144.89,151.07z M155,161.08
			c-0.42,7.62,0,15.24-0.13,22.86c0.09,26.68-0.25,53.36,0.18,80.03c28.63,0.44,57.27,0.02,85.91,0.22c3.3,0.05,6.61-0.04,9.91-0.26
			c0.35-33.66-0.01-67.32,0.16-100.98c0.32-1.83-1.59-2.35-2.99-2.1C217.03,160.99,186,160.63,155,161.08z"/>
	</g>
	<path class="st6" d="M723.4,165.08c34.87,0.02,69.74,0.02,104.61-0.01c1.89-0.24,4.45,0.51,3.89,2.95
		c-0.09,36.31-0.03,72.63-0.07,108.94c0.28,1.81-0.95,3.19-2.8,2.9c-29.37,0.11-58.74-0.01-88.11,0.08
		c0.29-3.03,0.67-6.04,1.24-9.02c26.59-0.02,53.19,0.14,79.78-0.09c0.39-25.29,0.09-50.59,0.19-75.88
		c-0.04-6.94,0.1-13.88-0.18-20.81c-29.65-0.1-59.3-0.21-88.94,0.06c-0.09,12.07-0.36,24.16,0.15,36.22
		c-2.87,1.8-5.96,3.21-9.2,4.17C723.37,198.09,724.36,181.56,723.4,165.08z"/>
	<path class="st6" d="M178.08,186.09c16.55-0.27,33.13-0.19,49.68-0.02c0.21,17.6,0.11,35.21,0.09,52.82
		c-16.56,0.29-33.16,0.27-49.73,0.06C177.84,221.34,177.95,203.7,178.08,186.09z"/>
	<path class="st6" d="M759.23,201.28c5.2-4.41,11.93-7.03,18.81-6.49c8.91-0.42,17.27,4.64,22.52,11.59
		c4.49,6.7,6.25,15.37,4.04,23.2c-2,8.37-8.22,15.55-16.21,18.73c-4.81,2.22-10.25,2.08-15.4,1.71c-5.68-0.47-10.63-3.72-14.83-7.35
		c3.22-1.93,5.24-5.86,4.14-9.58c-1.35-3.58-5.55-4.65-7.72-7.56c-0.61-1.44,0.06-3.07,0-4.57c0.44-3.38-2.17-6.05-4.33-8.28
		C753.54,209.11,755.36,204.34,759.23,201.28z"/>
	<g>
		<path class="st6" d="M281.13,224.09c5.94-0.76,11.91,0.34,17.87,0.01c24.95,0.13,49.9-0.16,74.84,0.14
			c0.4,20.57,0.03,41.15,0.15,61.72c-0.18,9.94,0.28,19.89-0.18,29.83c-21.59,0.26-43.2,0.07-64.79,0.11
			c-1.58-0.07-3.06,0.51-4.49,1.09c-5.23-1.04-10.6-1.63-15.92-1.16c-1.14-5.88-0.43-11.88-0.61-17.83
			c-0.1-24.4,0.17-48.8-0.13-73.2c-1.9,0-3.81,0-5.71-0.01c-0.28,30.5,0.05,60.99-0.16,91.49c-0.85-1.26-1.07-2.78-1.01-4.26
			C281.23,282.71,280.87,253.4,281.13,224.09z M295.19,231.25c-0.21,25.85-0.24,51.71,0.04,77.56c23.87,0.15,47.74,0.06,71.61,0.05
			c0.17-25.88,0.27-51.76-0.02-77.64C342.95,231.12,319.06,231.05,295.19,231.25z"/>
	</g>
	<path class="st6" d="M323.17,264.22c2.65-4.38,4.57-9.24,7.84-13.22c3.35,4.16,5.42,9.2,8.28,13.71
		c3.41,6.78,8.41,12.81,10.82,20.05c-12.36,0.17-24.72,0.13-37.07,0.01c-1.84,0.18-0.84-2.14-0.3-2.93
		C316.38,276.06,319.56,270.02,323.17,264.22z"/>
	<path class="st6" d="M794.28,676.29l0.8-0.32c0.16,5.65-0.04,11.3,0.14,16.95c13.49,0.64,27.04-0.23,40.51,0.4
		c0.21,0.22,0.63,0.68,0.84,0.91c-0.35,5.93-1.58,11.78-1.81,17.72c-0.16,2.81-3.86,1.97-5.74,2.17
		c-16.23-0.27-32.46,0.05-48.69-0.14c-0.71-6.89-1.41-13.78-2.09-20.66c4.57-0.25,9.16-0.16,13.75-0.27
		c0.49-0.03,1.47-0.1,1.96-0.13C794.48,687.39,793.94,681.83,794.28,676.29z"/>
	<path class="st6" d="M350.03,811.32c17.64-0.78,35.35,0.41,52.95-1.16c58.33-0.26,116.67-0.3,175-0.08
		c9.33,0.14,18.68-0.31,27.97,0.75c14.32,0.4,28.67-0.09,42.99,0.43c13.63,1.58,27.4-0.07,41.03,1.54c6.85,0.3,13.72,0.51,20.57-0.1
		c0.34,0.25,1.02,0.76,1.36,1.02c-1.58,0.69-4.7-0.31-4.96,2.11c0.64,2.73,3.98,1.44,5.92,1.52c-3.65,3.39-8.13,5.69-12.55,7.89
		c-3.68,1.93-7.96,1.55-11.91,2.43c-1.04,1.31-0.13,2.91,0.16,4.35c-6.64,0.05-13.98-0.68-19.99,2.61
		c10.88,2.91,22.25,2.23,33.38,3.19c29.68,0.39,59.42,0.95,89.05-1.06c4.84-0.37,9.72-0.77,14.41-2.14
		c-3.03-2.14-6.86-2.33-10.42-2.59c-1.55-0.18-3.11,0.04-4.39,0.95c-0.71-5.28-1.6-10.53-2.53-15.78
		c28.66,2.2,57.52,3.77,85.85,9.08c4.35,0.97,8.76,2.06,12.76,4.08c1.55,0.53,1.69,2.83,0.31,3.66c-2.85,2.25-6.51,3.03-9.95,3.89
		c-25,5.39-50.61,6.73-76,9.06c-7.06-0.09-14.02,1.39-21.09,1.1c-6.89,1.12-13.88,0.63-20.8,1.29c-7.48,1.23-15.1,0.04-22.58,1.17
		c-7.88,1.09-15.88-0.23-23.74,1.1c-8.24,0.72-16.55,0.11-24.81,0.55c-13.94,1.72-28.07-0.21-41.99,1.71
		c-14.35,0.1-28.7,0.1-43.04,0.22c-8.95,1.14-17.98,0.72-26.97,0.79c-44.36,0.19-88.72,0.13-133.08,0.08
		c-15.66-0.47-31.38,0.74-46.97-0.92c-13.98-0.05-27.95-0.07-41.92-0.22c-11.98-1.45-24.07-0.49-36.1-1.1
		c-10.23-1.33-20.59-0.29-30.86-1.11c-7.86-1.3-15.86-0.06-23.74-1.08c-8.05-1.19-16.25,0.02-24.28-1.38
		c-6.35-0.21-12.7-0.14-19-1.11c-7.05,0.19-14-1.09-21.04-1.11c-21.71-1.75-43.47-3.49-65.02-6.85c-6.25-1.34-12.73-2.02-18.65-4.56
		c-1.33-0.8-3.54-1.48-3.16-3.43c-0.3-1.45,1.58-1.81,2.49-2.42c8.64-3.64,18.1-4.53,27.27-6.05c26.57-3.43,53.26-5.46,79.96-6.99
		c5.67-0.98,11.43-0.37,17.13-0.94c8.72-1.2,17.59-0.13,26.29-1.72c-0.15,1.91,0.34,4.53-1.93,5.38
		c-7.77,4.27-16.41,6.57-24.75,9.39c-2.45,0.49-2.78,3.37-1.52,5.16c3.88,0.9,7.9,0.39,11.85,0.46c17.31,0.01,34.63-0.04,51.95,0.01
		c1.7-0.15,3.88,0.07,4.99-1.54c0.72-1.83-0.81-3.68-2.51-4.16c-8.71-3.28-18.14-5.07-26.05-10.19c-0.45-1.44-0.46-2.95-0.54-4.41
		c3.11-0.15,6.21-0.38,9.31-0.69c8.25-0.81,16.57,0.01,24.83-0.69C323.94,811.24,337.05,812.73,350.03,811.32z"/>
	<path class="st6" d="M707.5,814.95c2.68-0.26,5.36,0.05,7.87,1.05c-0.32,0.05-0.95,0.16-1.27,0.21
		C711.85,816.31,708.45,818.02,707.5,814.95z"/>
	<path class="st6" d="M741.32,815.32c6.64-0.72,13.35-0.37,19.92,0.82c0.16,0.99,0.33,1.98,0.51,2.98c1.02,0.37,2.06,0.74,3.12,1.1
		c-3.47,2.34-7.17,4.37-11.22,5.5c-2.74,0.94-5.89,1.1-8.11,3.17c-2.32,2.06-5.64,1.24-8.47,1.41c-5.53-0.38-11.26,0.87-16.62-0.99
		c7.26-2.77,14.99-4.07,22.3-6.65C745.08,820.49,742.03,817.59,741.32,815.32z"/>
	<path class="st6" d="M762.15,817.73c0.73-1.53,4.51-0.61,4.46,0.99C765.25,819.5,762.85,819.27,762.15,817.73z"/>
</g>
<g>
	<path class="st7" d="M417.78,160.7c76.45-0.06,152.9-0.01,229.35-0.03c-7.05,161.55-14.47,323.08-21.56,484.63
		c2.13-0.01,4.27-0.01,6.41-0.01c0.18-4.6,0.45-9.2,0.84-13.78c0.01,4.67-0.09,9.35-0.28,14.03c-4.5,0.15-9-0.07-13.5-0.09
		c-27.04,0.09-54.08,0.01-81.12,0.05c-47.16-0.03-94.32-0.08-141.48,0.04c-0.05-16.01,1.23-31.99,1.77-47.98
		c0.11-3.91,0.34-7.82,0.49-11.72c0.31-4.81,0.52-9.63,0.63-14.45c6.11-134.6,12.11-269.2,18.07-403.81
		C417.48,165.28,417.64,162.99,417.78,160.7z M547.03,216.75c-15.47-9.87-36.16-10.1-52.13-1.23c-14,7.58-24.51,21.54-27.42,37.26
		c-2.57,12.84,0,26.7,7.39,37.56l0.96-0.77l-0.85,1.04c8.57,12.31,22.89,20.43,37.93,20.98c17.37,1,34.84-7.33,45.2-21.26
		c12.72-15.84,14.81-39.37,4.68-57.05c5.14-1.29,9.53-5.42,10.78-10.62c2.02-6.86-2.6-14.79-9.68-16.12
		C556.66,204.78,549,209.71,547.03,216.75z M412.92,354.42c-0.24,5.6-0.56,11.21-0.73,16.81c36.52,0.02,73.04-0.09,109.56,0.06
		c0.31-5.62,0.65-11.24,0.71-16.87C485.95,354.41,449.43,354.41,412.92,354.42z M411.73,381.77c-0.75,12.56-1.13,25.14-1.73,37.71
		c67.18-0.02,134.37,0.13,201.56-0.07c0.44-12.57,1.3-25.12,1.51-37.68C545.96,381.78,478.84,381.7,411.73,381.77z M408.33,455.95
		c-0.14,5.58-0.55,11.16-0.65,16.75c25.74,0.04,51.47,0.01,77.21,0.01c4.46-0.04,8.93,0.23,13.38-0.29
		c0.03-5.53,0.44-11.04,0.54-16.56C468.65,456,438.49,455.83,408.33,455.95z M407.08,483.42c-0.39,12.51-1.24,25-1.52,37.51
		c67.14,0.12,134.28,0.09,201.41,0.01c0.72-12.49,1.08-25,1.71-37.49c-17.26-0.5-34.54-0.06-51.81-0.21
		C506.94,483.36,457,483,407.08,483.42z M436.15,571.76c-0.1,2.02-0.19,4.05-0.28,6.08c-2.24-0.01-4.48,0-6.71,0.02
		c-1.56,9.49-0.63,19.18-1.61,28.73c-0.51,5.6-0.57,11.23-0.51,16.86c45.2-0.17,90.39-0.11,135.58-0.02
		c0.34-2.17,0.67-4.34,0.82-6.53c2.07-0.03,4.15-0.11,6.23-0.24c1.04-14.97,1.21-29.98,1.99-44.97
		C526.49,571.64,481.32,571.46,436.15,571.76z"/>
</g>
<path class="st7" d="M429.74,578.43c2.07-0.01,4.16-0.02,6.24-0.01c-1.05,12.7-1.05,25.46-1.85,38.18
	c14.91,0.6,29.84,0.06,44.76,0.26c27.89,0.05,55.79-0.14,83.68,0.09c-0.2,1.96-0.34,3.93-0.47,5.9
	c-44.75,0.13-89.5,0.04-134.25,0.03c-0.65-8.77,1.06-17.47,0.87-26.23C428.93,590.57,429.34,584.5,429.74,578.43z"/>
<g>
	<path class="st8" d="M401.16,164.13c4.45-0.27,8.9-0.32,13.35-0.17c-5.96,134.61-11.96,269.21-18.07,403.81
		c-1.69,0.74-5.04-0.19-5.29,2.31c0.44,4.38,2.91,8.18,4.66,12.14c-0.15,3.9-0.38,7.81-0.49,11.72c-4.14,0.01-8.28,0.03-12.41,0.04
		c-0.53-1.47-1.05-2.93-1.59-4.38c2.23-11.46,1.13-23.16,2.38-34.7c0.67-7.07-0.1-14.21,0.86-21.26c0.95-7.06-0.02-14.21,0.92-21.28
		c1-7.62,0.04-15.34,1.01-22.97c0.98-7.55,0.13-15.19,1.1-22.73c0.97-7.4-0.16-14.88,0.9-22.27c1.02-7.04,0.12-14.18,0.93-21.24
		c0.95-8.04,0.62-16.15,0.72-24.22c1.9-0.34,3.8-0.67,5.71-1c0.26-0.77,0.52-1.55,0.79-2.31c-1.9,0-3.79,0-5.67,0.01
		c0.21-6.6-0.31-13.24,0.7-19.78c0.96-6.52-0.24-13.14,0.72-19.67c1.2-7.46,0.08-15.06,1.15-22.52c0.99-7.38,0.02-14.85,0.93-22.23
		c1.13-8.21-0.08-16.56,1.12-24.77c1.12-7.39-0.1-14.9,0.91-22.3c1.11-7.44-0.09-15.02,1.15-22.45c0.77-8.62-0.05-17.31,1.27-25.89
		c-0.14-8.05,0.49-16.05,1.12-24.05C399.59,182.66,400.96,173.43,401.16,164.13z"/>
</g>
<g>
	<path class="st9" d="M704.26,195.01c3.02,0.36,7.94-0.79,9.2,2.96c-0.11,5.34-6.82,8.46-5.74,14.11c1.13,3.32,5.28,3.74,8.27,3.8
		c2.68-0.17,5.36-0.57,7.97-1.29c3.24-0.96,6.33-2.37,9.2-4.17c5.23-4.23,12.52-1.73,17.09,2.26c2.16,2.23,4.77,4.9,4.33,8.28
		c0.06,1.5-0.61,3.13,0,4.57c2.17,2.91,6.37,3.98,7.72,7.56c1.1,3.72-0.92,7.65-4.14,9.58c-1.52,1.29-3.38,2.47-4.07,4.44
		c-0.29,2.84,0.29,5.76-0.79,8.5c-2.06-1.65-4.49-3.66-7.33-2.72c-5.35,1.66-8.26,7.11-9.58,12.2c-1.48-0.74-3.64-1.07-3.77-3.12
		c-0.61-8.73,4.27-16.58,5.72-24.99c0.63-3.07-2.88-4.39-5.32-3.89c-8.35,0.84-16.4,4.64-24.94,3.03c-0.66,1.11-1.32,2.22-1.97,3.33
		c1.82-0.1,3.67-0.05,5.48,0.33c-2.05,0.9-4.47,1.15-6.2,2.62c-2.48,5.69-2.76,12.07-2.83,18.2c-0.67-2.09-1.37-4.19-1.87-6.33
		c-0.58-6.59-0.12-13.27,1.71-19.65c-2.27-2.01-5.35-3.19-7.25-5.69c-3.71-3.95-5.39-10.35-2.42-15.19
		c3.27-5.51,11.16-6.25,13.77-12.37C707.74,198.93,705.69,196.76,704.26,195.01z"/>
	<path class="st9" d="M718.57,245.07c2.64-0.67,6.84-1.44,7.93,1.93c-2.27-0.72-4.62-0.89-6.97-0.79
		C719.29,245.93,718.81,245.36,718.57,245.07z"/>
	<path class="st9" d="M706.76,248.68c3.47-1.93,3.88,4.95,0.44,4.08C706.44,251.52,706.76,250.05,706.76,248.68z"/>
	<path class="st9" d="M721.41,248.41c2.74-0.58,2.48,4.88-0.25,4.5C719.97,251.69,719.93,249.41,721.41,248.41z"/>
	<path class="st9" d="M713.5,267.91c3.44-1.32,6.81-2.67,9.84-4.82C721.23,266.39,717.3,267.94,713.5,267.91z"/>
	<path class="st9" d="M281.99,317.04c2.17-0.54,4.38-0.97,6.62-1.21c5.32-0.47,10.69,0.12,15.92,1.16
		c10.89,2.05,20.55,10.97,21.63,22.3c-1.66-1.56-3.15-3.28-4.58-5.04c0.09,1.87,0.15,3.75,0.21,5.63l-1.9,0.34
		c-1.06,0.19-2.11,0.38-3.15,0.58c-0.05,2.18-0.09,4.37-0.12,6.56c-1.69,0.13-4.01-0.61-4.8,1.46c-1.77,4.1,0.45,8.4,2.23,12.09
		c1.24,3.8,1.25,7.91,2.68,11.68c1.26,4.04,3.04,7.88,4.94,11.65c-7.63,1.62-15.38,2.59-23.17,2.91
		c-5.11,0.15-10.24,0.15-15.35-0.07c-7.12-0.35-14.22-1.2-21.24-2.4c4.43-8.86,3.99-19.14,2.97-28.72
		c-0.9-7.41-3.13-15.27-0.37-22.54c1.04-2.91,3.83-4.45,6.44-5.71C271.18,321.84,276.9,318.39,281.99,317.04z"/>
	<path class="st9" d="M422.38,391.39c3.73-1.82,8.55,1.34,8.26,5.52c0.05,4.66-5.83,7.99-9.68,5.22
		C416.87,399.63,418,392.91,422.38,391.39z"/>
	<path class="st9" d="M449.3,391.4c3.76-1.84,8.69,1.33,8.29,5.57c0.03,4.59-5.71,7.86-9.56,5.25
		C443.86,399.77,444.92,392.99,449.3,391.4z"/>
	<path class="st9" d="M476.31,391.39c3.71-1.8,8.63,1.32,8.23,5.53c0.18,4.97-6.48,8.19-10.18,4.83
		C470.9,398.92,472.2,392.87,476.31,391.39z"/>
	<path class="st9" d="M684.69,399.63c1.08-0.64,2.19-1.25,3.33-1.79c1.37,1.27,3.15,2.31,3.96,4.06c-0.24,2.72-0.25,5.45,0.44,8.12
		c-1.22,0.53-2.42,1.1-3.58,1.73c-0.53-1.61-1.03-3.21-1.54-4.82C684.16,405.64,684.44,402.48,684.69,399.63z"/>
	<path class="st9" d="M417.16,493.19c3.56-2.27,8.93,0.4,8.88,4.73c0.53,4.88-5.69,8.63-9.69,5.67
		C412.6,501.2,413.33,495.13,417.16,493.19z"/>
	<path class="st9" d="M444.18,493.17c3.58-2.26,8.94,0.5,8.85,4.82c0.46,4.84-5.68,8.51-9.68,5.64
		C439.6,501.24,440.28,495.05,444.18,493.17z"/>
	<path class="st9" d="M471.12,493.2c3.56-2.28,8.89,0.42,8.9,4.72c0.46,4.84-5.65,8.61-9.68,5.71
		C466.59,501.29,467.24,495.06,471.12,493.2z"/>
	<path class="st9" d="M498.17,493.16c3.97-2.53,9.74,1.24,8.78,5.93c-0.45,4.62-6.65,7.33-10.17,4.13
		C493.53,500.57,494.48,494.92,498.17,493.16z"/>
	<path class="st9" d="M525.18,493.14c3.98-2.49,9.67,1.26,8.74,5.91c-0.4,4.61-6.58,7.39-10.11,4.2
		C520.49,500.61,521.45,494.89,525.18,493.14z"/>
	<path class="st9" d="M308.91,756.23c1.16-2.45,4-2.7,6.37-2.48c0.05,0.6,0.17,1.81,0.23,2.41c-1.05,0.51-2.09,1.03-3.13,1.56
		c1.69,0.85,3.32,1.86,4.78,3.08c-0.7,0.66-1.41,1.33-2.1,2c-1.49-0.51-2.98-1.05-4.44-1.6c-0.16-0.39-0.48-1.17-0.65-1.56
		c1.95,0.96,3.94,1.94,6.19,1.92c-1.37-2.12-4.01-2.57-6.01-3.82c1.79-0.83,3.6-1.65,5.13-2.92
		C312.96,754.25,310.92,755.29,308.91,756.23z"/>
	<path class="st9" d="M719.84,811.82c4.96-1.42,9.92-2.89,14.9-4.27c0.58-0.15,1.73-0.45,2.31-0.6c1.43,2.78,2.84,5.58,4.27,8.37
		c0.71,2.27,3.76,5.17,1.43,7.34c-7.31,2.58-15.04,3.88-22.3,6.65c-5.71,2.04-11.31,4.89-17.52,4.84c-4.8-0.05-10.46,1.5-14.37-2.13
		c-0.29-1.44-1.2-3.04-0.16-4.35c3.95-0.88,8.23-0.5,11.91-2.43c4.42-2.2,8.9-4.5,12.55-7.89c0.31-0.29,0.93-0.85,1.24-1.14
		c0.32-0.05,0.95-0.16,1.27-0.21l1.03,0.19c-0.04-0.51-0.11-1.54-0.14-2.06C717.4,813.28,718.58,812.5,719.84,811.82z"/>
	<path class="st9" d="M769.34,817.02l1.27,0.1c5.1,0.1,10.19-0.06,15.29,0.04c0.54,0.01,1.63,0.03,2.17,0.04
		c0.93,5.25,1.82,10.5,2.53,15.78c-0.44,0.29-1.34,0.86-1.79,1.15c-5.92,0.35-11.84-0.45-17.76-0.26c-7-0.02-14.02,0.76-21.01,0.32
		c-2.81-0.15-4.18-2.84-4.5-5.3c2.22-2.07,5.37-2.23,8.11-3.17c4.05-1.13,7.75-3.16,11.22-5.5l0.06,0.02
		c1.34-0.3,2.68-0.6,4.05-0.86C769.07,818.79,769.25,817.61,769.34,817.02z"/>
</g>
<g>
	<path class="st10" d="M514.45,223.49c5.76-1.44,12.19-0.44,17.01,3.12c5.17,3.69,8.25,10.02,8.08,16.36
		c-0.01,7.82-4.75,15.31-11.64,18.92c-7.12,3.87-16.6,3.3-22.85-2c-4.95-4.04-7.59-10.57-7.03-16.91
		C498.56,233.84,505.59,225.66,514.45,223.49z"/>
	<path class="st10" d="M475.94,289.95c11.56-10.56,27.52-15.49,43.02-15.07c14.41,0.22,29.09,5.37,39.26,15.83
		c-10.36,13.93-27.83,22.26-45.2,21.26c-15.04-0.55-29.36-8.67-37.93-20.98L475.94,289.95z"/>
</g>
<g>
	<path class="st11" d="M655.28,223.03l0.51-0.63l1.36,0.43c-0.24,11.33-0.85,22.66-1.46,33.98c-0.51,0.12-1.52,0.38-2.02,0.51
		C654.14,245.89,654.45,234.43,655.28,223.03z"/>
</g>
<g>
	<g>
		<path class="st12" d="M708.08,236.12c8.54,1.61,16.59-2.19,24.94-3.03c2.44-0.5,5.95,0.82,5.32,3.89
			c-1.45,8.41-6.33,16.26-5.72,24.99c0.13,2.05,2.29,2.38,3.77,3.12c1.32-5.09,4.23-10.54,9.58-12.2c2.84-0.94,5.27,1.07,7.33,2.72
			c-0.16,2.5,0.22,5.3-1.43,7.41c-2.1,3.41-5.89,4.99-9.38,6.58c-0.08,0.33-0.25,0.99-0.33,1.32c-0.57,2.98-0.95,5.99-1.24,9.02
			c-0.62,7.43-0.75,15.85,4.24,21.95c-5.6,8.05-15.8,10.98-25.18,10.93c-3.75-0.11-8.13,0.04-11.04-2.7
			c-2.26-2.65-0.04-6.06,1.32-8.54c3.87-0.92,7.93-2.58,10.11-6.11c2.3-3.43,2.13-7.73,1.76-11.66c-4.64-0.49-9.34-1.87-12.78-5.16
			c-3.61-3.08-5.3-7.65-6.68-12.04c-0.09-2.01-0.06-4.01-0.11-6.01c0.07-6.13,0.35-12.51,2.83-18.2c1.73-1.47,4.15-1.72,6.2-2.62
			c-1.81-0.38-3.66-0.43-5.48-0.33C706.76,238.34,707.42,237.23,708.08,236.12z M718.57,245.07c0.24,0.29,0.72,0.86,0.96,1.14
			c2.35-0.1,4.7,0.07,6.97,0.79C725.41,243.63,721.21,244.4,718.57,245.07z M706.76,248.68c0,1.37-0.32,2.84,0.44,4.08
			C710.64,253.63,710.23,246.75,706.76,248.68z M721.41,248.41c-1.48,1-1.44,3.28-0.25,4.5
			C723.89,253.29,724.15,247.83,721.41,248.41z M707.27,261.94c1.85,0.68,3.8,0.98,5.78,1.01c0.5-3.63,0.69-7.3,0.64-10.97
			C711.61,255.34,709.61,258.75,707.27,261.94z M713.5,267.91c3.8,0.03,7.73-1.52,9.84-4.82
			C720.31,265.24,716.94,266.59,713.5,267.91z M723.72,283.82c-1.92,0.55-0.61,2.88-0.68,4.2c4.53,0.15,7.5-3.62,9.88-6.94
			C729.9,282.16,726.75,282.81,723.72,283.82z"/>
	</g>
	<path class="st12" d="M316.74,340.8c1.04-0.2,2.09-0.39,3.15-0.58c0.4,1.65,0.83,3.29,1.1,4.97c-0.08,1.29-0.06,2.63,0.48,3.85
		c0.03,1.13,0.06,2.26-0.02,3.39c-0.23,2.33-0.44,4.67-0.54,7.03c-0.14,4.63-1.17,9.47-4.18,13.13c-1.43-3.77-1.44-7.88-2.68-11.68
		c-1.78-3.69-4-7.99-2.23-12.09c0.79-2.07,3.11-1.33,4.8-1.46C316.65,345.17,316.69,342.98,316.74,340.8z"/>
	<path class="st12" d="M664.12,343.74c2.67,1.43,5.3,2.96,7.95,4.44c1.56,0.87,3.13,1.69,4.73,2.52
		c-0.47,5.55-0.97,11.09-1.34,16.65c-5.42,6.57-10.2,13.96-17.33,18.88c-5.37,3.27-11.63,4.62-17.67,6.09
		c0.32-7.41,0.65-14.83,1-22.24c2.51-0.76,5.11-1.66,6.82-3.78C654.47,359.47,659.14,351.45,664.12,343.74z"/>
	<path class="st12" d="M744.34,350.98c7.01,2.59,13.86,5.58,20.8,8.37c-1.2,2.38-2.34,4.79-3.59,7.15
		c-3.71,6.77-7.66,13.51-12.86,19.26c-3.07,3.46-7.22,5.65-11.29,7.71c-14.37,7.08-29.62,12.13-44.98,16.55
		c-0.69-2.67-0.68-5.4-0.44-8.12c-0.81-1.75-2.59-2.79-3.96-4.06c3.72-1.73,6.95-4.26,10.42-6.41c8.62-5.45,17.29-10.83,26.25-15.71
		c3.32-1.89,7.32-3.11,9.55-6.46C738.26,363.56,741.34,357.26,744.34,350.98z"/>
	<path class="st12" d="M283.15,387.08c5.11,0.22,10.24,0.22,15.35,0.07c0.39,1.46,0.78,2.93,1.18,4.41
		c-6.04,0.26-12.06,0.96-18.05,1.81C282.16,391.27,282.67,389.18,283.15,387.08z"/>
	<path class="st12" d="M381.87,395.82c3-0.47,6.07-0.11,9.1-0.19c1.88-0.01,3.77-0.01,5.67-0.01c-0.27,0.76-0.53,1.54-0.79,2.31
		c-1.91,0.33-3.81,0.66-5.71,1c-1.78,0.3-3.56,0.62-5.33,0.94c0.9,1.45,1.8,2.89,2.72,4.35c-1.29,2.45-2.42,5.02-4.11,7.24
		c-1.59,1.8-3.89,2.7-5.94,3.87c-2.2,11.7-4.87,23.33-8.5,34.68c-1.87,5.51-3.8,11.11-7.06,15.99c-1.97,2.99-5.18,5.49-8.91,5.42
		c-3.78,0.12-7.08-2.47-8.67-5.76c-3.65-7-6.76-14.26-10.06-21.43c-0.43-1.13-0.86-2.25-1.28-3.37c4.32-3.7,8.66-7.38,12.99-11.07
		c2.81,7.08,5.2,14.35,8.44,21.25c5.66-12.73,10.34-25.85,14.93-38.98c1.04-3.06,1.2-6.69,3.77-8.98
		C375.93,400.53,378.78,398.01,381.87,395.82z"/>
	<path class="st12" d="M675.54,404.17c3.09-1.42,6.25-2.74,9.15-4.54c-0.25,2.85-0.53,6.01,2.61,7.3c0.51,1.61,1.01,3.21,1.54,4.82
		c-3.41,3.27-7.56,5.7-12.16,6.82c-1.58,0.36-3.16,0.66-4.73,0.97c-2.84-1.43-5.59-5.56-9.03-3.78c-2.6,0.93-4.99,2.52-7.74,2.99
		c-0.86-0.84-3.01-1.74-1.69-3.09C660.54,411.31,667.97,407.56,675.54,404.17z"/>
	<path class="st12" d="M241.55,427.55c4.41,3.01,8.89,5.93,13.31,8.92l0.8,0.53c-5.72,14.86-11.39,30.1-12.97,46.03
		c2.55,8.91,10.8,14.55,17.3,20.6c-1.31,3.62-2.58,7.27-3.65,10.98c-9.52-5.7-19.05-12.3-25.07-21.85
		c-2.34-3.81-3.58-8.34-3.1-12.81c1.16-14.12,4.72-27.94,9.43-41.26C238.85,434.95,240.59,431.38,241.55,427.55z"/>
	<path class="st12" d="M294.55,746.2c3.07-4.2,6.17-8.37,9.25-12.55c4.44,2.89,8.63,6.16,13.2,8.85c-0.7,0.96-1.4,1.93-2.1,2.9
		c-2.47,3.26-4.93,6.53-7.31,9.86C303.29,752.18,298.95,749.13,294.55,746.2z"/>
	<path class="st12" d="M730.6,796.26c0.8,2.1,1.61,4.19,2.43,6.29c0.13,0.34,0.38,1.03,0.51,1.37c0.4,1.2,0.8,2.41,1.2,3.63
		c-4.98,1.38-9.94,2.85-14.9,4.27c-1.12-3.23-2.36-6.41-3.6-9.59C721.15,800.56,726.15,798.99,730.6,796.26z"/>
	<path class="st12" d="M768.19,802.69c5.03-1.01,10.23-0.5,15.34-0.53c0.77,5,1.57,10,2.37,15c-5.1-0.1-10.19,0.06-15.29-0.04
		C769.83,812.3,769.43,807.41,768.19,802.69z"/>
</g>
<g>
	<path class="st13" d="M707.27,261.94c2.34-3.19,4.34-6.6,6.42-9.96c0.05,3.67-0.14,7.34-0.64,10.97
		C711.07,262.92,709.12,262.62,707.27,261.94z"/>
</g>
<g>
	<path class="st14" d="M702.67,266.61c-4.2-2.45-6.14-8.94-1.98-12.34c0.5,2.14,1.2,4.24,1.87,6.33
		C702.61,262.6,702.58,264.6,702.67,266.61z"/>
	<path class="st14" d="M306.26,730.24c4.5,2.8,8.91,5.72,13.36,8.6c-0.88,1.21-1.75,2.43-2.62,3.66c-4.57-2.69-8.76-5.96-13.2-8.85
		C304.63,732.51,305.44,731.37,306.26,730.24z"/>
	<path class="st14" d="M714.73,798.23c4.76-2.01,9.53-4.01,14.3-6.01c0.53,1.34,1.04,2.67,1.57,4.04c-4.45,2.73-9.45,4.3-14.36,5.97
		C715.72,800.89,715.22,799.56,714.73,798.23z"/>
	<path class="st14" d="M768.03,799.11c5-0.01,10.01-0.01,15.01,0c0.12,0.76,0.36,2.28,0.49,3.05c-5.11,0.03-10.31-0.48-15.34,0.53
		c-11.69-0.25-23.39-0.13-35.08-0.05l0.43,1.28c-0.13-0.34-0.38-1.03-0.51-1.37c10.01-0.19,20.02-0.06,30.04-0.08
		c1.59-0.07,3.31,0.26,4.83-0.46C767.93,801.28,768,799.83,768.03,799.11z"/>
</g>
<g>
	<path class="st15" d="M723.72,283.82c3.03-1.01,6.18-1.66,9.2-2.74c-2.38,3.32-5.35,7.09-9.88,6.94
		C723.11,286.7,721.8,284.37,723.72,283.82z"/>
	<path class="st15" d="M276.9,727.38c4.42,2.16,8.79,4.4,13.21,6.57c-1.29,2.05-2.57,4.11-3.84,6.17c-3.03-1.92-6.16-3.68-9.39-5.24
		C276.88,732.37,276.89,729.87,276.9,727.38z"/>
</g>
<path class="st3" d="M687.42,305.65c7.49-1.94,15.13-3.38,22.84-4.07c-1.36,2.48-3.58,5.89-1.32,8.54c2.91,2.74,7.29,2.59,11.04,2.7
	c9.38,0.05,19.58-2.88,25.18-10.93l0.58-0.33c8.51,0.42,16.98,1.66,25.35,3.21c6.03,0.97,10.6,5.9,12.85,11.35
	c2.73,5.91,2.22,12.77,0.26,18.83c-3.1,9.63-8.81,18.19-15.16,25.98c-1.31-0.53-2.61-1.06-3.9-1.58c-6.94-2.79-13.79-5.78-20.8-8.37
	c-3,6.28-6.08,12.58-10.1,18.28c-2.23,3.35-6.23,4.57-9.55,6.46c-8.96,4.88-17.63,10.26-26.25,15.71c-3.47,2.15-6.7,4.68-10.42,6.41
	c-1.14,0.54-2.25,1.15-3.33,1.79c-2.9,1.8-6.06,3.12-9.15,4.54c-0.61-12.27-0.75-24.56-0.08-36.82c0.37-5.56,0.87-11.1,1.34-16.65
	c0.77-7.43,2.79-14.68,3.2-22.15c-4.17,5.84-5.42,13.04-7.93,19.63c-2.65-1.48-5.28-3.01-7.95-4.44c-0.55-0.29-1.65-0.87-2.2-1.16
	c2.73-6.92,6.14-13.55,9.42-20.21C674.7,315.32,679.66,308.16,687.42,305.65z M693.6,347.43c3.02,0.78,2.47-2.68,3.35-4.46
	c1.79-5.95,6.83-10.85,13.1-11.66l0.54-2.04C701.02,329.32,694.49,338.64,693.6,347.43z M706.09,363.92
	c0.02,0.55,0.08,1.64,0.1,2.19c9.37-0.46,15.59-9.48,16.65-18.12c-0.51,0-1.53-0.01-2.05-0.01
	C719.28,355.38,714.45,363.46,706.09,363.92z"/>
<path class="st3" d="M739.11,406.11c8.53-2.7,15.51-8.65,21.12-15.45c-0.19,7.66-0.5,15.32-0.49,22.98
	c-0.01,8.1-0.01,16.2-0.25,24.3c-26.94-0.13-53.89-0.09-80.83,0c-0.33-3.91-0.97-7.78-1.38-11.67
	C697.85,419.42,718.52,412.9,739.11,406.11z"/>
<path class="st16" d="M710.49,474.83c0.8,3.67,1.19,7.42,1.46,11.16c1.83,18.21,3.68,36.42,5.61,54.62
	c-0.95,7.29-1.85,14.6-2.78,21.9c-4.3-17.51-6.98-35.47-7.84-53.49C706.6,497.56,706.74,485.8,710.49,474.83z"/>
<path class="st17" d="M707.42,791.3c8.45-3.29,17-6.33,25.38-9.81c1.1,2.61,2.18,5.24,3.06,7.94c-2.29,0.91-4.56,1.83-6.83,2.79
	c-4.77,2-9.54,4-14.3,6.01c-2.2,0.92-4.4,1.85-6.6,2.79c-1.46-2.67-3.06-5.29-4.2-8.11C705.04,792.28,706.22,791.78,707.42,791.3z"
	/>
<path class="st17" d="M759.23,785.99c0.29,1.37,0.62,2.72,0.97,4.1c9.39,0.31,18.77,0.93,28.17,1.14c0.3,0.01,0.91,0.03,1.22,0.04
	c0.32,2.61,0.63,5.22,0.94,7.84c-2.5-0.01-5-0.01-7.49,0c-5-0.01-10.01-0.01-15.01,0c-2.64,0-5.28-0.01-7.91-0.01
	c-0.69-2.84-1.4-5.66-2.1-8.49C761.01,790.55,759.09,787.59,759.23,785.99z"/>
<g>
	<path class="st18" d="M672.07,348.18c2.51-6.59,3.76-13.79,7.93-19.63c-0.41,7.47-2.43,14.72-3.2,22.15
		C675.2,349.87,673.63,349.05,672.07,348.18z"/>
</g>
<g>
	<path class="st19" d="M320.99,345.19c2.5-1.68,1.56,2.94,0.48,3.85C320.93,347.82,320.91,346.48,320.99,345.19z"/>
</g>
<g>
	<path class="st20" d="M320.91,359.46c0.1-2.36,0.31-4.7,0.54-7.03c0.86,1.58,1.73,3.17,2.36,4.86
		C324.61,358.95,321.77,358.9,320.91,359.46z"/>
</g>
<g>
	<path class="st21" d="M748.69,386.76c5.2-5.75,9.15-12.49,12.86-19.26c-0.45,7.39-0.98,14.77-1.32,22.16
		c-5.61,6.8-12.59,12.75-21.12,15.45c-20.59,6.79-41.26,13.31-61.83,20.16c-0.21-1.9-0.41-3.81-0.6-5.7
		c4.6-1.12,8.75-3.55,12.16-6.82c1.16-0.63,2.36-1.2,3.58-1.73c15.36-4.42,30.61-9.47,44.98-16.55
		C741.47,392.41,745.62,390.22,748.69,386.76z"/>
</g>
<g>
	<path class="st22" d="M281.63,393.37c5.99-0.85,12.01-1.55,18.05-1.81c5.68-0.3,13.82-0.35,15.63,6.46
		c-13.98-2.05-28.17-1.44-42.21-0.43C273.95,393.58,278.45,393.93,281.63,393.37z"/>
	<path class="st4" d="M262.2,501.91c2.67-0.11,5.34,0.07,8.01,0.23c1.09,0.03,2.19,0.04,3.29,0.01c12.51-0.44,25.05-0.42,37.57-0.01
		c0.77-0.01,2.32-0.02,3.09-0.02c4.91-0.34,9.84-0.08,14.75-0.56c20.45,28.45,39.49,58.34,52.41,91.04
		c0.54,1.45,1.06,2.91,1.59,4.38c4.21,12.49,7.96,25.86,5.62,39.12c-1.17,6.46-3.32,12.7-5.79,18.77l-0.4,0.91
		c-6.4,14.82-14.83,28.64-23.77,42.05c-0.2,0.28-0.59,0.85-0.79,1.13c-1.45,2.11-2.89,4.23-4.37,6.33
		c-0.24,0.34-0.73,1.03-0.97,1.37c-3.57,4.99-7.21,9.91-10.9,14.81c-0.44,0.56-0.87,1.13-1.31,1.71c-1.92,2.43-3.81,4.89-5.73,7.32
		c-1.82,2.26-3.66,4.49-5.49,6.73c-6.89-4.27-13.81-8.49-20.71-12.73c2.36-3.75,4.8-7.45,7.16-11.21
		c7.23-11.61,14.04-23.51,20.1-35.78c7.09-14.54,13.6-29.56,17.12-45.4c0.07-8.13-3.2-15.89-6.23-23.31
		c-4.69-10.85-10.53-21.21-17.2-30.95c1.88,15.57,4.93,30.97,7.29,46.48c1.29,6.54,1.41,13.37,3.87,19.65
		c-1.7,5.65-3.79,11.17-5.83,16.71c-5.86,14.63-12.71,28.84-20.17,42.72c-5.29,9.68-10.78,19.26-16.66,28.6
		c-6.95-3.46-13.92-6.88-20.92-10.23c0.18-1.39,0.44-2.75,0.84-4.08c12.45-25.85,23.37-52.49,32.17-79.8
		c4.82-14.43,4.55-30.4-0.52-44.71c4.14-1.07,7.53-4.75,7.69-9.11c0.36-5.68-0.01-11.37,0.16-17.05c-0.09-3.76,0.43-8.02-2.02-11.19
		c-2.06-2.93-5.63-4.42-9.15-4.24c-13.35,0.01-26.71,0-40.06,0.03c-4.9-2.73-9.48-6.82-11.06-12.39
		c-1.97-7.14-0.42-14.65,1.46-21.63c1.07-3.71,2.34-7.36,3.65-10.98c0.4-1.12,0.82-2.22,1.26-3.31
		C261.48,502.97,261.96,502.26,262.2,501.91z"/>
</g>
<g>
	<path class="st23" d="M254.86,436.47c0.49-4.58,0.94-9.16,1.64-13.7c1.39,5.58,2.37,11.25,3.32,16.93c-1.4-0.9-2.78-1.79-4.16-2.7
		L254.86,436.47z"/>
</g>
<g>
	<g>
		<path class="st24" d="M133.18,456.12c17.8-0.37,35.63,0.13,53.43-0.35c2.41,0.25,4.82,0.53,7.24,0.73
			c0.31,5.7,0.52,11.47-0.35,17.14c-0.96,5.23-4.27,9.58-7.82,13.38c1.16,1.54,2.09,3.43,3.9,4.34c2.73,1.61,5.99,1.2,9.01,1.2
			c10.86,0.73,21.8,0.43,32.68,0.2c6.02,9.55,15.55,16.15,25.07,21.85c-1.88,6.98-3.43,14.49-1.46,21.63
			c1.58,5.57,6.16,9.66,11.06,12.39c-10.32,0.1-20.65-0.07-30.97,0.07c-4.66-0.01-8.92,3.77-9.61,8.35
			c-0.35,2.71-0.21,5.45-0.21,8.17c-24.99,0.29-49.99,0.07-74.98,0.1c-0.33,52.9-0.17,105.81-0.1,158.71
			c25.54,0.04,51.08,0.28,76.61-0.12c-0.04-29.98-0.02-59.97-0.02-89.95c0.13-15.8-0.3-31.61,0.27-47.4
			c1.58,1.32,3.31,2.5,5.18,3.38c0.09,44.69-0.07,89.38,0.08,134.07c10.94,0.26,21.89-0.04,32.83,0.13
			c0.67,6.78,0.19,13.59,0.22,20.39c-0.64,0.3-1.9,0.9-2.54,1.2c-1.78,2.96-2.89,6.27-4.38,9.38c-0.72,1.86-1.99,3.77-1.46,5.87
			c1.98,1.46,4.52,1.76,6.81,2.49c-6.1,1.65-12.42,0.23-18.6,0.93c-1.59,0.02-2.69,1.25-3.81,2.19c-2.72-0.57-5.51-0.66-8.27-0.55
			c-25.99,0.07-51.99-0.06-77.97,0.09c-3.56,1.62-7.33,2.47-11.29,1.79c-0.25-54.97-0.02-109.94-0.1-164.91
			c-0.16-36.68,0.38-73.39-0.5-110.06c-10.49-0.35-20.99,0.19-31.47-0.34c2.63-1.22,5.57-0.76,8.37-0.79
			c6.99,0.12,13.99-0.23,20.98,0.09c3.95,0.76,7.94,1.55,11.97,0.87c-6.23-2.43-12.59-5.76-16.01-11.8
			C132.77,473.46,132.58,464.5,133.18,456.12z M227.3,525.44c-2.91,1.42-3.29,6.06-0.55,7.83c2.62,1.9,7.36,0.22,7.12-3.31
			C234.25,526.56,230.3,523.93,227.3,525.44z"/>
	</g>
	<g>
		<path class="st24" d="M151.11,566.79c24.67-0.36,49.37-0.24,74.05-0.07c0.45,6.22-1.16,12.81,1.32,18.74
			c-0.83,6.48-0.32,13.03-0.42,19.55c-0.12,39.31,0.08,78.61-0.12,117.92c-24.95,0.38-49.91,0.2-74.86,0.12
			C151.01,670.97,150.88,618.88,151.11,566.79z M211.22,637.31c-2.36,1.25-2.93,4.66-1.01,6.56c2.37,3.03,8.06,0.98,7.81-2.91
			C218.12,637.65,213.95,635.64,211.22,637.31z"/>
	</g>
	<g>
		<path class="st24" d="M232.94,590.33c0.42,0.04,1.27,0.11,1.69,0.14c0.49,2.35-0.2,5.31,1.76,7.11c2.01,1.97,4.99,2.06,7.63,2.07
			c7.07-0.03,14.14-0.04,21.21-0.03c0.31,23.13-0.01,46.26,0.14,69.39c-0.21,18,0.33,36.02-0.26,54.01
			c-10.7,0.23-21.4,0.21-32.1-0.06C232.9,678.75,233.01,634.54,232.94,590.33z M243.32,637.22c-1.77,0.87-2.9,2.86-2.37,4.84
			c0.13,4.02,6.81,4.39,8.2,1.01C251.27,639.6,246.96,634.97,243.32,637.22z"/>
	</g>
	<path class="st24" d="M307.65,591.19c0.28-0.2,0.85-0.61,1.13-0.81l0.54-0.19c5.07,14.31,5.34,30.28,0.52,44.71
		c-8.8,27.31-19.72,53.95-32.17,79.8c-0.43-1.87-0.83-3.77-0.85-5.68c0.12-36.47-0.05-72.93,0.07-109.4
		c8.54-0.22,17.13,0.45,25.64-0.31C306.56,598.76,307.68,594.66,307.65,591.19z"/>
	<path class="st24" d="M346.45,605.8c3.03,7.42,6.3,15.18,6.23,23.31c-3.52,15.84-10.03,30.86-17.12,45.4
		c-1.36-5.51-0.66-11.21-0.98-16.82c2.04-5.54,4.13-11.06,5.83-16.71C343.91,629.59,346.58,617.77,346.45,605.8z"/>
	<g>
		<path class="st24" d="M358.57,694.83c8.94-13.41,17.37-27.23,23.77-42.05c5.17,0.81,10.41,0.61,15.62,0.54
			c42.98-0.01,85.96,0.04,128.94-0.03c0.86,6.87,0.38,13.81,0.48,20.72c-0.13,6.96,0.28,13.93-0.24,20.88
			c-30.38,0.28-60.77,0.05-91.16,0.16C410.18,694.82,384.37,695.32,358.57,694.83z M434.34,669.37c-2.63,0.51-5.09,3.26-3.7,5.99
			c0.88,3.14,5.28,3.67,7.57,1.83C440.64,674.21,438.5,668.74,434.34,669.37z"/>
	</g>
	<path class="st24" d="M314.41,700.41c0.89,3.21,1.07,6.55,1.05,9.88c-2.36,3.76-4.8,7.46-7.16,11.21c-0.75-0.46-1.5-0.92-2.24-1.36
		c-1.38,2.29-2.87,4.53-3.92,6.99c1.02,1.4,2.74,2.1,4.12,3.11c-0.82,1.13-1.63,2.27-2.46,3.41c-3.08,4.18-6.18,8.35-9.25,12.55
		c-0.71-0.45-1.43-0.89-2.15-1.31c-1.51,1.6-3.01,3.24-4.65,4.72l-0.6,0.48c-0.51,0.02-1.52,0.05-2.03,0.06
		c0.42-1.36,0.83-2.73,1.25-4.08c-0.83-0.18-2.49-0.53-3.31-0.71c1.06-1.76,2.14-3.5,3.21-5.24c1.27-2.06,2.55-4.12,3.84-6.17
		c2.01,0.98,4.03,1.97,6.05,2.97c1.51-2.13,3.02-4.26,4.54-6.38c-0.98-0.52-1.97-1.03-2.95-1.53
		C303.63,719.67,309.12,710.09,314.41,700.41z"/>
	<g>
		<path class="st24" d="M341.54,718.47c3.69-4.9,7.33-9.82,10.9-14.81c9.52,0.48,19.07,0.17,28.6,0.25
			c48.7,0.08,97.41-0.16,146.11,0.13c0.35,13.93,0.4,27.89,0,41.82c-61.66,0.03-123.31,0.09-184.97-0.02
			C341.76,736.72,342.64,727.56,341.54,718.47z M433.41,720.4c-2.16,1.03-4.07,3.55-2.81,5.98c0.77,2.99,4.63,3.39,7.01,2.19
			c1.5-1.66,1.96-4.16,1.1-6.23C437.41,720.87,435.38,719.83,433.41,720.4z"/>
	</g>
	<path class="st24" d="M307.59,755.26c2.38-3.33,4.84-6.6,7.31-9.86c0.15,2.77,0.21,5.56,0.38,8.35c-2.37-0.22-5.21,0.03-6.37,2.48
		C308.58,755.99,307.92,755.5,307.59,755.26z"/>
	<path class="st24" d="M308.91,756.23c2.01-0.94,4.05-1.98,6.37-1.41c-1.53,1.27-3.34,2.09-5.13,2.92c2,1.25,4.64,1.7,6.01,3.82
		c-2.25,0.02-4.24-0.96-6.19-1.92l-0.69-0.34C309.17,758.27,309.04,757.24,308.91,756.23z"/>
	<path class="st24" d="M766.03,813.79c1.34-0.44,2.25,1.79,1.83,2.87C766.57,816.94,765.59,814.85,766.03,813.79z"/>
</g>
<g>
	<path class="st25" d="M263.21,466.82c0.96,8.27,0.13,16.59,0.51,24.89c2.43,0.01,4.87,0.03,7.31,0.05
		c-0.27,2.46-0.54,4.92-0.82,7.38c-2.67-0.16-5.34-0.34-8.01-0.23c-0.24,0.35-0.72,1.06-0.95,1.41c-2.76-3.81,1.79-7.41,1.93-11.32
		C263.65,481.62,263.19,474.21,263.21,466.82z"/>
	<path class="st25" d="M314.92,491.76c4.38-0.02,8.79,0.14,13.14-0.53c0.63,2.39,0.65,4.87,0.85,7.33
		c-4.91,0.48-9.84,0.22-14.75,0.56C314.41,496.66,314.66,494.21,314.92,491.76z"/>
	<path class="st25" d="M274.06,491.77c12.59-0.09,25.18-0.12,37.77,0.02c-0.26,2.45-0.51,4.89-0.76,7.35
		c-12.52-0.41-25.06-0.43-37.57,0.01C273.68,496.68,273.87,494.22,274.06,491.77z"/>
</g>
<g>
	<path class="st26" d="M227.3,525.44c3-1.51,6.95,1.12,6.57,4.52c0.24,3.53-4.5,5.21-7.12,3.31
		C224.01,531.5,224.39,526.86,227.3,525.44z"/>
	<path class="st26" d="M211.22,637.31c2.73-1.67,6.9,0.34,6.8,3.65c0.25,3.89-5.44,5.94-7.81,2.91
		C208.29,641.97,208.86,638.56,211.22,637.31z"/>
	<path class="st26" d="M243.32,637.22c3.64-2.25,7.95,2.38,5.83,5.85c-1.39,3.38-8.07,3.01-8.2-1.01
		C240.42,640.08,241.55,638.09,243.32,637.22z"/>
	<path class="st26" d="M434.34,669.37c4.16-0.63,6.3,4.84,3.87,7.82c-2.29,1.84-6.69,1.31-7.57-1.83
		C429.25,672.63,431.71,669.88,434.34,669.37z"/>
	<path class="st26" d="M433.41,720.4c1.97-0.57,4,0.47,5.3,1.94c0.86,2.07,0.4,4.57-1.1,6.23c-2.38,1.2-6.24,0.8-7.01-2.19
		C429.34,723.95,431.25,721.43,433.41,720.4z"/>
</g>
<g>
	<path class="st27" d="M391.15,570.08c0.25-2.5,3.6-1.57,5.29-2.31c-0.11,4.82-0.32,9.64-0.63,14.45
		C394.06,578.26,391.59,574.46,391.15,570.08z"/>
</g>
<g>
	<path class="st28" d="M433.26,568.14c45.17-0.3,90.34-0.12,135.51-0.07c-0.78,14.99-0.95,30-1.99,44.97
		c-2.08,0.13-4.16,0.21-6.23,0.24c0.42-5.39,0.17-10.8,0.49-16.19c0.38-7.6,1.11-15.2,0.7-22.81c-42.92-0.18-85.84,0.02-128.76-0.06
		C433.07,572.19,433.16,570.16,433.26,568.14z"/>
	<path class="st28" d="M433.09,574.8c42.63,0.03,85.26-0.12,127.89,0.03c0.74,10.39-1.11,20.76-0.8,31.16
		c0.1,2.45,0.13,4.94-0.5,7.34c-27.89-0.23-55.79-0.04-83.68-0.09c-14.92-0.2-29.85,0.34-44.76-0.26
		C432.04,600.26,432.04,587.5,433.09,574.8z"/>
</g>
<g>
	<g>
		<path class="st29" d="M426.27,574.24c2.23-0.02,4.47-0.03,6.71-0.02c42.92,0.08,85.84-0.12,128.76,0.06
			c0.41,7.61-0.32,15.21-0.7,22.81c-0.32,5.39-0.07,10.8-0.49,16.19c-0.15,2.19-0.48,4.36-0.82,6.53
			c-45.19-0.09-90.38-0.15-135.58,0.02c-0.06-5.63,0-11.26,0.51-16.86C425.64,593.42,424.71,583.73,426.27,574.24z M426.85,574.81
			c-0.4,6.07-0.81,12.14-1.02,18.22c0.19,8.76-1.52,17.46-0.87,26.23c44.75,0.01,89.5,0.1,134.25-0.03c0.13-1.97,0.27-3.94,0.47-5.9
			c0.63-2.4,0.6-4.89,0.5-7.34c-0.31-10.4,1.54-20.77,0.8-31.16c-42.63-0.15-85.26,0-127.89-0.03
			C431.01,574.79,428.92,574.8,426.85,574.81z"/>
	</g>
	<path class="st29" d="M535.03,641.88c27.04-0.04,54.08,0.04,81.12-0.05c-0.17,4.39-0.69,8.76-1.45,13.08
		c-26.55,0.38-53.11,0.02-79.67,0.16C535.01,650.67,535.01,646.27,535.03,641.88z"/>
</g>
<g>
	<path class="st30" d="M329.25,574.85c6.67,9.74,12.51,20.1,17.2,30.95c0.13,11.97-2.54,23.79-6.04,35.18
		c-2.46-6.28-2.58-13.11-3.87-19.65C334.18,605.82,331.13,590.42,329.25,574.85z"/>
	<path class="st30" d="M282.38,747.67c0.52-0.1,1.56-0.31,2.08-0.41c-0.45,1.07-1.47,2.14-1.03,3.4c0.54,0.18,1.6,0.54,2.14,0.72
		c-0.25,0.36-0.75,1.08-0.99,1.44c-1.79-0.94-2.79-2.71-2.53-4.74L282.38,747.67z"/>
</g>
<g>
	<path class="st31" d="M234.63,590.47c24.72-0.22,49.44-0.09,74.15-0.09c-0.28,0.2-0.85,0.61-1.13,0.81
		c0.03,3.47-1.09,7.57-5.12,8.12c-8.51,0.76-17.1,0.09-25.64,0.31c-3.89,0-7.77,0-11.66,0c-7.07-0.01-14.14,0-21.21,0.03
		c-2.64-0.01-5.62-0.1-7.63-2.07C234.43,595.78,235.12,592.82,234.63,590.47z"/>
</g>
<g>
	<path class="st32" d="M382.91,593.98c4.13-0.01,8.27-0.03,12.41-0.04c-0.54,15.99-1.82,31.97-1.77,47.98
		c47.16-0.12,94.32-0.07,141.48-0.04c-0.02,4.39-0.02,8.79,0,13.19c-2.13,0.03-4.25,0.08-6.37,0.13c-0.03-0.71-0.09-2.13-0.12-2.84
		c-5.15-0.68-10.35-0.39-15.53-0.4c-43.42-0.06-86.85,0.09-130.27-0.09c2.47-6.07,4.62-12.31,5.79-18.77
		C390.87,619.84,387.12,606.47,382.91,593.98z"/>
</g>
<g>
	<path class="st33" d="M780.33,713.98c16.23,0.19,32.46-0.13,48.69,0.14c-1.03,18.16-2.95,36.28-4.13,54.44
		c-8.94-0.63-17.91-0.19-26.86-0.33c-3.46,0.06-6.96-0.33-10.36,0.34c-0.64,1.12-1.09,2.32-1.33,3.62
		C784.37,752.79,782.29,733.39,780.33,713.98z"/>
</g>
<g>
	<path class="st34" d="M276.88,734.88c3.23,1.56,6.36,3.32,9.39,5.24c-1.07,1.74-2.15,3.48-3.21,5.24c0.82,0.18,2.48,0.53,3.31,0.71
		c-0.42,1.35-0.83,2.72-1.25,4.08c0.51-0.01,1.52-0.04,2.03-0.06c-0.4,0.32-1.19,0.97-1.58,1.29c-0.54-0.18-1.6-0.54-2.14-0.72
		c-0.44-1.26,0.58-2.33,1.03-3.4c-0.52,0.1-1.56,0.31-2.08,0.41l-0.33,0.41c-0.4,0.41-1.22,1.24-1.62,1.65
		c-0.89-0.28-2.65-0.86-3.54-1.14C276.87,744.01,276.87,739.44,276.88,734.88z"/>
</g>
<g>
	<path class="st35" d="M702.93,834.15c6.21,0.05,11.81-2.8,17.52-4.84c5.36,1.86,11.09,0.61,16.62,0.99
		c2.83-0.17,6.15,0.65,8.47-1.41c0.32,2.46,1.69,5.15,4.5,5.3c6.99,0.44,14.01-0.34,21.01-0.32c5.92-0.19,11.84,0.61,17.76,0.26
		c0.45-0.29,1.35-0.86,1.79-1.15c1.28-0.91,2.84-1.13,4.39-0.95c3.56,0.26,7.39,0.45,10.42,2.59c-4.69,1.37-9.57,1.77-14.41,2.14
		c-29.63,2.01-59.37,1.45-89.05,1.06c-11.13-0.96-22.5-0.28-33.38-3.19c6.01-3.29,13.35-2.56,19.99-2.61
		C692.47,835.65,698.13,834.1,702.93,834.15z"/>
</g>
</svg>
