<?xml version="1.0" encoding="UTF-8" ?>
<!DOCTYPE svg PUBLIC "-//W3C//DTD SVG 1.1//EN" "http://www.w3.org/Graphics/SVG/1.1/DTD/svg11.dtd">
<svg width="1105pt" height="1105pt" viewBox="0 0 1105 1105" version="1.1" xmlns="http://www.w3.org/2000/svg">
<g id="#ffffffff">
<path fill="#ffffff" opacity="1.00" d=" M 0.00 0.00 L 1105.00 0.00 L 1105.00 1105.00 L 0.00 1105.00 L 0.00 0.00 M 214.53 144.67 C 213.76 146.41 214.65 148.27 215.18 149.94 C 219.19 160.57 221.39 171.77 223.31 182.93 C 226.63 203.18 228.59 223.62 230.57 244.04 C 232.68 266.67 234.76 289.31 237.10 311.93 C 229.65 320.90 223.49 330.85 216.91 340.46 C 198.47 317.64 178.32 296.19 156.47 276.61 C 154.72 274.99 152.51 273.56 150.01 273.82 C 145.55 273.96 141.69 278.46 142.79 282.92 C 150.51 320.77 153.85 359.36 155.83 397.90 C 157.49 433.11 157.92 468.40 157.11 503.64 C 153.95 515.82 153.49 528.52 152.27 541.01 C 146.95 617.05 160.42 694.76 193.39 763.65 C 193.98 764.52 194.60 765.37 195.28 766.20 C 195.52 777.72 195.62 789.23 195.82 800.75 C 196.06 818.16 196.35 835.58 196.56 852.99 C 196.62 856.11 196.43 859.38 197.77 862.29 C 199.84 867.02 204.81 870.29 209.99 870.26 C 230.96 870.35 251.93 870.22 272.90 870.32 C 275.02 874.64 279.59 876.84 282.87 880.15 C 308.79 901.67 338.07 919.15 369.32 931.71 C 396.46 942.89 425.08 950.20 454.05 954.70 C 513.90 964.22 575.67 959.37 633.89 942.96 C 675.01 931.49 714.44 914.09 750.91 891.92 C 753.81 904.66 756.32 917.50 759.78 930.10 C 760.55 934.83 762.13 939.38 763.18 944.05 C 758.01 947.63 752.39 950.54 747.43 954.42 C 743.83 955.70 740.58 957.89 737.41 959.99 C 737.53 960.45 737.78 961.38 737.91 961.85 C 750.25 962.06 762.62 961.68 774.96 961.06 C 776.46 960.68 779.32 961.35 779.50 959.08 C 779.55 953.85 776.82 948.88 773.33 945.12 C 772.31 943.57 771.02 942.02 771.12 940.06 C 770.12 920.17 769.14 900.28 768.29 880.38 C 773.56 877.55 778.18 873.72 783.06 870.29 C 790.97 870.26 798.87 870.34 806.79 870.24 C 807.12 870.89 807.48 871.53 807.87 872.18 C 811.63 880.37 815.72 888.43 819.94 896.40 C 824.06 904.47 828.01 912.67 832.84 920.36 C 833.78 922.52 835.05 924.61 835.23 927.04 C 836.17 934.32 837.11 941.75 836.02 949.08 C 835.87 951.14 834.63 952.83 833.47 954.46 C 829.88 954.53 825.92 955.34 823.83 958.57 C 830.18 959.61 836.65 958.85 843.06 958.94 C 846.00 959.23 848.89 957.10 849.19 954.10 C 850.77 946.11 852.21 938.09 853.80 930.10 C 854.13 927.94 854.99 925.44 853.48 923.53 C 852.09 921.49 849.44 921.34 847.24 921.05 L 846.90 921.81 C 846.03 921.43 845.17 921.06 844.33 920.71 C 842.15 906.32 839.24 891.86 833.68 878.37 C 833.08 875.49 831.53 872.90 830.30 870.26 C 866.20 870.32 902.10 870.30 938.00 870.27 C 945.16 870.51 951.66 864.20 951.57 857.03 C 953.60 771.70 955.61 686.36 957.61 601.03 C 958.69 556.66 959.72 512.30 960.75 467.93 C 961.04 456.29 961.36 444.65 961.56 433.01 C 961.69 418.68 951.59 405.16 937.93 400.96 C 936.29 394.06 933.47 387.53 931.12 380.87 C 924.37 363.66 916.59 346.82 907.10 330.94 C 903.80 324.71 899.40 319.15 896.25 312.84 C 898.95 289.43 898.76 265.82 897.54 242.33 L 897.34 242.56 C 896.40 233.84 891.62 225.67 884.61 220.45 C 878.60 216.22 871.55 213.83 865.06 210.45 C 835.69 196.47 806.27 182.59 776.91 168.57 C 765.04 162.97 753.20 157.31 741.33 151.70 C 732.72 147.58 722.29 147.57 713.67 151.67 C 705.64 155.46 697.63 159.31 689.59 163.08 C 684.72 160.96 679.48 159.92 674.37 158.58 C 636.76 148.98 597.82 144.86 559.04 145.94 C 514.82 147.43 470.92 156.33 429.38 171.48 C 425.69 172.70 422.10 175.01 418.07 174.54 C 416.68 174.60 415.15 174.03 413.86 174.64 C 413.19 175.81 412.70 177.06 412.18 178.30 C 389.91 187.28 368.57 198.46 348.22 211.19 C 336.40 218.64 324.62 226.32 313.89 235.28 C 290.92 200.38 261.58 169.52 227.11 145.81 C 225.09 144.44 223.12 142.94 220.89 141.91 C 218.50 140.76 215.42 142.24 214.53 144.67 Z" />
<path fill="#ffffff" opacity="1.00" d=" M 401.10 223.21 C 419.41 219.63 438.59 233.66 441.51 251.91 C 441.67 258.29 442.49 265.02 439.88 271.06 C 438.95 273.17 438.38 275.77 436.21 276.97 C 437.61 272.64 439.95 268.58 440.44 263.99 C 441.52 255.91 440.31 247.36 435.79 240.44 C 429.77 230.03 417.88 223.72 406.00 223.51 C 396.88 224.04 387.60 227.47 381.35 234.32 C 373.33 241.95 369.83 253.78 371.91 264.61 C 374.48 279.38 387.50 291.47 402.41 292.99 C 406.95 294.28 411.43 292.09 416.02 292.59 C 398.54 298.69 377.78 287.38 372.53 269.80 C 369.13 260.34 370.38 249.61 375.18 240.87 C 380.52 231.45 390.23 224.41 401.10 223.21 Z" />
<path fill="#ffffff" opacity="1.00" d=" M 241.30 482.01 C 240.89 479.25 243.43 477.31 246.03 477.75 C 333.69 477.75 421.36 477.75 509.02 477.74 C 511.60 477.31 514.35 479.08 513.93 481.94 C 514.01 513.94 513.94 545.96 513.96 577.97 C 513.86 612.49 514.18 647.03 513.80 681.55 L 513.72 682.49 C 511.64 677.95 510.27 672.84 507.06 668.96 C 495.48 660.03 482.30 653.33 468.74 647.97 C 449.55 640.44 429.43 635.28 409.03 632.41 C 406.85 632.13 404.66 631.92 402.48 631.72 C 402.12 629.35 401.64 627.02 401.23 624.68 C 403.77 623.54 405.98 621.55 406.77 618.81 C 408.33 614.01 410.20 609.19 410.45 604.11 C 411.06 593.19 411.95 582.29 412.83 571.39 C 418.69 565.86 421.05 557.69 422.13 549.94 C 422.20 547.43 422.93 543.70 420.10 542.45 C 418.18 542.82 416.52 543.91 414.84 544.83 C 414.98 543.30 415.16 541.77 415.45 540.27 C 418.58 531.20 421.48 521.52 419.83 511.84 C 418.95 506.28 415.44 501.12 410.30 498.69 C 404.32 495.67 397.40 495.80 390.90 496.44 C 388.99 494.47 386.61 492.97 383.87 492.57 C 374.24 490.84 364.41 492.42 354.85 493.92 C 347.10 495.06 338.94 497.54 333.70 503.74 C 327.77 510.62 326.89 520.35 328.09 529.01 C 328.59 534.17 330.62 539.00 331.39 544.10 C 331.63 546.11 331.82 548.14 332.04 550.16 C 330.14 548.91 328.33 547.25 326.01 546.90 C 324.63 546.64 322.97 547.39 323.15 548.99 C 322.77 552.40 323.87 555.74 325.01 558.91 C 327.29 564.77 330.37 570.64 335.59 574.41 C 338.39 588.81 341.66 603.33 348.24 616.54 C 347.19 622.30 347.43 628.19 347.16 634.02 C 344.95 634.35 342.75 634.71 340.54 635.03 C 319.74 637.18 299.76 644.12 280.86 652.84 C 270.25 657.95 259.55 663.17 249.87 669.90 C 245.68 676.16 243.82 683.65 241.38 690.71 C 241.16 650.09 241.35 609.46 241.29 568.83 C 241.31 539.89 241.26 510.95 241.30 482.01 Z" />
<path fill="#ffffff" opacity="1.00" d=" M 786.91 636.12 C 788.80 638.19 790.77 640.20 792.83 642.13 C 790.58 640.41 788.57 638.40 786.91 636.12 Z" />
</g>
<g id="#bdd0fbff">
<path fill="#bdd0fb" opacity="1.00" d=" M 214.53 144.67 C 215.42 142.24 218.50 140.76 220.89 141.91 C 223.12 142.94 225.09 144.44 227.11 145.81 C 261.58 169.52 290.92 200.38 313.89 235.28 C 336.00 268.87 351.79 306.46 361.59 345.41 C 367.24 367.82 370.75 390.72 372.79 413.73 C 355.28 414.19 337.77 414.63 320.25 415.09 C 307.45 351.76 287.91 289.90 264.09 229.88 C 260.97 222.66 258.33 215.24 254.85 208.18 C 254.37 208.42 253.42 208.88 252.94 209.11 C 253.54 211.12 254.15 213.14 254.88 215.11 C 279.35 280.13 298.66 347.11 311.98 415.30 C 297.40 415.67 282.82 416.08 268.24 416.42 C 261.30 403.00 252.93 390.38 244.55 377.82 C 245.41 373.29 244.16 368.77 243.56 364.29 C 241.04 346.88 239.06 329.40 237.10 311.93 C 234.76 289.31 232.68 266.67 230.57 244.04 C 228.59 223.62 226.63 203.18 223.31 182.93 C 221.39 171.77 219.19 160.57 215.18 149.94 C 214.65 148.27 213.76 146.41 214.53 144.67 Z" />
<path fill="#bdd0fb" opacity="1.00" d=" M 397.09 195.10 C 402.31 194.19 407.68 194.59 412.96 194.64 C 414.72 198.48 415.89 202.55 417.62 206.40 C 421.88 207.47 426.12 208.75 430.00 210.86 C 431.54 211.49 433.22 212.89 434.93 211.87 C 438.36 210.39 441.47 208.30 444.90 206.81 C 448.85 210.38 452.80 213.95 456.38 217.90 C 454.83 221.87 452.85 225.66 451.31 229.63 C 454.43 234.29 456.27 239.58 458.30 244.75 C 461.89 247.16 466.61 247.46 470.55 249.34 C 470.60 254.54 470.69 259.74 470.79 264.94 C 467.13 266.87 463.07 267.82 459.34 269.57 C 457.95 271.39 457.76 273.84 456.95 275.95 C 455.99 279.46 453.86 282.51 452.82 286.00 C 454.39 289.78 456.75 293.19 458.25 297.02 C 454.78 301.06 451.17 305.01 447.24 308.62 C 443.43 306.99 439.67 305.25 435.91 303.52 C 430.83 306.20 425.71 308.84 420.14 310.36 C 418.51 314.40 417.54 318.69 415.76 322.68 C 410.53 322.70 405.31 322.90 400.08 322.92 C 398.36 319.15 397.34 315.09 395.52 311.37 C 392.57 309.70 389.03 309.48 385.99 307.96 C 383.67 307.09 381.59 305.39 379.09 305.13 C 375.22 306.55 371.82 308.97 367.98 310.49 C 364.17 306.72 359.94 303.36 356.52 299.23 C 358.28 295.45 360.13 291.72 361.68 287.86 C 358.68 282.97 356.48 277.67 354.77 272.21 C 351.25 270.83 347.57 269.93 344.01 268.69 C 342.54 268.47 342.62 266.77 342.48 265.67 C 342.24 261.20 342.27 256.72 342.28 252.25 C 345.81 250.71 349.52 249.63 353.04 248.06 C 354.94 247.32 354.75 244.89 355.46 243.30 C 356.40 239.25 358.49 235.64 360.07 231.84 C 359.25 227.58 355.66 224.33 355.01 220.02 C 358.09 216.13 361.72 212.64 365.27 209.17 C 369.70 209.10 373.27 213.32 377.59 213.56 C 382.47 210.92 387.57 208.78 392.72 206.76 C 395.06 203.31 394.92 198.69 397.09 195.10 M 401.10 223.21 C 390.23 224.41 380.52 231.45 375.18 240.87 C 370.38 249.61 369.13 260.34 372.53 269.80 C 377.78 287.38 398.54 298.69 416.02 292.59 C 411.43 292.09 406.95 294.28 402.41 292.99 C 387.50 291.47 374.48 279.38 371.91 264.61 C 369.83 253.78 373.33 241.95 381.35 234.32 C 387.60 227.47 396.88 224.04 406.00 223.51 C 417.88 223.72 429.77 230.03 435.79 240.44 C 440.31 247.36 441.52 255.91 440.44 263.99 C 439.95 268.58 437.61 272.64 436.21 276.97 C 438.38 275.77 438.95 273.17 439.88 271.06 C 442.49 265.02 441.67 258.29 441.51 251.91 C 438.59 233.66 419.41 219.63 401.10 223.21 M 403.29 244.37 C 399.47 245.25 396.03 247.66 394.02 251.04 C 391.68 254.64 391.78 259.26 392.63 263.31 C 394.51 268.92 400.02 273.22 406.02 273.31 C 415.09 274.14 423.03 264.73 421.07 255.92 C 419.73 247.97 411.12 242.28 403.29 244.37 Z" />
<path fill="#bdd0fb" opacity="1.00" d=" M 405.36 247.43 C 413.28 246.42 420.26 255.56 416.84 262.89 C 414.20 270.17 403.60 272.50 398.51 266.43 C 391.58 260.48 396.43 247.89 405.36 247.43 Z" />
<path fill="#bdd0fb" opacity="1.00" d=" M 498.33 274.26 C 501.88 273.98 505.44 273.89 509.01 274.01 C 510.04 276.60 511.09 279.20 512.15 281.79 C 515.82 282.97 519.42 284.36 522.95 285.92 C 525.44 284.72 527.93 283.50 530.41 282.26 C 532.92 284.55 535.57 286.73 537.77 289.34 C 537.83 292.79 533.71 295.85 535.76 299.28 C 537.10 302.06 538.42 304.86 539.40 307.79 C 542.02 308.82 544.76 309.57 547.31 310.80 C 547.77 314.23 548.13 317.91 547.35 321.29 C 544.94 322.65 542.07 323.06 539.80 324.67 C 538.51 328.15 537.43 331.71 535.74 335.03 C 536.74 337.69 538.60 340.08 539.06 342.90 C 537.07 345.69 534.47 347.98 532.01 350.33 C 529.39 349.31 526.96 347.70 524.19 347.18 C 520.67 348.68 517.29 350.51 513.66 351.75 C 512.83 354.44 511.93 357.11 510.94 359.74 C 507.39 359.87 503.83 359.93 500.29 359.84 C 498.74 356.90 498.92 351.99 494.93 351.28 C 491.24 350.71 487.69 346.72 484.00 349.09 C 482.32 349.87 480.68 350.72 479.03 351.53 C 476.33 349.21 473.69 346.81 471.30 344.17 C 472.03 340.96 475.90 337.65 473.58 334.36 C 472.16 331.71 471.24 328.84 469.88 326.17 C 467.48 324.66 464.38 324.60 462.11 322.90 C 461.65 319.62 461.58 316.28 461.87 312.99 C 464.08 311.25 467.02 310.73 469.57 309.58 C 470.68 305.92 472.08 302.36 473.80 298.94 C 472.57 296.37 471.33 293.81 470.10 291.25 C 472.35 288.73 474.41 286.01 477.05 283.89 C 479.91 283.99 482.40 285.89 485.04 286.89 C 488.46 284.90 492.37 283.83 495.73 281.79 C 496.85 279.38 497.49 276.78 498.33 274.26 M 480.05 316.03 C 479.43 323.87 483.14 331.80 489.41 336.49 C 494.92 340.87 502.38 342.57 509.28 341.37 C 510.59 341.22 511.28 339.98 512.10 339.11 C 508.81 337.74 505.28 339.54 501.87 338.90 C 491.07 337.76 482.09 327.88 482.23 316.98 C 481.75 304.51 493.53 293.23 506.02 294.66 C 517.85 294.96 527.64 306.35 526.72 318.03 C 526.71 322.26 524.05 325.91 523.98 330.12 C 525.13 329.64 526.61 329.39 527.01 327.99 C 530.74 320.52 530.47 311.09 526.05 303.97 C 521.69 296.30 512.87 291.54 504.08 291.89 C 491.49 291.99 479.44 303.11 480.05 316.03 M 501.31 307.54 C 493.48 309.95 492.73 322.52 500.26 325.77 C 506.10 329.23 514.27 324.74 514.80 318.07 C 515.83 311.00 507.97 304.76 501.31 307.54 Z" />
<path fill="#bdd0fb" opacity="1.00" d=" M 501.30 310.36 C 504.80 308.52 509.65 310.12 511.26 313.77 C 513.70 318.16 509.91 324.12 505.05 324.28 C 500.67 324.75 496.60 320.39 497.26 316.08 C 497.50 313.64 499.21 311.53 501.30 310.36 Z" />
<path fill="#bdd0fb" opacity="1.00" d=" M 209.16 456.95 C 209.51 444.63 220.70 434.09 232.98 434.18 C 254.58 434.21 276.20 433.91 297.80 434.35 C 295.62 437.04 291.96 436.00 288.97 436.18 C 270.30 436.16 251.63 436.08 232.97 436.19 C 224.58 436.22 216.39 441.37 213.11 449.15 C 210.50 454.75 211.11 461.05 211.07 467.04 C 211.06 510.83 211.07 554.63 211.04 598.43 L 210.95 599.65 C 208.08 598.10 209.28 594.62 209.04 592.02 C 209.04 560.55 209.20 529.07 208.95 497.60 C 209.31 484.06 208.85 470.50 209.16 456.95 Z" />
<path fill="#bdd0fb" opacity="1.00" d=" M 938.16 600.92 C 937.88 599.44 938.70 598.36 939.79 597.50 C 940.48 601.96 940.20 606.49 940.23 610.99 C 940.22 683.66 940.22 756.32 940.21 828.99 C 940.10 834.18 940.65 839.47 939.49 844.59 C 937.40 852.95 929.90 860.23 921.00 860.35 C 896.35 860.47 871.69 860.29 847.03 860.43 C 845.05 860.41 842.96 860.44 841.17 859.49 C 843.81 857.83 847.03 858.55 849.98 858.44 C 873.31 858.48 896.64 858.46 919.98 858.45 C 925.27 858.55 930.41 856.00 933.69 851.87 C 938.06 846.61 938.53 839.58 938.19 833.05 C 938.08 785.90 938.33 738.75 938.07 691.61 C 938.36 661.38 938.09 631.14 938.16 600.92 Z" />
<path fill="#bdd0fb" opacity="1.00" d=" M 797.35 630.32 C 798.76 629.65 800.76 632.89 799.06 633.39 C 797.99 632.89 796.86 631.52 797.35 630.32 Z" />
<path fill="#bdd0fb" opacity="1.00" d=" M 781.85 642.14 C 779.62 639.15 778.53 635.49 778.31 631.80 C 778.80 635.46 780.12 638.90 781.85 642.14 Z" />
<path fill="#bdd0fb" opacity="1.00" d=" M 859.22 653.79 C 860.54 656.68 860.75 659.87 860.58 663.01 C 860.45 659.89 860.09 656.78 859.22 653.79 Z" />
<path fill="#bdd0fb" opacity="1.00" d=" M 844.75 688.65 C 845.52 688.20 847.68 687.63 847.81 688.98 C 847.00 689.86 846.00 690.23 844.83 690.08 C 844.81 689.72 844.77 689.01 844.75 688.65 Z" />
</g>
<g id="#e9effdff">
<path fill="#e9effd" opacity="1.00" d=" M 429.38 171.48 C 470.92 156.33 514.82 147.43 559.04 145.94 C 597.82 144.86 636.76 148.98 674.37 158.58 C 679.48 159.92 684.72 160.96 689.59 163.08 C 651.54 181.23 613.42 199.22 575.37 217.37 C 565.28 222.24 558.19 232.69 557.44 243.88 C 556.25 261.14 556.18 278.47 557.17 295.73 C 558.06 308.67 559.42 321.59 561.72 334.36 C 564.28 348.79 567.76 363.07 572.39 376.98 C 575.95 387.63 580.08 398.10 584.89 408.26 C 514.19 410.04 443.49 411.93 372.79 413.73 C 370.75 390.72 367.24 367.82 361.59 345.41 C 351.79 306.46 336.00 268.87 313.89 235.28 C 324.62 226.32 336.40 218.64 348.22 211.19 C 368.57 198.46 389.91 187.28 412.18 178.30 C 412.70 177.06 413.19 175.81 413.86 174.64 C 415.15 174.03 416.68 174.60 418.07 174.54 C 422.10 175.01 425.69 172.70 429.38 171.48 M 397.09 195.10 C 394.92 198.69 395.06 203.31 392.72 206.76 C 387.57 208.78 382.47 210.92 377.59 213.56 C 373.27 213.32 369.70 209.10 365.27 209.17 C 361.72 212.64 358.09 216.13 355.01 220.02 C 355.66 224.33 359.25 227.58 360.07 231.84 C 358.49 235.64 356.40 239.25 355.46 243.30 C 354.75 244.89 354.94 247.32 353.04 248.06 C 349.52 249.63 345.81 250.71 342.28 252.25 C 342.27 256.72 342.24 261.20 342.48 265.67 C 342.62 266.77 342.54 268.47 344.01 268.69 C 347.57 269.93 351.25 270.83 354.77 272.21 C 356.48 277.67 358.68 282.97 361.68 287.86 C 360.13 291.72 358.28 295.45 356.52 299.23 C 359.94 303.36 364.17 306.72 367.98 310.49 C 371.82 308.97 375.22 306.55 379.09 305.13 C 381.59 305.39 383.67 307.09 385.99 307.96 C 389.03 309.48 392.57 309.70 395.52 311.37 C 397.34 315.09 398.36 319.15 400.08 322.92 C 405.31 322.90 410.53 322.70 415.76 322.68 C 417.54 318.69 418.51 314.40 420.14 310.36 C 425.71 308.84 430.83 306.20 435.91 303.52 C 439.67 305.25 443.43 306.99 447.24 308.62 C 451.17 305.01 454.78 301.06 458.25 297.02 C 456.75 293.19 454.39 289.78 452.82 286.00 C 453.86 282.51 455.99 279.46 456.95 275.95 C 457.76 273.84 457.95 271.39 459.34 269.57 C 463.07 267.82 467.13 266.87 470.79 264.94 C 470.69 259.74 470.60 254.54 470.55 249.34 C 466.61 247.46 461.89 247.16 458.30 244.75 C 456.27 239.58 454.43 234.29 451.31 229.63 C 452.85 225.66 454.83 221.87 456.38 217.90 C 452.80 213.95 448.85 210.38 444.90 206.81 C 441.47 208.30 438.36 210.39 434.93 211.87 C 433.22 212.89 431.54 211.49 430.00 210.86 C 426.12 208.75 421.88 207.47 417.62 206.40 C 415.89 202.55 414.72 198.48 412.96 194.64 C 407.68 194.59 402.31 194.19 397.09 195.10 M 498.33 274.26 C 497.49 276.78 496.85 279.38 495.73 281.79 C 492.37 283.83 488.46 284.90 485.04 286.89 C 482.40 285.89 479.91 283.99 477.05 283.89 C 474.41 286.01 472.35 288.73 470.10 291.25 C 471.33 293.81 472.57 296.37 473.80 298.94 C 472.08 302.36 470.68 305.92 469.57 309.58 C 467.02 310.73 464.08 311.25 461.87 312.99 C 461.58 316.28 461.65 319.62 462.11 322.90 C 464.38 324.60 467.48 324.66 469.88 326.17 C 471.24 328.84 472.16 331.71 473.58 334.36 C 475.90 337.65 472.03 340.96 471.30 344.17 C 473.69 346.81 476.33 349.21 479.03 351.53 C 480.68 350.72 482.32 349.87 484.00 349.09 C 487.69 346.72 491.24 350.71 494.93 351.28 C 498.92 351.99 498.74 356.90 500.29 359.84 C 503.83 359.93 507.39 359.87 510.94 359.74 C 511.93 357.11 512.83 354.44 513.66 351.75 C 517.29 350.51 520.67 348.68 524.19 347.18 C 526.96 347.70 529.39 349.31 532.01 350.33 C 534.47 347.98 537.07 345.69 539.06 342.90 C 538.60 340.08 536.74 337.69 535.74 335.03 C 537.43 331.71 538.51 328.15 539.80 324.67 C 542.07 323.06 544.94 322.65 547.35 321.29 C 548.13 317.91 547.77 314.23 547.31 310.80 C 544.76 309.57 542.02 308.82 539.40 307.79 C 538.42 304.86 537.10 302.06 535.76 299.28 C 533.71 295.85 537.83 292.79 537.77 289.34 C 535.57 286.73 532.92 284.55 530.41 282.26 C 527.93 283.50 525.44 284.72 522.95 285.92 C 519.42 284.36 515.82 282.97 512.15 281.79 C 511.09 279.20 510.04 276.60 509.01 274.01 C 505.44 273.89 501.88 273.98 498.33 274.26 Z" />
<path fill="#e9effd" opacity="1.00" d=" M 216.91 340.46 C 223.49 330.85 229.65 320.90 237.10 311.93 C 239.06 329.40 241.04 346.88 243.56 364.29 C 244.16 368.77 245.41 373.29 244.55 377.82 C 235.92 364.95 226.61 352.54 216.91 340.46 Z" />
<path fill="#e9effd" opacity="1.00" d=" M 152.27 541.01 C 153.49 528.52 153.95 515.82 157.11 503.64 C 157.11 518.42 156.25 533.18 156.15 547.96 C 155.84 604.40 167.75 661.01 191.94 712.07 C 192.65 713.42 193.55 714.64 194.43 715.90 C 195.00 732.66 195.02 749.44 195.28 766.20 C 194.60 765.37 193.98 764.52 193.39 763.65 C 160.42 694.76 146.95 617.05 152.27 541.01 Z" />
<path fill="#e9effd" opacity="1.00" d=" M 782.70 643.92 C 783.50 641.81 787.14 645.70 785.03 646.36 C 784.09 645.68 783.32 644.87 782.70 643.92 Z" />
</g>
<g id="#ff8a83ff">
<path fill="#ff8a83" opacity="1.00" d=" M 713.67 151.67 C 722.29 147.57 732.72 147.58 741.33 151.70 C 753.20 157.31 765.04 162.97 776.91 168.57 C 772.25 170.30 767.83 172.62 763.13 174.24 C 753.20 177.53 744.06 182.87 733.86 185.39 C 731.27 184.19 728.41 182.58 725.48 183.54 C 722.37 184.55 719.54 186.20 716.58 187.55 C 676.59 206.53 636.62 225.56 596.60 244.50 C 593.65 245.71 590.97 248.16 590.77 251.53 C 590.05 261.59 590.10 271.69 590.29 281.77 C 585.50 283.26 580.88 285.23 576.28 287.20 C 569.86 289.92 562.91 291.63 557.17 295.73 C 556.18 278.47 556.25 261.14 557.44 243.88 C 558.19 232.69 565.28 222.24 575.37 217.37 C 613.42 199.22 651.54 181.23 689.59 163.08 C 697.63 159.31 705.64 155.46 713.67 151.67 M 717.71 160.62 C 707.00 165.50 696.38 170.64 685.77 175.74 C 683.93 176.19 684.25 177.85 684.99 179.11 C 696.85 174.11 708.34 168.20 719.99 162.73 C 719.80 161.62 719.16 159.57 717.71 160.62 M 671.41 182.50 C 640.93 197.01 610.43 211.45 579.96 225.96 C 572.66 229.36 567.56 236.91 567.14 244.95 C 566.34 258.48 565.85 272.08 566.62 285.61 C 566.95 285.86 567.60 286.37 567.92 286.62 L 569.17 286.15 C 569.38 271.84 568.91 257.44 570.35 243.16 C 571.33 236.78 575.75 231.16 581.60 228.50 C 612.32 213.87 643.10 199.37 673.77 184.67 C 676.47 183.19 673.30 180.57 671.41 182.50 Z" />
</g>
<g id="#ffe4e3ff">
<path fill="#ffe4e3" opacity="1.00" d=" M 717.71 160.62 C 719.16 159.57 719.80 161.62 719.99 162.73 C 708.34 168.20 696.85 174.11 684.99 179.11 C 684.25 177.85 683.93 176.19 685.77 175.74 C 696.38 170.64 707.00 165.50 717.71 160.62 Z" />
<path fill="#ffe4e3" opacity="1.00" d=" M 671.41 182.50 C 673.30 180.57 676.47 183.19 673.77 184.67 C 643.10 199.37 612.32 213.87 581.60 228.50 C 575.75 231.16 571.33 236.78 570.35 243.16 C 568.91 257.44 569.38 271.84 569.17 286.15 L 567.92 286.62 C 567.60 286.37 566.95 285.86 566.62 285.61 C 565.85 272.08 566.34 258.48 567.14 244.95 C 567.56 236.91 572.66 229.36 579.96 225.96 C 610.43 211.45 640.93 197.01 671.41 182.50 Z" />
</g>
<g id="#ff857eff">
<path fill="#ff857e" opacity="1.00" d=" M 763.13 174.24 C 767.83 172.62 772.25 170.30 776.91 168.57 C 806.27 182.59 835.69 196.47 865.06 210.45 C 857.21 214.38 848.60 216.42 840.88 220.62 C 835.37 223.44 828.64 223.87 823.98 228.21 C 793.93 213.96 763.87 199.72 733.86 185.39 C 744.06 182.87 753.20 177.53 763.13 174.24 Z" />
<path fill="#ff857e" opacity="1.00" d=" M 676.57 320.31 C 680.85 320.08 685.12 319.84 689.41 319.64 C 690.85 319.57 692.29 319.50 693.74 319.43 C 695.94 323.64 699.40 326.91 702.76 330.17 C 706.66 334.52 712.24 336.84 716.05 341.30 C 711.08 346.67 709.18 354.82 712.14 361.65 C 713.50 365.38 716.80 367.79 719.15 370.84 C 720.45 372.50 720.12 374.75 719.55 376.63 C 717.74 382.62 715.15 388.36 713.50 394.39 C 712.16 398.44 715.75 402.90 719.97 402.59 C 727.32 402.65 734.68 402.72 742.03 402.53 C 745.78 402.54 748.90 398.55 747.97 394.92 C 746.07 387.45 742.61 380.45 740.75 372.98 C 740.09 370.85 741.47 368.96 742.69 367.38 C 749.65 374.69 756.82 381.78 764.19 388.68 C 773.56 397.86 782.59 407.40 792.13 416.40 C 790.68 417.58 789.14 418.77 787.32 419.31 C 768.66 419.43 749.99 419.34 731.33 419.35 C 725.32 411.81 717.66 405.88 710.93 399.06 C 698.54 387.44 686.84 375.13 674.71 363.25 C 671.68 360.31 668.71 357.30 666.07 354.01 C 665.83 346.01 665.53 338.02 665.29 330.02 C 665.10 327.39 665.68 324.55 667.75 322.74 C 670.03 320.39 673.55 320.58 676.57 320.31 Z" />
</g>
<g id="#0e056eff">
<path fill="#0e056e" opacity="1.00" d=" M 725.48 183.54 C 728.41 182.58 731.27 184.19 733.86 185.39 C 763.87 199.72 793.93 213.96 823.98 228.21 C 829.55 230.91 835.16 233.54 840.74 236.22 C 837.61 239.01 833.51 240.15 829.70 241.67 C 812.93 248.70 796.04 255.43 779.14 262.13 C 774.22 250.50 763.48 241.56 751.11 238.94 C 742.13 236.79 732.99 239.10 724.01 239.97 C 716.36 241.10 708.38 241.12 701.16 244.20 C 690.58 248.51 682.12 257.62 678.58 268.47 C 675.38 277.83 676.94 287.84 676.55 297.52 C 673.87 298.36 671.26 299.42 668.77 300.71 C 663.46 303.45 657.50 304.57 652.17 307.27 C 644.42 311.10 635.97 313.26 628.27 317.19 C 623.18 319.74 617.40 320.59 612.46 323.49 C 607.05 326.63 600.85 327.87 595.24 330.57 C 594.67 327.45 594.16 324.32 593.69 321.18 C 591.72 308.14 590.66 294.96 590.29 281.77 C 590.10 271.69 590.05 261.59 590.77 251.53 C 590.97 248.16 593.65 245.71 596.60 244.50 C 636.62 225.56 676.59 206.53 716.58 187.55 C 719.54 186.20 722.37 184.55 725.48 183.54 Z" />
<path fill="#0e056e" opacity="1.00" d=" M 854.24 630.24 C 857.20 626.10 861.39 623.02 864.07 618.66 C 870.81 627.27 875.41 637.45 877.95 648.06 C 881.11 661.61 881.37 676.54 875.27 689.34 C 870.20 699.95 860.04 707.21 849.26 711.26 C 832.42 717.56 813.95 718.13 796.27 715.89 C 793.56 715.52 790.87 715.04 788.19 714.54 C 785.75 714.06 783.32 713.50 780.92 712.90 C 784.13 709.72 786.33 705.69 789.58 702.55 C 792.38 699.69 795.16 696.79 797.61 693.60 C 800.61 689.28 805.24 686.42 807.89 681.81 C 811.82 677.86 815.69 673.86 818.81 669.20 C 820.54 671.83 822.46 674.67 822.46 677.97 C 822.24 680.53 821.45 683.01 821.00 685.55 C 822.95 683.21 824.23 680.19 823.84 677.11 C 823.36 673.80 821.56 670.92 820.02 668.03 C 822.93 665.61 825.29 662.64 827.44 659.54 C 832.08 661.86 836.63 664.38 840.92 667.32 C 841.32 666.90 841.73 666.50 842.15 666.09 C 837.62 663.93 833.48 661.08 829.00 658.86 C 832.86 654.31 836.90 649.89 840.48 645.11 C 847.32 645.95 853.63 648.89 858.77 653.46 C 855.59 647.22 848.10 645.44 841.83 644.04 C 845.95 639.42 850.56 635.24 854.24 630.24 M 859.22 653.79 C 860.09 656.78 860.45 659.89 860.58 663.01 C 860.75 659.87 860.54 656.68 859.22 653.79 M 844.18 669.96 C 846.60 671.79 848.80 674.14 849.80 677.07 C 850.75 680.58 849.47 684.11 848.77 687.53 C 851.26 685.54 851.44 682.15 851.33 679.23 C 851.21 674.91 848.20 671.45 845.20 668.67 C 844.51 666.44 841.31 669.63 844.18 669.96 M 844.75 688.65 C 844.77 689.01 844.81 689.72 844.83 690.08 C 846.00 690.23 847.00 689.86 847.81 688.98 C 847.68 687.63 845.52 688.20 844.75 688.65 Z" />
</g>
<g id="#dce7fdff">
<path fill="#dce7fd" opacity="1.00" d=" M 252.94 209.11 C 253.42 208.88 254.37 208.42 254.85 208.18 C 258.33 215.24 260.97 222.66 264.09 229.88 C 287.91 289.90 307.45 351.76 320.25 415.09 C 317.49 415.16 314.74 415.23 311.98 415.30 C 298.66 347.11 279.35 280.13 254.88 215.11 C 254.15 213.14 253.54 211.12 252.94 209.11 Z" />
</g>
<g id="#fe8177ff">
<path fill="#fe8177" opacity="1.00" d=" M 840.88 220.62 C 848.60 216.42 857.21 214.38 865.06 210.45 C 871.55 213.83 878.60 216.22 884.61 220.45 C 891.62 225.67 896.40 233.84 897.34 242.56 C 894.43 246.48 889.36 247.38 885.14 249.24 C 878.17 251.70 871.57 255.11 864.50 257.29 C 864.30 254.40 864.59 251.33 863.30 248.65 C 862.09 246.16 859.40 245.05 857.07 243.91 C 851.60 241.38 846.20 238.74 840.74 236.22 C 835.16 233.54 829.55 230.91 823.98 228.21 C 828.64 223.87 835.37 223.44 840.88 220.62 Z" />
</g>
<g id="#13097aff">
<path fill="#13097a" opacity="1.00" d=" M 840.74 236.22 C 846.20 238.74 851.60 241.38 857.07 243.91 C 859.40 245.05 862.09 246.16 863.30 248.65 C 864.59 251.33 864.30 254.40 864.50 257.29 C 864.91 269.85 864.85 282.44 864.02 294.99 C 860.44 296.25 856.98 297.78 853.58 299.46 C 848.24 302.11 842.33 303.33 837.00 306.00 C 830.42 309.35 823.28 311.39 816.60 314.54 C 809.09 318.04 800.91 319.91 793.68 324.03 C 793.78 321.16 793.19 317.99 790.76 316.15 C 788.45 314.05 785.18 314.33 782.31 314.44 C 782.32 302.29 782.32 290.14 782.32 277.99 C 782.32 272.55 781.25 267.14 779.14 262.13 C 796.04 255.43 812.93 248.70 829.70 241.67 C 833.51 240.15 837.61 239.01 840.74 236.22 Z" />
</g>
<g id="#fe7062ff">
<path fill="#fe7062" opacity="1.00" d=" M 724.01 239.97 C 732.99 239.10 742.13 236.79 751.11 238.94 C 763.48 241.56 774.22 250.50 779.14 262.13 C 781.25 267.14 782.32 272.55 782.32 277.99 C 782.32 290.14 782.32 302.29 782.31 314.44 C 778.02 314.69 773.74 314.94 769.46 315.20 C 769.45 302.78 769.47 290.37 769.46 277.95 C 769.52 270.54 766.38 263.19 760.95 258.15 C 755.42 252.91 747.59 250.22 740.01 251.02 C 733.04 251.75 726.11 252.73 719.15 253.51 C 714.01 254.10 708.65 254.53 704.02 257.05 C 695.21 261.49 689.34 271.08 689.43 280.96 C 689.39 293.85 689.46 306.75 689.41 319.64 C 685.12 319.84 680.85 320.08 676.57 320.31 C 676.56 312.71 676.58 305.11 676.55 297.52 C 676.94 287.84 675.38 277.83 678.58 268.47 C 682.12 257.62 690.58 248.51 701.16 244.20 C 708.38 241.12 716.36 241.10 724.01 239.97 Z" />
<path fill="#fe7062" opacity="1.00" d=" M 836.41 418.34 C 848.22 414.14 859.37 408.06 871.53 404.88 C 869.32 409.90 866.89 414.82 864.31 419.65 C 849.42 447.58 829.37 472.74 805.45 493.46 C 799.18 498.88 792.90 504.32 786.17 509.16 C 781.03 512.23 776.14 515.68 771.06 518.84 C 764.16 523.03 757.15 527.05 749.88 530.59 C 744.46 533.25 738.97 535.82 733.12 537.42 L 732.57 536.81 L 732.34 537.53 C 726.45 538.01 720.37 537.57 714.90 535.17 C 704.12 530.53 693.77 524.92 683.78 518.78 C 679.55 516.15 675.42 513.39 671.33 510.57 C 673.63 508.10 675.93 505.63 678.18 503.12 C 674.16 503.00 670.11 503.27 666.12 502.72 C 664.55 502.62 663.83 501.05 663.11 499.89 C 661.73 497.39 660.39 494.86 658.80 492.49 L 658.27 491.66 C 666.66 486.20 676.93 484.53 685.45 479.28 C 697.44 488.12 710.23 495.94 723.75 502.22 C 726.35 503.57 729.41 503.21 731.95 501.89 C 768.74 484.35 800.59 456.69 823.25 422.83 C 828.05 422.75 831.98 419.74 836.41 418.34 Z" />
<path fill="#fe7062" opacity="1.00" d=" M 831.38 506.41 C 834.52 500.98 840.77 497.68 847.02 498.03 C 864.05 498.21 881.08 498.35 898.11 498.55 C 904.60 498.52 910.73 502.66 913.42 508.52 C 915.05 511.76 915.14 515.47 915.14 519.03 C 915.10 532.01 915.18 545.00 915.20 557.98 C 915.16 563.06 915.60 568.20 914.55 573.21 C 912.32 579.86 906.14 585.24 898.96 585.37 C 881.63 585.62 864.29 585.69 846.96 585.87 C 839.98 586.20 833.19 581.83 830.49 575.42 C 828.85 571.89 829.00 567.93 828.97 564.14 C 828.99 548.75 828.96 533.36 828.86 517.98 C 828.79 514.00 829.16 509.83 831.38 506.41 M 846.40 503.52 C 839.31 504.95 833.90 511.79 834.00 519.00 C 833.95 533.00 834.05 547.00 833.99 561.00 C 833.97 564.51 833.92 568.18 835.51 571.41 C 837.97 576.98 843.81 580.86 849.93 580.82 C 863.60 580.80 877.28 580.55 890.96 580.52 C 894.60 580.53 898.46 580.58 901.73 578.72 C 907.14 576.03 910.50 570.03 910.33 564.03 C 910.32 551.34 910.23 538.65 910.23 525.96 C 910.17 521.20 910.69 516.07 908.16 511.80 C 905.29 506.37 899.15 503.11 893.06 503.51 C 877.51 503.69 861.92 502.74 846.40 503.52 Z" />
<path fill="#fe7062" opacity="1.00" d=" M 838.93 510.96 C 841.64 507.13 846.37 505.13 851.01 505.39 C 865.34 505.54 879.69 505.62 894.03 505.73 C 899.25 505.59 904.33 508.70 906.57 513.41 C 908.28 516.69 908.09 520.48 908.07 524.07 C 903.20 524.09 898.33 524.15 893.47 523.92 C 893.30 520.18 892.39 516.14 889.17 513.84 C 885.50 510.66 880.38 511.64 875.95 511.47 C 870.45 511.62 864.92 511.01 859.45 511.65 C 853.88 512.82 851.14 518.55 850.96 523.80 C 846.05 523.81 841.14 523.77 836.24 523.72 C 836.11 519.35 836.03 514.55 838.93 510.96 Z" />
<path fill="#fe7062" opacity="1.00" d=" M 858.34 514.46 C 861.05 513.23 864.13 513.72 867.02 513.64 C 872.69 513.84 878.39 513.44 884.05 513.93 C 888.37 514.46 891.41 518.79 891.11 523.03 C 891.16 535.68 891.16 548.33 891.17 560.99 C 891.54 565.58 887.78 570.16 883.05 570.06 C 876.04 570.20 869.03 570.23 862.03 570.18 C 857.63 570.33 853.74 566.36 853.77 562.01 C 853.54 549.01 853.67 536.00 853.57 523.01 C 853.32 519.52 855.13 515.98 858.34 514.46 Z" />
<path fill="#fe7062" opacity="1.00" d=" M 836.24 526.12 C 841.24 525.98 846.23 526.06 851.23 526.10 C 851.37 531.00 851.50 535.92 851.17 540.82 C 846.21 540.83 841.26 540.81 836.31 540.74 C 836.28 535.86 836.25 530.99 836.24 526.12 Z" />
<path fill="#fe7062" opacity="1.00" d=" M 893.33 526.28 C 898.19 526.26 903.05 526.29 907.92 526.28 C 908.15 531.13 908.15 535.99 907.98 540.85 C 903.10 540.87 898.22 540.90 893.35 540.80 C 893.36 535.95 893.32 531.11 893.33 526.28 Z" />
<path fill="#fe7062" opacity="1.00" d=" M 836.26 543.19 C 841.25 543.04 846.26 543.09 851.26 543.13 C 851.41 548.02 851.53 552.93 851.16 557.83 C 846.21 557.79 841.26 557.90 836.32 557.77 C 836.34 552.91 836.33 548.05 836.26 543.19 Z" />
<path fill="#fe7062" opacity="1.00" d=" M 893.32 543.22 C 898.18 543.03 903.06 543.11 907.94 543.08 C 908.13 547.95 908.28 552.83 907.88 557.69 C 903.05 557.67 898.22 557.71 893.40 557.65 C 893.39 552.84 893.42 548.03 893.32 543.22 Z" />
<path fill="#fe7062" opacity="1.00" d=" M 836.31 560.21 C 841.23 560.11 846.15 560.08 851.08 560.14 C 851.53 563.63 852.07 567.52 855.01 569.87 C 858.43 573.26 863.60 572.53 867.99 572.56 C 873.66 572.34 879.37 572.82 885.02 572.18 C 890.61 571.22 893.79 565.46 893.56 560.12 C 898.40 559.84 903.25 559.88 908.10 560.01 C 908.36 564.73 908.07 569.96 904.62 573.58 C 901.81 576.95 897.34 578.40 893.04 578.15 C 878.71 578.20 864.37 578.40 850.03 578.42 C 844.53 578.53 839.35 574.86 837.38 569.78 C 836.11 566.75 836.37 563.41 836.31 560.21 Z" />
<path fill="#fe7062" opacity="1.00" d=" M 716.85 605.99 C 718.15 605.43 719.52 604.41 721.03 604.99 C 728.47 606.85 735.89 608.82 743.38 610.50 L 743.53 609.97 L 743.85 609.02 C 743.80 609.49 743.71 610.44 743.67 610.91 C 745.39 612.32 747.24 613.57 749.22 614.62 C 752.29 615.33 755.41 615.76 758.54 616.18 C 754.91 626.43 749.93 636.13 745.48 646.04 C 741.30 655.22 737.04 664.79 736.86 675.05 C 736.68 681.74 739.46 688.21 743.84 693.20 C 738.48 694.01 733.07 693.31 727.90 691.82 C 723.17 679.62 716.73 668.10 709.92 656.95 C 707.98 653.17 710.00 648.95 711.04 645.21 C 709.20 643.76 707.63 642.02 706.35 640.07 C 709.28 628.54 713.81 617.48 716.85 605.99 Z" />
<path fill="#fe7062" opacity="1.00" d=" M 402.48 631.72 C 404.66 631.92 406.85 632.13 409.03 632.41 C 410.73 643.41 412.57 654.39 414.33 665.39 C 417.15 682.96 420.00 700.52 422.84 718.09 C 424.93 731.16 427.06 744.22 429.16 757.28 C 429.95 762.19 430.75 767.10 431.53 772.02 C 395.84 772.03 360.15 772.11 324.46 771.98 C 326.99 750.24 329.56 728.52 332.11 706.79 C 333.65 693.47 335.25 680.16 336.79 666.84 C 338.05 656.24 339.27 645.63 340.54 635.03 C 342.75 634.71 344.95 634.35 347.16 634.02 C 347.85 637.14 349.96 639.91 353.15 640.74 C 367.45 645.55 383.60 647.37 397.99 641.95 C 402.07 640.41 403.31 635.64 402.48 631.72 Z" />
</g>
<g id="#fe7a6eff">
<path fill="#fe7a6e" opacity="1.00" d=" M 897.34 242.56 L 897.54 242.33 C 898.76 265.82 898.95 289.43 896.25 312.84 C 894.26 331.10 890.84 349.24 885.66 366.87 C 872.35 371.48 859.58 377.56 846.40 382.52 C 846.12 382.13 845.56 381.34 845.28 380.95 C 847.15 376.12 849.00 371.27 850.60 366.34 C 858.23 343.29 862.46 319.19 864.02 294.99 C 864.85 282.44 864.91 269.85 864.50 257.29 C 871.57 255.11 878.17 251.70 885.14 249.24 C 889.36 247.38 894.43 246.48 897.34 242.56 Z" />
<path fill="#fe7a6e" opacity="1.00" d=" M 572.39 376.98 C 582.40 371.81 593.25 368.50 603.51 363.86 C 606.93 374.56 611.07 385.03 615.93 395.16 C 626.92 418.08 641.82 439.10 659.78 457.08 C 657.21 460.59 652.77 461.39 649.00 462.95 C 641.77 465.81 634.58 468.78 627.52 472.02 C 626.17 470.55 624.84 469.06 623.54 467.56 C 612.55 454.89 602.79 441.15 594.45 426.59 C 591.03 420.60 587.83 414.49 584.89 408.26 C 580.08 398.10 575.95 387.63 572.39 376.98 Z" />
</g>
<g id="#e1e9feff">
<path fill="#e1e9fe" opacity="1.00" d=" M 403.29 244.37 C 411.12 242.28 419.73 247.97 421.07 255.92 C 423.03 264.73 415.09 274.14 406.02 273.31 C 400.02 273.22 394.51 268.92 392.63 263.31 C 391.78 259.26 391.68 254.64 394.02 251.04 C 396.03 247.66 399.47 245.25 403.29 244.37 M 405.36 247.43 C 396.43 247.89 391.58 260.48 398.51 266.43 C 403.60 272.50 414.20 270.17 416.84 262.89 C 420.26 255.56 413.28 246.42 405.36 247.43 Z" />
</g>
<g id="#110877ff">
<path fill="#110877" opacity="1.00" d=" M 719.15 253.51 C 726.11 252.73 733.04 251.75 740.01 251.02 C 747.59 250.22 755.42 252.91 760.95 258.15 C 766.38 263.19 769.52 270.54 769.46 277.95 C 769.47 290.37 769.45 302.78 769.46 315.20 C 744.22 316.65 718.98 317.99 693.74 319.43 C 692.29 319.50 690.85 319.57 689.41 319.64 C 689.46 306.75 689.39 293.85 689.43 280.96 C 689.34 271.08 695.21 261.49 704.02 257.05 C 708.65 254.53 714.01 254.10 719.15 253.51 Z" />
</g>
<g id="#91b3faff">
<path fill="#91b3fa" opacity="1.00" d=" M 142.79 282.92 C 141.69 278.46 145.55 273.96 150.01 273.82 C 152.51 273.56 154.72 274.99 156.47 276.61 C 178.32 296.19 198.47 317.64 216.91 340.46 C 226.61 352.54 235.92 364.95 244.55 377.82 C 252.93 390.38 261.30 403.00 268.24 416.42 C 252.49 416.88 236.74 417.22 220.99 417.66 C 216.76 417.80 212.47 417.50 208.29 418.35 C 200.84 420.07 194.69 425.85 191.82 432.86 C 190.07 437.04 190.65 441.66 190.67 446.07 C 191.06 470.64 191.34 495.21 191.75 519.78 C 192.45 567.28 193.12 614.79 193.81 662.30 C 194.00 680.16 194.52 698.03 194.43 715.90 C 193.55 714.64 192.65 713.42 191.94 712.07 C 167.75 661.01 155.84 604.40 156.15 547.96 C 156.25 533.18 157.11 518.42 157.11 503.64 C 157.92 468.40 157.49 433.11 155.83 397.90 C 153.85 359.36 150.51 320.77 142.79 282.92 Z" />
<path fill="#91b3fa" opacity="1.00" d=" M 784.58 615.00 C 783.71 617.95 782.35 620.84 782.52 623.99 C 782.37 627.98 784.49 631.47 785.87 635.08 C 781.98 629.16 780.85 621.29 784.58 615.00 Z" />
</g>
<g id="#ff847cff">
<path fill="#ff847c" opacity="1.00" d=" M 576.28 287.20 C 580.88 285.23 585.50 283.26 590.29 281.77 C 590.66 294.96 591.72 308.14 593.69 321.18 C 583.21 325.99 572.39 330.00 561.72 334.36 C 559.42 321.59 558.06 308.67 557.17 295.73 C 562.91 291.63 569.86 289.92 576.28 287.20 Z" />
</g>
<g id="#e2e9fdff">
<path fill="#e2e9fd" opacity="1.00" d=" M 480.05 316.03 C 479.44 303.11 491.49 291.99 504.08 291.89 C 512.87 291.54 521.69 296.30 526.05 303.97 C 530.47 311.09 530.74 320.52 527.01 327.99 C 526.61 329.39 525.13 329.64 523.98 330.12 C 524.05 325.91 526.71 322.26 526.72 318.03 C 527.64 306.35 517.85 294.96 506.02 294.66 C 493.53 293.23 481.75 304.51 482.23 316.98 C 482.09 327.88 491.07 337.76 501.87 338.90 C 505.28 339.54 508.81 337.74 512.10 339.11 C 511.28 339.98 510.59 341.22 509.28 341.37 C 502.38 342.57 494.92 340.87 489.41 336.49 C 483.14 331.80 479.43 323.87 480.05 316.03 Z" />
<path fill="#e2e9fd" opacity="1.00" d=" M 272.90 870.32 C 430.66 870.22 588.42 870.31 746.18 870.31 C 747.80 877.50 749.32 884.72 750.91 891.92 C 714.44 914.09 675.01 931.49 633.89 942.96 C 575.67 959.37 513.90 964.22 454.05 954.70 C 425.08 950.20 396.46 942.89 369.32 931.71 C 338.07 919.15 308.79 901.67 282.87 880.15 C 279.59 876.84 275.02 874.64 272.90 870.32 Z" />
</g>
<g id="#160c85ff">
<path fill="#160c85" opacity="1.00" d=" M 853.58 299.46 C 856.98 297.78 860.44 296.25 864.02 294.99 C 862.46 319.19 858.23 343.29 850.60 366.34 C 843.86 367.69 837.70 370.71 831.48 373.50 C 831.16 373.59 830.51 373.76 830.18 373.85 C 824.30 376.57 818.00 378.25 812.17 381.09 C 806.15 384.08 799.58 385.79 793.64 388.96 C 793.67 367.32 793.60 345.67 793.68 324.03 C 800.91 319.91 809.09 318.04 816.60 314.54 C 823.28 311.39 830.42 309.35 837.00 306.00 C 842.33 303.33 848.24 302.11 853.58 299.46 Z" />
</g>
<g id="#120879ff">
<path fill="#120879" opacity="1.00" d=" M 668.77 300.71 C 671.26 299.42 673.87 298.36 676.55 297.52 C 676.58 305.11 676.56 312.71 676.57 320.31 C 673.55 320.58 670.03 320.39 667.75 322.74 C 665.68 324.55 665.10 327.39 665.29 330.02 C 665.53 338.02 665.83 346.01 666.07 354.01 C 666.33 361.31 666.53 368.60 666.79 375.90 C 662.25 376.99 657.73 378.30 653.61 380.55 C 648.62 383.29 642.91 384.26 637.89 386.91 C 630.98 390.64 623.39 392.83 615.93 395.16 C 611.07 385.03 606.93 374.56 603.51 363.86 C 600.04 352.96 597.29 341.83 595.24 330.57 C 600.85 327.87 607.05 326.63 612.46 323.49 C 617.40 320.59 623.18 319.74 628.27 317.19 C 635.97 313.26 644.42 311.10 652.17 307.27 C 657.50 304.57 663.46 303.45 668.77 300.71 Z" />
<path fill="#120879" opacity="1.00" d=" M 367.20 585.14 C 372.21 582.69 378.08 582.32 383.38 584.01 C 385.62 585.17 387.57 586.80 389.29 588.64 C 388.56 597.40 389.18 606.19 388.89 614.97 C 388.74 618.73 389.00 622.51 389.64 626.23 C 382.43 626.73 375.20 626.76 367.98 626.59 C 368.17 615.05 367.94 603.52 368.07 591.98 C 368.07 589.67 367.65 587.39 367.20 585.14 Z" />
<path fill="#120879" opacity="1.00" d=" M 799.30 647.18 C 808.46 651.80 818.42 654.61 827.44 659.54 C 825.29 662.64 822.93 665.61 820.02 668.03 C 819.72 668.32 819.11 668.90 818.81 669.20 C 815.69 673.86 811.82 677.86 807.89 681.81 C 805.24 686.42 800.61 689.28 797.61 693.60 C 795.16 696.79 792.38 699.69 789.58 702.55 C 786.33 705.69 784.13 709.72 780.92 712.90 C 768.54 709.59 756.20 704.66 746.57 695.98 C 747.16 694.20 747.02 691.84 748.85 690.79 C 752.54 688.04 756.25 684.98 758.31 680.76 C 759.25 678.64 761.33 677.44 762.97 675.93 C 765.92 673.50 768.12 670.36 770.51 667.42 C 776.63 661.30 781.82 654.34 787.76 648.04 C 796.98 654.13 807.43 658.19 816.15 665.09 C 810.21 659.65 802.79 656.36 795.83 652.50 C 796.98 650.72 798.14 648.95 799.30 647.18 Z" />
</g>
<g id="#e3eafdff">
<path fill="#e3eafd" opacity="1.00" d=" M 501.31 307.54 C 507.97 304.76 515.83 311.00 514.80 318.07 C 514.27 324.74 506.10 329.23 500.26 325.77 C 492.73 322.52 493.48 309.95 501.31 307.54 M 501.30 310.36 C 499.21 311.53 497.50 313.64 497.26 316.08 C 496.60 320.39 500.67 324.75 505.05 324.28 C 509.91 324.12 513.70 318.16 511.26 313.77 C 509.65 310.12 504.80 308.52 501.30 310.36 Z" />
<path fill="#e3eafd" opacity="1.00" d=" M 885.66 366.87 C 890.84 349.24 894.26 331.10 896.25 312.84 C 899.40 319.15 903.80 324.71 907.10 330.94 C 916.59 346.82 924.37 363.66 931.12 380.87 C 933.47 387.53 936.29 394.06 937.93 400.96 C 930.52 398.54 922.66 399.64 915.03 399.70 C 901.25 399.97 887.47 400.58 873.68 400.64 C 878.08 389.54 882.44 378.39 885.66 366.87 Z" />
</g>
<g id="#ff8c87ff">
<path fill="#ff8c87" opacity="1.00" d=" M 782.31 314.44 C 785.18 314.33 788.45 314.05 790.76 316.15 C 793.19 317.99 793.78 321.16 793.68 324.03 C 793.60 345.67 793.67 367.32 793.64 388.96 C 793.62 395.96 793.66 402.97 793.66 409.97 C 793.75 412.22 793.17 414.41 792.13 416.40 C 782.59 407.40 773.56 397.86 764.19 388.68 C 756.82 381.78 749.65 374.69 742.69 367.38 C 746.80 362.93 748.80 356.61 747.43 350.63 C 745.80 342.58 738.29 336.17 730.06 335.97 C 724.86 335.64 719.86 337.87 716.05 341.30 C 712.24 336.84 706.66 334.52 702.76 330.17 C 699.40 326.91 695.94 323.64 693.74 319.43 C 718.98 317.99 744.22 316.65 769.46 315.20 C 773.74 314.94 778.02 314.69 782.31 314.44 Z" />
</g>
<g id="#fe8077ff">
<path fill="#fe8077" opacity="1.00" d=" M 593.69 321.18 C 594.16 324.32 594.67 327.45 595.24 330.57 C 597.29 341.83 600.04 352.96 603.51 363.86 C 593.25 368.50 582.40 371.81 572.39 376.98 C 567.76 363.07 564.28 348.79 561.72 334.36 C 572.39 330.00 583.21 325.99 593.69 321.18 Z" />
<path fill="#fe8077" opacity="1.00" d=" M 666.07 354.01 C 668.71 357.30 671.68 360.31 674.71 363.25 C 686.84 375.13 698.54 387.44 710.93 399.06 C 717.66 405.88 725.32 411.81 731.33 419.35 C 712.88 419.35 694.43 419.41 675.98 419.32 C 671.51 419.54 667.73 415.45 667.96 411.06 C 667.52 399.34 667.22 387.62 666.79 375.90 C 666.53 368.60 666.33 361.31 666.07 354.01 Z" />
</g>
<g id="#e1473dff">
<path fill="#e1473d" opacity="1.00" d=" M 716.05 341.30 C 719.86 337.87 724.86 335.64 730.06 335.97 C 738.29 336.17 745.80 342.58 747.43 350.63 C 748.80 356.61 746.80 362.93 742.69 367.38 C 741.47 368.96 740.09 370.85 740.75 372.98 C 742.61 380.45 746.07 387.45 747.97 394.92 C 748.90 398.55 745.78 402.54 742.03 402.53 C 734.68 402.72 727.32 402.65 719.97 402.59 C 715.75 402.90 712.16 398.44 713.50 394.39 C 715.15 388.36 717.74 382.62 719.55 376.63 C 720.12 374.75 720.45 372.50 719.15 370.84 C 716.80 367.79 713.50 365.38 712.14 361.65 C 709.18 354.82 711.08 346.67 716.05 341.30 Z" />
</g>
<g id="#1a0f91ff">
<path fill="#1a0f91" opacity="1.00" d=" M 831.48 373.50 C 837.70 370.71 843.86 367.69 850.60 366.34 C 849.00 371.27 847.15 376.12 845.28 380.95 C 839.36 395.60 831.98 409.66 823.25 422.83 C 800.59 456.69 768.74 484.35 731.95 501.89 C 729.41 503.21 726.35 503.57 723.75 502.22 C 710.23 495.94 697.44 488.12 685.45 479.28 C 678.01 473.73 670.88 467.77 664.17 461.36 C 676.41 455.53 689.17 450.86 701.71 445.72 C 713.11 441.27 724.33 436.37 735.64 431.72 C 743.63 428.91 751.39 425.50 759.13 422.08 C 768.02 417.95 778.13 422.03 787.32 419.31 C 789.14 418.77 790.68 417.58 792.13 416.40 C 793.17 414.41 793.75 412.22 793.66 409.97 C 793.66 402.97 793.62 395.96 793.64 388.96 C 799.58 385.79 806.15 384.08 812.17 381.09 C 818.00 378.25 824.30 376.57 830.18 373.85 C 830.51 373.76 831.16 373.59 831.48 373.50 Z" />
<path fill="#1a0f91" opacity="1.00" d=" M 759.15 539.06 C 768.41 533.45 780.30 534.21 789.96 538.42 C 799.35 542.39 806.16 551.65 806.28 561.99 C 806.44 564.54 806.47 567.11 806.52 569.67 C 803.12 571.93 800.08 574.99 799.34 579.17 C 799.29 573.21 799.39 566.44 795.17 561.71 C 796.15 565.83 797.99 569.78 798.14 574.08 C 798.62 580.91 796.74 587.59 794.43 593.94 C 790.38 596.35 788.02 600.54 784.73 603.76 C 782.03 606.40 779.75 609.41 777.23 612.22 C 769.66 619.70 762.92 627.96 755.69 635.76 C 752.10 639.02 749.85 643.66 745.48 646.04 C 749.93 636.13 754.91 626.43 758.54 616.18 C 761.74 607.21 763.92 597.77 763.82 588.20 C 763.72 581.32 762.39 574.47 759.83 568.08 C 757.22 561.39 754.06 554.60 754.34 547.24 C 755.11 544.09 756.65 541.17 759.15 539.06 Z" />
<path fill="#1a0f91" opacity="1.00" d=" M 847.24 921.05 C 849.44 921.34 852.09 921.49 853.48 923.53 C 854.99 925.44 854.13 927.94 853.80 930.10 C 852.21 938.09 850.77 946.11 849.19 954.10 C 848.89 957.10 846.00 959.23 843.06 958.94 C 836.65 958.85 830.18 959.61 823.83 958.57 C 825.92 955.34 829.88 954.53 833.47 954.46 C 837.21 953.91 841.95 954.57 844.87 951.82 C 847.41 945.16 845.62 937.82 844.71 931.00 C 844.12 927.75 845.63 924.69 846.90 921.81 L 847.24 921.05 Z" />
<path fill="#1a0f91" opacity="1.00" d=" M 773.33 945.12 C 776.82 948.88 779.55 953.85 779.50 959.08 C 779.32 961.35 776.46 960.68 774.96 961.06 C 762.62 961.68 750.25 962.06 737.91 961.85 C 737.78 961.38 737.53 960.45 737.41 959.99 C 740.58 957.89 743.83 955.70 747.43 954.42 C 752.26 953.66 757.14 953.27 761.99 952.61 C 766.66 951.87 770.15 948.34 773.33 945.12 Z" />
</g>
<g id="#ff7467ff">
<path fill="#ff7467" opacity="1.00" d=" M 846.40 382.52 C 859.58 377.56 872.35 371.48 885.66 366.87 C 882.44 378.39 878.08 389.54 873.68 400.64 L 873.72 401.57 L 872.94 401.01 C 872.59 402.25 872.27 403.50 871.94 404.75 L 871.53 404.88 C 859.37 408.06 848.22 414.14 836.41 418.34 C 831.98 419.74 828.05 422.75 823.25 422.83 C 831.98 409.66 839.36 395.60 845.28 380.95 C 845.56 381.34 846.12 382.13 846.40 382.52 Z" />
<path fill="#ff7467" opacity="1.00" d=" M 659.78 457.08 C 661.22 458.52 662.68 459.95 664.17 461.36 C 670.88 467.77 678.01 473.73 685.45 479.28 C 676.93 484.53 666.66 486.20 658.27 491.66 C 655.00 486.11 651.66 479.58 645.01 477.62 C 641.31 477.93 641.50 482.67 640.56 485.37 C 636.07 481.06 631.71 476.62 627.52 472.02 C 634.58 468.78 641.77 465.81 649.00 462.95 C 652.77 461.39 657.21 460.59 659.78 457.08 Z" />
</g>
<g id="#170c87ff">
<path fill="#170c87" opacity="1.00" d=" M 653.61 380.55 C 657.73 378.30 662.25 376.99 666.79 375.90 C 667.22 387.62 667.52 399.34 667.96 411.06 C 667.73 415.45 671.51 419.54 675.98 419.32 C 694.43 419.41 712.88 419.35 731.33 419.35 C 749.99 419.34 768.66 419.43 787.32 419.31 C 778.13 422.03 768.02 417.95 759.13 422.08 C 751.39 425.50 743.63 428.91 735.64 431.72 C 724.33 436.37 713.11 441.27 701.71 445.72 C 689.17 450.86 676.41 455.53 664.17 461.36 C 662.68 459.95 661.22 458.52 659.78 457.08 C 641.82 439.10 626.92 418.08 615.93 395.16 C 623.39 392.83 630.98 390.64 637.89 386.91 C 642.91 384.26 648.62 383.29 653.61 380.55 Z" />
</g>
<g id="#4f51feff">
<path fill="#4f51fe" opacity="1.00" d=" M 873.68 400.64 C 887.47 400.58 901.25 399.97 915.03 399.70 C 922.66 399.64 930.52 398.54 937.93 400.96 C 951.59 405.16 961.69 418.68 961.56 433.01 C 961.36 444.65 961.04 456.29 960.75 467.93 C 954.82 468.20 948.86 468.05 943.03 466.87 C 942.52 457.80 944.51 448.36 941.47 439.59 C 937.82 429.68 929.04 421.73 918.69 419.43 C 912.54 418.03 906.23 418.88 900.00 418.88 C 888.10 419.04 876.20 419.07 864.31 419.65 C 866.89 414.82 869.32 409.90 871.53 404.88 L 871.94 404.75 C 872.27 403.50 872.59 402.25 872.94 401.01 L 873.72 401.57 L 873.68 400.64 Z" />
</g>
<g id="#4e50fbff">
<path fill="#4e50fb" opacity="1.00" d=" M 372.79 413.73 C 443.49 411.93 514.19 410.04 584.89 408.26 C 587.83 414.49 591.03 420.60 594.45 426.59 C 582.63 427.09 570.80 426.77 558.98 427.29 C 544.04 428.50 529.02 427.46 514.08 428.65 C 502.71 429.18 491.32 428.75 479.96 429.27 C 465.33 430.48 450.63 429.46 436.00 430.58 C 422.67 431.23 409.31 430.66 395.99 431.63 C 385.00 432.03 374.00 431.89 363.01 432.22 C 347.68 433.50 332.27 432.50 316.94 433.64 C 310.56 434.12 304.15 433.57 297.80 434.35 C 276.20 433.91 254.58 434.21 232.98 434.18 C 220.70 434.09 209.51 444.63 209.16 456.95 C 208.85 470.50 209.31 484.06 208.95 497.60 C 206.88 505.22 208.71 513.16 207.81 520.92 C 202.42 521.29 197.11 520.16 191.75 519.78 C 191.34 495.21 191.06 470.64 190.67 446.07 C 190.65 441.66 190.07 437.04 191.82 432.86 C 194.69 425.85 200.84 420.07 208.29 418.35 C 212.47 417.50 216.76 417.80 220.99 417.66 C 236.74 417.22 252.49 416.88 268.24 416.42 C 282.82 416.08 297.40 415.67 311.98 415.30 C 314.74 415.23 317.49 415.16 320.25 415.09 C 337.77 414.63 355.28 414.19 372.79 413.73 Z" />
</g>
<g id="#5b64fbff">
<path fill="#5b64fb" opacity="1.00" d=" M 900.00 418.88 C 906.23 418.88 912.54 418.03 918.69 419.43 C 929.04 421.73 937.82 429.68 941.47 439.59 C 944.51 448.36 942.52 457.80 943.03 466.87 C 943.21 478.60 941.87 490.28 942.03 502.01 C 942.07 518.03 940.75 534.01 940.90 550.03 C 941.04 558.83 940.18 567.61 940.08 576.41 C 933.15 575.14 926.13 574.05 919.06 574.22 C 917.49 574.29 916.00 573.67 914.55 573.21 C 915.60 568.20 915.16 563.06 915.20 557.98 C 915.18 545.00 915.10 532.01 915.14 519.03 C 915.14 515.47 915.05 511.76 913.42 508.52 C 910.73 502.66 904.60 498.52 898.11 498.55 C 881.08 498.35 864.05 498.21 847.02 498.03 C 840.77 497.68 834.52 500.98 831.38 506.41 C 829.16 509.83 828.79 514.00 828.86 517.98 C 828.96 533.36 828.99 548.75 828.97 564.14 C 821.39 563.61 813.86 562.51 806.28 561.99 C 806.16 551.65 799.35 542.39 789.96 538.42 C 793.94 536.61 798.57 533.84 798.82 528.95 C 799.42 523.43 794.06 519.29 789.02 518.82 C 783.05 518.30 777.03 518.52 771.06 518.84 C 776.14 515.68 781.03 512.23 786.17 509.16 C 792.90 504.32 799.18 498.88 805.45 493.46 C 829.37 472.74 849.42 447.58 864.31 419.65 C 876.20 419.07 888.10 419.04 900.00 418.88 Z" />
</g>
<g id="#5a63faff">
<path fill="#5a63fa" opacity="1.00" d=" M 514.08 428.65 C 529.02 427.46 544.04 428.50 558.98 427.29 C 570.80 426.77 582.63 427.09 594.45 426.59 C 602.79 441.15 612.55 454.89 623.54 467.56 C 600.02 467.78 576.51 467.61 552.99 467.64 C 550.50 467.65 547.66 467.85 545.99 469.97 C 541.29 475.54 541.19 484.58 545.73 490.27 C 547.42 492.53 550.41 492.65 553.00 492.64 C 581.95 492.39 610.90 492.46 639.86 492.11 C 640.38 495.71 641.43 499.33 643.66 502.28 C 648.11 508.10 653.44 513.20 657.71 519.17 C 623.83 519.86 589.92 519.46 556.03 519.95 C 551.63 520.05 546.94 521.56 544.20 525.19 C 541.83 528.17 541.76 532.76 544.23 535.71 C 547.10 539.16 551.72 540.54 556.09 540.51 C 590.27 540.39 624.45 539.89 658.64 539.82 C 659.20 549.18 660.49 558.49 662.56 567.63 C 627.70 567.61 592.85 568.02 557.99 568.06 C 552.99 567.94 547.42 569.08 544.15 573.20 C 542.25 575.34 542.39 578.35 542.06 581.01 C 532.68 580.10 523.27 579.37 513.96 577.97 C 513.94 545.96 514.01 513.94 513.93 481.94 C 514.35 479.08 511.60 477.31 509.02 477.74 C 421.36 477.75 333.69 477.75 246.03 477.75 C 243.43 477.31 240.89 479.25 241.30 482.01 C 241.26 510.95 241.31 539.89 241.29 568.83 C 231.57 568.33 222.00 566.05 212.25 566.30 C 211.15 576.98 213.32 587.88 211.04 598.43 C 211.07 554.63 211.06 510.83 211.07 467.04 C 211.11 461.05 210.50 454.75 213.11 449.15 C 216.39 441.37 224.58 436.22 232.97 436.19 C 251.63 436.08 270.30 436.16 288.97 436.18 C 291.96 436.00 295.62 437.04 297.80 434.35 C 304.15 433.57 310.56 434.12 316.94 433.64 C 332.27 432.50 347.68 433.50 363.01 432.22 C 374.00 431.89 385.00 432.03 395.99 431.63 C 409.31 430.66 422.67 431.23 436.00 430.58 C 450.63 429.46 465.33 430.48 479.96 429.27 C 491.32 428.75 502.71 429.18 514.08 428.65 Z" />
</g>
<g id="#4d4ffaff">
<path fill="#4d4ffa" opacity="1.00" d=" M 943.03 466.87 C 948.86 468.05 954.82 468.20 960.75 467.93 C 959.72 512.30 958.69 556.66 957.61 601.03 C 951.68 600.72 944.29 602.36 939.79 597.50 C 940.12 590.48 939.95 583.43 940.08 576.41 C 940.18 567.61 941.04 558.83 940.90 550.03 C 940.75 534.01 942.07 518.03 942.03 502.01 C 941.87 490.28 943.21 478.60 943.03 466.87 Z" />
</g>
<g id="#7d97f4ff">
<path fill="#7d97f4" opacity="1.00" d=" M 545.99 469.97 C 547.66 467.85 550.50 467.65 552.99 467.64 C 576.51 467.61 600.02 467.78 623.54 467.56 C 624.84 469.06 626.17 470.55 627.52 472.02 C 631.71 476.62 636.07 481.06 640.56 485.37 C 640.17 487.60 639.95 489.85 639.86 492.11 C 610.90 492.46 581.95 492.39 553.00 492.64 C 550.41 492.65 547.42 492.53 545.73 490.27 C 541.19 484.58 541.29 475.54 545.99 469.97 Z" />
<path fill="#7d97f4" opacity="1.00" d=" M 657.71 519.17 L 657.91 519.49 C 658.67 526.24 658.08 533.05 658.64 539.82 C 624.45 539.89 590.27 540.39 556.09 540.51 C 551.72 540.54 547.10 539.16 544.23 535.71 C 541.76 532.76 541.83 528.17 544.20 525.19 C 546.94 521.56 551.63 520.05 556.03 519.95 C 589.92 519.46 623.83 519.86 657.71 519.17 Z" />
<path fill="#7d97f4" opacity="1.00" d=" M 668.41 519.17 C 673.53 519.27 678.66 519.27 683.78 518.78 C 693.77 524.92 704.12 530.53 714.90 535.17 C 720.37 537.57 726.45 538.01 732.34 537.53 C 732.02 538.65 731.73 539.78 731.48 540.93 C 731.39 540.51 731.22 539.66 731.13 539.24 C 711.16 539.30 691.17 539.30 671.20 539.75 C 669.68 532.99 668.70 526.10 668.41 519.17 Z" />
<path fill="#7d97f4" opacity="1.00" d=" M 749.88 530.59 C 757.15 527.05 764.16 523.03 771.06 518.84 C 777.03 518.52 783.05 518.30 789.02 518.82 C 794.06 519.29 799.42 523.43 798.82 528.95 C 798.57 533.84 793.94 536.61 789.96 538.42 C 780.30 534.21 768.41 533.45 759.15 539.06 C 756.00 538.99 752.84 538.95 749.70 538.94 C 749.68 536.15 749.78 533.37 749.88 530.59 Z" />
<path fill="#7d97f4" opacity="1.00" d=" M 681.22 567.24 C 697.30 567.59 713.39 567.16 729.48 567.19 C 729.63 569.52 729.92 571.84 730.25 574.16 C 730.86 578.57 731.90 582.90 733.16 587.17 C 720.56 587.61 707.94 587.07 695.35 587.75 C 689.84 581.51 685.10 574.61 681.22 567.24 Z" />
<path fill="#7d97f4" opacity="1.00" d=" M 544.15 573.20 C 547.42 569.08 552.99 567.94 557.99 568.06 C 592.85 568.02 627.70 567.61 662.56 567.63 C 664.15 574.50 666.18 581.28 668.72 587.86 C 630.83 587.86 592.92 588.51 555.03 588.52 C 549.56 588.75 544.75 585.61 542.06 581.01 C 542.39 578.35 542.25 575.34 544.15 573.20 Z" />
<path fill="#7d97f4" opacity="1.00" d=" M 787.76 648.04 C 790.52 649.38 793.15 650.97 795.83 652.50 C 802.79 656.36 810.21 659.65 816.15 665.09 C 807.43 658.19 796.98 654.13 787.76 648.04 Z" />
<path fill="#7d97f4" opacity="1.00" d=" M 543.04 708.18 C 544.68 705.05 546.95 701.26 551.06 701.59 C 591.36 701.45 631.68 701.57 671.99 701.52 C 690.59 701.68 709.21 701.22 727.80 701.76 C 726.04 709.29 725.33 717.02 724.97 724.73 C 667.30 724.86 609.64 725.35 551.97 725.58 C 549.68 725.57 547.17 725.19 545.65 723.31 C 541.99 719.23 542.05 713.26 543.04 708.18 Z" />
<path fill="#7d97f4" opacity="1.00" d=" M 788.19 714.54 C 790.87 715.04 793.56 715.52 796.27 715.89 C 795.26 718.25 794.07 720.53 792.68 722.71 C 791.89 719.64 790.00 717.07 788.19 714.54 Z" />
<path fill="#7d97f4" opacity="1.00" d=" M 547.01 748.03 C 548.48 746.24 550.85 745.89 553.02 745.91 C 610.34 745.95 667.65 745.88 724.97 745.94 C 725.28 753.65 725.92 761.33 726.76 769.00 C 713.51 769.49 700.25 769.25 686.99 769.39 C 642.31 769.65 597.63 769.89 552.95 770.17 C 549.99 770.36 546.97 769.08 545.55 766.38 C 542.39 760.80 542.57 752.88 547.01 748.03 Z" />
</g>
<g id="#feb6b4ff">
<path fill="#feb6b4" opacity="1.00" d=" M 640.56 485.37 C 641.50 482.67 641.31 477.93 645.01 477.62 C 651.66 479.58 655.00 486.11 658.27 491.66 L 658.80 492.49 C 657.06 501.39 658.46 510.49 657.91 519.49 L 657.71 519.17 C 653.44 513.20 648.11 508.10 643.66 502.28 C 641.43 499.33 640.38 495.71 639.86 492.11 C 639.95 489.85 640.17 487.60 640.56 485.37 Z" />
<path fill="#feb6b4" opacity="1.00" d=" M 347.16 634.02 C 347.43 628.19 347.19 622.30 348.24 616.54 C 349.20 618.23 350.22 619.89 351.30 621.52 C 354.58 627.65 362.21 626.20 367.98 626.59 C 375.20 626.76 382.43 626.73 389.64 626.23 C 393.53 625.95 397.40 625.45 401.23 624.68 C 401.64 627.02 402.12 629.35 402.48 631.72 C 403.31 635.64 402.07 640.41 397.99 641.95 C 383.60 647.37 367.45 645.55 353.15 640.74 C 349.96 639.91 347.85 637.14 347.16 634.02 Z" />
</g>
<g id="#13097cff">
<path fill="#13097c" opacity="1.00" d=" M 354.85 493.92 C 364.41 492.42 374.24 490.84 383.87 492.57 C 386.61 492.97 388.99 494.47 390.90 496.44 C 397.40 495.80 404.32 495.67 410.30 498.69 C 415.44 501.12 418.95 506.28 419.83 511.84 C 421.48 521.52 418.58 531.20 415.45 540.27 C 414.68 539.90 413.14 539.17 412.37 538.81 C 412.39 538.44 412.43 537.70 412.45 537.34 C 407.76 530.93 402.74 524.78 397.92 518.47 C 380.40 532.32 359.60 543.65 336.96 545.25 C 335.09 544.92 333.24 544.50 331.39 544.10 C 330.62 539.00 328.59 534.17 328.09 529.01 C 326.89 520.35 327.77 510.62 333.70 503.74 C 338.94 497.54 347.10 495.06 354.85 493.92 Z" />
<path fill="#13097c" opacity="1.00" d=" M 302.50 715.71 C 312.23 712.29 322.60 710.90 332.11 706.79 C 329.56 728.52 326.99 750.24 324.46 771.98 C 298.28 771.87 272.09 771.97 245.91 771.97 C 244.32 772.05 242.81 771.51 241.56 770.56 C 242.85 759.03 241.18 747.29 242.69 735.83 C 246.18 733.65 250.54 733.95 254.20 732.15 C 258.83 729.94 263.97 729.36 268.83 727.86 C 272.48 726.85 275.06 723.74 278.68 722.68 C 286.63 720.42 294.86 718.98 302.50 715.71 Z" />
</g>
<g id="#feaeacff">
<path fill="#feaeac" opacity="1.00" d=" M 658.80 492.49 C 660.39 494.86 661.73 497.39 663.11 499.89 C 663.83 501.05 664.55 502.62 666.12 502.72 C 670.11 503.27 674.16 503.00 678.18 503.12 C 675.93 505.63 673.63 508.10 671.33 510.57 C 670.30 511.67 669.28 512.77 668.27 513.89 C 668.30 515.64 668.34 517.41 668.41 519.17 C 668.70 526.10 669.68 532.99 671.20 539.75 C 671.90 542.73 672.73 545.68 673.53 548.65 C 672.34 562.72 673.51 576.88 673.01 590.99 C 672.86 592.59 672.45 594.15 672.09 595.72 C 670.88 593.14 669.75 590.52 668.72 587.86 C 666.18 581.28 664.15 574.50 662.56 567.63 C 660.49 558.49 659.20 549.18 658.64 539.82 C 658.08 533.05 658.67 526.24 657.91 519.49 C 658.46 510.49 657.06 501.39 658.80 492.49 Z" />
</g>
<g id="#4a4cf6ff">
<path fill="#4a4cf6" opacity="1.00" d=" M 207.81 520.92 C 208.71 513.16 206.88 505.22 208.95 497.60 C 209.20 529.07 209.04 560.55 209.04 592.02 C 209.28 594.62 208.08 598.10 210.95 599.65 C 211.23 612.45 210.82 625.27 211.73 638.05 C 211.88 647.01 211.97 655.98 211.96 664.95 C 206.01 663.43 199.83 663.39 193.81 662.30 C 193.12 614.79 192.45 567.28 191.75 519.78 C 197.11 520.16 202.42 521.29 207.81 520.92 Z" />
</g>
<g id="#ffa2a0ff">
<path fill="#ffa2a0" opacity="1.00" d=" M 846.40 503.52 C 861.92 502.74 877.51 503.69 893.06 503.51 C 899.15 503.11 905.29 506.37 908.16 511.80 C 910.69 516.07 910.17 521.20 910.23 525.96 C 910.23 538.65 910.32 551.34 910.33 564.03 C 910.50 570.03 907.14 576.03 901.73 578.72 C 898.46 580.58 894.60 580.53 890.96 580.52 C 877.28 580.55 863.60 580.80 849.93 580.82 C 843.81 580.86 837.97 576.98 835.51 571.41 C 833.92 568.18 833.97 564.51 833.99 561.00 C 834.05 547.00 833.95 533.00 834.00 519.00 C 833.90 511.79 839.31 504.95 846.40 503.52 M 838.93 510.96 C 836.03 514.55 836.11 519.35 836.24 523.72 C 841.14 523.77 846.05 523.81 850.96 523.80 C 851.14 518.55 853.88 512.82 859.45 511.65 C 864.92 511.01 870.45 511.62 875.95 511.47 C 880.38 511.64 885.50 510.66 889.17 513.84 C 892.39 516.14 893.30 520.18 893.47 523.92 C 898.33 524.15 903.20 524.09 908.07 524.07 C 908.09 520.48 908.28 516.69 906.57 513.41 C 904.33 508.70 899.25 505.59 894.03 505.73 C 879.69 505.62 865.34 505.54 851.01 505.39 C 846.37 505.13 841.64 507.13 838.93 510.96 M 858.34 514.46 C 855.13 515.98 853.32 519.52 853.57 523.01 C 853.67 536.00 853.54 549.01 853.77 562.01 C 853.74 566.36 857.63 570.33 862.03 570.18 C 869.03 570.23 876.04 570.20 883.05 570.06 C 887.78 570.16 891.54 565.58 891.17 560.99 C 891.16 548.33 891.16 535.68 891.11 523.03 C 891.41 518.79 888.37 514.46 884.05 513.93 C 878.39 513.44 872.69 513.84 867.02 513.64 C 864.13 513.72 861.05 513.23 858.34 514.46 M 836.24 526.12 C 836.25 530.99 836.28 535.86 836.31 540.74 C 841.26 540.81 846.21 540.83 851.17 540.82 C 851.50 535.92 851.37 531.00 851.23 526.10 C 846.23 526.06 841.24 525.98 836.24 526.12 M 893.33 526.28 C 893.32 531.11 893.36 535.95 893.35 540.80 C 898.22 540.90 903.10 540.87 907.98 540.85 C 908.15 535.99 908.15 531.13 907.92 526.28 C 903.05 526.29 898.19 526.26 893.33 526.28 M 836.26 543.19 C 836.33 548.05 836.34 552.91 836.32 557.77 C 841.26 557.90 846.21 557.79 851.16 557.83 C 851.53 552.93 851.41 548.02 851.26 543.13 C 846.26 543.09 841.25 543.04 836.26 543.19 M 893.32 543.22 C 893.42 548.03 893.39 552.84 893.40 557.65 C 898.22 557.71 903.05 557.67 907.88 557.69 C 908.28 552.83 908.13 547.95 907.94 543.08 C 903.06 543.11 898.18 543.03 893.32 543.22 M 836.31 560.21 C 836.37 563.41 836.11 566.75 837.38 569.78 C 839.35 574.86 844.53 578.53 850.03 578.42 C 864.37 578.40 878.71 578.20 893.04 578.15 C 897.34 578.40 901.81 576.95 904.62 573.58 C 908.07 569.96 908.36 564.73 908.10 560.01 C 903.25 559.88 898.40 559.84 893.56 560.12 C 893.79 565.46 890.61 571.22 885.02 572.18 C 879.37 572.82 873.66 572.34 867.99 572.56 C 863.60 572.53 858.43 573.26 855.01 569.87 C 852.07 567.52 851.53 563.63 851.08 560.14 C 846.15 560.08 841.23 560.11 836.31 560.21 Z" />
</g>
<g id="#5963f9ff">
<path fill="#5963f9" opacity="1.00" d=" M 668.27 513.89 C 669.28 512.77 670.30 511.67 671.33 510.57 C 675.42 513.39 679.55 516.15 683.78 518.78 C 678.66 519.27 673.53 519.27 668.41 519.17 C 668.34 517.41 668.30 515.64 668.27 513.89 Z" />
</g>
<g id="#feb5b4ff">
<path fill="#feb5b4" opacity="1.00" d=" M 336.96 545.25 C 359.60 543.65 380.40 532.32 397.92 518.47 C 402.74 524.78 407.76 530.93 412.45 537.34 C 412.43 537.70 412.39 538.44 412.37 538.81 C 411.38 547.78 410.29 556.75 408.78 565.66 C 405.80 566.84 403.12 568.59 400.67 570.63 C 394.99 575.20 388.80 579.11 383.38 584.01 C 378.08 582.32 372.21 582.69 367.20 585.14 C 364.35 586.94 362.12 589.51 359.41 591.47 C 356.71 593.38 353.39 594.09 350.15 594.21 C 346.36 590.69 344.86 585.60 343.41 580.82 C 340.15 569.20 338.40 557.21 336.96 545.25 Z" />
</g>
<g id="#ffa4a1ff">
<path fill="#ffa4a1" opacity="1.00" d=" M 733.12 537.42 C 738.97 535.82 744.46 533.25 749.88 530.59 C 749.78 533.37 749.68 536.15 749.70 538.94 C 749.72 542.87 749.98 546.80 750.43 550.70 L 750.46 550.99 C 748.68 552.69 746.89 554.40 745.33 556.31 C 740.20 554.54 734.96 553.17 729.75 551.70 C 730.12 548.08 730.78 544.49 731.48 540.93 C 731.73 539.78 732.02 538.65 732.34 537.53 L 732.57 536.81 L 733.12 537.42 Z" />
</g>
<g id="#170d88ff">
<path fill="#170d88" opacity="1.00" d=" M 412.37 538.81 C 413.14 539.17 414.68 539.90 415.45 540.27 C 415.16 541.77 414.98 543.30 414.84 544.83 C 414.24 553.69 413.46 562.53 412.83 571.39 C 411.95 582.29 411.06 593.19 410.45 604.11 C 410.20 609.19 408.33 614.01 406.77 618.81 C 405.98 621.55 403.77 623.54 401.23 624.68 C 397.40 625.45 393.53 625.95 389.64 626.23 C 389.00 622.51 388.74 618.73 388.89 614.97 C 389.18 606.19 388.56 597.40 389.29 588.64 C 391.53 591.15 394.49 593.38 398.05 593.19 C 400.94 593.52 402.27 590.49 403.26 588.33 C 406.15 581.07 407.46 573.32 408.78 565.66 C 410.29 556.75 411.38 547.78 412.37 538.81 Z" />
</g>
<g id="#5862f8ff">
<path fill="#5862f8" opacity="1.00" d=" M 671.20 539.75 C 691.17 539.30 711.16 539.30 731.13 539.24 C 731.22 539.66 731.39 540.51 731.48 540.93 C 730.78 544.49 730.12 548.08 729.75 551.70 C 729.26 556.84 729.15 562.03 729.48 567.19 C 713.39 567.16 697.30 567.59 681.22 567.24 C 678.12 561.28 675.61 555.03 673.53 548.65 C 672.73 545.68 671.90 542.73 671.20 539.75 Z" />
<path fill="#5862f8" opacity="1.00" d=" M 695.35 587.75 C 707.94 587.07 720.56 587.61 733.16 587.17 C 735.58 595.19 739.22 602.79 743.53 609.97 L 743.38 610.50 C 735.89 608.82 728.47 606.85 721.03 604.99 C 719.52 604.41 718.15 605.43 716.85 605.99 C 709.42 601.40 702.75 595.67 696.77 589.34 C 696.41 588.94 695.71 588.15 695.35 587.75 Z" />
</g>
<g id="#5b62f9ff">
<path fill="#5b62f9" opacity="1.00" d=" M 749.70 538.94 C 752.84 538.95 756.00 538.99 759.15 539.06 C 756.65 541.17 755.11 544.09 754.34 547.24 C 753.13 548.49 751.75 549.58 750.43 550.70 C 749.98 546.80 749.72 542.87 749.70 538.94 Z" />
</g>
<g id="#feaeadff">
<path fill="#feaead" opacity="1.00" d=" M 414.84 544.83 C 416.52 543.91 418.18 542.82 420.10 542.45 C 422.93 543.70 422.20 547.43 422.13 549.94 C 421.05 557.69 418.69 565.86 412.83 571.39 C 413.46 562.53 414.24 553.69 414.84 544.83 Z" />
<path fill="#feaead" opacity="1.00" d=" M 779.33 812.62 C 787.47 809.94 794.96 805.67 801.87 800.65 C 803.97 808.91 806.63 817.02 808.85 825.25 C 807.35 830.37 807.90 835.74 807.89 841.00 C 807.89 851.39 807.96 861.79 807.87 872.18 C 807.48 871.53 807.12 870.89 806.79 870.24 C 804.69 866.08 802.70 861.86 800.65 857.68 C 793.45 842.70 786.31 827.70 779.33 812.62 Z" />
</g>
<g id="#0b0265ff">
<path fill="#0b0265" opacity="1.00" d=" M 331.39 544.10 C 333.24 544.50 335.09 544.92 336.96 545.25 C 338.40 557.21 340.15 569.20 343.41 580.82 C 344.86 585.60 346.36 590.69 350.15 594.21 C 352.69 596.39 351.95 599.97 352.04 602.95 C 351.79 609.14 352.52 615.39 351.30 621.52 C 350.22 619.89 349.20 618.23 348.24 616.54 C 341.66 603.33 338.39 588.81 335.59 574.41 C 334.17 566.36 332.93 558.28 332.04 550.16 C 331.82 548.14 331.63 546.11 331.39 544.10 Z" />
</g>
<g id="#ffbbbaff">
<path fill="#ffbbba" opacity="1.00" d=" M 323.15 548.99 C 322.97 547.39 324.63 546.64 326.01 546.90 C 328.33 547.25 330.14 548.91 332.04 550.16 C 332.93 558.28 334.17 566.36 335.59 574.41 C 330.37 570.64 327.29 564.77 325.01 558.91 C 323.87 555.74 322.77 552.40 323.15 548.99 Z" />
<path fill="#ffbbba" opacity="1.00" d=" M 750.43 550.70 C 751.75 549.58 753.13 548.49 754.34 547.24 C 754.06 554.60 757.22 561.39 759.83 568.08 C 762.39 574.47 763.72 581.32 763.82 588.20 C 759.46 588.29 755.06 588.33 750.78 587.39 C 747.79 586.47 744.64 585.66 742.09 583.77 C 740.25 581.66 740.25 578.61 739.89 575.98 C 739.66 569.06 741.43 562.07 745.33 556.31 C 746.89 554.40 748.68 552.69 750.46 550.99 L 750.43 550.70 Z" />
</g>
<g id="#ffa5a2ff">
<path fill="#ffa5a2" opacity="1.00" d=" M 673.53 548.65 C 675.61 555.03 678.12 561.28 681.22 567.24 C 685.10 574.61 689.84 581.51 695.35 587.75 C 695.71 588.15 696.41 588.94 696.77 589.34 C 696.34 591.54 695.93 593.75 695.88 596.01 C 695.77 607.48 696.35 618.96 695.70 630.42 C 685.84 620.38 677.90 608.52 672.09 595.72 C 672.45 594.15 672.86 592.59 673.01 590.99 C 673.51 576.88 672.34 562.72 673.53 548.65 Z" />
</g>
<g id="#ff9d9aff">
<path fill="#ff9d9a" opacity="1.00" d=" M 729.48 567.19 C 729.15 562.03 729.26 556.84 729.75 551.70 C 734.96 553.17 740.20 554.54 745.33 556.31 C 741.43 562.07 739.66 569.06 739.89 575.98 C 737.18 574.48 734.36 573.13 731.34 572.39 C 731.07 572.83 730.52 573.72 730.25 574.16 C 729.92 571.84 729.63 569.52 729.48 567.19 Z" />
</g>
<g id="#3a319aff">
<path fill="#3a319a" opacity="1.00" d=" M 795.17 561.71 C 799.39 566.44 799.29 573.21 799.34 579.17 C 798.74 586.87 795.61 593.99 793.52 601.34 C 792.03 606.40 791.81 611.73 792.08 616.96 C 792.18 621.55 794.76 625.50 796.26 629.70 C 791.53 625.20 790.55 618.28 790.80 612.06 C 790.66 605.82 792.50 599.80 794.43 593.94 C 796.74 587.59 798.62 580.91 798.14 574.08 C 797.99 569.78 796.15 565.83 795.17 561.71 Z" />
</g>
<g id="#5860f5ff">
<path fill="#5860f5" opacity="1.00" d=" M 806.28 561.99 C 813.86 562.51 821.39 563.61 828.97 564.14 C 829.00 567.93 828.85 571.89 830.49 575.42 C 833.19 581.83 839.98 586.20 846.96 585.87 C 864.29 585.69 881.63 585.62 898.96 585.37 C 906.14 585.24 912.32 579.86 914.55 573.21 C 916.00 573.67 917.49 574.29 919.06 574.22 C 926.13 574.05 933.15 575.14 940.08 576.41 C 939.95 583.43 940.12 590.48 939.79 597.50 C 938.70 598.36 937.88 599.44 938.16 600.92 C 938.09 631.14 938.36 661.38 938.07 691.61 C 936.51 697.97 937.49 704.55 937.11 711.03 C 937.10 725.04 936.01 739.01 936.04 753.02 C 936.08 762.01 935.56 770.99 935.21 779.97 C 935.16 803.95 933.77 827.92 933.69 851.87 C 930.41 856.00 925.27 858.55 919.98 858.45 C 896.64 858.46 873.31 858.48 849.98 858.44 C 847.03 858.55 843.81 857.83 841.17 859.49 C 840.69 859.02 840.22 858.55 839.77 858.09 C 834.02 857.84 828.22 857.58 822.52 858.56 C 822.24 858.31 821.67 857.81 821.39 857.56 C 819.62 855.96 817.20 854.70 816.70 852.17 C 814.06 843.20 811.55 834.20 808.85 825.25 C 806.63 817.02 803.97 808.91 801.87 800.65 C 802.06 800.35 802.44 799.75 802.63 799.45 C 801.94 790.46 800.59 781.54 799.58 772.59 C 797.51 755.93 795.47 739.26 792.68 722.71 C 794.07 720.53 795.26 718.25 796.27 715.89 C 813.95 718.13 832.42 717.56 849.26 711.26 C 860.04 707.21 870.20 699.95 875.27 689.34 C 881.37 676.54 881.11 661.61 877.95 648.06 C 875.41 637.45 870.81 627.27 864.07 618.66 C 859.30 612.65 853.20 607.59 846.06 604.67 C 836.28 600.56 824.16 602.60 815.89 595.02 C 808.52 588.86 806.38 578.86 806.52 569.67 C 806.47 567.11 806.44 564.54 806.28 561.99 Z" />
</g>
<g id="#5761f6ff">
<path fill="#5761f6" opacity="1.00" d=" M 212.25 566.30 C 222.00 566.05 231.57 568.33 241.29 568.83 C 241.35 609.46 241.16 650.09 241.38 690.71 L 241.38 690.84 C 240.85 705.58 241.33 720.35 241.20 735.10 C 236.53 734.85 232.05 733.23 227.35 733.33 C 222.47 733.35 217.78 731.79 212.93 731.51 C 212.88 719.66 213.02 707.80 212.29 695.97 C 212.09 685.63 212.09 675.29 211.96 664.95 C 211.97 655.98 211.88 647.01 211.73 638.05 C 210.82 625.27 211.23 612.45 210.95 599.65 L 211.04 598.43 C 213.32 587.88 211.15 576.98 212.25 566.30 Z" />
<path fill="#5761f6" opacity="1.00" d=" M 513.96 577.97 C 523.27 579.37 532.68 580.10 542.06 581.01 C 544.75 585.61 549.56 588.75 555.03 588.52 C 592.92 588.51 630.83 587.86 668.72 587.86 C 669.75 590.52 670.88 593.14 672.09 595.72 C 677.90 608.52 685.84 620.38 695.70 630.42 C 698.96 633.95 702.90 636.74 706.35 640.07 C 707.63 642.02 709.20 643.76 711.04 645.21 C 710.00 648.95 707.98 653.17 709.92 656.95 C 716.73 668.10 723.17 679.62 727.90 691.82 C 728.21 695.12 728.56 698.49 727.80 701.76 C 709.21 701.22 690.59 701.68 671.99 701.52 C 631.68 701.57 591.36 701.45 551.06 701.59 C 546.95 701.26 544.68 705.05 543.04 708.18 C 533.43 706.47 523.66 706.02 513.98 704.83 C 513.96 697.07 514.07 689.31 513.80 681.55 C 514.18 647.03 513.86 612.49 513.96 577.97 Z" />
</g>
<g id="#feaba9ff">
<path fill="#feaba9" opacity="1.00" d=" M 400.67 570.63 C 403.12 568.59 405.80 566.84 408.78 565.66 C 407.46 573.32 406.15 581.07 403.26 588.33 C 402.27 590.49 400.94 593.52 398.05 593.19 C 394.49 593.38 391.53 591.15 389.29 588.64 C 387.57 586.80 385.62 585.17 383.38 584.01 C 388.80 579.11 394.99 575.20 400.67 570.63 Z" />
</g>
<g id="#160b83ff">
<path fill="#160b83" opacity="1.00" d=" M 799.34 579.17 C 800.08 574.99 803.12 571.93 806.52 569.67 C 806.38 578.86 808.52 588.86 815.89 595.02 C 824.16 602.60 836.28 600.56 846.06 604.67 C 841.68 608.09 838.62 612.77 834.78 616.72 C 827.75 624.30 821.48 632.63 813.72 639.49 C 808.95 638.29 804.86 635.46 800.35 633.61 C 803.71 637.54 808.81 639.14 813.52 640.80 C 810.96 643.45 808.41 646.11 805.90 648.80 C 801.53 647.10 797.67 644.35 793.33 642.59 C 794.98 644.51 797.01 646.07 799.30 647.18 C 798.14 648.95 796.98 650.72 795.83 652.50 C 793.15 650.97 790.52 649.38 787.76 648.04 C 781.82 654.34 776.63 661.30 770.51 667.42 C 768.12 670.36 765.92 673.50 762.97 675.93 C 761.33 677.44 759.25 678.64 758.31 680.76 C 756.25 684.98 752.54 688.04 748.85 690.79 C 747.02 691.84 747.16 694.20 746.57 695.98 C 745.62 695.08 744.70 694.15 743.84 693.20 C 739.46 688.21 736.68 681.74 736.86 675.05 C 737.04 664.79 741.30 655.22 745.48 646.04 C 749.85 643.66 752.10 639.02 755.69 635.76 C 762.92 627.96 769.66 619.70 777.23 612.22 C 779.75 609.41 782.03 606.40 784.73 603.76 C 788.02 600.54 790.38 596.35 794.43 593.94 C 792.50 599.80 790.66 605.82 790.80 612.06 C 790.55 618.28 791.53 625.20 796.26 629.70 C 794.76 625.50 792.18 621.55 792.08 616.96 C 791.81 611.73 792.03 606.40 793.52 601.34 C 795.61 593.99 798.74 586.87 799.34 579.17 M 784.58 615.00 C 780.85 621.29 781.98 629.16 785.87 635.08 C 784.49 631.47 782.37 627.98 782.52 623.99 C 782.35 620.84 783.71 617.95 784.58 615.00 M 797.35 630.32 C 796.86 631.52 797.99 632.89 799.06 633.39 C 800.76 632.89 798.76 629.65 797.35 630.32 M 781.85 642.14 C 780.12 638.90 778.80 635.46 778.31 631.80 C 778.53 635.49 779.62 639.15 781.85 642.14 M 786.91 636.12 C 788.57 638.40 790.58 640.41 792.83 642.13 C 790.77 640.20 788.80 638.19 786.91 636.12 M 782.70 643.92 C 783.32 644.87 784.09 645.68 785.03 646.36 C 787.14 645.70 783.50 641.81 782.70 643.92 Z" />
</g>
<g id="#ff9591ff">
<path fill="#ff9591" opacity="1.00" d=" M 731.34 572.39 C 734.36 573.13 737.18 574.48 739.89 575.98 C 740.25 578.61 740.25 581.66 742.09 583.77 C 744.64 585.66 747.79 586.47 750.78 587.39 C 750.64 588.39 750.51 589.40 750.40 590.42 C 748.25 596.63 746.28 602.90 743.85 609.02 L 743.53 609.97 C 739.22 602.79 735.58 595.19 733.16 587.17 C 731.90 582.90 730.86 578.57 730.25 574.16 C 730.52 573.72 731.07 572.83 731.34 572.39 Z" />
</g>
<g id="#0f056eff">
<path fill="#0f056e" opacity="1.00" d=" M 359.41 591.47 C 362.12 589.51 364.35 586.94 367.20 585.14 C 367.65 587.39 368.07 589.67 368.07 591.98 C 367.94 603.52 368.17 615.05 367.98 626.59 C 362.21 626.20 354.58 627.65 351.30 621.52 C 352.52 615.39 351.79 609.14 352.04 602.95 C 351.95 599.97 352.69 596.39 350.15 594.21 C 353.39 594.09 356.71 593.38 359.41 591.47 Z" />
<path fill="#0f056e" opacity="1.00" d=" M 317.86 671.77 C 324.21 670.26 330.24 667.49 336.79 666.84 C 335.25 680.16 333.65 693.47 332.11 706.79 C 322.60 710.90 312.23 712.29 302.50 715.71 C 294.86 718.98 286.63 720.42 278.68 722.68 C 275.06 723.74 272.48 726.85 268.83 727.86 C 263.97 729.36 258.83 729.94 254.20 732.15 C 250.54 733.95 246.18 733.65 242.69 735.83 C 241.18 747.29 242.85 759.03 241.56 770.56 C 240.85 758.76 241.43 746.92 241.20 735.10 C 241.33 720.35 240.85 705.58 241.38 690.84 C 241.66 693.21 242.05 695.58 242.40 697.96 C 244.61 697.84 246.83 697.60 248.96 696.94 L 249.08 697.03 C 249.47 696.91 250.26 696.66 250.65 696.54 L 250.63 696.28 C 253.31 695.60 255.92 694.69 258.45 693.59 C 258.81 692.17 259.18 690.75 259.55 689.35 C 278.95 683.36 298.43 677.63 317.86 671.77 Z" />
</g>
<g id="#fea7a5ff">
<path fill="#fea7a5" opacity="1.00" d=" M 750.78 587.39 C 755.06 588.33 759.46 588.29 763.82 588.20 C 763.92 597.77 761.74 607.21 758.54 616.18 C 755.41 615.76 752.29 615.33 749.22 614.62 C 751.74 612.86 751.07 609.63 751.18 607.00 C 751.02 601.46 751.59 595.87 750.40 590.42 C 750.51 589.40 750.64 588.39 750.78 587.39 Z" />
</g>
<g id="#ff9b98ff">
<path fill="#ff9b98" opacity="1.00" d=" M 695.88 596.01 C 695.93 593.75 696.34 591.54 696.77 589.34 C 702.75 595.67 709.42 601.40 716.85 605.99 C 713.81 617.48 709.28 628.54 706.35 640.07 C 702.90 636.74 698.96 633.95 695.70 630.42 C 696.35 618.96 695.77 607.48 695.88 596.01 Z" />
</g>
<g id="#feb3b2ff">
<path fill="#feb3b2" opacity="1.00" d=" M 750.40 590.42 C 751.59 595.87 751.02 601.46 751.18 607.00 C 751.07 609.63 751.74 612.86 749.22 614.62 C 747.24 613.57 745.39 612.32 743.67 610.91 C 743.71 610.44 743.80 609.49 743.85 609.02 C 746.28 602.90 748.25 596.63 750.40 590.42 Z" />
</g>
<g id="#494bf3ff">
<path fill="#494bf3" opacity="1.00" d=" M 939.79 597.50 C 944.29 602.36 951.68 600.72 957.61 601.03 C 955.61 686.36 953.60 771.70 951.57 857.03 C 951.66 864.20 945.16 870.51 938.00 870.27 C 902.10 870.30 866.20 870.32 830.30 870.26 C 828.18 866.07 825.67 862.05 822.52 858.56 C 828.22 857.58 834.02 857.84 839.77 858.09 C 840.22 858.55 840.69 859.02 841.17 859.49 C 842.96 860.44 845.05 860.41 847.03 860.43 C 871.69 860.29 896.35 860.47 921.00 860.35 C 929.90 860.23 937.40 852.95 939.49 844.59 C 940.65 839.47 940.10 834.18 940.21 828.99 C 940.22 756.32 940.22 683.66 940.23 610.99 C 940.20 606.49 940.48 601.96 939.79 597.50 Z" />
</g>
<g id="#120878ff">
<path fill="#120878" opacity="1.00" d=" M 834.78 616.72 C 838.62 612.77 841.68 608.09 846.06 604.67 C 853.20 607.59 859.30 612.65 864.07 618.66 C 861.39 623.02 857.20 626.10 854.24 630.24 C 850.56 635.24 845.95 639.42 841.83 644.04 C 832.47 642.44 822.91 642.01 813.72 639.49 C 821.48 632.63 827.75 624.30 834.78 616.72 Z" />
<path fill="#120878" opacity="1.00" d=" M 813.52 640.80 C 822.33 643.23 831.52 643.49 840.48 645.11 C 836.90 649.89 832.86 654.31 829.00 658.86 C 821.54 654.97 813.72 651.85 805.90 648.80 C 808.41 646.11 810.96 643.45 813.52 640.80 Z" />
</g>
<g id="#0d0469ff">
<path fill="#0d0469" opacity="1.00" d=" M 409.03 632.41 C 429.43 635.28 449.55 640.44 468.74 647.97 C 465.65 650.43 461.73 651.15 458.03 652.17 C 443.52 656.78 428.76 660.53 414.33 665.39 C 412.57 654.39 410.73 643.41 409.03 632.41 Z" />
</g>
<g id="#342c8bff">
<path fill="#342c8b" opacity="1.00" d=" M 800.35 633.61 C 804.86 635.46 808.95 638.29 813.72 639.49 C 822.91 642.01 832.47 642.44 841.83 644.04 C 848.10 645.44 855.59 647.22 858.77 653.46 C 853.63 648.89 847.32 645.95 840.48 645.11 C 831.52 643.49 822.33 643.23 813.52 640.80 C 808.81 639.14 803.71 637.54 800.35 633.61 Z" />
</g>
<g id="#0b0263ff">
<path fill="#0b0263" opacity="1.00" d=" M 280.86 652.84 C 299.76 644.12 319.74 637.18 340.54 635.03 C 339.27 645.63 338.05 656.24 336.79 666.84 C 330.24 667.49 324.21 670.26 317.86 671.77 C 298.43 677.63 278.95 683.36 259.55 689.35 C 259.18 690.75 258.81 692.17 258.45 693.59 C 255.92 694.69 253.31 695.60 250.63 696.28 L 250.65 696.54 C 250.26 696.66 249.47 696.91 249.08 697.03 L 248.96 696.94 C 246.83 697.60 244.61 697.84 242.40 697.96 C 242.05 695.58 241.66 693.21 241.38 690.84 L 241.38 690.71 C 243.82 683.65 245.68 676.16 249.87 669.90 C 259.55 663.17 270.25 657.95 280.86 652.84 Z" />
</g>
<g id="#332a8aff">
<path fill="#332a8a" opacity="1.00" d=" M 793.33 642.59 C 797.67 644.35 801.53 647.10 805.90 648.80 C 813.72 651.85 821.54 654.97 829.00 658.86 C 833.48 661.08 837.62 663.93 842.15 666.09 C 841.73 666.50 841.32 666.90 840.92 667.32 C 836.63 664.38 832.08 661.86 827.44 659.54 C 818.42 654.61 808.46 651.80 799.30 647.18 C 797.01 646.07 794.98 644.51 793.33 642.59 Z" />
</g>
<g id="#110777ff">
<path fill="#110777" opacity="1.00" d=" M 468.74 647.97 C 482.30 653.33 495.48 660.03 507.06 668.96 C 510.27 672.84 511.64 677.95 513.72 682.49 C 512.93 690.00 513.31 697.56 513.22 705.09 C 508.52 706.40 503.83 707.73 499.09 708.86 C 499.75 704.29 500.73 699.76 501.01 695.14 C 491.36 697.30 482.02 700.54 472.62 703.52 C 463.19 705.75 454.21 709.46 444.82 711.81 C 437.50 713.92 430.17 716.03 422.84 718.09 C 420.00 700.52 417.15 682.96 414.33 665.39 C 428.76 660.53 443.52 656.78 458.03 652.17 C 461.73 651.15 465.65 650.43 468.74 647.97 Z" />
</g>
<g id="#484bf2ff">
<path fill="#484bf2" opacity="1.00" d=" M 193.81 662.30 C 199.83 663.39 206.01 663.43 211.96 664.95 C 212.09 675.29 212.09 685.63 212.29 695.97 C 213.02 707.80 212.88 719.66 212.93 731.51 C 213.25 745.34 212.84 759.18 213.76 772.99 C 213.88 782.93 213.95 792.87 214.01 802.81 C 207.97 801.90 201.87 801.61 195.82 800.75 C 195.62 789.23 195.52 777.72 195.28 766.20 C 195.02 749.44 195.00 732.66 194.43 715.90 C 194.52 698.03 194.00 680.16 193.81 662.30 Z" />
</g>
<g id="#302886ff">
<path fill="#302886" opacity="1.00" d=" M 818.81 669.20 C 819.11 668.90 819.72 668.32 820.02 668.03 C 821.56 670.92 823.36 673.80 823.84 677.11 C 824.23 680.19 822.95 683.21 821.00 685.55 C 821.45 683.01 822.24 680.53 822.46 677.97 C 822.46 674.67 820.54 671.83 818.81 669.20 Z" />
</g>
<g id="#302882ff">
<path fill="#302882" opacity="1.00" d=" M 844.18 669.96 C 841.31 669.63 844.51 666.44 845.20 668.67 C 848.20 671.45 851.21 674.91 851.33 679.23 C 851.44 682.15 851.26 685.54 848.77 687.53 C 849.47 684.11 850.75 680.58 849.80 677.07 C 848.80 674.14 846.60 671.79 844.18 669.96 Z" />
</g>
<g id="#312996ff">
<path fill="#312996" opacity="1.00" d=" M 513.72 682.49 L 513.80 681.55 C 514.07 689.31 513.96 697.07 513.98 704.83 C 513.91 721.88 513.92 738.93 513.89 755.98 C 513.85 760.80 514.17 765.65 513.45 770.43 C 512.64 760.33 513.35 750.19 513.16 740.07 C 513.22 728.41 513.26 716.75 513.22 705.09 C 513.31 697.56 512.93 690.00 513.72 682.49 Z" />
</g>
<g id="#e5534bff">
<path fill="#e5534b" opacity="1.00" d=" M 727.90 691.82 C 733.07 693.31 738.48 694.01 743.84 693.20 C 744.70 694.15 745.62 695.08 746.57 695.98 C 756.20 704.66 768.54 709.59 780.92 712.90 C 783.32 713.50 785.75 714.06 788.19 714.54 C 790.00 717.07 791.89 719.64 792.68 722.71 C 795.47 739.26 797.51 755.93 799.58 772.59 C 788.36 782.02 777.85 792.24 766.52 801.53 C 761.30 805.61 757.22 811.00 751.65 814.66 C 749.78 815.89 747.42 815.80 745.29 816.04 C 741.63 815.95 738.01 815.36 734.47 814.53 L 733.58 814.34 L 734.28 813.80 C 730.77 799.06 728.58 784.03 726.76 769.00 C 725.92 761.33 725.28 753.65 724.97 745.94 C 724.69 738.87 724.67 731.79 724.97 724.73 C 725.33 717.02 726.04 709.29 727.80 701.76 C 728.56 698.49 728.21 695.12 727.90 691.82 Z" />
</g>
<g id="#474af1ff">
<path fill="#474af1" opacity="1.00" d=" M 937.11 711.03 C 937.49 704.55 936.51 697.97 938.07 691.61 C 938.33 738.75 938.08 785.90 938.19 833.05 C 938.53 839.58 938.06 846.61 933.69 851.87 C 933.77 827.92 935.16 803.95 935.21 779.97 C 935.56 770.99 936.08 762.01 936.04 753.02 C 936.01 739.01 937.10 725.04 937.11 711.03 Z" />
</g>
<g id="#150b83ff">
<path fill="#150b83" opacity="1.00" d=" M 472.62 703.52 C 482.02 700.54 491.36 697.30 501.01 695.14 C 500.73 699.76 499.75 704.29 499.09 708.86 C 503.83 707.73 508.52 706.40 513.22 705.09 C 513.26 716.75 513.22 728.41 513.16 740.07 C 505.43 742.21 497.80 744.70 490.04 746.71 C 490.22 744.45 490.41 742.20 490.60 739.95 C 487.60 740.08 484.64 740.69 481.85 741.80 C 474.58 744.56 466.89 745.89 459.57 748.49 C 449.55 751.81 439.36 754.56 429.16 757.28 C 427.06 744.22 424.93 731.16 422.84 718.09 C 430.17 716.03 437.50 713.92 444.82 711.81 C 454.21 709.46 463.19 705.75 472.62 703.52 Z" />
</g>
<g id="#575ff2ff">
<path fill="#575ff2" opacity="1.00" d=" M 513.98 704.83 C 523.66 706.02 533.43 706.47 543.04 708.18 C 542.05 713.26 541.99 719.23 545.65 723.31 C 547.17 725.19 549.68 725.57 551.97 725.58 C 609.64 725.35 667.30 724.86 724.97 724.73 C 724.67 731.79 724.69 738.87 724.97 745.94 C 667.65 745.88 610.34 745.95 553.02 745.91 C 550.85 745.89 548.48 746.24 547.01 748.03 C 542.57 752.88 542.39 760.80 545.55 766.38 C 546.97 769.08 549.99 770.36 552.95 770.17 C 597.63 769.89 642.31 769.65 686.99 769.39 C 700.25 769.25 713.51 769.49 726.76 769.00 C 728.58 784.03 730.77 799.06 734.28 813.80 L 733.58 814.34 L 734.47 814.53 C 737.19 829.08 740.48 843.52 743.54 858.01 C 582.68 858.05 421.83 857.99 260.98 858.02 C 249.64 857.90 238.30 858.17 226.97 857.95 C 220.71 857.95 214.76 852.36 214.85 846.01 C 214.04 831.62 214.21 817.21 214.01 802.81 C 213.95 792.87 213.88 782.93 213.76 772.99 C 212.84 759.18 213.25 745.34 212.93 731.51 C 217.78 731.79 222.47 733.35 227.35 733.33 C 232.05 733.23 236.53 734.85 241.20 735.10 C 241.43 746.92 240.85 758.76 241.56 770.56 C 242.81 771.51 244.32 772.05 245.91 771.97 C 272.09 771.97 298.28 771.87 324.46 771.98 C 360.15 772.11 395.84 772.03 431.53 772.02 C 457.38 771.95 483.23 771.99 509.08 771.98 C 510.70 772.09 512.20 771.42 513.45 770.43 C 514.17 765.65 513.85 760.80 513.89 755.98 C 513.92 738.93 513.91 721.88 513.98 704.83 Z" />
<path fill="#575ff2" opacity="1.00" d=" M 766.15 815.77 C 770.61 815.09 775.04 814.07 779.33 812.62 C 786.31 827.70 793.45 842.70 800.65 857.68 C 789.56 858.43 778.44 857.81 767.34 858.03 C 766.80 843.95 766.30 829.86 766.15 815.77 Z" />
</g>
<g id="#190e8eff">
<path fill="#190e8e" opacity="1.00" d=" M 481.85 741.80 C 484.64 740.69 487.60 740.08 490.60 739.95 C 490.41 742.20 490.22 744.45 490.04 746.71 C 497.80 744.70 505.43 742.21 513.16 740.07 C 513.35 750.19 512.64 760.33 513.45 770.43 C 512.20 771.42 510.70 772.09 509.08 771.98 C 483.23 771.99 457.38 771.95 431.53 772.02 C 430.75 767.10 429.95 762.19 429.16 757.28 C 439.36 754.56 449.55 751.81 459.57 748.49 C 466.89 745.89 474.58 744.56 481.85 741.80 Z" />
</g>
<g id="#e75952ff">
<path fill="#e75952" opacity="1.00" d=" M 766.52 801.53 C 777.85 792.24 788.36 782.02 799.58 772.59 C 800.59 781.54 801.94 790.46 802.63 799.45 C 802.44 799.75 802.06 800.35 801.87 800.65 C 794.96 805.67 787.47 809.94 779.33 812.62 C 775.04 814.07 770.61 815.09 766.15 815.77 C 764.07 816.05 762.01 816.31 759.94 816.48 C 755.05 816.85 750.16 816.62 745.28 816.44 L 745.29 816.04 C 747.42 815.80 749.78 815.89 751.65 814.66 C 757.22 811.00 761.30 805.61 766.52 801.53 Z" />
</g>
<g id="#4648eeff">
<path fill="#4648ee" opacity="1.00" d=" M 195.82 800.75 C 201.87 801.61 207.97 801.90 214.01 802.81 C 214.21 817.21 214.04 831.62 214.85 846.01 C 214.76 852.36 220.71 857.95 226.97 857.95 C 238.30 858.17 249.64 857.90 260.98 858.02 C 421.83 857.99 582.68 858.05 743.54 858.01 C 743.80 859.17 744.08 860.35 744.34 861.54 C 744.88 864.47 745.52 867.39 746.18 870.31 C 588.42 870.31 430.66 870.22 272.90 870.32 C 251.93 870.22 230.96 870.35 209.99 870.26 C 204.81 870.29 199.84 867.02 197.77 862.29 C 196.43 859.38 196.62 856.11 196.56 852.99 C 196.35 835.58 196.06 818.16 195.82 800.75 Z" />
</g>
<g id="#feb1afff">
<path fill="#feb1af" opacity="1.00" d=" M 734.47 814.53 C 738.01 815.36 741.63 815.95 745.29 816.04 L 745.28 816.44 C 745.06 825.30 745.22 834.17 745.17 843.04 C 745.02 849.21 745.64 855.44 744.34 861.54 C 744.08 860.35 743.80 859.17 743.54 858.01 C 740.48 843.52 737.19 829.08 734.47 814.53 Z" />
</g>
<g id="#ff9b97ff">
<path fill="#ff9b97" opacity="1.00" d=" M 759.94 816.48 C 762.01 816.31 764.07 816.05 766.15 815.77 C 766.30 829.86 766.80 843.95 767.34 858.03 C 767.49 862.11 767.66 866.19 767.84 870.28 C 767.98 873.64 768.12 877.01 768.29 880.38 C 769.14 900.28 770.12 920.17 771.12 940.06 C 771.02 942.02 772.31 943.57 773.33 945.12 C 770.15 948.34 766.66 951.87 761.99 952.61 C 757.14 953.27 752.26 953.66 747.43 954.42 C 752.39 950.54 758.01 947.63 763.18 944.05 C 762.13 939.38 760.55 934.83 759.78 930.10 C 760.08 892.23 759.80 854.36 759.94 816.48 Z" />
</g>
<g id="#ffa5a3ff">
<path fill="#ffa5a3" opacity="1.00" d=" M 745.28 816.44 C 750.16 816.62 755.05 816.85 759.94 816.48 C 759.80 854.36 760.08 892.23 759.78 930.10 C 756.32 917.50 753.81 904.66 750.91 891.92 C 749.32 884.72 747.80 877.50 746.18 870.31 C 745.52 867.39 744.88 864.47 744.34 861.54 C 745.64 855.44 745.02 849.21 745.17 843.04 C 745.22 834.17 745.06 825.30 745.28 816.44 Z" />
<path fill="#ffa5a3" opacity="1.00" d=" M 807.89 841.00 C 807.90 835.74 807.35 830.37 808.85 825.25 C 811.55 834.20 814.06 843.20 816.70 852.17 C 817.20 854.70 819.62 855.96 821.39 857.56 C 820.09 870.47 822.44 883.61 819.94 896.40 C 815.72 888.43 811.63 880.37 807.87 872.18 C 807.96 861.79 807.89 851.39 807.89 841.00 Z" />
</g>
<g id="#4749f0ff">
<path fill="#4749f0" opacity="1.00" d=" M 767.34 858.03 C 778.44 857.81 789.56 858.43 800.65 857.68 C 802.70 861.86 804.69 866.08 806.79 870.24 C 798.87 870.34 790.97 870.26 783.06 870.29 C 777.98 870.28 772.91 870.28 767.84 870.28 C 767.66 866.19 767.49 862.11 767.34 858.03 Z" />
</g>
<g id="#ff9e9bff">
<path fill="#ff9e9b" opacity="1.00" d=" M 821.39 857.56 C 821.67 857.81 822.24 858.31 822.52 858.56 C 825.67 862.05 828.18 866.07 830.30 870.26 C 831.53 872.90 833.08 875.49 833.68 878.37 C 832.03 892.29 833.54 906.37 832.84 920.36 C 828.01 912.67 824.06 904.47 819.94 896.40 C 822.44 883.61 820.09 870.47 821.39 857.56 Z" />
</g>
<g id="#dfe7feff">
<path fill="#dfe7fe" opacity="1.00" d=" M 767.84 870.28 C 772.91 870.28 777.98 870.28 783.06 870.29 C 778.18 873.72 773.56 877.55 768.29 880.38 C 768.12 877.01 767.98 873.64 767.84 870.28 Z" />
</g>
<g id="#ff9794ff">
<path fill="#ff9794" opacity="1.00" d=" M 832.84 920.36 C 833.54 906.37 832.03 892.29 833.68 878.37 C 839.24 891.86 842.15 906.32 844.33 920.71 C 845.17 921.06 846.03 921.43 846.90 921.81 C 845.63 924.69 844.12 927.75 844.71 931.00 C 845.62 937.82 847.41 945.16 844.87 951.82 C 841.95 954.57 837.21 953.91 833.47 954.46 C 834.63 952.83 835.87 951.14 836.02 949.08 C 837.11 941.75 836.17 934.32 835.23 927.04 C 835.05 924.61 833.78 922.52 832.84 920.36 Z" />
</g>
</svg>
