<svg id="Layer_1" data-name="Layer 1" xmlns="http://www.w3.org/2000/svg" viewBox="0 0 626 626"><defs><style>.cls-1{fill:#fefefe;}.cls-2{fill:#7edfd0;}.cls-3{fill:#2bcdb4;}.cls-4{fill:#042437;}</style></defs><title>refer</title><path class="cls-1" d="M0,0H626V626H0ZM296.38,133.94c2.27,1.57,5,2.05,7.53,3.16,9.36,3.91,16,13.05,17.73,23a37.67,37.67,0,0,1-4.28,22.9c-1.2-.69-1.76-2-2.57-3.08a30.46,30.46,0,0,0-6.4-35.36c-10.56-10.35-28.84-10.89-40-1.19-12.08,9.62-14.44,28.84-4.95,41.06-12.91,13.11-25.68,26.4-39.55,38.5-9.51,7.11-18.19,15.59-29.09,20.62l-2.59-2.34,1.62-2.62c1.08,0,2.17-.07,3.26-.09,4.45-.82,5.89-5.14,7.75-8.65a93.1,93.1,0,0,0-7.55-6.91l.76-1a20.41,20.41,0,0,0-10.22-15.06c-4.34-2.5-9.62-2.71-14.39-1.46-.41-2.13-.79-4.62-2.92-5.75-3-2-7.26,0-8.08,3.38-1.08,3,1,5.64,3.2,7.38a21.72,21.72,0,0,0-5.82,15c-5.13-5.36-11-10-15.55-15.88a387.62,387.62,0,0,1-30.84-40,10,10,0,0,0-3.18-2.89c.54,5.36,1.28,11.09,4.65,15.5C125.14,198,135.22,214,145.61,229.77c-.45,2.57-1.51,5.76.8,7.8a67.9,67.9,0,0,1,10.77,13l-56.35,30.2a11.11,11.11,0,0,0-6.41,9.1c-.54,4.81-2.09,10.41,1.25,14.6,8.52,11.13,17.16,22.17,25.7,33.28a44.77,44.77,0,0,0-4.61,5.67,49.37,49.37,0,0,0,4.87-5.35c2,2.48,3.89,5,5.85,7.46-3.06,1.81-4.36,5.15-6.1,8.06-3.88,5.76-5.92,12.5-7.9,19.09-2.31,6.23-2.15,13-3.37,19.46-.66,9.61-.75,19.37,1,28.88a181.54,181.54,0,0,0,8.8,37c3.28,9.43,6.69,18.84,11.27,27.73,1.35,2.12,1.48,6.22,4.76,6,16,.29,32-.38,48,.47,49.69-.13,99.38,0,149.06-.07,4.51,0,9.06.4,13.5-.61a24.69,24.69,0,0,0,10.27.1c6,1,12.14.46,18.22.54,40.63-.22,81.27.22,121.89-.31,6.24-17.89,10.77-36.82,9.07-55.88-1.27-16.87-8.1-33.05-18.3-46.44-2.64-3.09-5.61-5.86-8.29-8.9,1.83-1.71,3.66-3.42,5.44-5.18,9.37,10.05,15.32,22.66,21.71,34.67a143.26,143.26,0,0,0-21.21-35c14.39-13.43,28.92-26.7,43.13-40.31,2.2-.13,4.52.1,6.64-.62,1.86-1,1.32-3.36,1.52-5.08-.09-9.69,0-19.38-.18-29.06.13-1.9-1.15-4-3.27-3.74-8.25-.26-16.51.17-24.75-.08-13.15-10.38-26.61-20.36-39.86-30.61-4.52-3.36-8.77-7.44-14.38-8.9,4.77-8,14.28-10.44,22-14.56-7.71,3-15.9,6.1-21.33,12.66-1.34,2.13-3.87,1.57-5.95,1.34,4.34-6.39,10.93-10.69,17.08-15.17q29.37-20.49,60.55-38.24c.93-.81,2.7-1.23,3-2.45,2.2-3.6,6.52-5.79,7.48-10.1a38.2,38.2,0,0,0-8.11,2.34c-7.2,3.15-14.11,6.91-21.26,10.15-19.76,10.14-40,19.31-60.13,28.69-8,3.47-16,7.16-24.17,10.36,1-3.49-.67-6.81-2.62-9.59.36-2.91,1-6.24-.87-8.79-1.55-2.28-4.44-2.77-6.93-3.33-1.11-2.23-2.2-5-4.88-5.68-3-.77-5.74,1.11-8.2,2.57-2.34.21-5.34.07-6.64,2.46-1.63,3-.41,6.35.37,9.34-1.4,1-2.83,2-4.26,3a17.8,17.8,0,0,0,3.3,11.67c3.05.8,6.09,1.62,9.17,2.32-.13.62-.37,1.88-.5,2.51-.2,2-2.8,1-4.08,1.23-3.12-2-6.91-2.56-10.21-4.21-12.37-5.57-25-11-36-19.13-10.75-11-19.83-23.58-29-35.92a34.28,34.28,0,0,1-3.52-5.4c.66-2.6,2.23-4.87,3-7.43,3.47-11,2.33-24.14-5.53-33.08C311,138.67,304.09,133.59,296.38,133.94Zm-179.45,32c2.75,4.62,6.4,8.62,9.52,13,2.71,3.37,5,7.13,8.14,10.13-5.83-7.78-11.59-15.62-17.66-23.14Zm359.85,75.93c4.53-1.65,8.85-3.82,13.28-5.74a6.64,6.64,0,0,0,3.81-1.62c2.43-1.14,4.95-2.1,7.28-3.46a252.16,252.16,0,0,0-24.37,10.81ZM104.66,367.58c-4.1,13.38-5,27.55-4.17,41.46,1.42,15,3.75,30.15,9.31,44.21-5.7-18.17-9.49-37.13-9.12-56.24.26-18.77,5-37.9,16.16-53.27C110.86,350.48,107.37,359.09,104.66,367.58Z" transform="translate(0 0)"/><path class="cls-1" d="M267.42,147.45a27.87,27.87,0,0,1,27.11-7.94c11.9,2.8,21.1,14.25,21,26.51-.17,3.59.16,8-2.86,10.58,3.19-8.53,2.29-18.65-3.34-26-6.85-9.65-20.49-13.64-31.43-9.07a26.86,26.86,0,0,0-17,26.4c0,5.29,2.66,10,4.68,14.69-2.85-2.35-4-6-4.94-9.45A27.9,27.9,0,0,1,267.42,147.45Z" transform="translate(0 0)"/><path class="cls-1" d="M282.59,146.66c3-.56,3.48,1.85,3.68,4.18,2.12.15,4.26.31,6.39.5v3.36c-3.7-.28-9.25-1.11-10.84,3.29-1,4.84,5,5.52,8.31,6.31,4.27.62,8.33,4.08,8,8.7.14,3.81-3,6.36-5.94,8.16.28,1.58.56,3.15.85,4.74l-3,.41a36.58,36.58,0,0,0-1-4.26c-2.57-.27-5.14-.41-7.7-.76.1-.87.29-2.63.38-3.51,3.56.7,7.83,1.38,10.79-1.29,2.51-2.12,1.4-6.58-1.63-7.59-4.29-1.72-10.4-1.29-12.66-6.16-2.14-4.38.85-9.05,4.93-10.82C283,150.17,282.77,148.41,282.59,146.66Z" transform="translate(0 0)"/><path class="cls-1" d="M287,196.65a31.12,31.12,0,0,0,23.48-10.15,28.8,28.8,0,0,1,.88,3.31c-2.4,3.18-6.41,4.59-9.09,7.51,4.05-.72,7.27-3.34,10.29-5.95,3.2,6.36,6.65,12.58,10.24,18.73,2.76,4.85,6.29,9.27,8.41,14.47-5.15-1.66-9.84-4.58-15.17-5.68a24.1,24.1,0,0,0-15.48,1.44c-7.11,3.19-14.3,7.3-18.69,13.95-4.54,2.75-6.82,7.66-10,11.67a86.27,86.27,0,0,0-13.41,25.61c-1.84,5.86-6.53,10.05-10.84,14.14-3.92,3.66-8.87,5.85-13.34,8.71-6.15-7.62-12.4-15.16-18.61-22.74a49.35,49.35,0,0,1,8.6-23.45c2.26-3.41,6-5.31,8.8-8.21a28.92,28.92,0,0,0-.64-4.45c11.83-15.38,23.54-30.84,35.39-46.2C273.3,193.67,280,196.7,287,196.65Z" transform="translate(0 0)"/><path class="cls-1" d="M357.2,251a7,7,0,0,1,3.54,1.37c6.61,4.84,14.44,9.13,17.7,17.12,3.74,10.11,3.59,21.14,3.19,31.77-3.13-3.92-4.6-8.79-6.71-13.27-3-6.5-5-13.42-8.08-19.92A173.44,173.44,0,0,0,357.2,251Z" transform="translate(0 0)"/><path class="cls-1" d="M124.29,295.37a78.83,78.83,0,0,1,37-3.67c-1.23,5.77-2.86,11.49-3.48,17.38-.21,3.06,2.73,5,4.91,6.55q-.74,31.22-.08,62.45c-9.47-12.36-19.08-24.63-28.63-36.93,7.29-3.6,13.09-10.7,13.61-19A22.84,22.84,0,0,0,133.9,299c-4.15-1.89-8.79-2-13.24-1.55A21.43,21.43,0,0,1,124.29,295.37Z" transform="translate(0 0)"/><path class="cls-1" d="M471.21,298.3l.52-.53c-.28,8.75.16,17.5,0,26.25a64.24,64.24,0,0,0,.75,10.18c1.88.46,3.76.92,5.64,1.4,1,2.33,1.23,6.55,4.7,6.15,3.26-1,5.41-3.93,8.22-5.72,2-1.51,4.58-1.24,6.91-1.34,6.23.05,12.45,0,18.68,0-28.19,26.44-56.61,52.63-84.77,79.09,6.38-21,12.09-42.37,14.38-64.28,1.37-.76,2.89-1.76,2.84-3.54,1.05-11.61-1.45-23.14-1.11-34.75a102.57,102.57,0,0,1,22.9.53C471.06,307.28,471,302.79,471.21,298.3Z" transform="translate(0 0)"/><path class="cls-1" d="M129.45,309.22c1-1.13,1.89-2.26,2.86-3.36a16.44,16.44,0,0,1-.07,5l3.08,2.66-1.55,1.8c-2.55-1.9-7.36-6.1-9.29-1.3.26,4.16,5,6.72,4.89,11.06,0,2.38-2.05,3.95-3.41,5.65l-1.81-2.32c.76-1.61,2.74-3.27,1.49-5.14-1.59-3.52-6.12-7-3.76-11.19C123.24,309.13,126.68,309.06,129.45,309.22Z" transform="translate(0 0)"/><path class="cls-1" d="M220.33,312.14c7.81,4.83,15.37,10,23,15.05.09.51.26,1.52.35,2l1.77-.25c6.21,5.07,12.77,9.7,18.87,14.9-3,6.51-3.84,13.79-3.4,20.9-.29,7.68,1,15.55,4.89,22.28,2.87,5.37,7.65,9.28,11.76,13.66-3.22,3.23-7.84,5.72-9.05,10.43a53.37,53.37,0,0,0-.7,11.84c.14,3.78,2.9,6.64,5.61,8.95-3.81,2.34-7.89,4.24-11.6,6.75-3.65,2.29-4.32,7.84-1.71,11.15,2.27,3.05,5.19,5.51,7.88,8.16-5.17,3.31-10.46,6.43-15.73,9.59a18.38,18.38,0,0,1-23.08-3.86c-4.16-5.12-8.14-10.39-12.17-15.61A141.28,141.28,0,0,0,246.78,393c.76-2.86,2-5.87,1-8.84a219.29,219.29,0,0,0-26.18-59.81,39.72,39.72,0,0,1-4.26-9.83Z" transform="translate(0 0)"/><path class="cls-1" d="M273,336a37.15,37.15,0,0,1,27-12.91c16-.71,31.93,10.19,36.5,25.66l-.91.83c-3.79-11.21-13-20.5-24.44-23.73-15-4.62-32.55,2.22-40.53,15.77-8.86,13.88-6.21,33.67,6,44.71a44.15,44.15,0,0,0,9.76,6.72l-2.1,1.73.05-.39c-.36-1.39-1.94-1.94-3-2.72a36.62,36.62,0,0,1-17.16-27.56A37.14,37.14,0,0,1,273,336Z" transform="translate(0 0)"/><path class="cls-1" d="M332.29,359.18c15.27-10.06,30.83-19.92,47.56-27.38-.05,4.72-1.3,9.27-2.45,13.81-.9,2.65,0,5.34,1.49,7.58-3.23,8.92-8.6,16.81-14.27,24.33-10.09,12.94-20.17,26-28.26,40.29,7.52,19.79,20.26,37.37,35.91,51.54-4.55,4.37-9.5,9.33-16.24,9.52-7,.89-13.19-3.3-18-7.94-8.46-7.25-17-14.42-25.45-21.66,4.87-1.34,9.92-2.11,14.64-3.94,3.55-1.5,4.94-5.83,3.77-9.35-1.9-7.64-3.75-15.31-5.75-22.93-.73-3.75-4.47-6.73-8.33-6-6.75,1.23-13.28,3.39-20,4.83-3.35,1-7.51,1.29-9.56,4.52-2.41,3.6-.39,8,.4,11.8C283.47,423.85,277,421,275,414.89c-1.57-4.94,1.29-9.84,5.19-12.71,13.87-12,27.4-24.42,41.36-36.32C325.56,364.39,328.74,361.47,332.29,359.18Z" transform="translate(0 0)"/><path class="cls-1" d="M294.13,334.57l4.05-.85,1.11,5.84q4.33,0,8.67.42l-.42,4.63c-4.13-.47-8.94-1.34-12.46,1.47-2.67,2.07-2.55,6.7.41,8.45,4.65,2.61,10.45,2.16,15,5.14,2.77,1.64,3.8,4.87,5,7.66-5.18,4.59-10.35,9.18-15.56,13.73l-7-1.12c.14-1.56.28-3.11.43-4.66,4.58.83,9.91,1.86,13.91-1.21a6.08,6.08,0,0,0-.37-9.87c-4.77-2.87-11-2.13-15.46-5.58-4.08-2.93-4.67-9.22-1.9-13.23,1.41-2.15,3.78-3.36,5.89-4.7C294.93,338.65,294.53,336.6,294.13,334.57Z" transform="translate(0 0)"/><path class="cls-1" d="M196.32,355.9a170.19,170.19,0,0,0,23.75,34.41,296.21,296.21,0,0,0-17.71,38.85c-3-4.13-6.63-7.84-9.11-12.24C194.89,396.63,196.35,376.28,196.32,355.9Z" transform="translate(0 0)"/><path class="cls-1" d="M380.36,422.84c4.31-5.71,8.28-11.67,12.74-17.26-1.88,9.85-4.28,19.61-6.31,29.44C384.65,431,382.52,426.89,380.36,422.84Z" transform="translate(0 0)"/><path class="cls-1" d="M306.88,422c2.13-1.43,4.34-3.53,7.13-3,3.22.42,5.31,3.9,5,7,0,5.19-3.51,9.64-7.52,12.56-4,.59-8-1.56-10.95-4.13s-5-6.91-2.64-10.43C299.86,420.93,303.85,421.46,306.88,422Z" transform="translate(0 0)"/><path class="cls-2" d="M296.38,133.94c7.71-.35,14.61,4.73,19.55,10.24,7.86,8.94,9,22,5.53,33.08-.78,2.56-2.35,4.83-3,7.43a34.28,34.28,0,0,0,3.52,5.4c9.17,12.34,18.25,24.89,29,35.92,11,8.11,23.6,13.56,36,19.13,3.3,1.65,7.09,2.23,10.21,4.21a30.37,30.37,0,0,1,3.89,7l3.17.13c.87-2.73,1.73-5.47,2.43-8.25,5.57-2.13,11.32-3.87,16.65-6.59,8.16-3.2,16.12-6.89,24.17-10.36,20.13-9.38,40.37-18.55,60.13-28.69,7.15-3.24,14.06-7,21.26-10.15.29,2.58.56,5.16.63,7.76-.33,1.22-2.1,1.64-3,2.45Q495.41,220.44,466,240.89c-6.15,4.48-12.74,8.78-17.08,15.17a60.89,60.89,0,0,0-2.94,5.38c4.61.61,9.41,1.49,13.08,4.59,13,10.07,26.27,19.91,39.2,30.12-7.07.4-14.15.11-21.23.26a12,12,0,0,0-5.2,1.35l-.52.53c-.23,4.49-.15,9-.29,13.47a102.57,102.57,0,0,0-22.9-.53c-.34,11.61,2.16,23.14,1.11,34.75.05,1.78-1.47,2.78-2.84,3.54-19.21,6.92-40.17,9.93-60.4,6.34a16.69,16.69,0,0,1-7-2.68c-1.47-2.24-2.39-4.93-1.49-7.58,1.15-4.54,2.4-9.09,2.45-13.81-16.73,7.46-32.29,17.32-47.56,27.38-3.55,2.29-6.73,5.21-10.74,6.71,19.8-18,40-35.47,60-53.24l.27-3.88c-14.32,12.4-28.41,25.09-42.65,37.59-4.74-12.14-15.23-22.12-28.05-25.11-15.54-4.24-33.18,2.24-42.48,15.34-2.61-3.4-5.09-7-8.23-9.92l-3.13-.07c3.15,4.2,6.58,8.19,9.88,12.27a54.11,54.11,0,0,0-2.76,5c-6.1-5.2-12.66-9.83-18.87-14.9l3.89-.7c-.31-5.73-3.06-11.54-1.53-17.23-4.49-5.56-9.06-11-13.55-16.62,4.47-2.86,9.42-5.05,13.34-8.71,4.31-4.09,9-8.28,10.84-14.14A86.09,86.09,0,0,1,271.9,246c3.18-4,5.46-8.92,10-11.67,4.39-6.65,11.58-10.76,18.69-14a24.1,24.1,0,0,1,15.48-1.44c5.33,1.1,10,4,15.17,5.68-2.12-5.2-5.65-9.62-8.41-14.47-3.59-6.15-7-12.37-10.24-18.73-3,2.61-6.24,5.23-10.29,6,2.68-2.92,6.69-4.33,9.09-7.51a28.8,28.8,0,0,0-.88-3.31l-.67-2.2c-4.51,4.22-9.55,8.29-15.8,9.45-8.77,1.86-19.4,0-25.19-7.35,3.24,1.57,6.15,3.78,9.5,5.12,9.51,3.6,21,1.3,28.11-6.1a13.08,13.08,0,0,1,7.72-4.4l.61-1.14c.81,1,1.37,2.39,2.57,3.08a37.69,37.69,0,0,0,4.28-22.91c-1.7-9.9-8.37-19-17.73-23C301.42,136,298.65,135.51,296.38,133.94Zm-4.95,97.58c-2,2.48-3.45,5.39-5.33,8-1.09.28-2.64-.2-3.3,1-2.11,3-4.1,6.08-5.91,9.27-1,1.16,0,2.49.31,3.69-1.63,2.86-3.73,5.47-5,8.51a2.79,2.79,0,0,0,2.25,2.42c9.48,2.89,19,5.66,28.46,8.62-1.81,3-4,5.74-5.39,9a3.29,3.29,0,0,0,3.15,3.41,3.35,3.35,0,0,0,2-.61c2.15-2.61,3.7-5.64,5.58-8.44,2.26,1.15,4.75,4.13,7.43,2.38,3-3.82,5.2-8.15,7.93-12.13.89-1.63,2.64-3.53,1.3-5.4-3.58-3.24-8.44-4.8-11.71-8.43q-8.91-10.06-17.94-20.05C294.37,231.62,292.81,230.41,291.43,231.52ZM357.2,251a173.51,173.51,0,0,1,9.64,17c3,6.5,5,13.42,8.08,19.92,2.11,4.48,3.58,9.35,6.71,13.27.4-10.63.55-21.66-3.19-31.77-3.26-8-11.09-12.28-17.7-17.12A7,7,0,0,0,357.2,251Zm-3.78,40.83a15.22,15.22,0,0,1,3.79,4.36,39,39,0,0,1-5.12-3.32c-.64,1.47-1.34,2.9-2.09,4.32-.58-1.67.4-3.32.69-4.93-3.43,1-6.8,2.24-10.15,3.49a230,230,0,0,1,8.13,22.19c7.52-2.34,14.88-5.19,22.4-7.54-2.29-7.64-5.13-15.1-7.22-22.8-3.52,1.27-7.22,2.18-10.43,4.19Z" transform="translate(0 0)"/><path class="cls-2" d="M106.52,284.52q26.85-14.34,53.68-28.71c6.11,11.09,4.16,24.19,1.11,35.89a78.83,78.83,0,0,0-37,3.67,21.2,21.2,0,0,0-3.63,2.11,26.51,26.51,0,0,0-13.78,8.67c-2.63-3.72-6.76-7.18-6.53-12.15A10.51,10.51,0,0,1,106.52,284.52Z" transform="translate(0 0)"/><path class="cls-2" d="M215.41,275.7q15,18.26,30,36.62l-4.25.8c.78,4.68,1.48,9.38,2.26,14.07-7.68-5-15.24-10.22-23-15.05C219.3,299.89,214.26,288.15,215.41,275.7Z" transform="translate(0 0)"/><path class="cls-2" d="M107.82,307.41c4.23-5,10.45-8.77,17.2-8.48,10.5-.32,20.16,8.54,21,19,1,9-4.46,18.6-13.21,21.52,3.05-2.81,6.94-4.84,9.13-8.48a20.14,20.14,0,0,0-19-30.93c-5.76.47-10.75,3.91-14.43,8.19Z" transform="translate(0 0)"/><path class="cls-2" d="M127.48,345.48q50.47,65,100.87,130a19.48,19.48,0,0,0,25.09,5c15.1-9.06,30.16-18.22,45.26-27.3,13.38,11.32,26.7,22.71,40.07,34a24.05,24.05,0,0,0,7.69,4.21c-4.44,1-9,.64-13.5.61-49.68.06-99.37-.06-149.06.07-16-.85-32-.18-48-.47-3.28.25-3.41-3.85-4.76-6-4.58-8.89-8-18.3-11.27-27.73a181.54,181.54,0,0,1-8.8-37c-1.76-9.51-1.67-19.27-1-28.88,1.22-6.48,1.06-13.23,3.37-19.46,2-6.59,4-13.33,7.9-19.09C123.12,350.63,124.42,347.29,127.48,345.48Z" transform="translate(0 0)"/><path class="cls-2" d="M261,364.76c1.47,13.31,10,25.21,21.69,31.52-1.69,1.45-3.41,2.89-5,4.42-4.11-4.38-8.89-8.29-11.76-13.66C262,380.31,260.68,372.44,261,364.76Z" transform="translate(0 0)"/><path class="cls-2" d="M365.52,486.62l113.8-106c2.68,3,5.65,5.81,8.29,8.9,10.2,13.39,17,29.57,18.3,46.44,1.7,19.06-2.83,38-9.07,55.88-40.62.53-81.26.09-121.89.31-6.08-.08-12.19.41-18.22-.54A22.39,22.39,0,0,0,365.52,486.62ZM442,427q-23,20.92-46.19,41.74c-7.55,7.08-15.68,13.59-22.84,21.06,24.11-21.45,48-43.15,71.9-64.83A22.18,22.18,0,0,0,442,427Z" transform="translate(0 0)"/><path class="cls-2" d="M273.48,431.92c5.1,4.55,10.42,8.84,15.53,13.38C282,449.42,275,453.61,268,458c-2.69-2.65-5.61-5.11-7.88-8.16-2.61-3.31-1.94-8.86,1.71-11.15C265.59,436.16,269.67,434.26,273.48,431.92Z" transform="translate(0 0)"/><path class="cls-3" d="M268.39,143.33c11.16-9.7,29.44-9.16,40,1.19a30.46,30.46,0,0,1,6.4,35.36l-.61,1.14a13.08,13.08,0,0,0-7.72,4.4c-7.07,7.4-18.6,9.7-28.11,6.1-3.35-1.34-6.26-3.55-9.5-5.12,5.79,7.34,16.42,9.21,25.19,7.35,6.25-1.16,11.29-5.23,15.8-9.45l.67,2.2A31.11,31.11,0,0,1,287,196.65c-7,0-13.73-3-19.18-7.29-11.85,15.36-23.56,30.82-35.39,46.2a28.92,28.92,0,0,1,.64,4.45c-2.78,2.9-6.54,4.8-8.8,8.21a49.35,49.35,0,0,0-8.6,23.45c-.13,1.34-.23,2.68-.29,4-1.15,12.45,3.89,24.19,4.92,36.44l-2.94,2.43c-8.85,6.83-20,12-31.45,10a80,80,0,0,1-23.2-8.94c-2.18-1.58-5.12-3.49-4.91-6.55.62-5.89,2.25-11.61,3.48-17.38,3.05-11.7,5-24.8-1.11-35.89-.92-1.8-1.95-3.54-3-5.25a67.9,67.9,0,0,0-10.77-12.95c-2.31-2-1.25-5.23-.8-7.8-10.38-15.78-20.46-31.71-30.7-47.58-3.37-4.41-4.11-10.14-4.65-15.5a10,10,0,0,1,3.18,2.89,387.62,387.62,0,0,0,30.84,40c4.54,5.91,10.42,10.52,15.55,15.88,7.73,7,15.77,14,25.4,18.36,6.33-4.91,9.17-12.62,11.38-20l.69-.9a93.1,93.1,0,0,1,7.55,6.91c-1.86,3.51-3.3,7.83-7.75,8.65-1.09,0-2.18.06-3.26.09l-1.62,2.62,2.59,2.34c10.9-5,19.58-13.51,29.09-20.62,13.87-12.1,26.64-25.39,39.55-38.5C254,172.17,256.31,153,268.39,143.33Zm-1,4.12a27.91,27.91,0,0,0-6.74,25.76c1,3.42,2.09,7.1,4.94,9.45-2-4.72-4.66-9.4-4.68-14.69a26.86,26.86,0,0,1,17-26.4c10.94-4.57,24.58-.58,31.43,9.07,5.63,7.31,6.53,17.43,3.34,26,3-2.57,2.69-7,2.86-10.58.1-12.26-9.1-23.71-21-26.51a27.88,27.88,0,0,0-27.12,7.9Zm15.17-.79c.18,1.75.4,3.51.61,5.26-4.08,1.77-7.07,6.44-4.93,10.82,2.26,4.87,8.37,4.44,12.66,6.16,3,1,4.14,5.47,1.63,7.59-3,2.67-7.23,2-10.79,1.29-.09.88-.28,2.64-.38,3.51,2.56.35,5.13.49,7.7.76.44,1.39.65,2.83,1,4.26l3-.41c-.29-1.59-.57-3.16-.85-4.74,2.92-1.8,6.08-4.35,5.94-8.16.33-4.62-3.73-8.08-8-8.7-3.33-.79-9.33-1.47-8.31-6.31,1.59-4.4,7.14-3.57,10.84-3.29v-3.36c-2.13-.19-4.27-.35-6.39-.5-.22-2.33-.7-4.74-3.7-4.18Z" transform="translate(0 0)"/><path class="cls-3" d="M528.85,192.45a38.2,38.2,0,0,1,8.11-2.34c-1,4.31-5.28,6.5-7.48,10.1C529.41,197.61,529.14,195,528.85,192.45Z" transform="translate(0 0)"/><path class="cls-3" d="M393.52,228.63l3.38-2.5c1,3.08,1.7,6.5,4,8.93s5.58.58,8.31.63c.41,3.84-2.35,6.47-4.25,9.41a13,13,0,0,0,1.67,3.14c-.7,2.78-1.56,5.52-2.43,8.25l-3.17-.13a30.37,30.37,0,0,0-3.89-7c1.28-.26,3.88.75,4.08-1.23.13-.63.37-1.89.5-2.51-3.08-.7-6.12-1.52-9.17-2.32a17.8,17.8,0,0,1-3.3-11.67C390.69,230.64,392.12,229.66,393.52,228.63Z" transform="translate(0 0)"/><path class="cls-3" d="M471.73,297.77a12,12,0,0,1,5.2-1.35c7.08-.15,14.16.14,21.23-.26q5.08-.12,10.19,0c8.24.25,16.5-.18,24.75.08,2.12-.26,3.4,1.84,3.27,3.74.16,9.68.09,19.37.18,29.06-.2,1.72.34,4.09-1.52,5.08-2.12.72-4.44.49-6.64.62H516.68c-6.23-.07-12.45,0-18.68,0-2.33.1-4.94-.17-6.91,1.34-2.81,1.79-5,4.76-8.22,5.72-3.47.4-3.74-3.82-4.7-6.15-1.88-.48-3.76-.94-5.64-1.4a64.24,64.24,0,0,1-.75-10.18C471.89,315.27,471.45,306.52,471.73,297.77Z" transform="translate(0 0)"/><path class="cls-3" d="M120.66,297.48c4.45-.41,9.09-.34,13.24,1.55a22.84,22.84,0,0,1,13.74,23.11c-.52,8.31-6.32,15.41-13.61,19q-4.09-5.14-8-10.42c1.36-1.7,3.4-3.27,3.41-5.65.14-4.34-4.63-6.9-4.89-11.06,1.93-4.8,6.74-.6,9.29,1.3l1.55-1.8-3.08-2.66a16.44,16.44,0,0,0,.07-5c-1,1.1-1.91,2.23-2.86,3.36-2.77-.16-6.21-.09-7.57,2.85-2.36,4.19,2.17,7.67,3.76,11.19,1.25,1.87-.73,3.53-1.49,5.14-5.26-6.71-10.41-13.51-15.73-20.19,3.68-4.28,8.67-7.72,14.43-8.19a20.14,20.14,0,0,1,19,30.93c-2.19,3.64-6.08,5.67-9.13,8.48C141.51,336.5,147,326.93,146,317.9c-.79-10.44-10.45-19.3-21-19-6.75-.29-13,3.45-17.2,8.48-.23-.31-.71-.94-.94-1.26A26.51,26.51,0,0,1,120.66,297.48Z" transform="translate(0 0)"/><path class="cls-3" d="M268.61,336.59c9.3-13.1,26.94-19.58,42.48-15.34,12.82,3,23.31,13,28.05,25.11-.89.78-1.78,1.56-2.65,2.35-4.57-15.47-20.48-26.37-36.5-25.66a37.18,37.18,0,0,0-36,38.34c0,.89.09,1.78.18,2.66a36.62,36.62,0,0,0,17.16,27.56c1,.78,2.61,1.33,3,2.72l-.05.39-1.61,1.54c-11.75-6.26-20.25-18.19-21.69-31.5-.44-7.11.37-14.39,3.4-20.9a54.11,54.11,0,0,1,2.76-5Z" transform="translate(0 0)"/><path class="cls-3" d="M270.61,341.58c8-13.55,25.48-20.39,40.53-15.77,11.47,3.23,20.65,12.52,24.44,23.73-6.78,5.87-13.44,11.87-20.16,17.79-1.17-2.79-2.2-6-5-7.66-4.51-3-10.31-2.53-15-5.14-3-1.75-3.08-6.38-.41-8.45,3.52-2.81,8.33-1.94,12.46-1.47L308,340q-4.33-.37-8.67-.42l-1.11-5.84-4.05.85c.4,2,.8,4.08,1.19,6.12-2.11,1.34-4.48,2.55-5.89,4.7-2.77,4-2.18,10.3,1.9,13.23,4.48,3.45,10.69,2.71,15.46,5.58a6.06,6.06,0,0,1,.37,9.87c-4,3.07-9.33,2-13.91,1.21-.15,1.55-.29,3.1-.43,4.66l7,1.12L286.37,393a44.15,44.15,0,0,1-9.76-6.72C264.4,375.25,261.75,355.46,270.61,341.58Z" transform="translate(0 0)"/><path class="cls-3" d="M296.93,411.91c6.7-1.44,13.23-3.6,20-4.83,3.86-.76,7.6,2.22,8.33,6,2,7.62,3.85,15.29,5.75,22.93,1.17,3.52-.22,7.85-3.77,9.35-4.72,1.83-9.77,2.6-14.64,3.94q-12.39-10.53-24.81-21c-.79-3.8-2.81-8.2-.4-11.8C289.42,413.2,293.58,412.87,296.93,411.91Zm9.95,10c-3-.49-7-1-8.94,2-2.33,3.52-.32,8,2.64,10.43s7,4.72,10.95,4.13c4-2.92,7.52-7.37,7.52-12.56.27-3.09-1.82-6.57-5-7-2.83-.49-5.05,1.61-7.17,3.09Z" transform="translate(0 0)"/><path class="cls-4" d="M116.93,165.93c6.11,7.52,11.83,15.36,17.66,23.11-3.15-3-5.43-6.76-8.14-10.13C123.33,174.55,119.68,170.55,116.93,165.93Z" transform="translate(0 0)"/><path class="cls-4" d="M162.44,203.06c.82-3.39,5.07-5.34,8.08-3.38,2.13,1.13,2.51,3.62,2.92,5.75a19.37,19.37,0,0,1,14.39,1.46A20.42,20.42,0,0,1,198.05,222l-.76,1-.69.9c-2.21,7.41-5,15.12-11.38,20-9.63-4.32-17.67-11.34-25.4-18.36a21.72,21.72,0,0,1,5.82-15C163.45,208.7,161.36,206,162.44,203.06Z" transform="translate(0 0)"/><path class="cls-4" d="M399.79,216.83c2.46-1.46,5.18-3.34,8.2-2.57,2.68.68,3.77,3.45,4.88,5.68,2.49.56,5.38,1.05,6.93,3.33,1.87,2.55,1.23,5.88.87,8.79,1.95,2.78,3.66,6.1,2.62,9.59-5.33,2.72-11.08,4.46-16.65,6.59A12.87,12.87,0,0,1,405,245.1c1.9-2.94,4.66-5.57,4.25-9.41-2.73-.05-6.14,1.77-8.31-.63s-3-5.85-4-8.93l-3.38,2.5c-.78-3-2-6.39-.37-9.34C394.45,216.9,397.45,217,399.79,216.83Z" transform="translate(0 0)"/><path class="cls-4" d="M291.43,231.52c1.38-1.11,2.94.1,3.82,1.21q9,10,17.94,20.05c3.27,3.63,8.13,5.19,11.71,8.43,1.34,1.87-.41,3.77-1.3,5.4-2.73,4-5,8.31-7.93,12.13-2.68,1.75-5.17-1.23-7.43-2.38-1.88,2.8-3.43,5.83-5.58,8.44a3.27,3.27,0,0,1-4.57-.77,3.2,3.2,0,0,1-.61-2c1.35-3.24,3.58-6,5.39-9-9.46-3-19-5.73-28.46-8.62a2.79,2.79,0,0,1-2.25-2.42c1.31-3,3.41-5.65,5-8.51-.29-1.2-1.29-2.53-.31-3.69,1.81-3.19,3.8-6.28,5.91-9.27.66-1.21,2.21-.73,3.3-1C288,236.91,289.39,234,291.43,231.52Z" transform="translate(0 0)"/><path class="cls-4" d="M476.78,241.86A252.54,252.54,0,0,1,501.15,231c-2.33,1.36-4.85,2.32-7.28,3.46a6.64,6.64,0,0,1-3.81,1.62C485.63,238,481.31,240.21,476.78,241.86Z" transform="translate(0 0)"/><path class="cls-4" d="M454.77,254.73c5.43-6.56,13.62-9.67,21.33-12.66-7.71,4.12-17.22,6.54-22,14.56,5.61,1.46,9.86,5.54,14.38,8.9,13.25,10.25,26.71,20.23,39.86,30.61q-5.1-.09-10.19,0C485.23,286,472,276.11,459,266c-3.67-3.1-8.47-4-13.08-4.59a60.89,60.89,0,0,1,2.94-5.38C450.9,256.3,453.43,256.86,454.77,254.73Z" transform="translate(0 0)"/><path class="cls-4" d="M100.83,280.72q28.19-15,56.35-30.16c1.07,1.71,2.1,3.45,3,5.25q-26.87,14.31-53.68,28.71a10.51,10.51,0,0,0-6.17,9.48c-.23,5,3.9,8.43,6.53,12.15.23.32.71,1,.94,1.26l.6.8c5.32,6.68,10.47,13.48,15.73,20.19l1.81,2.32q4,5.25,8.07,10.43c9.55,12.3,19.16,24.57,28.63,36.93q-.67-31.23.08-62.45a80,80,0,0,0,23.2,8.94c11.44,2,22.6-3.17,31.45-10a39.72,39.72,0,0,0,4.26,9.83,219.29,219.29,0,0,1,26.18,59.81c1,3-.24,6-1,8.84a141.28,141.28,0,0,1-29.76,55.05c4,5.22,8,10.49,12.17,15.61a18.38,18.38,0,0,0,23.08,3.86c5.27-3.16,10.56-6.28,15.73-9.59,6.9-4.37,13.91-8.56,21-12.68-5.11-4.54-10.43-8.83-15.53-13.38-2.71-2.31-5.47-5.17-5.61-8.95a53.37,53.37,0,0,1,.7-11.84c1.21-4.71,5.83-7.2,9.05-10.43,1.63-1.53,3.35-3,5-4.42l1.61-1.54,2.1-1.73q6.72-6,13.49-11.95c5.21-4.55,10.38-9.14,15.56-13.73,6.72-5.92,13.38-11.92,20.16-17.79l.91-.83c.87-.79,1.76-1.57,2.65-2.35,14.24-12.5,28.33-25.19,42.65-37.59l-.27,3.88c-20,17.77-40.17,35.28-60,53.24-14,11.9-27.49,24.3-41.36,36.32-3.9,2.87-6.76,7.77-5.19,12.71,2.05,6.08,8.49,9,12.77,13.31q12.45,10.49,24.81,21c8.46,7.24,17,14.41,25.45,21.66,4.81,4.64,11,8.83,18,7.94,6.74-.19,11.69-5.15,16.24-9.52-15.65-14.17-28.39-31.75-35.91-51.54,8.09-14.32,18.17-27.35,28.26-40.29,5.67-7.52,11-15.41,14.27-24.33a16.69,16.69,0,0,0,7,2.68c20.23,3.59,41.19.58,60.4-6.34-2.29,21.91-8,43.26-14.38,64.28,28.16-26.46,56.58-52.65,84.77-79.09h11.71c-14.21,13.61-28.74,26.88-43.13,40.31a143.26,143.26,0,0,1,21.21,35c-6.39-12-12.34-24.62-21.71-34.67-1.78,1.76-3.61,3.47-5.44,5.18q-56.85,53.07-113.8,106.05a22.48,22.48,0,0,1-8.79,4.94,24.69,24.69,0,0,1-10.27-.1,24.05,24.05,0,0,1-7.69-4.21c-13.37-11.33-26.69-22.72-40.07-34-15.1,9.08-30.16,18.24-45.26,27.3a19.48,19.48,0,0,1-25.09-5q-50.43-65-100.87-130c-2-2.47-3.89-5-5.85-7.46a49.37,49.37,0,0,1-4.87,5.35,44.77,44.77,0,0,1,4.61-5.67c-8.54-11.11-17.18-22.15-25.7-33.28-3.34-4.19-1.79-9.79-1.25-14.6A11.11,11.11,0,0,1,100.83,280.72Zm95.49,75.18c0,20.38-1.43,40.73-3.07,61,2.48,4.4,6.15,8.11,9.11,12.24a296.21,296.21,0,0,1,17.71-38.85A169.78,169.78,0,0,1,196.32,355.9Zm184,66.94c2.16,4.05,4.29,8.11,6.43,12.18,2-9.83,4.43-19.59,6.31-29.44-4.42,5.59-8.39,11.55-12.7,17.26Z" transform="translate(0 0)"/><path class="cls-4" d="M215.41,275.7c.06-1.35.16-2.69.29-4,6.21,7.58,12.46,15.12,18.61,22.74,4.49,5.57,9.06,11.06,13.55,16.62-1.53,5.69,1.22,11.5,1.53,17.23l-3.89.7-1.77.25c-.09-.5-.26-1.51-.35-2-.78-4.69-1.48-9.39-2.26-14.07l4.25-.8Q230.42,294,215.41,275.7Z" transform="translate(0 0)"/><path class="cls-4" d="M353.42,291.79c3.21-2,6.91-2.92,10.43-4.23,2.09,7.7,4.93,15.16,7.22,22.8-7.52,2.35-14.88,5.2-22.4,7.54a230,230,0,0,0-8.13-22.19c3.35-1.25,6.72-2.46,10.15-3.49-.29,1.61-1.27,3.26-.69,4.93.75-1.42,1.45-2.85,2.09-4.32a39,39,0,0,0,5.12,3.32A15.22,15.22,0,0,0,353.42,291.79Z" transform="translate(0 0)"/><path class="cls-4" d="M257.25,326.6l3.13.07c3.14,2.93,5.62,6.52,8.23,9.92l-1.48,2.28C263.83,334.79,260.4,330.8,257.25,326.6Z" transform="translate(0 0)"/><path class="cls-4" d="M104.66,367.58c2.71-8.49,6.2-17.1,12.18-23.84-11.12,15.37-15.9,34.5-16.16,53.27-.37,19.11,3.42,38.07,9.12,56.24-5.56-14.06-7.89-29.22-9.31-44.21C99.67,395.13,100.56,381,104.66,367.58Z" transform="translate(0 0)"/><path class="cls-4" d="M442,427a21.66,21.66,0,0,1,2.84-2C421,446.65,397.08,468.35,373,489.8c7.16-7.47,15.29-14,22.84-21.06Q418.93,447.89,442,427Z" transform="translate(0 0)"/></svg>