<svg id="Layer_1" data-name="Layer 1" xmlns="http://www.w3.org/2000/svg" viewBox="0 0 626 626"><defs><style>.cls-1{fill:#fff;}.cls-2{fill:#f4f8fb;}.cls-3{fill:#f36f56;}.cls-4{fill:#f8924f;}.cls-5{fill:#f16545;}.cls-6{fill:#f9da54;}.cls-7{fill:#eda43c;}.cls-8{fill:#fca138;}.cls-9{fill:#fcb249;}.cls-10{fill:#f7be38;}.cls-11{fill:#fb9e4c;}.cls-12{fill:#f0f4f6;}.cls-13{fill:#ffcb2c;}.cls-14{fill:#febf46;}.cls-15{fill:#2f3061;}.cls-16{fill:#fb9a39;}.cls-17{fill:#ffc344;}.cls-18{fill:#ffe037;}.cls-19{fill:#fcfcfc;}.cls-20{fill:#ffe32d;}.cls-21{fill:#f7ac2f;}.cls-22{fill:#25274d;}.cls-23{fill:#e4e4de;}.cls-24{fill:#fcad49;}.cls-25{fill:#ffe428;}.cls-26{fill:#34376e;}.cls-27{fill:#ffb536;}.cls-28{fill:#fdb149;}.cls-29{fill:#feeb15;}.cls-30{fill:#fdba47;}.cls-31{fill:#fec24f;}.cls-32{fill:#fead37;}.cls-33{fill:#ffd80f;}.cls-34{fill:#313460;}.cls-35{fill:#fba338;}.cls-36{fill:#ffb636;}.cls-37{fill:#733a32;}.cls-38{fill:#d5917b;}.cls-39{fill:#ffc342;}.cls-40{fill:#f7714d;}.cls-41{fill:#fad971;}.cls-42{fill:#f2705b;}.cls-43{fill:#a9729a;}.cls-44{fill:#eba437;}.cls-45{fill:#6f6ce1;}.cls-46{fill:#fca238;}.cls-47{fill:#fcb348;}.cls-48{fill:#786dc9;}.cls-49{fill:#fabe49;}.cls-50{fill:#f3bc65;}.cls-51{fill:#8070e5;}.cls-52{fill:#a67efe;}.cls-53{fill:#9182e4;}.cls-54{fill:#343379;}.cls-55{fill:#ecad36;}.cls-56{fill:#ffcc2d;}.cls-57{fill:#9077ed;}.cls-58{fill:#ffc246;}.cls-59{fill:#ffd930;}.cls-60{fill:#6e56d5;}.cls-61{fill:#9b79f8;}.cls-62{fill:#ffdd3b;}.cls-63{fill:#d8c4f2;}.cls-64{fill:#fa8146;}.cls-65{fill:#f5ae27;}.cls-66{fill:#dfa285;}.cls-67{fill:#642712;}.cls-68{fill:#311644;}.cls-69{fill:#ffe623;}.cls-70{fill:#463d6c;}.cls-71{fill:#fdc642;}.cls-72{fill:#eea828;}.cls-73{fill:#fcae4a;}.cls-74{fill:#fcc541;}.cls-75{fill:#fdeb12;}.cls-76{fill:#ffd322;}.cls-77{fill:#f1bd52;}.cls-78{fill:#feda08;}.cls-79{fill:#746bde;}.cls-80{fill:#d7dee8;}.cls-81{fill:#fda33b;}.cls-82{fill:#6a68da;}.cls-83{fill:#dec7f1;}.cls-84{fill:#f2c74f;}.cls-85{fill:#272650;}.cls-86{fill:#a37df7;}.cls-87{fill:#33292e;}.cls-88{fill:#ddb876;}.cls-89{fill:#28264e;}.cls-90{fill:#ffca44;}.cls-91{fill:#9783da;}.cls-92{fill:#e0c152;}.cls-93{fill:#fdb63f;}.cls-94{fill:#8d68f0;}.cls-95{fill:#fd8796;}.cls-96{fill:#c2bae5;}.cls-97{fill:#fbac4a;}.cls-98{fill:#fcba39;}.cls-99{fill:#dcb492;}.cls-100{fill:#e38149;}.cls-101{fill:#fd78ab;}.cls-102{fill:#ebbc83;}.cls-103{fill:#917acf;}.cls-104{fill:#9076ef;}.cls-105{fill:#9a77f7;}.cls-106{fill:#e2c595;}.cls-107{fill:#ab8aa4;}.cls-108{fill:#706bdf;}.cls-109{fill:#8973e9;}.cls-110{fill:#b586bd;}.cls-111{fill:#7c6fe3;}.cls-112{fill:#f4cb4d;}.cls-113{fill:#c5818a;}.cls-114{fill:#353669;}.cls-115{fill:#ff7470;}.cls-116{fill:#8968eb;}.cls-117{fill:#f9dfae;}.cls-118{fill:#682764;}.cls-119{fill:#792c6e;}.cls-120{fill:#c074a6;}.cls-121{fill:#431c4f;}.cls-122{fill:#4f1f56;}.cls-123{fill:#7f53e1;}.cls-124{fill:#5a225b;}.cls-125{fill:#7351da;}.cls-126{fill:#7460e2;}.cls-127{fill:#cc74b6;}.cls-128{fill:#412240;}.cls-129{fill:#5b2b5a;}.cls-130{fill:#434b8c;}.cls-131{fill:#5f58d7;}.cls-132{fill:#6e3067;}.cls-133{fill:#725fe2;}.cls-134{fill:#fb6f7d;}.cls-135{fill:#a172a0;}.cls-136{fill:#f4c2c2;}.cls-137{fill:#ef5238;}.cls-138{fill:#59232e;}.cls-139{fill:#cc6578;}.cls-140{fill:#fdbf45;}.cls-141{fill:#5b1169;}.cls-142{fill:#ff8695;}.cls-143{fill:#f57e53;}.cls-144{fill:#354177;}.cls-145{fill:#5f2636;}.cls-146{fill:#d87d9f;}.cls-147{fill:#f09045;}.cls-148{fill:#d8a465;}.cls-149{fill:#fa9c4c;}.cls-150{fill:#e89795;}.cls-151{fill:#fa6588;}.cls-152{fill:#d688e1;}.cls-153{fill:#dfa769;}.cls-154{fill:#792e40;}.cls-155{fill:#c381e8;}.cls-156{fill:#bfc8d7;}.cls-157{fill:#fcb049;}.cls-158{fill:#fba64a;}.cls-159{fill:#fdbc47;}.cls-160{fill:#de86b3;}.cls-161{fill:#b77dec;}.cls-162{fill:#f47056;}.cls-163{fill:#f68251;}.cls-164{fill:#f58d45;}.cls-165{fill:#a578f2;}.cls-166{fill:#625ad8;}.cls-167{fill:#fffdff;}.cls-168{fill:#c38ed2;}.cls-169{fill:#d3dceb;}.cls-170{fill:#fb7aaa;}.cls-171{fill:#36386e;}.cls-172{fill:#f3e6fb;}.cls-173{fill:#3c417b;}.cls-174{fill:#cc7add;}.cls-175{fill:#fa953a;}.cls-176{fill:#f6773a;}.cls-177{fill:#424988;}.cls-178{fill:#ac80ce;}.cls-179{fill:#e2849f;}.cls-180{fill:#a883da;}.cls-181{fill:#f3663d;}.cls-182{fill:#fefffe;}.cls-183{fill:#f3f8f9;}.cls-184{fill:#9a83db;}.cls-185{fill:#f67f31;}.cls-186{fill:#34356a;}.cls-187{fill:#ef583f;}.cls-188{fill:#f37134;}.cls-189{fill:#b17ecf;}.cls-190{fill:#b473e6;}.cls-191{fill:#3c427e;}.cls-192{fill:#b67ed3;}.cls-193{fill:#9468ef;}.cls-194{fill:#a26bf3;}.cls-195{fill:#b873e4;}.cls-196{fill:#373463;}.cls-197{fill:#c8649a;}.cls-198{fill:#ca5a5a;}.cls-199{fill:#ed5739;}.cls-200{fill:#cfb786;}.cls-201{fill:#3c3851;}.cls-202{fill:#fc982c;}.cls-203{fill:#d2c3a5;}.cls-204{fill:#fda82a;}.cls-205{fill:#d9d1de;}.cls-206{fill:#343b5e;}.cls-207{fill:#efa75d;}.cls-208{fill:#cca77b;}.cls-209{fill:#211b34;}</style></defs><title>upselling-abstract-concept-illustration_335657-3899</title><g id="_ffffffff" data-name="#ffffffff"><path class="cls-1" d="M0,0H626V626H0V0M273,80c-13,.55-26.42,2.4-39.9,3.17l-2.14,1.69c-6.48-.1-12.65,2.12-19,2.86-8.71,1.26-16.75,4.9-25.23,7-9.09,4.16-18.6,7.61-27.09,13-4.46,3.38-9.59,5.67-14.23,8.75a298,298,0,0,0-27.52,24.42c-4.28,4.8-7.53,10.38-11.79,15.19-6,9.28-12.86,18.31-16,29a126.64,126.64,0,0,0-9.92,30,156.41,156.41,0,0,0-1.37,57.24c1.65,3.72,1.35,7.86,2.38,11.73a157.24,157.24,0,0,1,4.76,19c-.33,4.52,2,8.57,2.17,13,1,11,3.41,21.92,2.95,33,.28,11.74-.57,23.53.38,35.25-1.2,2.33-3.19,5.12-1.23,7.67-2.4,3.33-5.31,6.77-5.58,11,2.73,16.94,16.44,15.09,27.58,11.2,2.43,3.75,2.36,9.19,6.78,12.5,3-2.38,1.78-6.57,3.25-9.72,1-2.71,3.45-4.42,5.47-6.3a16.23,16.23,0,0,0-6.26,16,60.77,60.77,0,0,0-11.15,4.57c-4,1.94-3.87,7.19-7,9.94-3.22,3.76-8.24,4.65-12.83,5.54-1.62.07-2.71,2.72-.59,2.92,3.43,4,9.17,5.2,14.24,5.23,13.76.87,18.1-7.45,27-12.41-1.61,6.89-3.82,13.65-4.88,20.66a447.52,447.52,0,0,0-8.92,57.05l-.54,2.26a29.37,29.37,0,0,0-5,12.19c4.69-.46,6.6-5.74,9-9.13l.32.48c-.34-1.44-.69-2.87-1-4.29,1.41-.34,2.2-1.62,3-2.67,6.06-8.51,11.2-18,12.94-28.36.45,1.31.89,2.63,1.34,3.95l2.17-1.58c-.09.89-.19,1.78-.29,2.68l2-1,3.21,1.26c.33,1.32.67,2.63,1,3.95.34-1.11.69-2.22,1-3.32l2.35-.76c.64-6.9-.05-13.83.14-20.74-.14-6.42.4-12.86-.22-19.27.5-1.54,1-3.07,1.49-4.61.31,16.51-.16,33,.26,49.55h1.1a91.43,91.43,0,0,0,4.74,24.06l1,.15c-.29,1-.59,2-.88,3.05l1.12.61c0,.66.11,2,.14,2.63a49.3,49.3,0,0,0,10.91,1.06c-.47-3-4.56-4.09-7.25-3.92l-.32-3,2.15-.49c1.42-5.9,1.12-12.35,3.91-17.81.61,2.33,3.35,2.66,5.18,3.69,5.78,2.16,11.2,5.49,17.15,7.06a135.19,135.19,0,0,0,17.68,7.93c8.25,3.95,16.71,7.5,25.12,11.11l-.25.73-1.13.1a34,34,0,0,0,7.81.44,32.69,32.69,0,0,0-2.71,2.81c1.27,2.44,3.95.31,5.32-.89a24.77,24.77,0,0,1,6.81.71c8.25,2,16.48,4.3,25,5,6.35.39,12.61,1.63,18.94,2.26,13.37,0,26.74,0,40.11-.07,16.72-2.09,33.57-3.7,50-7.81,4.89-1.76,10.2-1.88,15-3.8,6.89-2.34,14.29-3.08,20.79-6.56,5.23-3.07,11.84-2.46,16.69-6.31,4.15-1.77,8.47-3.15,12.31-5.62l1.79,1.86.9-2.17a12.32,12.32,0,0,0,4.73-4.77,130.65,130.65,0,0,0,8.07,23.31l.9.45c.22,1.05.39,2.12.52,3.2a10.76,10.76,0,0,0-3.58-.14c.71,2.51,3.48,3.68,5.81,4.2,1.94.5,1.8-1.48,2.17-2.74l-1.77-1.87c.06-.73.2-2.17.26-2.9,2.58-.86,3.11-4.29,3.78-6.62,3.64-7.93,2.89-17.41,2.17-26.43,1.66.67,2.91-.18,3.91-1.47l1.14-.41c.18-.4.54-1.18.73-1.58,5.9-2.06,9-8.27,14.85-10.54.26-.92.51-1.84.78-2.75,11.29,3.32,20.82,11.11,30.67,17.24-.14-.82-.43-2.44-.57-3.25l2.7.25c.61-8.46-3.17-17.37-10.37-22.07-3-2-6.76-2-9.75-3.85,4.74-1.82,6.85-6.65,9.73-10.42,2-3.16,4.91-5.71,6.83-9,3.59-7.69,7.66-15.13,11.36-22.77,4.18-10.15,8.56-20.52,9.73-31.52,1.26-5,2.6-9.93,2.84-15.08,1.46-6.94.35-14.08,1.72-21,.39-10.66,0-21.34,0-32-2-20.12-5.17-40-7.48-60.6-2.22-5.56-2.47-11.61-3.74-17.41-2.13-8.79-5.38-17.26-7.84-26-1.2-6.2-4.65-11.62-6.29-17.69a137,137,0,0,0-10.83-23.11c-1.09-2-.75-4.4-.93-6.6l-2.91-.92a72.32,72.32,0,0,0,12.88-30.14l.32.41A119.93,119.93,0,0,0,519,98.84a96.74,96.74,0,0,0-3.71-11.37c-.75-2.21-3.36-2.14-5.23-2.6-27.75-4.8-59.36-2.4-82.25,15.94a19.24,19.24,0,0,1,.76-3.74c-7.25-2.32-14.2-5.41-21.19-8.39-8.39-2.39-17.14-3.49-25.3-6.6-13.3-.2-27.3-2.09-41.06-2.94-22.44-.19-45.33-1-68,.83m252.4,421.37a53.37,53.37,0,0,1-.46,9c3.62-1.26,3.76-5.37,3.35-8.6Z" transform="translate(0 0)"/></g><g id="_f4f8fbff" data-name="#f4f8fbff"><path class="cls-2" d="M273,80c22-1.76,45.55-1.06,68-.83,13.24.83,27.3,2.69,41.06,2.94,8.16,3.11,16.91,4.21,25.3,6.6,7,3,13.94,6.07,21.19,8.39a19.24,19.24,0,0,0-.76,3.74,94.73,94.73,0,0,0-17.61,19.09c-6.28,8-11.32,17-16.25,25.88q-5.28,10.31-9.75,21c-28.91-7.27-75.65,17.81-59.59,27.59,6.94,3.15,14.08,5.85,21,9,3.66,1.55,7.33,3.56,11.42,3.49,4.87.27,9.08-2.46,13.42-4.19l.51.31c.14,1.56.23,3.13.4,4.69.55,1.42,1.69,3.89,2.75,6.18a20.48,20.48,0,0,0-6.83,3.49l-1.3,1c-3,4.32.51,9.31,3,13l.27.35c-32.52,73-62.07,23.63-90.05,50.46-9.22,10.92-11.11,25.66-17.61,38.05-6.83,10.69-13.84,21.47-23.25,30.12-7.84,7.93-17.84,13.41-28.28,17.12,1,.24,2,.47,3,.69-4.21.35-8.43.68-12.66.83l.32-.61.14-.25c4.11-.7,5.44-6.49,1.91-8.78.12-1.19.21-2.1.39-4.07,0-1.63,1-3.78-1-4.65-3.12-.09-6.26.66-9.34-.08-6.27-5.06-14.31-7.5-22.18-8.65a14.65,14.65,0,0,1-8.8-4.05c-1.41-1.55-3.45-.25-4.57.93.6-1.06,1.12-2.16,1.65-3.26.2.31.62.92.82,1.23l1.84.28c1.46,1.05,2.54,2.77,4.39,3.15l1.5-1.07c.87-3.69,1.38-7.64-.33-11.18a45.56,45.56,0,0,0-3.54-3.41c-2.91-1.53-7-2-9.28.79-17.23,19.27-26.16,5-40,14-14.87,8.06-7.67,21-8.61,32.05a52.5,52.5,0,0,1-3.27,7.16,105,105,0,0,0-12.28,13.45c-2-2.55,0-5.34,1.23-7.67-1-11.72-.1-23.51-.38-35.25.46-11.1-1.92-22-2.95-33-.19-4.45-2.5-8.5-2.17-13a157.24,157.24,0,0,0-4.76-19c-1-3.87-.73-8-2.38-11.73A155.38,155.38,0,0,1,80.1,215,125.64,125.64,0,0,1,90,185c3.16-10.72,10.06-19.75,16-29,4.26-4.81,7.51-10.39,11.79-15.19a298,298,0,0,1,27.52-24.42c4.64-3.08,9.77-5.37,14.23-8.75,8.49-5.37,18-8.82,27.09-13,8.48-2.07,16.52-5.71,25.23-7,6.38-.74,12.55-3,19-2.86l2.14-1.69c12.74-.69,26.65-2.59,39.9-3.17m-45.5,30.72A46.4,46.4,0,0,0,218,115.1l.63.28c-3.16.79-5.42,3.36-7.89,5.33l-.1.51C204,125.5,200,132.76,196.9,139.8c-3.75,8.86-3.87,18.66-3.19,28.1,2.39,17.06,12.8,35.08,28.67,42.76,1.88,3.13,6.35,3.67,9.52,5.19a10.71,10.71,0,0,0,4,1.74c8.3,2.16,17.24,3.11,25.61,1a6.15,6.15,0,0,0,3.95-1c2.11.16,4.09-.66,6-1.36,11.57-3.32,23.37-10.11,30.13-20.85,4.52-5.58,6.52-12.53,8.62-19.26a129,129,0,0,0,.31-19.06c-6.47-40.46-46.93-62.14-83.07-46.31M159.65,214.92c-8.68,4-16.93,10.07-21.11,18.91-5.72,10-6.19,22.24-3.33,33.18,1.58,5.53,4.72,10.35,7.43,15.34,6.37,7.37,14.26,13.93,23.81,16.58a47.37,47.37,0,0,0,25.91.43l.64.08c4.62-2,9.63-3.07,14-5.65a56,56,0,0,1,8-6c1.6-2.58,3.62-4.86,5.29-7.39a16.72,16.72,0,0,0,3.51-5.35c6-14.11,3.79-31.15-5.1-43.57-6.08-9.7-16-16.52-26.81-19.91a54.71,54.71,0,0,0-15.79-1.12C170.41,211.21,165.14,213.53,159.65,214.92Z" transform="translate(0 0)"/><path class="cls-2" d="M506.23,184.2c.9-1.16,1.82-2.32,2.71-3.5l2.91.92c.18,2.2-.16,4.58.93,6.6a137,137,0,0,1,10.83,23.11c1.64,6.07,5.09,11.49,6.29,17.69,2.46,8.7,5.71,17.17,7.84,26,1.27,5.8,1.52,11.85,3.74,17.41,2.2,19.38,5.46,40.68,7.48,60.6,0,10.67.35,21.35,0,32-1.37,7-.26,14.1-1.72,21-.24,5.15-1.58,10.11-2.84,15.08-1.17,11-5.55,21.37-9.73,31.52-3.7,7.64-7.77,15.08-11.36,22.77-1.92,3.25-4.78,5.8-6.83,9-2.88,3.77-5,8.6-9.73,10.42-4.76-3.41-8.62-8.75-8.77-14.77.44-6.47,4.09-12.25,4.18-18.79,1.08-1.35,2.35-2.53,3.52-3.8,4.58-6.16,7.62-13.69,7.62-21.45-.94-28.86-5.43-57.78-3.2-87-1.28-15-7.18-29.73-17.42-40.85-4.61-5.42-10.37-9.72-16.34-13.51l-2.05,1.61c-2.29-2-2-5.42-2.82-8.12-2.05.53-5.7.07-6.07,2.87,1.41,3,4.8,4.48,7.12,6.75-.37.35-1.12,1.05-1.5,1.39,6.2,9.44,10.33,20,13.25,30.86,3.15,10,3.86,21.46-1.56,30.87l-1.17-.65c.75-1.75-.18-3.18-1.63-4.08,3.11-21.43-9.4-43.7-28.84-52.87,8.23-17.36,10.51-38,3.5-56.16A200,200,0,0,0,490.33,201,104.45,104.45,0,0,0,506.23,184.2Z" transform="translate(0 0)"/><path class="cls-2" d="M406.35,253.41c1.83-2.59,2.4-5.8,3.57-8.7l1.35.11c3.14,1.31,6.53,1.86,9.79.56.15.48.44,1.44.59,1.91,1.32-.1,1.72-1.53,2-2.58l1.26,1.59c-.82,1-1.66,2-2.41,3-.49-.72-1-1.45-1.43-2.17-.61,2.59-1.4,5.15-1.95,7.76-1.57,8.51,5.67,15.79,9.77,23.1-16.82.24-32.93,8.36-43.84,21-7.64,7.88-11.3,18.49-13.92,28.91-1.67,7.49-2.3,15.14-3.22,22.74l-2.78-.59c-6.33-1.94-12.56-4.44-19.13-5.36-3.3.67-6.35,2.17-9.49,3.31-.14-.76-.41-2.27-.55-3,3.73-6,10.83-8.37,16.25-12.49,24.51-17.17,41.72-56.2,47.06-77.87C401.62,254.88,404.71,255.62,406.35,253.41Z" transform="translate(0 0)"/><path class="cls-2" d="M474.27,443.1c6.43,14.83,1.05,37.59,19.76,43.37-.27.91-.52,1.83-.78,2.75-5.83,2.27-8.95,8.48-14.85,10.54-.19.4-.55,1.18-.73,1.58l-1.14.41c-1,1.29-2.25,2.14-3.91,1.47C474.24,483.21,470.81,463,474.27,443.1Z" transform="translate(0 0)"/><path class="cls-2" d="M451.92,487.15c1.09,6.35-.31,12.84,1,19.17.37,2.16.87,4.3,1.37,6.44a12.32,12.32,0,0,1-4.73,4.77l-.9,2.17-1.79-1.86c-3.84,2.47-8.16,3.85-12.31,5.62-4.85,3.85-11.46,3.24-16.69,6.31-6.5,3.48-13.9,4.22-20.79,6.56-4.84,1.92-10.15,2-15,3.8-16.39,4.11-33.24,5.72-50,7.81-13.37.11-26.74.09-40.11.07-6.33-.63-12.59-1.87-18.94-2.26-8.49-.72-16.72-3-25-5a24.77,24.77,0,0,0-6.81-.71c-1.37,1.2-4.05,3.33-5.32.89a32.69,32.69,0,0,1,2.71-2.81,34,34,0,0,1-7.81-.44l1.13-.1c51.71-6.17,103.8-13.34,155.93-19.69l1.48-.16c0-4,.2-9.25.16-13.7l.66,0c-.05,2.45-.14,4.91-.2,7.37C412.59,512,437,505.05,451.92,487.15Z" transform="translate(0 0)"/></g><g id="_f36f56ff" data-name="#f36f56ff"><path class="cls-3" d="M448.6,89.07c19.47-7.49,41-7.64,61.41-4.2,1.87.46,4.48.39,5.23,2.6A96.74,96.74,0,0,1,519,98.84c-1.59,4.12-3.92,8-4.77,12.33-.65,4.12-4.73,6.4-5.75,10.4-.53,2.27-3.19,2.5-4.9,3.49a156.89,156.89,0,0,0-28.72-23.94C466.43,96.42,458,91.41,448.6,89.07Z" transform="translate(0 0)"/><path class="cls-3" d="M355.34,167.39c9.43-2.5,19.25-1.94,28.81-.61-.38,1.17-.69,2.37-1,3.57A254.42,254.42,0,0,0,372.51,200l-.19.08a5,5,0,0,0-3.47,1.65c-8.17,4.7-17,.87-24.73-3-5.94-2.64-12.1-4.84-17.85-7.87-2.47-1.21-2.5-4.22-3-6.54C332.12,175.9,343.57,170.45,355.34,167.39Z" transform="translate(0 0)"/><path class="cls-3" d="M422.84,243.82a230.62,230.62,0,0,0,31.69-16.68c7,18.16,4.73,38.8-3.5,56.16a29.77,29.77,0,0,1-4.56,7.29,41.41,41.41,0,0,1-5.61-1.39c-2-1.42-3-3.8-4.28-5.8-4.79-8.46-10.77-16.23-14.93-25a17.41,17.41,0,0,1,.86-9c.75-1.05,1.59-2,2.41-3l-1.26-1.59-.79-.87Z" transform="translate(0 0)"/></g><g id="_f8924fff" data-name="#f8924fff"><path class="cls-4" d="M427.76,100.81A72.92,72.92,0,0,1,448.6,89.07c9.41,2.34,17.83,7.35,26.21,12.05a156.89,156.89,0,0,1,28.72,23.94l.86,1c-3.39,4.92-8.5,7.93-13.68,10.63,4.82,10,7.68,22.44,2.59,33.38-.06-.81-.17-2.44-.23-3.25,2.43-9.49,1.63-20-3.46-28.5-15.86-29.67-59.66-30-69.09,3l-.59,1.24c0-1.9.08-3.8,0-5.7-.06-3.9-2.71-7.24-2.45-11.2-1.07-.69-2.16-1.33-3.16-2.09-.69-2,.16-4.16.41-6.19-1.53.82-3.06,1.63-4.57,2.47A94.73,94.73,0,0,1,427.76,100.81Z" transform="translate(0 0)"/></g><g id="_f16545ff" data-name="#f16545ff"><path class="cls-5" d="M519,98.84A119.93,119.93,0,0,1,522.14,151c-5.3-8.06-10.75-17.41-17.75-24.88l-.86-1c1.71-1,4.37-1.22,4.9-3.49,1-4,5.1-6.28,5.75-10.4C515,106.79,517.36,103,519,98.84Z" transform="translate(0 0)"/></g><g id="_f9da54ff" data-name="#f9da54ff"><path class="cls-6" d="M227.47,110.69c38.12-16.54,77.15,8,83.07,46.31a129,129,0,0,1-.31,19.06c-2.1,6.73-4.1,13.68-8.62,19.26-.43-.86-.86-1.7-1.31-2.54,36.95-63.75-58-121-92-56.59-.07-1.65-.16-3.3-.26-4.95,2.93-5.92,8.61-9.67,12.18-15.14l-2.22-1A46.4,46.4,0,0,1,227.47,110.69Z" transform="translate(0 0)"/></g><g id="_eda43cff" data-name="#eda43cff"><path class="cls-7" d="M234.73,111.23c37.36-13.56,74.68,17.69,73.79,54.72A48.43,48.43,0,0,1,296,198.24c.59-1.8,1.09-3.63,1.77-5.4,1.4-4,5.18-6.72,6.26-10.9,2.17-7.32,3.87-15.15,2.39-22.76-1.43-17-12.19-31.88-26.07-41.5-9.63-6-21.19-8.34-32.43-7.73-4.15,0-8,1.63-11.74,3.19Z" transform="translate(0 0)"/></g><g id="_fca138ff" data-name="#fca138ff"><path class="cls-8" d="M236.13,113.14c3.75-1.56,7.59-3.22,11.74-3.19,2.8,2.37,5.57,4.77,8.35,7.17l-.28,2.78c-.28,2.34-.76,4.65-1.21,7-16.27.61-24.34,9.15-21.42,24a13,13,0,0,1-5.31,8.9c-.87-1.16-1.66-2.36-2.52-3.52-1.25,1.16-2,2.83-3.52,3.69a34.32,34.32,0,0,1-7.5.88l-1,1.61c-2.82.07-5.66,1.7-6.1,4.7,0,9.35,5,17.82,10.68,24.9,2,2.75,5.42,5,5.52,8.75-5.5-5.09-10.71-10.72-13.72-17.68-14.16-27.6-2.93-60.94,24.88-71.81Z" transform="translate(0 0)"/></g><g id="_fcb249ff" data-name="#fcb249ff"><path class="cls-9" d="M247.87,110c11.24-.61,22.8,1.77,32.43,7.73,4.1,3.17,8.35,6.27,11.79,10.19L288.91,130l-3.53-2.8c-.35,1.52-.68,3.05-1,4.58-7.7-.45-15.64-3.56-24-4.16l-.78-7.14-3.61-.6.28-2.78C253.44,114.72,250.67,112.32,247.87,110Z" transform="translate(0 0)"/></g><g id="_f7be38ff" data-name="#f7be38ff"><path class="cls-10" d="M210.7,120.71c2.47-2,4.73-4.54,7.89-5.33l1.59.72c-3.57,5.47-9.25,9.22-12.18,15.14l-1.38,1.39c.35-2.24.72-4.48,1.25-6.69,1.28-1.34,2.78-2.69,2.73-4.72Z" transform="translate(0 0)"/></g><g id="_fb9e4cff" data-name="#fb9e4cff"><path class="cls-11" d="M410.15,119.9c1.51-.84,3-1.65,4.57-2.47-.25,2-1.1,4.17-.41,6.19,1,.76,2.09,1.4,3.16,2.09-.26,4,2.39,7.3,2.45,11.2.09,1.9.05,3.8,0,5.7-.64,3.17-.93,6.38-1.41,9.57a82.24,82.24,0,0,0-1.76-10.35c-.41,1.65-.78,3.29-1.14,4.95-5.39.66-10.9.7-16.12,2.31a14.81,14.81,0,0,1-2.33-2.42c.32,1.66.77,3.31.94,5a29.21,29.21,0,0,1-2.34,3c-1.73-2.64-1.59-5.87-1.87-8.87C398.83,136.87,403.87,127.94,410.15,119.9Z" transform="translate(0 0)"/></g><g id="_f0f4f6ff" data-name="#f0f4f6ff"><path class="cls-12" d="M425.49,130.61c16.11-23.92,52.66-15.37,64.12,7.74-3.07,3.89.7,8.39,1.36,12.51-.62,1-1.23,2.09-1.84,3.14-.54-1.94-1.08-3.89-1.61-5.83l-1,2C483.47,135,468,122.27,452,123.71A26.37,26.37,0,0,0,430.75,137l-4.29-.68C426.14,134.4,425.81,132.5,425.49,130.61Z" transform="translate(0 0)"/></g><g id="_ffcb2cff" data-name="#ffcb2cff"><path class="cls-13" d="M255.94,119.9l3.61.6.78,7.14,2.48.35a44.55,44.55,0,0,1,1.09,11c-.93,4.19-4.4,9.11-.93,13,2.39,2.13,6,1.67,8.8,3.17.81.84.61,2.14.91,3.18-3.39-2.49-7.51-3.39-11.4-4.79-1.09-1.6-1.45-3.55-2-5.36-2,5.15-5.9,9.26-7.92,14.4l-3,.84c7.34,2.69,7.43,11.26,4.57,17.53-1-4.35-.46-8.93-1.6-13.25-5.15-3-11.11-5.19-14.79-10.17a35,35,0,0,1-3.21-6.74c-3.36-17.19,7.66-23.21,21.42-24,.45-2.31.93-4.62,1.21-7m-7.85,26c.84,3.06,3.91,4.46,6.44,5.9.28-4.17,1.42-8.57.23-12.64C251.23,137.75,246.53,142.2,248.09,145.94Z" transform="translate(0 0)"/></g><g id="_febf46ff" data-name="#febf46ff"><path class="cls-14" d="M196.9,139.8c3.13-7,7.07-14.3,13.7-18.58.05,2-1.45,3.38-2.73,4.72-.53,2.21-.9,4.45-1.25,6.69-1.4,3.46-4.32,6.38-4.37,10.28-1.26,10.38-1.45,20.93.62,31.22,1.81,5.19,3.2,10.79,6.85,15.08,2.71,3.8,5.45,7.59,8.13,11.41.66,3.79,4.58,6,4.53,10-15.64-7.38-26.32-25.77-28.67-42.76C193,158.46,193.15,148.66,196.9,139.8Z" transform="translate(0 0)"/></g><g id="_2f3061ff" data-name="#2f3061ff"><path class="cls-15" d="M430.75,137A26.37,26.37,0,0,1,452,123.71c11.62-1,23.07,5.33,29.5,14.85-.2.51-.61,1.52-.81,2-13,3.43-27.52,6-37.07,16.35-3.15-3.62-7.17-7.7-12.44-6.64-.43,2.84.63,6.65-2.35,8.37A28.4,28.4,0,0,1,430.75,137Z" transform="translate(0 0)"/></g><g id="_fb9a39ff" data-name="#fb9a39ff"><path class="cls-16" d="M504.39,126.09c6.71,7.28,12,15.86,17.43,24.47a72.93,72.93,0,0,1-15.59,33.64c-.89-1-1.75-2-2.69-2.94a21.49,21.49,0,0,0-3.49,5.14c-1.3-2-2.6-3.89-3.91-5.83-3.05,3.94-6.82,7.65-11.94,8.53,0-.63.1-1.87.14-2.49a34.85,34.85,0,0,0,4.47-2.85c.38-1.59-.79-3.08-1.2-4.57.44-1.14.87-2.27,1.36-3.39,1.45-2.94,2.91-5.89,4.1-9,.06.81.17,2.44.23,3.25,5-10.58,2.43-22.92-2.59-33.38C495.89,134,501,131,504.39,126.09Z" transform="translate(0 0)"/></g><g id="_ffc344ff" data-name="#ffc344ff"><path class="cls-17" d="M285.38,127.22l3.53,2.8,3.18-2.15c7.73,8.73,13.28,19.57,14.28,31.31a25.94,25.94,0,0,1-2,5.27c-1.35,2.27-4.05,3-6.34,3.84-3.47,1.06-5.4,4.4-7.82,6.84-1.07-1-2.13-2.09-3.2-3.12-2,3.35-1.3,8.5-5.51,10.12.22-.69.66-2.07.87-2.76,1.38-5.66-.89-11.46-3.29-16.52-1-2.77-4.25-3-6.42-4.5-.3-1-.1-2.34-.91-3.18-2.75-1.5-6.41-1-8.8-3.17-3.47-3.92,0-8.84.93-13,3.65,1,7.2,2.62,11,2.84,2.33-.55,2.22-3.54,2.55-5.42.41-2.72-1.64-4.83-3.53-6.45,3.42.88,6.85,1.95,10.43,1.86C284.7,130.27,285,128.74,285.38,127.22Z" transform="translate(0 0)"/></g><g id="_ffe037ff" data-name="#ffe037ff"><path class="cls-18" d="M262.81,128a102,102,0,0,1,11.13,2c1.89,1.62,3.94,3.73,3.53,6.45-.33,1.88-.22,4.87-2.55,5.42-3.82-.22-7.37-1.84-11-2.84A44.55,44.55,0,0,0,262.81,128Z" transform="translate(0 0)"/></g><g id="_fcfcfcff" data-name="#fcfcfcff"><path class="cls-19" d="M420.52,141.37a55.84,55.84,0,0,1,5-10.76c.32,1.89.65,3.79,1,5.68l4.29.68c-10.34,19.08,5.6,43,26.16,45,9.74,1.24,20.43-2.88,25.74-11.37,4.05-5.93,5-13.45,3.83-20.43l1-2c.53,1.94,1.07,3.89,1.61,5.83.61-1.05,1.22-2.1,1.84-3.14,2,11.49-2.59,24-12.42,30.6,0,.23-.1.68-.13.91-3.82.11-6.63,3.24-10.39,3.58-5.84.88-11.9,1.09-17.64-.52-3.74-.94-7.23-3.24-11.23-2.77-1.86-1.26-3.7-2.53-5.58-3.75-7.11-7.58-13.48-17.15-13.3-27.94C420.24,147.77,420.4,144.57,420.52,141.37Z" transform="translate(0 0)"/></g><g id="_ffe32dff" data-name="#ffe32dff"><path class="cls-20" d="M206.62,132.63l1.38-1.39c.1,1.65.19,3.3.26,4.95A54.92,54.92,0,0,0,209.85,183c6.08,12.51,17.68,23.51,31.4,27.94,8,3.67,17,2.84,25.52,2.38,11-1.88,22.07-6.14,29.18-15.12a48.67,48.67,0,0,0,4.35-5.46c.45.84.88,1.68,1.31,2.54-6.53,10.37-18.09,17.44-30.13,20.85-7.26,2.43-17,1.37-24.89-.72-8-1.45-15-5.54-22.56-8.24-.78-3.18-3.78-4.74-6.18-6.59-2.68-3.82-5.42-7.61-8.13-11.41-3.65-4.29-5-9.89-6.85-15.08-2.07-10.29-1.88-20.84-.62-31.22C202.3,139,205.22,136.09,206.62,132.63Z" transform="translate(0 0)"/></g><g id="_f7ac2fff" data-name="#f7ac2fff"><path class="cls-21" d="M248.09,145.94c-1.56-3.74,3.14-8.19,6.67-6.74,1.19,4.07.05,8.47-.23,12.64C252,150.4,248.93,149,248.09,145.94Z" transform="translate(0 0)"/></g><g id="_25274dff" data-name="#25274dff"><path class="cls-22" d="M481.54,138.56a34.09,34.09,0,0,1,4.94,11.6c1.2,7,.22,14.5-3.83,20.43-5.31,8.49-16,12.61-25.74,11.37a33.63,33.63,0,0,1-23.26-13.79c3.17-3.89,6.24-7.9,10-11.24,9.55-10.35,24.06-12.92,37.07-16.35C480.93,140.08,481.34,139.07,481.54,138.56Z" transform="translate(0 0)"/><path class="cls-22" d="M167.12,327.89c1.71,3.54,1.2,7.49.33,11.18-1-.69-1.95-1.36-2.92-2C165.51,334,166.35,331,167.12,327.89Z" transform="translate(0 0)"/><path class="cls-22" d="M137.44,391.59a38.38,38.38,0,0,0,6.19-3.78,28.7,28.7,0,0,1-.62,5.62q-2,3-4,5.91a29.52,29.52,0,0,1,2.56-6.94Z" transform="translate(0 0)"/></g><g id="_e4e4deff" data-name="#e4e4deff"><path class="cls-23" d="M491,150.86c-.66-4.12-4.43-8.62-1.36-12.51,5.09,8.52,5.89,19,3.46,28.5-1.19,3.06-2.65,6-4.1,9-7.08,9-18.48,14.69-30,13.78-7-.68-14.08-2.66-19.79-6.92,4-.47,7.49,1.83,11.23,2.77,5.74,1.61,11.8,1.4,17.64.52,3.76-.34,6.57-3.47,10.39-3.58,0-.23.1-.68.13-.91C488.38,174.88,493,162.35,491,150.86Z" transform="translate(0 0)"/></g><g id="_fcad49ff" data-name="#fcad49ff"><path class="cls-24" d="M415.62,146.78c.36-1.66.73-3.3,1.14-4.95a82.24,82.24,0,0,1,1.76,10.35c.48-3.19.77-6.4,1.41-9.57l.59-1.24c-.12,3.2-.28,6.4-.24,9.6-.18,10.79,6.19,20.36,13.3,27.94-1.31-.6-2.65-1.1-4-1.6-.39,1.63-.78,3.27-1.18,4.9a17.64,17.64,0,0,0-1.76-7.81,55,55,0,0,0-.08,6.29c-3.37.45-6.74,1.1-10.15.79-10.05-1.18-20.21,0-30.28-.68-3.21-2.14-2.3-7.05-3-10.45.32-1.2.63-2.4,1-3.57q4.49-10.68,9.75-21c.28,3,.14,6.23,1.87,8.87a29.21,29.21,0,0,0,2.34-3c-.17-1.69-.62-3.34-.94-5a14.81,14.81,0,0,0,2.33,2.42C404.72,147.48,410.23,147.44,415.62,146.78Z" transform="translate(0 0)"/></g><g id="_ffe428ff" data-name="#ffe428ff"><path class="cls-25" d="M251.31,162.6c2-5.14,5.91-9.25,7.92-14.4.6,1.81,1,3.76,2,5.36,3.89,1.4,8,2.3,11.4,4.79,2.17,1.46,5.43,1.73,6.42,4.5,2.4,5.06,4.67,10.86,3.29,16.52-1.48-3.68-2-7.67-3.45-11.35a28.81,28.81,0,0,0-3.94-3.11c-.89.71-1.77,1.43-2.65,2.15a28.17,28.17,0,0,1,1.75,9.13c-1.29-1.36-2.55-2.75-3.79-4.15-.57,3.09-.76,6.35-2.14,9.22-2.28,1.94-5.14,3-7.72,4.5a6.84,6.84,0,0,1-3.36-4.85,26.27,26.27,0,0,0-6.5,6.12c-2.91-4.06-8-4.59-12.57-4.9-.73,2.55-2.23,5.66-.27,8,2.55,1.23,5.18,2.3,7.63,3.73-1.49.06-3,.13-4.47.22-1.82-1-3.6-2-5.4-2.93-.53-3.83-1.8-9.1,2-11.67,5.06.79,10.3,3.73,15.38,1.45,2.74-5.58,3-14.95-4.57-17.53l3-.84m11.59,17.86c1.09-.82,2.57-1.28,3.3-2.52,1.06-2.79-1.43-6.19-4.23-6.37C258.44,173.72,259.66,178.69,262.9,180.46Z" transform="translate(0 0)"/></g><g id="_34376eff" data-name="#34376eff"><path class="cls-26" d="M431.22,150.29c5.27-1.06,9.29,3,12.44,6.64-3.77,3.34-6.84,7.35-10,11.24a32.33,32.33,0,0,1-4.78-9.51C431.85,156.94,430.79,153.13,431.22,150.29Z" transform="translate(0 0)"/></g><g id="_ffb536ff" data-name="#ffb536ff"><path class="cls-27" d="M233.31,150.81a35,35,0,0,0,3.21,6.74c3.68,5,9.64,7.19,14.79,10.17,1.14,4.32.55,8.9,1.6,13.25-5.08,2.28-10.32-.66-15.38-1.45-3.82,2.57-2.55,7.84-2,11.67,3.28,1.83,7.53,4.32,12.25,5.3l-2.12.95c.36,1.08.77,2.16,1.09,3.27-2.3,2.28-5.71,1.85-8.64,1.65l-1.4,2.47,5.11,4c-.14.52-.41,1.57-.55,2.1a46.2,46.2,0,0,1-17.68-10.26c-.1-3.74-3.48-6-5.52-8.75-5.68-7.08-10.71-15.55-10.68-24.9.44-3,3.28-4.63,6.1-4.7l1-1.61a34.32,34.32,0,0,0,7.5-.88c1.48-.86,2.27-2.53,3.52-3.69.86,1.16,1.65,2.36,2.52,3.52A13,13,0,0,0,233.31,150.81Z" transform="translate(0 0)"/><path class="cls-27" d="M166.52,250.25a22.28,22.28,0,0,0,11.83,9c-1.37,3.86-.38,8-.09,11.95-3-.93-6-2.07-9.12-2.18-5.16,1.35-4.52,10.73.89,11.2,3.57,1,7.3,1,11,1.07,1,2.55,1,6.24,4.27,6.89l.76.37-.19.56-4.15-.72c-.47-1.63-.91-3.27-1.52-4.84-1.28-.26-2.38.68-3.53,1.08-4-.41-8.47-1.78-12,.89,1.71,1,3.44,2,5.18,2.94l-5.15,2.48a29.34,29.34,0,0,1-10.43-7.88c-1.28-5.92-6.74-11.21-8.38-17.88,0-.72.11-2.16.14-2.88l2.39,1.26c2.92-2.22,4.86-5.67,8.41-7A40.73,40.73,0,0,0,166.52,250.25Z" transform="translate(0 0)"/></g><g id="_fdb149ff" data-name="#fdb149ff"><path class="cls-28" d="M304.39,164.45a25.94,25.94,0,0,0,2-5.27c1.48,7.61-.22,15.44-2.39,22.76-1.08,4.18-4.86,6.88-6.26,10.9-.68,1.77-1.18,3.6-1.77,5.4-7.11,9-18.22,13.24-29.18,15.12a5.35,5.35,0,0,0-2-3.11,46.7,46.7,0,0,1-6.33-7.07c1.33-2.24,1.15-4.84,1.32-7.34,5-1.8,10.55-2.15,15.26-4.82,3.24-2,5.15-5.45,6.48-8.89,4.21-1.62,3.52-6.77,5.51-10.12,1.07,1,2.13,2.07,3.2,3.12,2.42-2.44,4.35-5.78,7.82-6.84C300.34,167.4,303,166.72,304.39,164.45Z" transform="translate(0 0)"/></g><g id="_feeb15ff" data-name="#feeb15ff"><path class="cls-29" d="M272.35,167.06c.88-.72,1.76-1.44,2.65-2.15a28.81,28.81,0,0,1,3.94,3.11c1.45,3.68,2,7.67,3.45,11.35-.21.69-.65,2.07-.87,2.76-1.33,3.44-3.24,6.9-6.48,8.89-4.71,2.67-10.24,3-15.26,4.82-.17,2.5,0,5.1-1.32,7.34l-3.06-.89c-.47-2.37-.86-4.75-1.49-7.07q-1.51-4.16-3.32-8.19a26.27,26.27,0,0,1,6.5-6.12,6.84,6.84,0,0,0,3.36,4.85c2.58-1.47,5.44-2.56,7.72-4.5,1.38-2.87,1.57-6.13,2.14-9.22,1.24,1.4,2.5,2.79,3.79,4.15A28.17,28.17,0,0,0,272.35,167.06Z" transform="translate(0 0)"/></g><g id="_fdba47ff" data-name="#fdba47ff"><path class="cls-30" d="M372.51,200a254.42,254.42,0,0,1,10.63-29.64c.7,3.4-.21,8.31,3,10.45,10.07.68,20.23-.5,30.28.68,3.41.31,6.78-.34,10.15-.79a55,55,0,0,1,.08-6.29,17.64,17.64,0,0,1,1.76,7.81A47.1,47.1,0,0,1,420.69,199c-2.38,4.74-6.29,8.3-9.51,12.42a18.5,18.5,0,0,0-7.75,6.08,104.82,104.82,0,0,0-9.84-7.6c-5.95-3.8-12.26-8-19.56-8.24Z" transform="translate(0 0)"/></g><g id="_fec24fff" data-name="#fec24fff"><path class="cls-31" d="M262.9,180.46c-3.24-1.77-4.46-6.74-.93-8.89,2.8.18,5.29,3.58,4.23,6.37C265.47,179.18,264,179.64,262.9,180.46Z" transform="translate(0 0)"/></g><g id="_fead37ff" data-name="#fead37ff"><path class="cls-32" d="M459,189.58c11.54.91,22.94-4.78,30-13.78-.49,1.12-.92,2.25-1.36,3.39.41,1.49,1.58,3,1.2,4.57a34.85,34.85,0,0,1-4.47,2.85c0,.62-.1,1.86-.14,2.49,5.12-.88,8.89-4.59,11.94-8.53,1.31,1.94,2.61,3.87,3.91,5.83a21.49,21.49,0,0,1,3.49-5.14c.94.93,1.8,1.94,2.69,2.94A104.45,104.45,0,0,1,490.33,201c-.73-2.38-1.38-4.77-2-7.18-2.77.79-4.9,2.7-7.07,4.48-2,1.75-4.75,1.63-7.2,1.76-14.37,0-28.73-.08-43.09,0-3.12-.06-6,1.38-8.72,2.62-.53-1.22-1.06-2.44-1.57-3.66,4.69-6.17,7.21-13.78,8.9-21.68,1.34.5,2.68,1,4,1.6,1.88,1.22,3.72,2.49,5.58,3.75C444.87,186.92,451.94,188.9,459,189.58Z" transform="translate(0 0)"/></g><g id="_ffd80fff" data-name="#ffd80fff"><path class="cls-33" d="M238,182.13c4.58.31,9.66.84,12.57,4.9q1.8,4,3.32,8.19c-2.85-.43-5.7-.84-8.53-1.32-2.45-1.43-5.08-2.5-7.63-3.73C235.79,187.79,237.29,184.68,238,182.13Z" transform="translate(0 0)"/></g><g id="_313460ff" data-name="#313460ff"><path class="cls-34" d="M324.56,194.37c-4-1.65-4.38-7.27-1.32-10,.53,2.32.56,5.33,3,6.54,5.75,3,11.91,5.23,17.85,7.87,7.38,3.62,16.31,7.8,24.73,3l1.58.95c-4.34,1.73-8.55,4.46-13.42,4.19-4.09.07-7.76-1.94-11.42-3.49C338.64,200.22,331.5,197.52,324.56,194.37Z" transform="translate(0 0)"/></g><g id="_fba338ff" data-name="#fba338ff"><path class="cls-35" d="M240.91,194.12c1.49-.09,3-.16,4.47-.22,2.83.48,5.68.89,8.53,1.32.63,2.32,1,4.7,1.49,7.07l3.06.89a46.7,46.7,0,0,0,6.33,7.07,5.35,5.35,0,0,1,2,3.11c-8.55.46-17.49,1.29-25.52-2.38.14-.53.41-1.58.55-2.1l-5.11-4,1.4-2.47c2.93.2,6.34.63,8.64-1.65-.32-1.11-.73-2.19-1.09-3.27l2.12-.95A32.86,32.86,0,0,1,240.91,194.12Z" transform="translate(0 0)"/></g><g id="_ffb636ff" data-name="#ffb636ff"><path class="cls-36" d="M481.27,198.29c2.17-1.78,4.3-3.69,7.07-4.48.61,2.41,1.26,4.8,2,7.18a200,200,0,0,1-35.8,26.15,230.62,230.62,0,0,1-31.69,16.68l-.7-.68c-1.75-3.63-2.84-7.58-5.19-10.89-3.67-5.63-8.69-10.16-13.52-14.76a18.5,18.5,0,0,1,7.75-6.08c3.22-4.12,7.13-7.68,9.51-12.42.51,1.22,1,2.44,1.57,3.66,2.77-1.24,5.6-2.68,8.72-2.62,14.36-.06,28.72,0,43.09,0C476.52,199.92,479.31,200,481.27,198.29Z" transform="translate(0 0)"/></g><g id="_733a32ff" data-name="#733a32ff"><path class="cls-37" d="M368.85,201.72a5,5,0,0,1,3.47-1.65,2.37,2.37,0,0,1-2.75,2.08Z" transform="translate(0 0)"/></g><g id="_d5917bff" data-name="#d5917bff"><path class="cls-38" d="M372.32,200.07l.19-.08,1.52,1.66c-.87,2-1.78,4-2.69,6-.17-1.56-.26-3.13-.4-4.69l-1.37-.83A2.37,2.37,0,0,0,372.32,200.07Z" transform="translate(0 0)"/></g><g id="_ffc342ff" data-name="#ffc342ff"><path class="cls-39" d="M217.85,200.62c2.4,1.85,5.4,3.41,6.18,6.59,7.55,2.7,14.59,6.79,22.56,8.24,6.07,2.27,12.54,1.61,18.86,2.08a6.15,6.15,0,0,1-3.95,1c-6.71-.11-13.37-.95-20-1.58,0-.39-.05-1.16-.07-1.54a25.1,25.1,0,0,1-9.5.4c-3.17-1.52-7.64-2.06-9.52-5.19C222.43,206.58,218.51,204.41,217.85,200.62Z" transform="translate(0 0)"/></g><g id="_f7714dff" data-name="#f7714dff"><path class="cls-40" d="M374,201.65c7.3.24,13.61,4.44,19.56,8.24a50.45,50.45,0,0,1-5.52,1.23c-5-1.27-10,.57-15,.51-.61-1.31-1.21-2.62-1.73-4C372.25,205.67,373.16,203.67,374,201.65Z" transform="translate(0 0)"/></g><g id="_fad971ff" data-name="#fad971ff"><path class="cls-41" d="M159.65,214.92c5.49-1.39,10.76-3.71,16.41-4.42a54.71,54.71,0,0,1,15.79,1.12c10.82,3.39,20.73,10.21,26.81,19.91,8.89,12.42,11.14,29.46,5.1,43.57a16.72,16.72,0,0,1-3.51,5.35l-.16-3.29c4.73-8.41,6.9-20.14,3.81-29.91-2.68-9.68-7.69-19.15-16.21-24.89l-.38-.3c-8.09-7.27-19.55-10.19-30.25-9.39a28.38,28.38,0,0,0-14.44,4.52C161.62,216.43,160.63,215.68,159.65,214.92Z" transform="translate(0 0)"/></g><g id="_f2705bff" data-name="#f2705bff"><path class="cls-42" d="M388.07,211.12a50.45,50.45,0,0,0,5.52-1.23,104.82,104.82,0,0,1,9.84,7.6c4.83,4.6,9.85,9.13,13.52,14.76,2.35,3.31,3.44,7.26,5.19,10.89q-1.35.44-2.67.9a10.08,10.08,0,0,0-5.13-4.67c-.36-2.25-.69-4.5-1.14-6.73-1.08,3.85-.66,7.94-1.81,11.78-1.36-1.87-.75-4.26-.88-6.39.25-3.81-1.7-7.25-3.52-10.44a19,19,0,0,0-3.75-4.14c-3.26-2.57-6.44-5.22-9.58-7.91A46.58,46.58,0,0,0,388.07,211.12Z" transform="translate(0 0)"/></g><g id="_a9729aff" data-name="#a9729aff"><path class="cls-43" d="M373.07,211.63c5,.06,10-1.78,15-.51a46.58,46.58,0,0,1,5.59,4.42l-2.15-.15c-1.84-.88-3.58-2-5.51-2.69-3.23-.67-6.47.4-9.64.89l-2.27.26C373.84,213.29,373.32,212.19,373.07,211.63Z" transform="translate(0 0)"/></g><g id="_eba437ff" data-name="#eba437ff"><path class="cls-44" d="M162.62,217.19a28.38,28.38,0,0,1,14.44-4.52c10.7-.8,22.16,2.12,30.25,9.39-26.14-11.79-26.65-8-46.21-3.91Z" transform="translate(0 0)"/></g><g id="_6f6ce1ff" data-name="#6f6ce1ff"><path class="cls-45" d="M376.36,213.59c3.17-.49,6.41-1.56,9.64-.89,1.93.7,3.67,1.81,5.51,2.69-2.71,2.88-5.56,5.83-9.5,6.93a45.53,45.53,0,0,0-6.42-3.26l3.25-1.52-4.61-2.22Z" transform="translate(0 0)"/></g><g id="_fca238ff" data-name="#fca238ff"><path class="cls-46" d="M161.1,218.15c5.47.2,10.21-3.33,15.63-3.79l4.44,2.46c.14.84.29,1.68.43,2.53l2.2,1.57-.51,2.5a26.92,26.92,0,0,1-1.15,3.84c-4.39,1.38-9.53,1.32-13,4.75-5.35,4.34-5.13,12.42-2.6,18.24a40.73,40.73,0,0,1-9.68,6.31c-3.55,1.32-5.49,4.77-8.41,7L146,262.29c0,.72-.1,2.16-.14,2.88a12.41,12.41,0,0,0-3.28-5.39C139.45,244.05,146.62,226.1,161.1,218.15Z" transform="translate(0 0)"/></g><g id="_fcb348ff" data-name="#fcb348ff"><path class="cls-47" d="M176.73,214.36c11.2-2,20.58,4.26,30.58,7.7l.38.3a14.2,14.2,0,0,0,1.78,4.09c.28,1.31.46,2.64.64,4-.59,1.8-1.15,3.61-1.71,5.43-.2-1.48-.39-2.95-.58-4.41-2.37.92-5,1.7-7.31.13a29.05,29.05,0,0,0-8.3-2.8c-1.55-.38-3.07-.84-4.59-1.31a14.15,14.15,0,0,0-4.33-4l.51-2.5-2.2-1.57c-.14-.85-.29-1.69-.43-2.53Z" transform="translate(0 0)"/></g><g id="_786dc9ff" data-name="#786dc9ff"><path class="cls-48" d="M367.26,217.34a20.48,20.48,0,0,1,6.83-3.49l2.27-.26-2.13,1.73,4.61,2.22-3.25,1.52a15.24,15.24,0,0,0-8.89-.53Z" transform="translate(0 0)"/></g><g id="_fabe49ff" data-name="#fabe49ff"><path class="cls-49" d="M138.54,233.83c4.18-8.84,12.43-14.9,21.11-18.91,1,.76,2,1.51,3,2.27l-1.52,1c-6.09,3.07-10.58,8.52-14.09,14.23-.46-1.43-.92-2.85-1.39-4.27-4.23,3.63-7.89,9.23-6.39,15-.62,1.34-1.26,2.67-1.89,4,1.42,8.11,4.61,17.36,4.19,26.12a7.8,7.8,0,0,1,5.71,5.69c-.58.57-1.15,1.14-1.72,1.72a38.81,38.81,0,0,0,9.26,7.73l-.27,2.66c2.37.72,5.32.94,6.58,3.43,9.45,4.53,20.57,4.3,31.27,4.86-7.68,2.29-17.72,2.08-25.91-.43-9.55-2.65-17.44-9.21-23.81-16.58-2.71-5-5.85-9.81-7.43-15.34C132.35,256.07,132.82,243.81,138.54,233.83Z" transform="translate(0 0)"/></g><g id="_f3bc65ff" data-name="#f3bc65ff"><path class="cls-50" d="M231.9,215.85a25.1,25.1,0,0,0,9.5-.4c0,.38,0,1.15.07,1.54,6.66.63,13.32,1.47,20,1.58-8.37,2.13-17.31,1.18-25.61-1A10.71,10.71,0,0,1,231.9,215.85Z" transform="translate(0 0)"/></g><g id="_8070e5ff" data-name="#8070e5ff"><path class="cls-51" d="M382,222.32c3.94-1.1,6.79-4,9.5-6.93l2.15.15c3.14,2.69,6.32,5.34,9.58,7.91-1.52.36-3,.74-4.52,1.11-.16.8-.32,1.61-.47,2.42l-3.85-.84c.54,1.33,1.07,2.66,1.59,4-3.72-.44-6.76-2.68-9.66-4.87C384.91,224.25,383.49,223.24,382,222.32Z" transform="translate(0 0)"/></g><g id="_a67efeff" data-name="#a67efeff"><path class="cls-52" d="M366,218.36l1.3-1-.56,1.19a15.24,15.24,0,0,1,8.89.53,50,50,0,0,1,10.74,6.21l-2.44,1.14c-4-2.52-8.82-5.23-13.69-3.43-1.22.27-2.43.55-3.64.84C366.37,222,366.19,220.17,366,218.36Z" transform="translate(0 0)"/></g><g id="_9182e4ff" data-name="#9182e4ff"><path class="cls-53" d="M368.93,231.33c-2.46-3.66-5.94-8.65-3-13,.23,1.81.41,3.63.6,5.46,1.21-.29,2.42-.57,3.64-.84,0,1.65.09,3.31.13,5C369.88,229.08,369.41,230.21,368.93,231.33Z" transform="translate(0 0)"/></g><g id="_343379ff" data-name="#343379ff"><path class="cls-54" d="M370.2,223c11.1-2.45,20.91,8.81,28,16.4,2.36,3.16,4.57,7.07,2.88,11.07-5.58.53-10.63-2.43-15.18-5.26A53.1,53.1,0,0,1,370.33,228C370.29,226.29,370.24,224.63,370.2,223Z" transform="translate(0 0)"/></g><g id="_ecad36ff" data-name="#ecad36ff"><path class="cls-55" d="M209.47,226.45a14.2,14.2,0,0,1-1.78-4.09c8.52,5.74,13.53,15.21,16.21,24.89a37.74,37.74,0,0,1-2.15,26.46c-1-4.69,1.86-9.06,1.37-13.78C223.89,247.49,219.12,234.55,209.47,226.45Z" transform="translate(0 0)"/></g><g id="_ffcc2dff" data-name="#ffcc2dff"><path class="cls-56" d="M183.29,223.42a14.15,14.15,0,0,1,4.33,4c1.52.47,3,.93,4.59,1.31q-1.83.15-3.66.33c.77,3-.75,8.17,3.43,8.89,1.48.59,3,1.14,4.48,1.72-2.59.39-7.28-1.7-7.91,2.12-.9,8.64,12.61,7.44,15.54,15,2.7,4.81,1.63,10.53,1.34,15.76-3.4,6.23-10.45,10.76-17.57,10.77-.62,1.71-1.23,3.42-1.82,5.15l-.76-.37c.18-2.13.33-4.26.55-6.38,6.32-1.15,13.67-2.75,16.8-9.07,2-5.07,1.86-11.26-.94-16A139.15,139.15,0,0,1,185,249.12c-3.4.6-4.57,4.61-5.69,7.43l-.93,2.69a22.28,22.28,0,0,1-11.83-9c-2.53-5.82-2.75-13.9,2.6-18.24,3.49-3.43,8.63-3.37,13-4.75a26.92,26.92,0,0,0,1.15-3.84M177,241.11c-.7,3.11,2.55,4.87,5,5.84.67-3.59,1.38-7.4.08-10.94C180.07,237.37,177.3,238.41,177,241.11Z" transform="translate(0 0)"/></g><g id="_9077edff" data-name="#9077edff"><path class="cls-57" d="M398.72,224.56c1.5-.37,3-.75,4.52-1.11a19,19,0,0,1,3.75,4.14c-3.38,3.7-3.87,9.48-8.83,11.79a62.46,62.46,0,0,0-14.27-13l2.44-1.14c2.9,2.19,5.94,4.43,9.66,4.87-.52-1.34-1.05-2.67-1.59-4l3.85.84C398.4,226.17,398.56,225.36,398.72,224.56Z" transform="translate(0 0)"/></g><g id="_ffc246ff" data-name="#ffc246ff"><path class="cls-58" d="M210.11,230.42c-.18-1.33-.36-2.66-.64-4,9.65,8.1,14.42,21,13.65,33.48l-1.51,1.6-1.31-1.13c-.33,1.24-.67,2.47-1,3.71l-1.8-1.68c-.49,4.9-5.77,6.31-9.91,6.39-.71,1.26-1.43,2.54-2.15,3.8.29-5.23,1.36-10.95-1.34-15.76-3.86-8.08-16.85-6.93-15.54-15,.63-3.82,5.32-1.73,7.91-2.12l3.27.16c.25-2.77.5-5.54.78-8.3,2.3,1.57,4.94.79,7.31-.13.19,1.46.38,2.93.58,4.41C209,234,209.52,232.22,210.11,230.42Z" transform="translate(0 0)"/></g><g id="_ffd930ff" data-name="#ffd930ff"><path class="cls-59" d="M139.23,243.14c-1.5-5.8,2.16-11.4,6.39-15,.47,1.42.93,2.84,1.39,4.27-9.36,15.84-5.15,37.43,7.27,50.67a29.34,29.34,0,0,0,10.43,7.88,48.94,48.94,0,0,0,26.84,5,53.65,53.65,0,0,0,13.25-4.08c6.06-3.8,10.8-9.2,15.29-14.69l.16,3.29c-1.67,2.53-3.69,4.81-5.29,7.39a56,56,0,0,0-8,6c-4.34,2.58-9.35,3.68-14,5.65l-.64-.08c-10-.63-21.48-.15-31.27-4.86-1.26-2.49-4.21-2.71-6.58-3.43l.27-2.66a38.81,38.81,0,0,1-9.26-7.73c.57-.58,1.14-1.15,1.72-1.72a7.8,7.8,0,0,0-5.71-5.69c.51-8.36-2.64-17.32-4.19-26.12C138,245.81,138.61,244.48,139.23,243.14Z" transform="translate(0 0)"/></g><g id="_6e56d5ff" data-name="#6e56d5ff"><path class="cls-60" d="M370.33,228a53.1,53.1,0,0,0,15.53,17.24c4.55,2.83,9.6,5.79,15.18,5.26-.27,1.27-.53,2.54-.74,3.82l-2.39-.05c-11.31-4.36-21.63-13-29-22.89C369.41,230.21,369.88,229.08,370.33,228Z" transform="translate(0 0)"/></g><g id="_9b79f8ff" data-name="#9b79f8ff"><path class="cls-61" d="M407,227.59c1.82,3.19,3.77,6.63,3.52,10.44.13,2.13-.48,4.52.88,6.39l-.12.4-1.35-.11c-1.17,2.9-1.74,6.11-3.57,8.7-1.64,2.21-4.73,1.47-7.07,1.28l-1.37-.47,2.39.05c.21-1.28.47-2.55.74-3.82,1.69-4-.52-7.91-2.88-11.07C403.12,237.07,403.61,231.29,407,227.59Z" transform="translate(0 0)"/></g><g id="_ffdd3bff" data-name="#ffdd3bff"><path class="cls-62" d="M188.55,229.1q1.83-.18,3.66-.33a29.05,29.05,0,0,1,8.3,2.8c-.28,2.76-.53,5.53-.78,8.3l-3.27-.16c-1.5-.58-3-1.13-4.48-1.72C187.8,237.27,189.32,232.12,188.55,229.1Z" transform="translate(0 0)"/></g><g id="_d8c4f2ff" data-name="#d8c4f2ff"><path class="cls-63" d="M369.2,231.68c7.42,9.76,17.2,18.07,28.71,22.54l1.37.47c-8.26,30.16-24.67,61.55-47.06,77.87l-2-1.2c1.24-1,2.5-2,3.75-3-5.42-.67-10.51,1-15.46,3l1.16,1.59-3.28-.2c-.24-1.53-.48-3.07-.71-4.59-2.42-.16-4.84-.3-7.26-.45-.26-1.51-.51-3-.76-4.51l-7.05-.48L319,320.09l-6.69-.25c-.22-1.54-.44-3.06-.65-4.58-2.34-.2-4.69-.38-7-.57L303,312.06l-6.64-.3-.72-4.56-6.57-.37-1.7-2.32-3-1c-.24-1.42-.48-2.85-.71-4.26a17.35,17.35,0,0,0-9.87-4.66A37.27,37.27,0,0,0,269,309c-.72,4.41-2.73,9.78-7.41,11.22,6.5-12.39,8.39-27.13,17.61-38.05C313.1,255.42,337.41,303.28,369.2,231.68Z" transform="translate(0 0)"/></g><g id="_fa8146ff" data-name="#fa8146ff"><path class="cls-64" d="M413.2,232.64c.45,2.23.78,4.48,1.14,6.73a10.08,10.08,0,0,1,5.13,4.67,38.31,38.31,0,0,1-8.2.78C412.37,241.51,412.2,236.65,413.2,232.64Z" transform="translate(0 0)"/></g><g id="_f5ae27ff" data-name="#f5ae27ff"><path class="cls-65" d="M177,241.11c.32-2.7,3.09-3.74,5-5.1,1.3,3.54.59,7.35-.08,10.94C179.53,246,176.28,244.22,177,241.11Z" transform="translate(0 0)"/></g><g id="_dfa285ff" data-name="#dfa285ff"><path class="cls-66" d="M419.47,244q1.32-.47,2.67-.9l.7.68,0,0c-.31.87-.91,2.59-1.22,3.45-.15-.47-.44-1.43-.59-1.91-3.26,1.3-6.65.75-9.79-.56A38.31,38.31,0,0,0,419.47,244Z" transform="translate(0 0)"/></g><g id="_642712ff" data-name="#642712ff"><path class="cls-67" d="M421.65,247.29c.31-.86.91-2.58,1.22-3.45l.79.87C423.37,245.76,423,247.19,421.65,247.29Z" transform="translate(0 0)"/></g><g id="_311644ff" data-name="#311644ff"><path class="cls-68" d="M421.08,247.17c.47.72.94,1.45,1.43,2.17a17.41,17.41,0,0,0-.86,9,17.51,17.51,0,0,1-2.52-3.43C419.68,252.32,420.47,249.76,421.08,247.17Z" transform="translate(0 0)"/><path class="cls-68" d="M304,360.63c2.84.62,5.62,1.48,8.4,2.35,1.65.58,3.33,1.1,5,1.63l-1.68,1.68c.14.28.43.83.58,1.11A33.54,33.54,0,0,0,315.1,380c-.3,2.72,2.87,3.57,4.49,5.11-2.81.79-5.62,1.55-8.46,2.22.11.51.32,1.52.43,2,3.22.63,7.67.23,8.27,4.45-5.13-.16-10.19,1-15.32.94-5.76.21-11.49.92-17.22,1.48l-.85-.63c5.85-.55,11.72-1,17.5-2C304.27,382.63,304.33,371.62,304,360.63Z" transform="translate(0 0)"/></g><g id="_ffe623ff" data-name="#ffe623ff"><path class="cls-69" d="M179.28,256.55c1.12-2.82,2.29-6.83,5.69-7.43a139.15,139.15,0,0,0,16.72,7.59c2.8,4.75,2.9,10.94.94,16-3.13,6.32-10.48,7.92-16.8,9.07.5-4.07,5.67-2.34,8.47-3.6a12.84,12.84,0,0,0,6.57-16.5,10.19,10.19,0,0,0-8.18,9.92c-4.86,1.36-10,3.3-14.94,1.08,1-.41,2-.82,3.73-1.5.07-4.88,2.1-11-2.2-14.64m8,4.48c-1.36,3.15-1.16,6.6-1,10a40.56,40.56,0,0,0,5.26-.52c.31-2.55,1.19-5.4-.25-7.77A16.7,16.7,0,0,0,187.26,261Z" transform="translate(0 0)"/></g><g id="_463d6cff" data-name="#463d6cff"><path class="cls-70" d="M419.13,254.93a17.51,17.51,0,0,0,2.52,3.43c4.16,8.81,10.14,16.58,14.93,25,1.29,2,2.28,4.38,4.28,5.8a41.41,41.41,0,0,0,5.61,1.39c-8.93,8.07-13-6.93-17.57-12.56C425.2,271.18,417.66,264,419.13,254.93Z" transform="translate(0 0)"/></g><g id="_fdc642ff" data-name="#fdc642ff"><path class="cls-71" d="M179.28,256.55c4.3,3.68,2.27,9.76,2.2,14.64-1,.4-2.06.81-3.08,1.23C177.84,267.85,177,261.71,179.28,256.55Z" transform="translate(0 0)"/></g><g id="_eea828ff" data-name="#eea828ff"><path class="cls-72" d="M142.62,259.78c4.23,6.72,8.23,15.51,11.66,23.27A46.38,46.38,0,0,1,142.62,259.78Z" transform="translate(0 0)"/></g><g id="_fcae4aff" data-name="#fcae4aff"><path class="cls-73" d="M220.3,260.4l1.31,1.13,1.51-1.6c.49,4.72-2.35,9.09-1.37,13.78-.53,1.16-1.1,2.31-1.66,3.45-4.49,5.49-9.23,10.89-15.29,14.69a53.65,53.65,0,0,1-13.25,4.08,20.76,20.76,0,0,0-5.7-6.83c.51-1.52,1.13-3.29,2-5.71,7.12,0,14.17-4.54,17.57-10.77.72-1.26,1.44-2.54,2.15-3.8,4.14-.08,9.42-1.49,9.91-6.39l1.8,1.68C219.63,262.87,220,261.64,220.3,260.4Z" transform="translate(0 0)"/></g><g id="_fcc541ff" data-name="#fcc541ff"><path class="cls-74" d="M187.26,261a16.7,16.7,0,0,1,4,1.66c1.44,2.37.56,5.22.25,7.77a40.56,40.56,0,0,1-5.26.52C186.1,267.63,185.9,264.18,187.26,261Z" transform="translate(0 0)"/></g><g id="_fdeb12ff" data-name="#fdeb12ff"><path class="cls-75" d="M192.69,271.61a10.19,10.19,0,0,1,8.18-9.92c2.42,5.7-.16,13.78-6.57,16.5-2.8,1.26-8-.47-8.47,3.6-.22,2.12-.37,4.25-.55,6.38-3.3-.65-3.3-4.34-4.27-6.89a44.75,44.75,0,0,0-3.26-8.59C182.7,274.91,187.83,273,192.69,271.61Z" transform="translate(0 0)"/></g><g id="_ffd322ff" data-name="#ffd322ff"><path class="cls-76" d="M170,280.21c-5.41-.47-6.05-9.85-.89-11.2,3.15.11,6.14,1.25,9.12,2.18l.14,1.23-.65.27a38.58,38.58,0,0,1-8.65,1.8c.13,1.31.27,2.62.41,3.94a28.56,28.56,0,0,0,10.85.66c.16.55.49,1.64.65,2.19C177.33,281.2,173.6,281.2,170,280.21Z" transform="translate(0 0)"/></g><g id="_f1bd52ff" data-name="#f1bd52ff"><path class="cls-77" d="M465.36,271c.37-2.8,4-2.34,6.07-2.87.85,2.7.53,6.1,2.82,8.12-.6.49-1.2,1-1.77,1.5C470.16,275.51,466.77,274,465.36,271Z" transform="translate(0 0)"/></g><g id="_feda08ff" data-name="#feda08ff"><path class="cls-78" d="M169.1,274.49a38.58,38.58,0,0,0,8.65-1.8,36.72,36.72,0,0,1,2.61,6.4,28.56,28.56,0,0,1-10.85-.66C169.37,277.11,169.23,275.8,169.1,274.49Z" transform="translate(0 0)"/></g><g id="_746bdeff" data-name="#746bdeff"><path class="cls-79" d="M474.25,276.28l2.05-1.61c6,3.79,11.73,8.09,16.34,13.51-.48,2.81,1.33,5.15,2.49,7.53l-2.86-1.44c-2.17,5.31-.94,11.13-1.14,16.68-1.65,10.36.73,21.17-.31,32,.22,24.2.46,48.44,0,72.65q-1.71.36-3.39.75c.06,1.1.13,2.22.17,3.34l-1.72.5c-3-2-6.61-2.34-10.11-2.32a24,24,0,0,1,8.2-1.24c-1.26-.37-2.53-.76-3.77-1.14-.65-9.52.18-19.08-.35-28.6.1-2.51-3.62-2.54-3.7-5a31.66,31.66,0,0,1,.2-9.62c.35-2.67,3.23-3.68,4.91-5.42-2.94-1.42-6.34-.86-9.49-1.2q2.6-1.53,5.21-3c-2-2.93-5.61-3.71-8.61-5.21l-2.65-1.19c4-1,8.2-1.82,11.68-4.19a24.46,24.46,0,0,0,3.67-3.31c-1.26-.15-2.51-.27-3.76-.37l-1.9-.18a31.68,31.68,0,0,0,3.84-3.39c.13-.34.4-1,.53-1.34.54-1.1,1.14-2.15,1.68-3.24l1.17.65c5.42-9.41,4.71-20.84,1.56-30.87-2.92-10.86-7.05-21.42-13.25-30.86.38-.34,1.13-1,1.5-1.39C473.05,277.27,473.65,276.77,474.25,276.28Z" transform="translate(0 0)"/></g><g id="_d7dee8ff" data-name="#d7dee8ff"><path class="cls-80" d="M385.06,299.06c10.91-12.67,27-20.79,43.84-21,4.48,5.69,8.76,20.55,17.57,12.56A29.77,29.77,0,0,0,451,283.3c19.44,9.17,32,31.44,28.84,52.87-3.41-1.6-3.14-5.25-3.06-8.47a8.33,8.33,0,0,0-5.48,9.3c-.15-.17-.43-.52-.57-.69-2,2.17-2.62,5.05-2.78,7.93,1.38.14,2.75.27,4.14.39l-.19.31a31.45,31.45,0,0,0-3.61,6.29,43.26,43.26,0,0,0-9.15,2.54l-2.85,1c-19.68.72-49.33-7.79-25.82-28,2-.14,4.05-.25,6.08-.36,0-1.3,0-2.6,0-3.89l-3.43-.37-2.56,1.93c-10-1.52-20.47,4.43-24.85,13.44-7.93,12.91,1.15,24.51,11.68,30.69,1.23.89,2.44,1.83,3.63,2.8-4.33-1.94-7.64-5.6-12.13-7.2-8.35-3.22-17.05-5.34-25.55-8.12a61.87,61.87,0,0,0-15.45-5c.92-7.6,1.55-15.25,3.22-22.74C373.76,317.55,377.42,306.94,385.06,299.06Z" transform="translate(0 0)"/><path class="cls-80" d="M395.18,385.13c9.79-4.38,19.88-8,29.64-12.47a42.76,42.76,0,0,0,4.91,2.25c4.81,2.35,11.06,2.33,14.61,6.79,3.36,4.55,1.86,10.57,1.56,15.78-5,.39-9.95-.47-14.91.13-8.85.83-17.28,4.14-25.06,8.29-5.54,3.35-11.3,6.52-15.82,11.24-.22-9.66-.17-19.32-.09-29,2.56-.37,5.18-.9,7.11-2.77Z" transform="translate(0 0)"/></g><g id="_fda33bff" data-name="#fda33bff"><path class="cls-81" d="M176.65,284.62c1.15-.4,2.25-1.34,3.53-1.08.61,1.57,1,3.21,1.52,4.84l4.15.72a20.76,20.76,0,0,1,5.7,6.83,48.94,48.94,0,0,1-26.84-5l5.15-2.48c-1.74-1-3.47-1.94-5.18-2.94C168.18,282.84,172.67,284.21,176.65,284.62Z" transform="translate(0 0)"/></g><g id="_6a68daff" data-name="#6a68daff"><path class="cls-82" d="M495.13,295.71c-1.16-2.38-3-4.72-2.49-7.53C502.88,299.3,508.78,314,510.06,329c-2.2,28.7,2.22,58,3.2,87,0,7.76-3,15.29-7.62,21.45-3.78-.84-8.11-1.07-11-4-3.83-3.74-5.39-9.09-8.74-13.21l1.72-.5c0-1.12-.11-2.24-.17-3.34q1.68-.39,3.39-.75c.42-24.21.18-48.45,0-72.65,1.08-10.21-1.4-21.25.31-32,.2-5.55-1-11.37,1.14-16.68Z" transform="translate(0 0)"/></g><g id="_dec7f1ff" data-name="#dec7f1ff"><path class="cls-83" d="M273.77,294.57a17.35,17.35,0,0,1,9.87,4.66c.23,1.41.47,2.84.71,4.26l3,1,1.7,2.32,6.57.37.72,4.56,6.64.3,1.65,2.63c2.34.19,4.69.37,7,.57.21,1.52.43,3,.65,4.58l6.69.25,1.56,2.66,7.05.48c.25,1.5.5,3,.76,4.51,2.42.15,4.84.29,7.26.45.23,1.52.47,3.06.71,4.59l3.28.2-1.16-1.59c4.95-2,10-3.67,15.46-3-1.25,1-2.51,2-3.75,3l2,1.2c-5.42,4.12-12.52,6.49-16.25,12.49.14.75.41,2.26.55,3l-1,.39c-8.38,3.54-16.94,6.63-25.57,9.5-19.25,6-41.34,4.3-61.54,7.28-11.79.87-23.57,2-35.36,2.88-1-.22-2-.45-3-.69,10.44-3.71,20.44-9.19,28.28-17.12,9.41-8.65,16.42-19.43,23.25-30.12,4.68-1.44,6.69-6.81,7.41-11.22A37.27,37.27,0,0,1,273.77,294.57Z" transform="translate(0 0)"/></g><g id="_f2c74fff" data-name="#f2c74fff"><path class="cls-84" d="M430.59,324.09l2.56-1.93,3.43.37c0,1.29,0,2.59,0,3.89-2,.11-4.06.22-6.08.36C430.52,326.1,430.57,324.76,430.59,324.09Z" transform="translate(0 0)"/></g><g id="_272650ff" data-name="#272650ff"><path class="cls-85" d="M154.3,325.27c2.33-2.77,6.37-2.32,9.28-.79-3.38,1.4-8,3.77-6.11,8.3.47.9,1,1.77,1.43,2.7-.53,1.1-1.05,2.2-1.65,3.26a24.6,24.6,0,0,1-3.93,2.95c-5.68,2.22-11.51,4.22-16.59,7.68-8.71,5.4-16.42,13.54-20.38,23.31a36.16,36.16,0,0,0-.19-10.44l-2.88,1.37c-.16-.51-.47-1.55-.62-2.06l-2.18,0-.92-2.27-.84,2.41-1.56-1.39c0,3.72.25,7.62-1.47,11.06.06-13.81-4.77-25,8.61-32.05C135.86,330,137.82,343.7,154.3,325.27Z" transform="translate(0 0)"/></g><g id="_a37df7ff" data-name="#a37df7ff"><path class="cls-86" d="M405.74,337.53c4.38-9,14.86-15,24.85-13.44,0,.67-.07,2-.09,2.69-1.71,1.79-3.5,3.5-5.2,5.3-1.2,0-2.4.07-3.59.12-.28,3.7-2.34,6.93-2.93,10.58,2.56,2.64,4.85,5.53,7.45,8.13-.64.67-1.28,1.34-1.91,2-.07,1.24-.13,2.48-.18,3.73-5.45-4.5-14-2.6-19.07-7.73C404,345.18,405.28,341.28,405.74,337.53Z" transform="translate(0 0)"/></g><g id="_33292eff" data-name="#33292eff"><path class="cls-87" d="M157.47,332.78c-1.89-4.53,2.73-6.9,6.11-8.3a45.56,45.56,0,0,1,3.54,3.41c-.77,3.08-1.61,6.14-2.59,9.15,1,.67,1.95,1.34,2.92,2l-1.5,1.07c-1.85-.38-2.93-2.1-4.39-3.15l1.17-1.34c2.77-2,1-5.37.18-7.93-1.6.35-3.65.44-4.13,2.38C158.32,331,157.89,331.87,157.47,332.78Z" transform="translate(0 0)"/></g><g id="_ddb876ff" data-name="#ddb876ff"><path class="cls-88" d="M158.78,330.1c.48-1.94,2.53-2,4.13-2.38.77,2.56,2.59,5.88-.18,7.93-.16-1.8-.42-3.59-.69-5.37Z" transform="translate(0 0)"/></g><g id="_28264eff" data-name="#28264eff"><path class="cls-89" d="M471.33,337a8.33,8.33,0,0,1,5.48-9.3c-.08,3.22-.35,6.87,3.06,8.47,1.45.9,2.38,2.33,1.63,4.08-.54,1.09-1.14,2.14-1.68,3.24a49.65,49.65,0,0,0-5.91,3.54l-2-2.09.19-.31a28.11,28.11,0,0,1,0-6.61Z" transform="translate(0 0)"/></g><g id="_ffca44ff" data-name="#ffca44ff"><path class="cls-90" d="M157.47,332.78c.42-.91.85-1.8,1.31-2.68l3.26.18c.27,1.78.53,3.57.69,5.37L161.56,337l-1.84-.28c-.2-.31-.62-.92-.82-1.23C158.46,334.55,157.94,333.68,157.47,332.78Z" transform="translate(0 0)"/></g><g id="_9783daff" data-name="#9783daff"><path class="cls-91" d="M421.71,332.2c1.19-.05,2.39-.09,3.59-.12-14.2,18.47,18.64,23.31,31,22.67-3.21,1.67-6.85,1.19-10.32,1.05-6.87-.12-13.39-2.6-19.77-4.89-2.6-2.6-4.89-5.49-7.45-8.13C419.37,339.13,421.43,335.9,421.71,332.2Z" transform="translate(0 0)"/></g><g id="_e0c152ff" data-name="#e0c152ff"><path class="cls-92" d="M468,344.24c.16-2.88.76-5.76,2.78-7.93.14.17.42.52.57.69l.76,1a28.11,28.11,0,0,0,0,6.61C470.73,344.51,469.36,344.38,468,344.24Z" transform="translate(0 0)"/></g><g id="_fdb63fff" data-name="#fdb63fff"><path class="cls-93" d="M157.25,338.74c1.12-1.18,3.16-2.48,4.57-.93a14.65,14.65,0,0,0,8.8,4.05c-4.71,4.47-11.58,1.24-17.09,3.75-.08-1.31-.15-2.62-.21-3.92A24.6,24.6,0,0,0,157.25,338.74Z" transform="translate(0 0)"/></g><g id="_8d68f0ff" data-name="#8d68f0ff"><path class="cls-94" d="M403.21,351.83c-1.45-4.89.13-10,2.53-14.3-.46,3.75-1.75,7.65-.67,11.4,5.05,5.13,13.62,3.23,19.07,7.73,8.12,9.19,8.21,14.5,20.07,13.54a13.83,13.83,0,0,0-7.67,4.34c-2.27.18-4.54.33-6.81.37a42.76,42.76,0,0,1-4.91-2.25,66.17,66.17,0,0,0-7.4-4.44C411.17,364.44,405.25,359.09,403.21,351.83Z" transform="translate(0 0)"/></g><g id="_fd8796ff" data-name="#fd8796ff"><path class="cls-95" d="M136.73,349.37c5.08-3.46,10.91-5.46,16.59-7.68.06,1.3.13,2.61.21,3.92,5.51-2.51,12.38.72,17.09-3.75,7.87,1.15,15.91,3.59,22.18,8.65l-.2,1.71a118.71,118.71,0,0,0-23,3.17c-5.84,1.66-11.76,3-17.68,4.39-.69.94-1.55,2.08-2.63,3.51-.22-.85-.64-2.55-.86-3.4a20.14,20.14,0,0,0-3,7.73l-1.83,1.6c.77,2,1.54,4,2.34,6a18.1,18.1,0,0,0,3.28-3.38c-.38,4.52-.75,9.05-1.22,13.57-5.57,2.26-13.46,3.63-19.89,5.54-1.33-3.59,3.09-3.48,5.29-4.46L130,381.89c1.92-.41,3.84-.8,5.77-1.13a14.56,14.56,0,0,1-2.55-1.85c3.81-.14,7.21-1.9,10.59-3.46-.39-1.3-.77-2.59-1.22-3.86-1-.7-2-1.36-3.73-2.53-2.88,1.94-5.59,6.63-9.53,4.36a20.09,20.09,0,0,1,8.6-6.81,47.14,47.14,0,0,1-4-4.77c.76-4.33,1.75-9.07,5.84-11.5Z" transform="translate(0 0)"/><path class="cls-95" d="M361,389.76a52.74,52.74,0,0,0,7.74-.47c2.79,0,5.59.07,8.39.19l-3.05.39a199,199,0,0,0-21.92,2.39l-5-.9.82-.07C352.33,390.8,356.7,390.51,361,389.76Z" transform="translate(0 0)"/><path class="cls-95" d="M287.29,396.23c5.73-.56,11.46-1.27,17.22-1.48-1.05,2.2-3.48,1.64-5.43,1.75-13.88,1.07-29.4,2.22-43.71,3.7-4.55.3-9.1.23-13.65.25l-1.28,1.8a50.24,50.24,0,0,0-6.68-1c.86,7.56-.81,15.13-.39,22.71-.11,35,.28,70.05-.12,105.06l0,.44c-.19-27.83,0-55.67-.09-83.51.25-14.21-.37-28.43.46-42.62-.22-.39-.67-1.15-.9-1.53l-.75-1c9.36,0,19.69-1.5,29.31-2.31C269.59,398.16,278.68,397.18,287.29,396.23Z" transform="translate(0 0)"/></g><g id="_c2bae5ff" data-name="#c2bae5ff"><path class="cls-96" d="M473.91,347a49.65,49.65,0,0,1,5.91-3.54c-.13.33-.4,1-.53,1.34a31.68,31.68,0,0,1-3.84,3.39C475.06,347.93,474.29,347.33,473.91,347Z" transform="translate(0 0)"/></g><g id="_fbac4aff" data-name="#fbac4aff"><path class="cls-97" d="M336.52,348.07c3.14-1.14,6.19-2.64,9.49-3.31,6.57.92,12.8,3.42,19.13,5.36,5.3,3.7,11.69,6.1,18.23,5.58,8.5,2.78,17.2,4.9,25.55,8.12,4.49,1.6,7.8,5.26,12.13,7.2-1.19-1-2.4-1.91-3.63-2.8a66.17,66.17,0,0,1,7.4,4.44c-9.76,4.45-19.85,8.09-29.64,12.47-2.08.59-4.15,1.21-6.26,1.65h-1.2q-1.32-.18-2.61-.45c-14.65-4.54-30.54-9.89-45.88-14.64-1.58-7.62-7-15.32-3.71-23.23Z" transform="translate(0 0)"/></g><g id="_fcba39ff" data-name="#fcba39ff"><path class="cls-98" d="M468.32,351.23a31.45,31.45,0,0,1,3.61-6.29l2,2.09c.38.3,1.15.9,1.54,1.19l1.9.18c-.48,1.31-1,2.63-1.41,4a62.16,62.16,0,0,0-7.76,2,23.92,23.92,0,0,1-5.06-2C464.83,351.94,466.58,351.58,468.32,351.23Z" transform="translate(0 0)"/></g><g id="_dcb492ff" data-name="#dcb492ff"><path class="cls-99" d="M477.35,348.4c1.25.1,2.5.22,3.76.37a24.46,24.46,0,0,1-3.67,3.31l-1.5.27C476.4,351,476.87,349.71,477.35,348.4Z" transform="translate(0 0)"/></g><g id="_e38149ff" data-name="#e38149ff"><path class="cls-100" d="M310,358c8.63-2.87,17.19-6,25.57-9.5-3.27,7.91,2.13,15.61,3.71,23.23-8.7-2.83-17.79-5.73-26.88-8.71-1.37-.92-2.7-1.92-4-2.89Z" transform="translate(0 0)"/></g><g id="_fd78abff" data-name="#fd78abff"><path class="cls-101" d="M117.36,370.47c4-8.86,11.21-16,19.37-21.1l3.06,1c-4.09,2.43-5.08,7.17-5.84,11.5a47.14,47.14,0,0,0,4,4.77,20.09,20.09,0,0,0-8.6,6.81c3.94,2.27,6.65-2.42,9.53-4.36l3,2c-2.77,2.73-5.64,5.35-8.67,7.81a14.56,14.56,0,0,0,2.55,1.85c-1.93.33-3.85.72-5.77,1.13l3.42,4.63c-2.2,1-6.62.87-5.29,4.46,5.08-1.77,10.51-2.24,15.57-4.07l0,.9a38.38,38.38,0,0,1-6.19,3.78c-1.92.8-3.89,1.49-5.88,2.12-4.22-.53-8.8.26-12.76-1.46-1.91-3-3.42-6.63-3.22-10.26C116.54,378.21,118.55,374.47,117.36,370.47Z" transform="translate(0 0)"/></g><g id="_ebbc83ff" data-name="#ebbc83ff"><path class="cls-102" d="M365.14,350.12l2.78.59a61.87,61.87,0,0,1,15.45,5C376.83,356.22,370.44,353.82,365.14,350.12Z" transform="translate(0 0)"/></g><g id="_917acfff" data-name="#917acfff"><path class="cls-103" d="M192.6,352.22l.2-1.71c3.08.74,6.22,0,9.34.08,2,.87,1.05,3,1,4.65-.53-.89-1.08-1.77-1.62-2.64A55.52,55.52,0,0,0,192.6,352.22Z" transform="translate(0 0)"/></g><g id="_9076efff" data-name="#9076efff"><path class="cls-104" d="M426.23,350.91c6.38,2.29,12.9,4.77,19.77,4.89,3.47.14,7.11.62,10.32-1.05l1.34-.46a15.34,15.34,0,0,0,8.1,2l2.65,1.19c-2.78.23-5.54.59-8.31.86l1.18,2.26c1.28.35,2.56.72,3.84,1.09-2.71,2.41-6.31,3.4-9.12,5.67a30.47,30.47,0,0,1,6.13,3.36c-4.68-1.63-9.68-2.94-14.53-1.16l-3.39.66c-13.51,1.27-13.49-7.51-20.07-13.54.05-1.25.11-2.49.18-3.73C425,352.25,425.59,351.58,426.23,350.91Z" transform="translate(0 0)"/></g><g id="_9a77f7ff" data-name="#9a77f7ff"><path class="cls-105" d="M192.6,352.22a55.52,55.52,0,0,1,8.93.38c.54.87,1.09,1.75,1.62,2.64L203,357a23.44,23.44,0,0,0-6.26-1.6c-.19,1.43-.36,2.86-.52,4.3-3.62,2.41-7.92,3.25-12.11,4.06-1.81,0-3.61-.06-5.41-.16a36.39,36.39,0,0,1,7.83-2.87l.12-2.37a33.1,33.1,0,0,1-7.92-3.28c-2.53.14-5.75.22-9.1.35A118.71,118.71,0,0,1,192.6,352.22Z" transform="translate(0 0)"/></g><g id="_e2c595ff" data-name="#e2c595ff"><path class="cls-106" d="M459.17,353.77a30.36,30.36,0,0,1,3.95-1.4,23.92,23.92,0,0,0,5.06,2A11.52,11.52,0,0,1,459.17,353.77Z" transform="translate(0 0)"/></g><g id="_ab8aa4ff" data-name="#ab8aa4ff"><path class="cls-107" d="M468.18,354.34a62.16,62.16,0,0,1,7.76-2l1.5-.27c-3.48,2.37-7.67,3.22-11.68,4.19a15.34,15.34,0,0,1-8.1-2l1.51-.52A11.52,11.52,0,0,0,468.18,354.34Z" transform="translate(0 0)"/></g><g id="_706bdfff" data-name="#706bdfff"><path class="cls-108" d="M151.94,359.78c5.92-1.37,11.84-2.73,17.68-4.39,2.17-.1,4.35-.14,6.52-.23-.63.91-1.25,1.84-1.88,2.76l4.69.63c-3.08.46-8.36-.59-9.25,3.43,1.64,1.5,4.05,1.7,6,2.66-.5,1.4-2.36,1.65-3.46,2.49.37.47.73.95,1.1,1.43l-2.88,2.55,3.52,1.45a19.53,19.53,0,0,0-7.28,4.22c-2.34,2.13-5.5,3-7.93,5a27.67,27.67,0,0,0-5.12,10.45c2.17.14,4.33.3,6.51.36-3.22,1-6.6.93-9.93.83l-.44-.13c-1.19-10.6,1.42-21.14.86-31.76Z" transform="translate(0 0)"/></g><g id="_8973e9ff" data-name="#8973e9ff"><path class="cls-109" d="M176.14,355.16l2.58-.12a33.1,33.1,0,0,0,7.92,3.28l-.12,2.37a36.39,36.39,0,0,0-7.83,2.87c1.8.1,3.6.19,5.41.16-1.22,1.77-2.45,3.53-3.71,5.28l-.76,1c-1.87.86-3.72,1.79-5.64,2.56l-3.52-1.45,2.88-2.55c-.37-.48-.73-1-1.1-1.43,1.1-.84,3-1.09,3.46-2.49-2-1-4.37-1.16-6-2.66.89-4,6.17-3,9.25-3.43l-4.69-.63C174.89,357,175.51,356.07,176.14,355.16Z" transform="translate(0 0)"/></g><g id="_b586bdff" data-name="#b586bdff"><path class="cls-110" d="M196.73,355.36A23.44,23.44,0,0,1,203,357c-.06.59-.17,1.77-.23,2.35-1.42-.55-2.82-1.13-4.22-1.72,0,1.44-.09,2.88-.12,4.33-.73-.76-1.47-1.52-2.21-2.26C196.37,358.22,196.54,356.79,196.73,355.36Z" transform="translate(0 0)"/></g><g id="_7c6fe3ff" data-name="#7c6fe3ff"><path class="cls-111" d="M468.41,357.46c3,1.5,6.59,2.28,8.61,5.21q-2.61,1.49-5.21,3c3.15.34,6.55-.22,9.49,1.2-1.68,1.74-4.56,2.75-4.91,5.42a31.66,31.66,0,0,0-.2,9.62c.08,2.45,3.8,2.48,3.7,5,.53,9.52-.3,19.08.35,28.6,1.24.38,2.51.77,3.77,1.14a24,24,0,0,0-8.2,1.24c-1.61.56-3.16,1.27-4.72,1.95a46.29,46.29,0,0,1-7.78,1.75c-1.95-.82-.82-3.17-.29-4.6,3.46-7.33,8.87-14.43,8.26-23,.46-12.59-10-25.91-23.68-24.48,4.85-1.78,9.85-.47,14.53,1.16a30.47,30.47,0,0,0-6.13-3.36c2.81-2.27,6.41-3.26,9.12-5.67-1.28-.37-2.56-.74-3.84-1.09l-1.18-2.26C462.87,358.05,465.63,357.69,468.41,357.46Z" transform="translate(0 0)"/></g><g id="_f4cb4dff" data-name="#f4cb4dff"><path class="cls-112" d="M198.54,357.59c1.4.59,2.8,1.17,4.22,1.72.21.95.63,2.85.85,3.8-.64,1.12-1.77,3.17-2.9,5.23,0-2.37-.4-4.8-2.29-6.42C198.45,360.47,198.5,359,198.54,357.59Z" transform="translate(0 0)"/></g><g id="_c5818aff" data-name="#c5818aff"><path class="cls-113" d="M297.94,361a49.29,49.29,0,0,0,12-3l-1.62,2.13c1.32,1,2.65,2,4,2.89-2.78-.87-5.56-1.73-8.4-2.35A57.33,57.33,0,0,0,297.94,361Z" transform="translate(0 0)"/></g><g id="_353669ff" data-name="#353669ff"><path class="cls-114" d="M108.72,361.65l.84-2.41.92,2.27,2.18,0c.15.51.46,1.55.62,2.06l2.88-1.37a36.16,36.16,0,0,1,.19,10.44,82.77,82.77,0,0,0-2.68,10.86c-.66-2.13-1.46-4.22-2.23-6.3-3,.52-6,1-9,1.24a52.5,52.5,0,0,0,3.27-7.16c1.72-3.44,1.45-7.34,1.47-11.06Z" transform="translate(0 0)"/></g><g id="_ff7470ff" data-name="#ff7470ff"><path class="cls-115" d="M145.42,367.62a20.14,20.14,0,0,1,3-7.73c.22.85.64,2.55.86,3.4a74.44,74.44,0,0,1-.1,8.58,18.1,18.1,0,0,1-3.28,3.38c-.8-2-1.57-4-2.34-6Z" transform="translate(0 0)"/></g><g id="_8968ebff" data-name="#8968ebff"><path class="cls-116" d="M184.1,363.72c4.19-.81,8.49-1.65,12.11-4.06.74.74,1.48,1.5,2.21,2.26,1.89,1.62,2.27,4.05,2.29,6.42l-.32.61-4.15,1.25-1.48-1.53c-4.79.16-9.59,0-14.37.33C181.65,367.25,182.88,365.49,184.1,363.72Z" transform="translate(0 0)"/></g><g id="_f9dfaeff" data-name="#f9dfaeff"><path class="cls-117" d="M202.76,359.31c3.53,2.29,2.2,8.08-1.91,8.78.91-1.67,1.82-3.34,2.76-5C203.39,362.16,203,360.26,202.76,359.31Z" transform="translate(0 0)"/></g><g id="_682764ff" data-name="#682764ff"><path class="cls-118" d="M248.41,365.24c16.06-1.62,32.17-2.84,48.27-4.16a7.48,7.48,0,0,1-3.6,2c-5.17,1.52-10.52,2.28-15.72,3.65a60.18,60.18,0,0,1,6.12,2.79c.95,4.3-.34,8.8.73,13.09a30.52,30.52,0,0,0,3.43,2.1,63.23,63.23,0,0,0-8.33,2.25c2,.63,3.92,1.24,5.88,1.85q-2.15.87-4.24,1.86c2.29.73,4.62,1.34,6.95,1.94l-3.72,1.9,2.26,1.05.85.63-2.63.28c-7.43-1.57-15.77-.5-23.4,2l-1.45.12c-5.44-2.61-11.15,0-16.74.32a48.54,48.54,0,0,1-11.68-.18c3.1-2.87,7.83-1.17,11.65-1.85L240,395l3.05-1.84-6-.56c-.63-3.56,2.38-5.42,4.85-7.23-3.27-5.33-.84-11.92-2.08-17.78C242.69,367,246.25,367.76,248.41,365.24Z" transform="translate(0 0)"/></g><g id="_792c6eff" data-name="#792c6eff"><path class="cls-119" d="M296.68,361.08c2-.19,4.22-.42,7.27-.45.38,11,.32,22,0,33-5.78,1-11.65,1.44-17.5,2l-2.26-1.05,3.72-1.9c-2.33-.6-4.66-1.21-6.95-1.94q2.1-1,4.24-1.86c-2-.61-3.92-1.22-5.88-1.85a63.23,63.23,0,0,1,8.33-2.25,30.52,30.52,0,0,1-3.43-2.1c-1.07-4.29.22-8.79-.73-13.09a60.18,60.18,0,0,0-6.12-2.79c5.2-1.37,10.55-2.13,15.72-3.65A7.48,7.48,0,0,0,296.68,361.08Z" transform="translate(0 0)"/></g><g id="_c074a6ff" data-name="#c074a6ff"><path class="cls-120" d="M149.31,363.29l1.35-1.79c.56,10.62-2,21.16-.86,31.76a35.15,35.15,0,0,0,5.63,1.06l-2.85,1.28c-.47,1-1,2-1.46,3.06-1.29-2.13-2.79-4.22-3.5-6.62a41.61,41.61,0,0,1,.37-6.6c.47-4.52.84-9.05,1.22-13.57A74.44,74.44,0,0,0,149.31,363.29Z" transform="translate(0 0)"/></g><g id="_431c4fff" data-name="#431c4fff"><path class="cls-121" d="M317.35,364.61c7.47,2.4,15.81,5.13,23.63,7.64.2,5.49,4.56,9.8,4.57,15.27-2.78.37-5.54.79-8.29,1.28.3,1.05.6,2.09.91,3.15l-2.42.24c.86,1.28,1.74,2.56,2.56,3.88a21.16,21.16,0,0,1,1.47,8.52c-.1,1-.24,2-.4,3-.35.63-1.05,1.9-1.41,2.53l-1.07-2.21c.07-.63.22-1.91.29-2.54.56-4.07-.14-8.49-3.14-11.52a36.59,36.59,0,0,0-14.22,0c-.6-4.22-5.05-3.82-8.27-4.45-.11-.5-.32-1.51-.43-2,2.84-.67,5.65-1.43,8.46-2.22-1.62-1.54-4.79-2.39-4.49-5.11a33.54,33.54,0,0,1,1.15-12.61c-.15-.28-.44-.83-.58-1.11Z" transform="translate(0 0)"/></g><g id="_4f1f56ff" data-name="#4f1f56ff"><path class="cls-122" d="M213.05,368.12c11.79-.87,23.57-2,35.36-2.88-2.16,2.52-5.72,1.76-8.64,2.37a61.15,61.15,0,0,1-10.73.59q-2.29,2.21-4.56,4.44c.77.56,1.54,1.12,2.31,1.7.11,2.5.19,5,.26,7.51-1,.75-2.08,1.52-3.11,2.29.07.65.21,1.95.27,2.6,3.11.75,6.23,1.52,9.26,2.55-2.75,1.94-6.21.14-9.23,1-1.74,1.35-.55,3.76-.55,5.6-5.74-.51-10.6-5.49-16.55-3.53l-1.85-.65c-3.06-3.35-7.72-4.38-12.09-4.12l-3.69-1.14c1.51-.41,3-.84,4.55-1.27,1.29-.45,3.27-.53,3.4-2.29,1.23-4.59,1.86-9.31,2.93-13.94C204.62,368.8,208.84,368.47,213.05,368.12Z" transform="translate(0 0)"/><path class="cls-122" d="M155.7,444c1.53.13,3.07.23,4.6.32l-.38.11-1.7.55a114.2,114.2,0,0,0,1.7,21.05c.22,4.75.31,10.26-2.88,14.13C161,468.29,156.76,456,155.7,444Z" transform="translate(0 0)"/></g><g id="_7f53e1ff" data-name="#7f53e1ff"><path class="cls-123" d="M180.39,369c4.78-.34,9.58-.17,14.37-.33l1.48,1.53,4.15-1.25c-1.07,4.63-1.7,9.35-2.93,13.94-.13,1.76-2.11,1.84-3.4,2.29-3.37.27-6.76.23-10.1.75.64-.93.82-1.18,2.16-3.06-1.32-1.66-2.66-3.32-4-5,2-2.33,4.41-4.57,4.77-7.77-2.42-.12-4.85-.24-7.27-.14Z" transform="translate(0 0)"/></g><g id="_5a225bff" data-name="#5a225bff"><path class="cls-124" d="M224.48,372.64q2.27-2.24,4.56-4.44a61.15,61.15,0,0,0,10.73-.59c1.24,5.86-1.19,12.45,2.08,17.78-2.47,1.81-5.48,3.67-4.85,7.23l6,.56L240,395,243,396.9c-3.82.68-8.55-1-11.65,1.85-2.51-1.1-5-2.39-7.7-2.86,0-1.84-1.19-4.25.55-5.6,3-.86,6.48.94,9.23-1-3-1-6.15-1.8-9.26-2.55-.06-.65-.2-1.95-.27-2.6,1-.77,2.07-1.54,3.11-2.29-.07-2.51-.15-5-.26-7.51C226,373.76,225.25,373.2,224.48,372.64Z" transform="translate(0 0)"/></g><g id="_7351daff" data-name="#7351daff"><path class="cls-125" d="M174,372.56c1.92-.77,3.77-1.7,5.64-2.56,2.42-.1,4.85,0,7.27.14-.36,3.2-2.8,5.44-4.77,7.77,1.33,1.64,2.67,3.3,4,5-.56.79-1.13,1.58-1.69,2.38-.26-1-.53-1.93-.79-2.89l-1.83,1.5a58.07,58.07,0,0,1-10.66-3.17c-1.54-1.24-3-2.59-4.44-3.91A19.53,19.53,0,0,1,174,372.56Z" transform="translate(0 0)"/></g><g id="_7460e2ff" data-name="#7460e2ff"><path class="cls-126" d="M444.21,370.2l3.39-.66c13.66-1.36,24,11.56,23.68,24.48.61,8.54-4.8,15.64-8.26,23-.53,1.43-1.66,3.78.29,4.6a46.29,46.29,0,0,0,7.78-1.75c-1.18,1.06-2.29,2.19-3.41,3.31l4.33,1.63a28.6,28.6,0,0,0-2.86,2.4c-1,2.38.77,5.35-.9,7.5-2.32,2.11-5.69,1.93-8.58,1.57.29.95.59,1.89.89,2.85a109.2,109.2,0,0,1-11.43.56A20.09,20.09,0,0,1,444.78,428a154.13,154.13,0,0,1,1.12-30.51c.3-5.21,1.8-11.23-1.56-15.78-3.55-4.46-9.8-4.44-14.61-6.79,2.27,0,4.54-.19,6.81-.37A13.83,13.83,0,0,1,444.21,370.2Z" transform="translate(0 0)"/></g><g id="_cc74b6ff" data-name="#cc74b6ff"><path class="cls-127" d="M117.36,370.47c1.19,4-.82,7.74-1.78,11.52-.2,3.63,1.31,7.23,3.22,10.26,4,1.72,8.54.93,12.76,1.46a23.24,23.24,0,0,1-12.74,1c-3.81-2.49-5-6.82-5.15-11.13a82.77,82.77,0,0,1,2.68-10.86Z" transform="translate(0 0)"/></g><g id="_412240ff" data-name="#412240ff"><path class="cls-128" d="M141.86,371.1l.7.49c.45,1.27.83,2.56,1.22,3.86-3.38,1.56-6.78,3.32-10.59,3.46C136.22,376.45,139.09,373.83,141.86,371.1Z" transform="translate(0 0)"/></g><g id="_5b2b5aff" data-name="#5b2b5aff"><path class="cls-129" d="M341,372.25c4.8,1.45,9.55,3.07,14.34,4.55-1.08.92-2.14,1.85-3.21,2.77,1.28.34,2.57.7,3.86,1.06a54.37,54.37,0,0,1-8.16,2c1.61,3.08,5,4.09,8.1,5l-2.88.79a50.28,50.28,0,0,1,8,1.27c-4.3.75-8.67,1-13,1.53-1.2-.14-2.4-.28-3.59-.44.38-1.11.79-2.21,1.14-3.33C345.54,382.05,341.18,377.74,341,372.25Z" transform="translate(0 0)"/></g><g id="_434b8cff" data-name="#434b8cff"><path class="cls-130" d="M102.42,378.48c3-.28,6-.72,9-1.24.77,2.08,1.57,4.17,2.23,6.3.17,4.31,1.34,8.64,5.15,11.13L118,396c4.16.78,8.38.51,12.58.64a21.45,21.45,0,0,1,2.92,4.52c-.76,1.95-1.45,3.92-2.17,5.88-13.7,11-7.59,13.31-12.44,19.65-3.76-2.7-4.4-8.16-6.78-12.5-13.58,5.07-25.25,3.66-27.58-11.2C86.52,393.31,95.49,385.68,102.42,378.48Z" transform="translate(0 0)"/></g><g id="_5f58d7ff" data-name="#5f58d7ff"><path class="cls-131" d="M158.78,381.75c2.43-2,5.59-2.84,7.93-5,1.46,1.32,2.9,2.67,4.44,3.91-1.12.34-2.23.7-3.34,1.06l1.87,2-3.74.79a71.92,71.92,0,0,0,7.05,2.05c-1.58.18-3.16.38-4.74.59l1.94,2.08a7.52,7.52,0,0,0-5.28,2.11c-1.59.36-3.16.78-4.74,1.15-2.18-.06-4.34-.22-6.51-.36A27.67,27.67,0,0,1,158.78,381.75Z" transform="translate(0 0)"/></g><g id="_6e3067ff" data-name="#6e3067ff"><path class="cls-132" d="M355.32,376.8c10,3.06,19.8,6.55,29.79,9.53-4.62,3.6-11,1.47-16.37,3a52.74,52.74,0,0,1-7.74.47,50.28,50.28,0,0,0-8-1.27l2.88-.79c-3.1-.95-6.49-2-8.1-5a54.37,54.37,0,0,0,8.16-2c-1.29-.36-2.58-.72-3.86-1.06C353.18,378.65,354.24,377.72,355.32,376.8Z" transform="translate(0 0)"/></g><g id="_725fe2ff" data-name="#725fe2ff"><path class="cls-133" d="M167.81,381.75c1.11-.36,2.22-.72,3.34-1.06a58.07,58.07,0,0,0,10.66,3.17l1.83-1.5c.26,1,.53,1.92.79,2.89l-.47.68c-4.48,1.52-9,3-13.77,3.37l-1.94-2.08c1.58-.21,3.16-.41,4.74-.59a71.92,71.92,0,0,1-7.05-2.05l3.74-.79Z" transform="translate(0 0)"/></g><g id="_fb6f7dff" data-name="#fb6f7dff"><path class="cls-134" d="M143.67,386.91c1.44-.51,2.87-1,4.32-1.47a41.61,41.61,0,0,0-.37,6.6c.71,2.4,2.21,4.49,3.5,6.62.5-1,1-2,1.46-3.06l2.85-1.28c1.84,2.92.65,6.49.78,9.7-.4,3.57.47,8-2.43,10.72-3.65,2.57-8,4.07-11.29,7.19-1.13.07-2.25.17-3.37.26-1.63-1.4-3.2-2.86-4.72-4.36a10.17,10.17,0,0,0,2.89-4.52c-1.58,0-3.15,0-4.72.07L130.75,412c11.44-8.77,12.12-12.24,12.88-24.18Z" transform="translate(0 0)"/></g><g id="_a172a0ff" data-name="#a172a0ff"><path class="cls-135" d="M184,385.93c3.34-.52,6.73-.48,10.1-.75-1.52.43-3,.86-4.55,1.27l3.69,1.14,1.1.41c-4.94-1.29-10-.46-14.9.73-4.8,1-9.64,1.91-14.49,2.68a7.52,7.52,0,0,1,5.28-2.11C174.93,388.93,179.48,387.45,184,385.93Z" transform="translate(0 0)"/></g><g id="_f4c2c2ff" data-name="#f4c2c2ff"><path class="cls-136" d="M395.18,385.13l1.95.27c-1.93,1.87-4.55,2.4-7.11,2.77-.2,17.24.17,35.23.34,52.91a24.12,24.12,0,0,1-1.23,8.07c.3-20.79-.28-41.57-.21-62.37C391,386.34,393.1,385.72,395.18,385.13Z" transform="translate(0 0)"/></g><g id="_ef5238ff" data-name="#ef5238ff"><path class="cls-137" d="M385.11,386.33q1.29.27,2.61.45c1.07,16,.25,32.1.72,48.15a13.43,13.43,0,0,1-1.63,8c-1.26-8.64-5.81-16.24-8-24.62-.92-2.94-1.33-6.25-3.53-8.58-1.46-1.62-3.66-2.13-5.64-2.82a87,87,0,0,1,4.42-17l3.05-.39c-2.8-.12-5.6-.23-8.39-.19C374.09,387.8,380.49,389.93,385.11,386.33Z" transform="translate(0 0)"/></g><g id="_59232eff" data-name="#59232eff"><path class="cls-138" d="M193.2,387.59c4.37-.26,9,.77,12.09,4.12a98.57,98.57,0,0,1-11-3.71Z" transform="translate(0 0)"/></g><g id="_cc6578ff" data-name="#cc6578ff"><path class="cls-139" d="M387.72,386.78h1.2c-.07,20.8.51,41.58.21,62.37a29.49,29.49,0,0,1-4.2-9c-1.36-5.12-3.51-10-5.44-14.9-1.11-3.41-2.06-6.86-3.25-10.24-.74-3.67-3.82-5.94-6.58-8.12,2,.69,4.18,1.2,5.64,2.82,2.2,2.33,2.61,5.64,3.53,8.58,2.17,8.38,6.72,16,8,24.62a13.43,13.43,0,0,0,1.63-8C388,418.88,388.79,402.8,387.72,386.78Z" transform="translate(0 0)"/></g><g id="_fdbf45ff" data-name="#fdbf45ff"><path class="cls-140" d="M179.4,388.73c4.87-1.19,10-2,14.9-.73a98.57,98.57,0,0,0,11,3.71l1.85.65,2.19.8c1.75,2.95,5.19,2.72,8.18,2.69l.38.12,1.15,1.9c4.57,1.28,8.92,3.36,13.66,4,.23.38.68,1.14.9,1.53a17.64,17.64,0,0,0-9.6,2c-5.94,2.58-11.79,5.35-17.72,8-8.05,3.83-15.95,8-24.37,11,.08-4.54-1.41-8.89-1.52-13.41C180.47,403.55,179.19,396.18,179.4,388.73Z" transform="translate(0 0)"/></g><g id="_5b1169ff" data-name="#5b1169ff"><path class="cls-141" d="M337.26,388.8c2.75-.49,5.51-.91,8.29-1.28-.35,1.12-.76,2.22-1.14,3.33,1.19.16,2.39.3,3.59.44l-.82.07c-2.36.07-6,.26-9,.59C337.86,390.89,337.56,389.85,337.26,388.8Z" transform="translate(0 0)"/></g><g id="_ff8695ff" data-name="#ff8695ff"><path class="cls-142" d="M164.91,391.41c4.85-.77,9.69-1.64,14.49-2.68-.21,7.45,1.07,14.82,1,22.26.79,8.48,2.76,18,1.53,27-1.79,3-3.4,6.15-3.26,9.78-.3-1.3-.6-2.58-.9-3.87-5.82.21-11.65-.12-17.46.4-8.32,0-18.42-3.16-27.46-2.6a37.23,37.23,0,0,1,8.23-1.81c-1.25-1.45-2.48-2.91-3.71-4.36,1.44-1,2.88-2,4.3-2.95a37.81,37.81,0,0,0-5.6-.73c2.16-3.31,4.18-6.71,6.43-10,3.28-3.12,7.64-4.62,11.29-7.19,2.9-2.72,2-7.15,2.43-10.72-.13-3.21,1.06-6.78-.78-9.7a39.15,39.15,0,0,1-5.19-.93c3.33.1,6.71.19,9.93-.83C161.75,392.19,163.32,391.77,164.91,391.41Z" transform="translate(0 0)"/></g><g id="_f57e53ff" data-name="#f57e53ff"><path class="cls-143" d="M352.16,392.26a199,199,0,0,1,21.92-2.39,87,87,0,0,0-4.42,17c-6.54-2.87-13.18-5.5-19.72-8.38-1.11-1.22-2.16-2.49-3.22-3.74C348.51,393.89,350.31,393,352.16,392.26Z" transform="translate(0 0)"/></g><g id="_354177ff" data-name="#354177ff"><path class="cls-144" d="M131.56,393.71c2-.63,4-1.32,5.88-2.12l4.09.81a29.52,29.52,0,0,0-2.56,6.94c-2,3.06-4.9,5.31-7.61,7.68.72-2,1.41-3.93,2.17-5.88a21.45,21.45,0,0,0-2.92-4.52c-4.2-.13-8.42.14-12.58-.64l.79-1.31A23.24,23.24,0,0,0,131.56,393.71Z" transform="translate(0 0)"/></g><g id="_5f2636ff" data-name="#5f2636ff"><path class="cls-145" d="M207.14,392.36c6-2,10.81,3,16.55,3.53,2.73.47,5.19,1.76,7.7,2.86a48.54,48.54,0,0,0,11.68.18c5.59-.3,11.3-2.93,16.74-.32-9.27.84-18.55,2.18-27.86,2.19-4.14-1.65-9.76-3.44-14.44-4.95-2.71-1-5.44-1.84-8.18-2.69Z" transform="translate(0 0)"/></g><g id="_d87d9fff" data-name="#d87d9fff"><path class="cls-146" d="M335.75,392.19l3.14-.31-.88,1.33c4,1.66,7.91,3.63,11.93,5.3,6.54,2.88,13.18,5.51,19.72,8.38,2.76,2.18,5.84,4.45,6.58,8.12a27.59,27.59,0,0,0-15.73-10.07c-6.6-2.91-14.78-6.45-22.2-8.87C337.49,394.75,336.61,393.47,335.75,392.19Z" transform="translate(0 0)"/></g><g id="_f09045ff" data-name="#f09045ff"><path class="cls-147" d="M338.89,391.88c2.75-.31,5.52-.42,8.29-.52l5,.9c-1.85.75-3.65,1.63-5.44,2.51,1.06,1.25,2.11,2.52,3.22,3.74-4-1.67-7.9-3.64-11.93-5.3Z" transform="translate(0 0)"/></g><g id="_d8a465ff" data-name="#d8a465ff"><path class="cls-148" d="M209.33,393.16c2.74.85,5.47,1.72,8.18,2.69C214.52,395.88,211.08,396.11,209.33,393.16Z" transform="translate(0 0)"/></g><g id="_fa9c4cff" data-name="#fa9c4cff"><path class="cls-149" d="M304.51,394.75c5.13,0,10.19-1.1,15.32-.94,2.95.24,5.91.55,8.88.58-1.79,3.75-2.74,7.79-4,11.73-3.6,6.2-5.87,13.09-9.54,19.27-1.61,3.31-4.84,6.65-3.38,10.6,1.44,4.22,2.74,8.48,4.11,12.73a114.49,114.49,0,0,0,4.34,14.12c-7.24.87-14.72,3.07-20,8.32a50.58,50.58,0,0,0-6.92,10c.53-4.71,1.1-9.45,2.88-13.89-.2-18.08-.09-36.21-.1-54.31-.15-4.17.47-8.43-.47-12.52-1.84-2.1-5-1.41-7.42-1.36l.25-1.72a95.15,95.15,0,0,1,10.67-.89C301,396.39,303.46,397,304.51,394.75Z" transform="translate(0 0)"/></g><g id="_e89795ff" data-name="#e89795ff"><path class="cls-150" d="M319.83,393.81a36.59,36.59,0,0,1,14.22,0c-4.45,3-5.53,8.67-9.36,12.27,1.28-3.94,2.23-8,4-11.73C325.74,394.36,322.78,394.05,319.83,393.81Z" transform="translate(0 0)"/></g><g id="_fa6588ff" data-name="#fa6588ff"><path class="cls-151" d="M139,399.34q2.06-2.94,4-5.91C143.27,402,136.9,407,130.75,412l1.82,1.39c1.57,0,3.14-.07,4.72-.07a10.17,10.17,0,0,1-2.89,4.52c1.52,1.5,3.09,3,4.72,4.36,1.12-.09,2.24-.19,3.37-.26-2.25,3.25-4.27,6.65-6.43,10-5.3.77-12.09-1.58-16,3.14-3.62,3.83-5.4,9.14-9.46,12.58-6.34,3.77-13.87,1.69-20.81,2-2.12-.2-1-2.85.59-2.92,4.59-.89,9.61-1.78,12.83-5.54,3.17-2.75,3-8,7-9.94a60.77,60.77,0,0,1,11.15-4.57,16.23,16.23,0,0,1,6.26-16c1.27-1.19,2.51-2.39,3.72-3.63C134.07,404.65,137,402.4,139,399.34Z" transform="translate(0 0)"/></g><g id="_d688e1ff" data-name="#d688e1ff"><path class="cls-152" d="M324.69,406.12c3.83-3.6,4.91-9.26,9.36-12.27,3,3,3.7,7.45,3.14,11.52-1.64.87-3.67,1.51-4.49,3.35-1.69,3.56.34,7.94,3.7,9.67a22.16,22.16,0,0,0,6.84-.34c-2.28,1.57-4.37,3.37-6.49,5.14a60.58,60.58,0,0,0,5.92,4.53c-2.48.25-5.59-.06-6.69,2.71l1.74.58c.87,1.95,2.59,4.12,1.66,6.34-1.8,3.3-4.95,5.53-7.75,7.91a43.83,43.83,0,0,1-11.21-1.75c-.95,2.78-2.12,5.61-1.78,8.62-.88-1.18-1.84-2.28-2.76-3.41-1.37-4.25-2.67-8.51-4.11-12.73-1.46-3.95,1.77-7.29,3.38-10.6C318.82,419.21,321.09,412.32,324.69,406.12Z" transform="translate(0 0)"/></g><g id="_dfa769ff" data-name="#dfa769ff"><path class="cls-153" d="M217.89,396c4.71,1.54,9.45,3,14.06,4.83l.75,1c-4.74-.6-9.09-2.68-13.66-4Z" transform="translate(0 0)"/></g><g id="_792e40ff" data-name="#792e40ff"><path class="cls-154" d="M268,396.72c5.53-.54,11.16-1.82,16.64-.21-7.78.88-15.58,1.65-23.4,2A23.59,23.59,0,0,1,268,396.72Z" transform="translate(0 0)"/></g><g id="_c381e8ff" data-name="#c381e8ff"><path class="cls-155" d="M338.31,396.07c7.42,2.39,14.64,5.57,22.2,8.87a48.62,48.62,0,0,1-8.8-2.27,9,9,0,0,0-1.32,6.62c1.42-1.21,2.26-3.93,4.57-3.28,1.47.63,2.43,2,3.59,3.05-1.77,2.49-4.51,3-7.36,2.46-.35,1.17-.7,2.35-1,3.54a43.83,43.83,0,0,1,6.08,1.7c1.6,4.76,1.68,9.89,1.29,14.85l1.68,1c-2.25.42-4.48.93-6.72,1.37q-1.12-3.28-2.29-6.56c-3.25,1.16-6.5,2.36-9.85,3.19l-2.62.38-1.74-.58c1.1-2.77,4.21-2.46,6.69-2.71a60.58,60.58,0,0,1-5.92-4.53c2.12-1.77,4.21-3.57,6.49-5.14l1.29-.65a84.19,84.19,0,0,1,3-8.6,39.45,39.45,0,0,1-4.71-6.28c-1,.69-2,1.37-3.05,2.07A21.16,21.16,0,0,0,338.31,396.07Z" transform="translate(0 0)"/></g><g id="_bfc8d7ff" data-name="#bfc8d7ff"><path class="cls-156" d="M431,397.61c5-.6,9.94.26,14.91-.13A154.13,154.13,0,0,0,444.78,428a20.09,20.09,0,0,0,4.35,11.67,94,94,0,0,0-.08,20.33c.84,7.7,2.89,15.21,3.44,22.95,1,7.56.07,15.17.42,22.76v.62c-1.31-6.33.09-12.82-1-19.17C437,505.05,412.59,512,390,511.35c.06-2.46.15-4.92.2-7.37v-.87c4.74-1.72,10.55-2.29,14.08-6.17,1.28-4.79-2.28-9.19-3.25-13.77-1.58-6-4.74-13.7-7.33-19.86l.23-1.05c.61-5.44,5.58-8.34,10-10.5,4.24,2,7.79,5.46,12.49,6.54,7,2.37,14.45.84,21.16-1.64a3.84,3.84,0,0,0,2.66-2.57c-6.22,2.06-12.64,4.07-19.29,3.17-5.52-.5-11.11-2.81-14.72-7.14,10.5-7.53,23.55-12.31,34.85-19.15-18.05,3.63-32.8,17.87-49.33,25.78a39.25,39.25,0,0,1-2.62-7.6,24.12,24.12,0,0,0,1.23-8.07c-.13-8-.16-16-.25-23.94,4.52-4.72,10.28-7.89,15.82-11.24C413.71,401.75,422.14,398.44,431,397.61Z" transform="translate(0 0)"/></g><g id="_fcb049ff" data-name="#fcb049ff"><path class="cls-157" d="M255.37,400.2c11-1.31,22-1.86,33-2.81l-.25,1.72a72.38,72.38,0,0,0-7.82,2.31c-.86,3.8-.29,7.74-.37,11.61.06,29.66,0,59.33,0,89-.48,3.89,3.51,6.41,3.45,10.21.05,4-4.24,5.9-5.53,9.38a43.68,43.68,0,0,1-5.51,2.21c-4.95.69-9.92,1.16-14.9,1.53l-2.07-.58c2.11-.5,4.22-.95,6.36-1.26l-2.52-2.28,6.81-.72c-3.77-.27-7.65-.84-10.51-3.55,1.69-1.22,3.42-2.4,5.16-3.56.72-17.45,0-34.93.34-52.4-.29-19.87.25-39.75-.26-59.62C259,401,257.18,400.56,255.37,400.2Z" transform="translate(0 0)"/></g><g id="_fba64aff" data-name="#fba64aff"><path class="cls-158" d="M288.16,399.11c2.45-.05,5.58-.74,7.42,1.36.94,4.09.32,8.35.47,12.52,0,18.1-.1,36.23.1,54.31-1.78,4.44-2.35,9.18-2.88,13.89-2.09,9.73-2.63,19.81-6,29.24-1.93,4.5-4.76,9.11-9.4,11.18,1.29-3.48,5.58-5.4,5.53-9.38.06-3.8-3.93-6.32-3.45-10.21,0-29.66.06-59.33,0-89,.08-3.87-.49-7.81.37-11.61A72.38,72.38,0,0,1,288.16,399.11Z" transform="translate(0 0)"/></g><g id="_fdbc47ff" data-name="#fdbc47ff"><path class="cls-159" d="M240.44,402.25l1.28-1.8c4.55,0,9.1.05,13.65-.25,1.81.36,3.61.78,5.42,1.18.51,19.87,0,39.75.26,59.62-.37,17.47.38,34.95-.34,52.4-1.74,1.16-3.47,2.34-5.16,3.56,2.86,2.71,6.74,3.28,10.51,3.55l-6.81.72,2.52,2.28c-2.14.31-4.25.76-6.36,1.26-3.58.29-7.19.28-10.73.9s-6.59,2.1-10,3l-1.48.43c.4-35,0-70,.12-105.06-.42-7.58,1.25-15.15.39-22.71A50.24,50.24,0,0,1,240.44,402.25Z" transform="translate(0 0)"/></g><g id="_de86b3ff" data-name="#de86b3ff"><path class="cls-160" d="M339.78,404.59c1-.7,2-1.38,3.05-2.07a39.45,39.45,0,0,0,4.71,6.28,84.19,84.19,0,0,0-3,8.6l-1.29.65a22.16,22.16,0,0,1-6.84.34c-3.36-1.73-5.39-6.11-3.7-9.67.82-1.84,2.85-2.48,4.49-3.35-.07.63-.22,1.91-.29,2.54-.88.59-1.77,1.17-2.65,1.74-1.21,6,6.63,8.46,9.43,4.13,1.22-2.19-.13-4.41-1-6.42l-3.33.23C339.54,406.59,339.68,405.59,339.78,404.59Z" transform="translate(0 0)"/></g><g id="_b77decff" data-name="#b77decff"><path class="cls-161" d="M350.39,409.29a9,9,0,0,1,1.32-6.62,48.62,48.62,0,0,0,8.8,2.27A27.59,27.59,0,0,1,376.24,415c1.19,3.38,2.14,6.83,3.25,10.24-1-1.07-2-2.1-3-3.13-.37,1.71-.75,3.41-1.14,5.12-2.92-3.43,1.44-7.48-.42-11.17-1.2,2.37-2.87,4.48-3.9,6.94-.81,3.11,2.31,5.14,2.89,7.91-.52,1.42-1.26,2.77-1.76,4.21.22,3.45,1.53,6.72,2.31,10.08,1.59.2,3.18.41,4.78.64a82.23,82.23,0,0,1-6.61,6.46,63,63,0,0,0-16.69.51c-3.09.62-5.07-2.25-7-4.07l.85-.78c1.46-.63,2.93-1.25,4.44-1.75,4.73.62,9.47-.35,14.18-.71a23.61,23.61,0,0,0-8.57-.75c2.84-.37,5.71-.45,8.57-.56-.32-4-.66-8-1-12a81.35,81.35,0,0,0-8.27.43l-1.68-1c.39-5,.31-10.09-1.29-14.85a43.83,43.83,0,0,0-6.08-1.7c.34-1.19.69-2.37,1-3.54,2.85.53,5.59,0,7.36-2.46-1.16-1.05-2.12-2.42-3.59-3.05C352.65,405.36,351.81,408.08,350.39,409.29Z" transform="translate(0 0)"/></g><g id="_f47056ff" data-name="#f47056ff"><path class="cls-162" d="M224,405.39a17.64,17.64,0,0,1,9.6-2c-.83,14.19-.21,28.41-.46,42.62.09,27.84-.1,55.68.09,83.51-6.45-12.14-5.7-26.26-7-39.53-1-8.31-4.25-16.5-10.06-22.64-3.43-3.48-7.51-6.2-11.4-9.13l2.95.46c-.07-8.17.23-16.34.25-24.51l-3.63-3.5c1.56-1.26,4.33-2.12,3.85-4.63.46-2.58-2.47-3.21-4.09-4.39,2-2.47,3.75-5.22,6.11-7.39a57.62,57.62,0,0,1,13-6.83C223.37,406.9,223.79,405.9,224,405.39Z" transform="translate(0 0)"/></g><g id="_f68251ff" data-name="#f68251ff"><path class="cls-163" d="M206.28,413.35c5.93-2.61,11.78-5.38,17.72-8-.21.51-.63,1.51-.85,2a57.62,57.62,0,0,0-13,6.83c-2.36,2.17-4.08,4.92-6.11,7.39,1.62,1.18,4.55,1.81,4.09,4.39.48,2.51-2.29,3.37-3.85,4.63l3.63,3.5c0,8.17-.32,16.34-.25,24.51l-2.95-.46c-3.51-2-7-4-10.66-5.65-4.28-2.14-10.32-2-12.64-6.87-.93.71-1.86,1.41-2.78,2.14-.14-3.63,1.47-6.77,3.26-9.78,1.07-4.46-.1-9.1,0-13.63C190.33,421.4,198.23,417.18,206.28,413.35Z" transform="translate(0 0)"/></g><g id="_f58d45ff" data-name="#f58d45ff"><path class="cls-164" d="M339.38,407.59l3.33-.23c5.93,9.82-9.21,12.1-8.46,2.29.88-.57,1.77-1.15,2.65-1.74l1.07,2.21C338.33,409.49,339,408.22,339.38,407.59Z" transform="translate(0 0)"/></g><g id="_a578f2ff" data-name="#a578f2ff"><path class="cls-165" d="M375,416.07c1.86,3.69-2.5,7.74.42,11.17.39-1.71.77-3.41,1.14-5.12,1,1,2,2.06,3,3.13,1.93,4.92,4.08,9.78,5.44,14.9a29.49,29.49,0,0,0,4.2,9c.89,4.29,3.14,8.24,4.78,13.11l-.23,1.05c-.56-1.16-1.16-2.29-1.76-3.41.68,6,3,11.7,4.61,17.53a3.64,3.64,0,0,0,3.71,3.16c.25.85.51,1.71.77,2.58-1.26.6-2.41,2.05-3.93,1.67-5.5-1-10.71-3.16-16.22-4.11,1.06-3.05,2.78-5.81,3.95-8.8a30.35,30.35,0,0,0-4.14-14.64c-1.51-3-5.08-3.92-8-5a82.23,82.23,0,0,0,6.61-6.46c-1.6-.23-3.19-.44-4.78-.64-.78-3.36-2.09-6.63-2.31-10.08.5-1.44,1.24-2.79,1.76-4.21-.58-2.77-3.7-4.8-2.89-7.91C372.09,420.55,373.76,418.44,375,416.07Z" transform="translate(0 0)"/></g><g id="_625ad8ff" data-name="#625ad8ff"><path class="cls-166" d="M471.09,419.84c1.56-.68,3.11-1.39,4.72-1.95,3.5,0,7.13.32,10.11,2.32,3.35,4.12,4.91,9.47,8.74,13.21,2.87,2.94,7.2,3.17,11,4-1.17,1.27-2.44,2.45-3.52,3.8a24.61,24.61,0,0,1-14,.52c-8.95-2.4-18.31-4-27.57-2.65-.3-1-.6-1.9-.89-2.85,2.89.36,6.26.54,8.58-1.57,1.67-2.15-.12-5.12.9-7.5a28.6,28.6,0,0,1,2.86-2.4l-4.33-1.63C468.8,422,469.91,420.9,471.09,419.84Z" transform="translate(0 0)"/></g><g id="_fffdffff" data-name="#fffdffff"><path class="cls-167" d="M340.34,430.63c3.35-.83,6.6-2,9.85-3.19q1.17,3.27,2.29,6.56c2.24-.44,4.47-.95,6.72-1.37a81.35,81.35,0,0,1,8.27-.43c.3,4,.64,8,1,12-5.93,0-12.42.73-18.62,3.77a53.41,53.41,0,0,1-13.06-2.51c1-1.63,2.05-3.27,3.15-4.85,1.1-.86,2.23-1.68,3.35-2.51Q341.81,434.35,340.34,430.63Z" transform="translate(0 0)"/></g><g id="_c38ed2ff" data-name="#c38ed2ff"><path class="cls-168" d="M337.72,431l2.62-.38q1.47,3.72,2.91,7.47c-1.12.83-2.25,1.65-3.35,2.51-3.62,2.25-5.88,5.94-7.58,9.74-.19-1.71-.44-3.39-.69-5.09,2.8-2.38,5.95-4.61,7.75-7.91C340.31,435.13,338.59,433,337.72,431Z" transform="translate(0 0)"/></g><g id="_d3dcebff" data-name="#d3dcebff"><path class="cls-169" d="M424.52,437.58c5.4-2.47,10.39-6.45,16.56-6.61-10.92,6.7-23.94,11.36-34.85,19.15,3.61,4.33,9.2,6.64,14.72,7.14,6.65.9,13.07-1.11,19.29-3.17a3.84,3.84,0,0,1-2.66,2.57c-6.71,2.48-14.19,4-21.16,1.64-4.7-1.08-8.25-4.5-12.49-6.54-4.44,2.16-9.41,5.06-10,10.5a45.6,45.6,0,0,0-2.16-5.51C402.73,451.71,412.91,442.78,424.52,437.58Z" transform="translate(0 0)"/></g><g id="_fb7aaaff" data-name="#fb7aaaff"><path class="cls-170" d="M120,435c3.93-4.72,10.72-2.37,16-3.14a37.81,37.81,0,0,1,5.6.73c-1.42,1-2.86,2-4.3,2.95,1.23,1.45,2.46,2.91,3.71,4.36a38.92,38.92,0,0,0-10,2.5c-8,5-16,13.92-27,12.41-5.07,0-10.81-1.24-14.24-5.23,6.94-.31,14.47,1.77,20.81-2C114.64,444.17,116.42,438.86,120,435Z" transform="translate(0 0)"/></g><g id="_36386eff" data-name="#36386eff"><path class="cls-171" d="M449.13,439.66a109.2,109.2,0,0,0,11.43-.56c9.26-1.32,18.62.25,27.57,2.65a24.61,24.61,0,0,0,14-.52c-.09,6.54-3.74,12.32-4.18,18.79.15,6,4,11.36,8.77,14.77,3,1.89,6.8,1.85,9.75,3.85,7.2,4.7,11,13.61,10.37,22.07l-2.7-.25c.14.81.43,2.43.57,3.25-48.52-33.32-37.38-4.2-50.43-60.61-3.46,19.88,0,40.11-1.65,60.12.54,8.37,1.7,17.93-2.17,26.43-.75-5.62,2.25-11,1.14-16.58-1.8-13,.49-27-2.18-40.45a14.39,14.39,0,0,0-1.91,5.28c-.31-.77-.92-2.32-1.22-3.1-1.94,3.3.49,7.37-1.93,10.52A128.68,128.68,0,0,0,455,476.1c-1.26,5.22,1.47,10.49-.1,15.63.26.76.52,1.52.79,2.29l-1,1.29c.17.51.35,1,.53,1.53a59.07,59.07,0,0,1-2.37,8.86c-.35-7.59.56-15.2-.42-22.76-.55-7.74-2.6-15.25-3.44-22.95A94,94,0,0,1,449.13,439.66Z" transform="translate(0 0)"/></g><g id="_f3e6fbff" data-name="#f3e6fbff"><path class="cls-172" d="M332.32,450.35c1.7-3.8,4-7.49,7.58-9.74-1.1,1.58-2.12,3.22-3.15,4.85A53.41,53.41,0,0,0,349.81,448l-.85.78c-.72,1.38-1.19,3,0,4.35,3,1.1,6.24.84,9.36.77a180.6,180.6,0,0,0,12.83,20.07c2.27,2.38,5.18,4.69,8.68,4.42a50.62,50.62,0,0,1-8.73,7.47q1.45,3.92,2.81,7.88c-2.5,1-5,2-7.53,2.84-.87.12-1.74.24-2.61.33-.54-2.32-1.16-4.62-1.83-6.9a72.08,72.08,0,0,1-17.8,1.84c-.55-4.2-.89-8.42-1.11-12.65,5.89,0,12.37,0,18.57-2.37,1.81-1.08,4.24-1.9,5.17-3.95.77-2.34-1.38-4.43-3.66-4.32-7.55-.43-15.37,1.91-22.66-1-2.62-1.6-5.32-3.46-6.58-6.37C332,457.82,332.25,454,332.32,450.35Z" transform="translate(0 0)"/></g><g id="_3c417bff" data-name="#3c417bff"><path class="cls-173" d="M131,442.43l1.82-.69c6.44-.64,12.72,1.2,19.07,1.9-.54,2.5-1.14,5-1.7,7.5-2.51,9.11-7.44,18.94-11.15,28.1-4.18,2.75-4.22,8.26-5.58,12.59-.29-1.39-.6-2.78-.91-4.15-1.21,2.35-1.06,5-.84,7.53l-1.38.51c-.72,2.1-1.46,4.21-2.23,6.3.31-7.24,3.88-14.69,1-21.78-1.94,3.62-2.24,7.75-2.55,11.77-.65-4.06-1.25-8.13-1.56-12.23.68,1.46,1.32,2.94,2,4.42,0-1.91,0-3.8,0-5.69l-1.91-.15c.28-5.07,3.22-10.34,1.09-15.27C127.2,456.08,129.41,449.32,131,442.43Z" transform="translate(0 0)"/></g><g id="_cc7addff" data-name="#cc7addff"><path class="cls-174" d="M320.42,443.51a43.83,43.83,0,0,0,11.21,1.75c.25,1.7.5,3.38.69,5.09-.07,3.62-.33,7.47,1.51,10.76,1.26,2.91,4,4.77,6.58,6.37.15,1.06.25,2.34,1.53,2.66,3.08,1.36,6.58,1,9.82.56-.1.63-.31,1.89-.41,2.52-1.39.42-2.78.85-4.16,1.29l1.52.89c-1.73.35-3.45.71-5.15,1.16a3.4,3.4,0,0,0-2.91,4.4c1,4,.21,8.36,2,12.18a43.62,43.62,0,0,1,1.82,6.46c-4.61,4.39-3.3,12,.52,16.51,2.18,1,4.71.68,7.06.84-3.52,2-7.56,1.73-11.44,1.66-.15-1.29-.28-2.57-.39-3.85l-1.44-1.48c-4.22-14.85-10.68-29.88-15.54-45a34.57,34.57,0,0,0-4.64-16.12C318.3,449.12,319.47,446.29,320.42,443.51Z" transform="translate(0 0)"/></g><g id="_fa953aff" data-name="#fa953aff"><path class="cls-175" d="M151.91,443.64l3.79.38c1.06,12,5.31,24.27,1.34,36.16-3.81,6.08-5.17,13.45-5.47,20.52h-1.1c-.42-16.51.05-33-.26-49.55C150.77,448.64,151.37,446.14,151.91,443.64Z" transform="translate(0 0)"/></g><g id="_f6773aff" data-name="#f6773aff"><path class="cls-176" d="M160.3,444.34c5.81-.52,11.64-.19,17.46-.4.3,1.29.6,2.57.9,3.87.92-.73,1.85-1.43,2.78-2.14,2.32,4.89,8.36,4.73,12.64,6.87l-2,1.26,1,1.4A20.68,20.68,0,0,0,192,463c.22,16.39-.1,32.79.13,49.19,1.2.35,2.41.72,3.61,1.09l-1.59,1.76,2.75,2.6a41.76,41.76,0,0,0-7.5.14c-5.95-1.57-11.37-4.9-17.15-7.06-1.83-1-4.57-1.36-5.18-3.69,1.48-21.23,11.45-41.26,10.57-62.81-5.87,1-11.82.58-17.73.22Z" transform="translate(0 0)"/></g><g id="_424988ff" data-name="#424988ff"><path class="cls-177" d="M158.22,445l1.7-.55c5.91.36,11.86.81,17.73-.22.88,21.55-9.09,41.58-10.57,62.81-2.79,5.46-2.49,11.91-3.91,17.81l-2.15.49c-1-.1-2.78-.28-4.71-.58a91.43,91.43,0,0,1-4.74-24.06c.3-7.07,1.66-14.44,5.47-20.52,3.19-3.87,3.1-9.38,2.88-14.13A114.2,114.2,0,0,1,158.22,445Z" transform="translate(0 0)"/></g><g id="_ac80ceff" data-name="#ac80ceff"><path class="cls-178" d="M354.25,446.22a30.26,30.26,0,0,1,5.61-1.46,23.61,23.61,0,0,1,8.57.75C363.72,445.87,359,446.84,354.25,446.22Z" transform="translate(0 0)"/></g><g id="_e2849fff" data-name="#e2849fff"><path class="cls-179" d="M315.88,448.72c.92,1.13,1.88,2.23,2.76,3.41a34.57,34.57,0,0,1,4.64,16.12,40.61,40.61,0,0,1-3.06-5.41A114.49,114.49,0,0,1,315.88,448.72Z" transform="translate(0 0)"/></g><g id="_a883daff" data-name="#a883daff"><path class="cls-180" d="M348.92,453.1c-1.15-1.32-.68-3,0-4.35,2,1.82,3.93,4.69,7,4.07a63,63,0,0,1,16.69-.51c2.92,1.06,6.49,1.94,8,5a30.35,30.35,0,0,1,4.14,14.64c-1.17,3-2.89,5.75-3.95,8.8l-1,.9a56.23,56.23,0,0,0-5.46,4.76c-.24,2.7.4,5.4.22,8.11a34.94,34.94,0,0,1-3.88,3.62,8.43,8.43,0,0,1-4.39-1.57c2.53-.89,5-1.88,7.53-2.84q-1.35-4-2.81-7.88a50.62,50.62,0,0,0,8.73-7.47c4.93-6.73,3.56-17-3.19-22-5.4-3.48-12.21-2.81-18.32-2.49C355.16,453.94,351.9,454.2,348.92,453.1Z" transform="translate(0 0)"/></g><g id="_f3663dff" data-name="#f3663dff"><path class="cls-181" d="M192.09,453.8l2-1.26c3.65,1.69,7.15,3.68,10.66,5.65,3.89,2.93,8,5.65,11.4,9.13-1.93.57-5.19,1.55-3.6,4.22,2.48,10.34-.64,22.19.39,33.41,0,5.23-.28,10.59,1.28,15.66l-4.39,2.15,1.83,2c-1.52.34-3,.69-4.56,1a135.19,135.19,0,0,1-17.68-7.93,41.76,41.76,0,0,1,7.5-.14l-2.75-2.6,1.59-1.76c-1.2-.37-2.41-.74-3.61-1.09-.23-16.4.09-32.8-.13-49.19a20.68,20.68,0,0,1,1.08-7.81Z" transform="translate(0 0)"/></g><g id="_fefffeff" data-name="#fefffeff"><path class="cls-182" d="M358.28,453.87c6.11-.32,12.92-1,18.32,2.49,6.75,5,8.12,15.27,3.19,22-3.5.27-6.41-2-8.68-4.42A179.39,179.39,0,0,1,358.28,453.87Z" transform="translate(0 0)"/></g><g id="_f3f8f9ff" data-name="#f3f8f9ff"><path class="cls-183" d="M139.06,479.24c3-7.91,7.15-15.38,9.66-23.49.62,6.41.08,12.85.22,19.27-.19,6.91.5,13.84-.14,20.74l-2.35.76c-.35,1.1-.7,2.21-1,3.32-.34-1.32-.68-2.63-1-3.95l-3.21-1.26-2,1c.1-.9.2-1.79.29-2.68l-2.17,1.58c-.45-1.32-.89-2.64-1.34-3.95C136.81,486.77,137.88,483,139.06,479.24Z" transform="translate(0 0)"/></g><g id="_9a83dbff" data-name="#9a83dbff"><path class="cls-184" d="M391.92,459.9c.6,1.12,1.2,2.25,1.76,3.41,2.3,5.71,4.88,11.33,6.56,17.28a3.64,3.64,0,0,1-3.71-3.16C395,471.6,392.6,465.94,391.92,459.9Z" transform="translate(0 0)"/></g><g id="_f67f31ff" data-name="#f67f31ff"><path class="cls-185" d="M300.19,471.16c5.31-5.25,12.79-7.45,20-8.32a40.61,40.61,0,0,0,3.06,5.41,37.39,37.39,0,0,1-2.95,12.62c.87,2.3,1.87,4.67,1.64,7.2-.17,3.76-3.35,6.87-2.63,10.76.49,5.14.69,10.3,1,15.46q-3.28,1-6.54,2.11c4.66,3.41,10.22,4.89,15.84,5.79l-1.43,1.89c2.66.09,5.31.22,8,.25-13.29,1.84-26.63,3.26-39.92,5.06-7.54-.58-15,.85-22.48.9-1.79-.6-3.57-1.24-5.36-1.83,1.89-1,4.06-2.12,3.94-4.64a43.68,43.68,0,0,0,5.51-2.21c4.64-2.07,7.47-6.68,9.4-11.18,3.35-9.43,3.89-19.51,6-29.24A50.58,50.58,0,0,1,300.19,471.16Z" transform="translate(0 0)"/></g><g id="_34356aff" data-name="#34356aff"><path class="cls-186" d="M126.14,463.09c2.13,4.93-.81,10.2-1.09,15.27l1.91.15c0,1.89,0,3.78,0,5.69-.67-1.48-1.31-3-2-4.42.31,4.1.91,8.17,1.56,12.23.31-4,.61-8.15,2.55-11.77,2.89,7.09-.68,14.54-1,21.78.77-2.09,1.51-4.2,2.23-6.3l1.38-.51c-.22-2.55-.37-5.18.84-7.53.31,1.37.62,2.76.91,4.15,1.36-4.33,1.4-9.84,5.58-12.59-1.18,3.75-2.25,7.53-3.08,11.38C134.24,501,129.1,510.47,123,519c-.84,1-1.63,2.33-3,2.67l-2.78-1.51A447.52,447.52,0,0,1,126.14,463.09Z" transform="translate(0 0)"/></g><g id="_ef583fff" data-name="#ef583fff"><path class="cls-187" d="M212.54,471.54c-1.59-2.67,1.67-3.65,3.6-4.22,5.81,6.14,9,14.33,10.06,22.64,1.33,13.27.58,27.39,7,39.53a18.14,18.14,0,0,1-1,7.34c-8.41-3.61-16.87-7.16-25.12-11.11,1.53-.31,3-.66,4.56-1l-1.83-2,4.39-2.15c-1.56-5.07-1.25-10.43-1.28-15.66C211.92,494.34,215,482.31,212.54,471.54Z" transform="translate(0 0)"/></g><g id="_f37134ff" data-name="#f37134ff"><path class="cls-188" d="M323.28,468.25c4.71,14.73,11.17,29.78,15.54,45l1.44,1.48c.11,1.28.24,2.56.39,3.85a23.92,23.92,0,0,0,7.3.93c-1.39.21-2.77.44-4.15.69a15.24,15.24,0,0,0,8.46,2.11c-5.36.66-10.69,1.43-16.06,2-2.66,0-5.31-.16-8-.25l1.43-1.89c-5.62-.9-11.18-2.38-15.84-5.79q3.26-1.08,6.54-2.11c-.33-5.16-.53-10.32-1-15.46-.72-3.89,2.46-7,2.63-10.76.23-2.53-.77-4.9-1.64-7.2A37.39,37.39,0,0,0,323.28,468.25Z" transform="translate(0 0)"/></g><g id="_b17ecfff" data-name="#b17ecfff"><path class="cls-189" d="M341.94,470.14c-1.28-.32-1.38-1.6-1.53-2.66,7.29,3,15.11.62,22.66,1,2.28-.11,4.43,2,3.66,4.32-.93,2-3.36,2.87-5.17,3.95a19.42,19.42,0,0,1,3-6.07c-4.14-1.76-8.6-.86-12.83,0C348.52,471.16,345,471.5,341.94,470.14Z" transform="translate(0 0)"/></g><g id="_b473e6ff" data-name="#b473e6ff"><path class="cls-190" d="M351.76,470.7c4.23-.83,8.69-1.73,12.83,0a19.42,19.42,0,0,0-3,6.07,31.32,31.32,0,0,1-7,1.8c-3.45-1.58-7.27-1.9-11-2,1.7-.45,3.42-.81,5.15-1.16l-1.52-.89c1.38-.44,2.77-.87,4.16-1.29C351.45,472.59,351.66,471.33,351.76,470.7Z" transform="translate(0 0)"/></g><g id="_3c427eff" data-name="#3c427eff"><path class="cls-191" d="M467.5,477.9a14.39,14.39,0,0,1,1.91-5.28c2.61,12.91.41,27,2.18,40.45,1.11,5.62-1.89,11-1.14,16.58-.67,2.33-1.2,5.76-3.78,6.62-1.14.12-2.28.2-3.41.25l-.9-.45a130.65,130.65,0,0,1-8.07-23.31c-.5-2.14-1-4.28-1.37-6.44v-.62a59.07,59.07,0,0,0,2.37-8.86c-.18-.51-.36-1-.53-1.53l1-1.29c-.27-.77-.53-1.53-.79-2.29,1.57-5.14-1.16-10.41.1-15.63a128.68,128.68,0,0,1,9.32,9.22c2.42-3.15,0-7.22,1.93-10.52C466.58,475.58,467.19,477.13,467.5,477.9Z" transform="translate(0 0)"/></g><g id="_b67ed3ff" data-name="#b67ed3ff"><path class="cls-192" d="M340.65,481a3.4,3.4,0,0,1,2.91-4.4c3.73.14,7.55.46,11,2a73.35,73.35,0,0,1-11.57.57c.22,4.23.56,8.45,1.11,12.65A72.08,72.08,0,0,0,361.9,490c.67,2.28,1.29,4.58,1.83,6.9-1.55-1.31-2.9-2.82-4.37-4.19-5.56-.17-11.1,1.74-16.67.45C340.86,489.32,341.67,485,340.65,481Z" transform="translate(0 0)"/></g><g id="_9468efff" data-name="#9468efff"><path class="cls-193" d="M379.85,481.63l1-.9c5.51.95,10.72,3.12,16.22,4.11,1.52.38,2.67-1.07,3.93-1.67,1,4.58,4.53,9,3.25,13.77-3.53,3.88-9.34,4.45-14.08,6.17-3.15-1.68-6.78-2.19-9.83-4.1.33-5.46,3.15-10.32,3.61-15.74-.84.42-1.68.86-2.51,1.3Z" transform="translate(0 0)"/></g><g id="_a26bf3ff" data-name="#a26bf3ff"><path class="cls-194" d="M374.39,486.39a56.23,56.23,0,0,1,5.46-4.76l1.6,2.94c.83-.44,1.67-.88,2.51-1.3-.46,5.42-3.28,10.28-3.61,15.74,3,1.91,6.68,2.42,9.83,4.1V504l-.66,0c-5.77-.23-10.94,2.48-16.17,4.47-1.78.18-3.57.31-5.36.45,1.49-1.35,3-2.69,4.45-4a25,25,0,0,0-4.64-3.13c-.17-.46-.52-1.37-.7-1.83a85.15,85.15,0,0,0,12,.81c-2-2.77-5.35-2.68-8.42-2.62a34.94,34.94,0,0,0,3.88-3.62C374.79,491.79,374.15,489.09,374.39,486.39Z" transform="translate(0 0)"/></g><g id="_b873e4ff" data-name="#b873e4ff"><path class="cls-195" d="M342.69,493.14c5.57,1.29,11.11-.62,16.67-.45,1.47,1.37,2.82,2.88,4.37,4.19.87-.09,1.74-.21,2.61-.33a8.43,8.43,0,0,0,4.39,1.57c3.07-.06,6.44-.15,8.42,2.62a85.15,85.15,0,0,1-12-.81c.18.46.53,1.37.7,1.83a25,25,0,0,1,4.64,3.13c-1.47,1.35-3,2.69-4.45,4,1.79-.14,3.58-.27,5.36-.45-6.19,2.6-12.79,4.17-18.69,7.45-.87.34-1.73.67-2.58,1-2.35-.16-4.88.13-7.06-.84-3.82-4.47-5.13-12.12-.52-16.51A43.62,43.62,0,0,0,342.69,493.14Z" transform="translate(0 0)"/></g><g id="_373463ff" data-name="#373463ff"><path class="cls-196" d="M525.37,501.34l2.89.42c.41,3.23.27,7.34-3.35,8.6A53.37,53.37,0,0,0,525.37,501.34Z" transform="translate(0 0)"/></g><g id="_c8649aff" data-name="#c8649aff"><path class="cls-197" d="M373.36,508.48c5.23-2,10.4-4.7,16.17-4.47v.8c-1.83.38-3.66.76-5.46,1.29-9.76,3.37-19.26,7.77-29.4,9.83C360.57,512.65,367.17,511.08,373.36,508.48Z" transform="translate(0 0)"/></g><g id="_ca5a5aff" data-name="#ca5a5aff"><path class="cls-198" d="M384.07,506.1c1.8-.53,3.63-.91,5.46-1.29,0,4.3-.16,8.6-.16,12.9l-1.48.16-3.63.07c3.76-2.91,4.78-8.18,3.19-12.54Z" transform="translate(0 0)"/></g><g id="_ed5739ff" data-name="#ed5739ff"><path class="cls-199" d="M384.07,506.1l3.38-.7c1.59,4.36.57,9.63-3.19,12.54l3.63-.07c-11.86,1.66-23.77,2.89-35.63,4.47a15.24,15.24,0,0,1-8.46-2.11c1.38-.25,2.76-.48,4.15-.69a23.92,23.92,0,0,1-7.3-.93c3.88.07,7.92.32,11.44-1.66.85-.35,1.71-.68,2.58-1C364.81,513.87,374.31,509.47,384.07,506.1Z" transform="translate(0 0)"/></g><g id="_cfb786ff" data-name="#cfb786ff"><path class="cls-200" d="M116.68,522.4l.54-2.26,2.78,1.51c.35,1.42.7,2.85,1,4.29l-.32-.48-1.08-1.58a14.79,14.79,0,0,1-4.2,4.93l-.27.15C115.58,526.75,116.16,524.58,116.68,522.4Z" transform="translate(0 0)"/></g><g id="_3c3851ff" data-name="#3c3851ff"><path class="cls-201" d="M116.68,522.4c-.37,1.55-1,4.14-1.53,6.66l.29-.25a14.79,14.79,0,0,0,4.2-4.93l1.08,1.58c-2.43,3.39-4.34,8.67-9,9.13A29.37,29.37,0,0,1,116.68,522.4Z" transform="translate(0 0)"/></g><g id="_fc982cff" data-name="#fc982cff"><path class="cls-202" d="M257.48,525.35c5-.37,9.95-.84,14.9-1.53.12,2.52-2.05,3.61-3.94,4.64,1.79.59,3.57,1.23,5.36,1.83-4.67,2-9.87,1.85-14.81,2.73-1.85.58-3.43-.47-5-1.31-1.27.57-2.52,1.16-3.8,1.7l-2-2.21,3.79-.65c-1.31-.34-2.62-.67-3.93-1,1.61-.64,3.22-1.26,4.84-1.89l-2.81-1.09C252.6,526.22,255,525.77,257.48,525.35Z" transform="translate(0 0)"/></g><g id="_d2c3a5ff" data-name="#d2c3a5ff"><path class="cls-203" d="M157.3,524.91c1.24.17,2.47.32,3.72.43l.32,3c-1.27.1-2.53.23-3.8.23l-1.12-.61C156.71,526.94,157,525.92,157.3,524.91Z" transform="translate(0 0)"/></g><g id="_fda82aff" data-name="#fda82aff"><path class="cls-204" d="M244.68,525.67c3.54-.62,7.15-.61,10.73-.9l2.07.58c-2.45.42-4.88.87-7.33,1.24l2.81,1.09c-1.62.63-3.23,1.25-4.84,1.89,1.31.31,2.62.64,3.93,1l-3.79.65,2,2.21c-5.08.72-10.13,2-15.28,2-2-1.75-.24-4.57-.2-6.76C238.09,527.77,241.29,526.4,244.68,525.67Z" transform="translate(0 0)"/></g><g id="_d9d1deff" data-name="#d9d1deff"><path class="cls-205" d="M115.17,529l.27-.15-.29.25Z" transform="translate(0 0)"/></g><g id="_343b5eff" data-name="#343b5eff"><path class="cls-206" d="M157.54,528.57c3.06-.26,9.94-.93,11.05,3.69a49.3,49.3,0,0,1-10.91-1.06C157.65,530.54,157.58,529.23,157.54,528.57Z" transform="translate(0 0)"/></g><g id="_efa75dff" data-name="#efa75dff"><path class="cls-207" d="M233.23,529.49l0-.44,1.48-.43c0,2.19-1.84,5,.2,6.76,5.15,0,10.2-1.25,15.28-2,1.28-.54,2.53-1.13,3.8-1.7,1.55.84,3.13,1.89,5,1.31,4.94-.88,10.14-.71,14.81-2.73,7.5,0,14.94-1.48,22.48-.9-21,3-42.84,5.67-64.32,8.17l.25-.73A18.14,18.14,0,0,0,233.23,529.49Z" transform="translate(0 0)"/></g><g id="_cca77bff" data-name="#cca77bff"><path class="cls-208" d="M463.26,536.52c1.13,0,2.27-.13,3.41-.25-.06.73-.2,2.17-.26,2.9l1.77,1.87c-1.27-.14-2.53-.3-3.78-.49l-.62-.83C463.65,538.64,463.48,537.57,463.26,536.52Z" transform="translate(0 0)"/></g><g id="_211b34ff" data-name="#211b34ff"><path class="cls-209" d="M460.2,539.58a10.76,10.76,0,0,1,3.58.14l.62.83c1.25.19,2.51.35,3.78.49-.37,1.26-.23,3.24-2.17,2.74C463.68,543.26,460.91,542.09,460.2,539.58Z" transform="translate(0 0)"/></g></svg>