<svg id="Capa_1" enable-background="new 0 0 512 512" height="512" viewBox="0 0 512 512" width="512" xmlns="http://www.w3.org/2000/svg"><g><path d="m457 202h-147v-122.458l37.481-56.221c3.068-4.603 3.354-10.521.744-15.398-2.61-4.878-7.693-7.923-13.225-7.923h-280c-30.327 0-55 24.673-55 55v200c0 30.327 24.673 55 55 55h147v122.458l-37.481 56.221c-3.068 4.603-3.354 10.521-.744 15.398s7.693 7.922 13.225 7.922h280c30.327 0 55-24.673 55-55v-199.999c0-30.327-24.673-55-55-55zm-402 78c-13.785 0-25-11.215-25-25v-200c0-13.785 11.215-25 25-25h251.972l-24.453 36.68c-1.643 2.464-2.519 5.359-2.519 8.32v180c0 13.785-11.215 25-25 25zm427 177c0 13.785-11.215 25-25 25h-251.972l24.453-36.68c1.643-2.464 2.519-5.359 2.519-8.32v-127h23c30.327 0 55-24.673 55-55v-23h147c13.785 0 25 11.215 25 25z"/><path d="m225 100h-55v-25c0-8.284-6.716-15-15-15s-15 6.716-15 15v25h-55c-8.284 0-15 6.716-15 15s6.716 15 15 15h10.006c.137 32.369 12.916 61.888 33.888 83.622-7.951 3.292-16.491 5.516-25.464 6.461-8.239.867-14.214 8.249-13.347 16.488.811 7.705 7.32 13.431 14.899 13.431.525 0 1.055-.027 1.589-.083 17.622-1.855 34.006-7.394 48.43-15.799 14.424 8.405 30.807 13.944 48.43 15.799.534.056 1.063.083 1.589.083 7.578 0 14.088-5.726 14.899-13.431.867-8.239-5.108-15.621-13.347-16.488-8.973-.944-17.513-3.169-25.464-6.461 20.971-21.734 33.75-51.253 33.888-83.622h10.004c8.284 0 15-6.716 15-15s-6.716-15-15-15zm-70 97.115c-18.396-16.615-29.838-40.583-29.988-67.115h59.975c-.149 26.532-11.591 50.5-29.987 67.115z"/><path d="m374.435 278.81c-2.726-7.132-9.544-11.819-17.178-11.81-7.622-.008-14.427 4.66-17.165 11.774l-56.325 147.887c-2.949 7.742.937 16.408 8.679 19.356 7.741 2.949 16.408-.938 19.356-8.679l10.348-27.17h69.791l10.238 27.128c2.917 7.828 11.781 11.646 19.33 8.737 7.75-2.925 11.663-11.579 8.737-19.33zm-40.858 101.358 23.63-62.042 23.414 62.042z"/></g></svg>